<svg width="40" height="40" viewBox="0 0 40 40" fill="none" xmlns="http://www.w3.org/2000/svg">
<path d="M6.24 3.76009C4.96 3.92009 4 4.64009 4 5.2001C4 6.0801 5.68 6.40009 11.44 6.56009L18.8 6.80009L19.04 9.3601C19.2 11.2801 18.8 12.4001 17.44 13.6001C12 18.3201 10.4 19.9201 10.4 20.7201C10.4 21.2001 10.96 21.3601 11.6 21.1201C13.36 20.4001 13.04 22.2401 11.2 23.2001C10.08 23.8401 9.6 24.8801 9.6 26.9601C9.6 29.4401 9.76 29.6801 10.8 28.8001C12.64 27.2801 13.28 28.5601 11.68 30.3201C10.56 31.5201 10.48 32.2401 11.12 33.5201C11.76 34.5601 12.48 34.9601 13.36 34.6401C14.32 34.2401 14.56 34.4801 14.16 35.3601C13.68 36.7201 15.04 37.6001 17.68 37.6001C19.2 37.6001 19.2 37.5201 17.84 35.6001C17.04 34.5601 15.76 33.4401 15.04 33.2001C13.36 32.6401 13.12 31.2001 14.72 31.2001C16.08 31.2001 15.44 27.2001 13.92 26.6401C13.28 26.4001 12.8 25.8401 12.8 25.4401C12.8 24.9601 13.28 24.8001 13.92 25.0401C15.28 25.6001 16.32 21.6001 15.12 20.4001C14.08 19.2801 14.24 18.1601 15.44 18.6401C16.48 19.0401 18.72 16.4001 18.8 14.8001C18.8 13.6801 21.04 13.8401 21.44 14.9601C21.6 15.5201 21.36 16.0001 20.8 16.0001C19.36 16.0001 16.8 22.5601 16.8 26.4001C16.8 36.6401 24.4 41.3601 28.08 33.3601C30.08 28.9601 30 23.6801 27.84 19.2001L26.16 15.6001L25.52 18.8001C25.2 20.5601 25.12 22.8001 25.36 23.8401C26.08 27.0401 24.88 31.2001 23.2 31.2001C20.4 31.2001 20.08 22.3201 22.88 21.2801C24.56 20.6401 24.24 16.1601 22.4 13.8401C21.28 12.3201 20.8 10.5601 20.8 7.5201V3.2001L14.64 3.28009C11.2 3.3601 7.44 3.60009 6.24 3.76009Z" fill="#8BA965"/>
<path d="M31.9999 4.08008C30.4799 4.48008 27.6799 4.56008 25.8399 4.32008C22.5599 3.84008 22.3999 3.92008 22.3999 5.84008C22.3999 7.60008 22.8799 7.92008 25.8399 8.32008C27.7599 8.64008 29.8399 8.72008 30.4799 8.48008C31.1199 8.32008 32.5599 7.92008 33.8399 7.68008C35.4399 7.28008 35.9999 6.72008 35.9999 5.20008C35.9999 4.08008 35.7599 3.20008 35.4399 3.28008C35.0399 3.36008 33.5199 3.68008 31.9999 4.08008Z" fill="#8BA965"/>
</svg>
