<svg width="37" height="37" viewBox="0 0 37 37" fill="none" xmlns="http://www.w3.org/2000/svg">
<path d="M16.5021 2.95978C16.2061 4.06978 15.5401 4.36578 13.7641 4.21778C11.6181 4.06978 11.4701 4.21778 11.6181 6.36378C11.7661 8.13978 11.4701 8.80578 10.3601 9.10178C8.36207 9.61978 8.36207 12.5798 10.3601 13.0978C11.4701 13.3938 11.7661 14.0598 11.6181 15.8358C11.4701 17.9818 11.6181 18.1298 13.7641 17.9818C15.5401 17.8338 16.2061 18.1298 16.5021 19.2398C17.0201 21.2378 19.9801 21.2378 20.4981 19.2398C20.7941 18.1298 21.4601 17.8338 23.2361 17.9818C25.3821 18.1298 25.5301 17.9818 25.3821 15.8358C25.2341 14.0598 25.5301 13.3938 26.6401 13.0978C28.6381 12.5798 28.6381 9.61978 26.6401 9.10178C25.5301 8.80578 25.2341 8.13978 25.3821 6.36378C25.5301 4.21778 25.3821 4.06978 23.2361 4.21778C21.4601 4.36578 20.7941 4.06978 20.4981 2.95978C20.2761 2.07178 19.4621 1.47978 18.5001 1.47978C17.5381 1.47978 16.7241 2.07178 16.5021 2.95978ZM20.7201 9.24978C22.6441 11.6178 19.7581 15.2438 17.2421 13.6158C15.5401 12.5798 15.1701 10.5818 16.2801 9.24978C17.4641 7.84378 19.5361 7.84378 20.7201 9.24978Z" fill="#8BA965"/>
<path d="M5.17995 22.2739C3.40395 23.0879 1.77595 23.9019 1.62795 24.0499C1.47995 24.1979 2.14595 26.1959 3.18195 28.4159C5.10595 32.4859 5.99395 33.1519 8.06595 31.8939C8.80595 31.4499 10.6559 31.9679 13.8379 33.5219C19.388 36.2599 19.5359 36.2599 29.0819 30.1179C35.2239 26.0479 36.778 24.1239 34.484 23.2359C33.374 22.7919 27.454 26.4179 24.938 29.0079C23.6059 30.3399 17.9079 30.8579 14.2819 29.8959C10.952 29.0079 12.6539 28.4159 18.3519 28.4899C23.5319 28.4899 24.0499 28.3419 24.0499 27.0099C24.0499 25.8259 23.3839 25.4559 20.424 25.0119C18.056 24.7159 16.132 23.8279 14.874 22.6439C12.4319 20.2759 9.69395 20.2019 5.17995 22.2739Z" fill="#8BA965"/>
<path d="M21.8299 22.1997L19.6099 23.6797H21.5339C22.6439 23.6797 24.2719 23.0137 25.2339 22.1997C26.9359 20.8677 26.9359 20.7937 25.5299 20.7197C24.7159 20.7197 23.0879 21.3857 21.8299 22.1997Z" fill="#8BA965"/>
<path d="M27.6019 22.7179C25.5299 23.7539 24.1979 25.8999 25.6039 25.8999C26.7879 25.8999 31.0799 22.7179 30.6359 22.1259C30.4139 21.7559 30.1919 21.4599 30.1179 21.5339C30.0439 21.5339 28.8599 22.1259 27.6019 22.7179Z" fill="#8BA965"/>
</svg>
