<svg width="50" height="50" viewBox="0 0 50 50" fill="none" xmlns="http://www.w3.org/2000/svg">
<path d="M20.2041 10.7692C19.6749 11.2228 18.3896 12.0544 17.2556 12.508C16.1971 12.9617 15.0631 14.1713 14.7607 15.0785C14.4583 16.0613 13.7779 17.271 13.2487 17.7246C12.1146 18.8586 12.2658 27.0237 13.3999 27.7041C13.8535 28.0065 14.4583 28.9893 14.7607 29.9722C14.9875 30.955 16.1971 32.089 17.2556 32.6182C18.3896 33.0718 19.5236 33.8279 19.8261 34.2059C20.5065 35.2643 28.6715 35.3399 29.7299 34.3571C30.2592 33.9035 31.5444 33.0718 32.6784 32.6182C33.7369 32.1646 34.8709 30.955 35.1733 30.0478C35.4757 29.0649 36.1561 27.8553 36.6854 27.4017C37.7438 26.2676 37.7438 18.1782 36.6098 17.4222C36.2317 17.1198 35.4757 15.9857 35.0221 14.8517C34.4929 13.7933 33.3589 12.5836 32.376 12.3568C31.3932 12.0544 30.4104 11.4496 30.108 10.996C29.4275 9.93757 21.2625 9.71076 20.2041 10.7692ZM28.9739 22.4119C27.4619 24.7556 25.8742 27.2505 25.4962 28.0065C24.7402 29.0649 24.3622 28.9137 21.4137 26.5701C19.6749 25.1336 18.3896 23.546 18.6164 23.168C18.8432 22.7899 19.9773 23.3192 21.1113 24.3776C22.2453 25.436 23.5306 26.3433 23.9842 26.3433C24.4378 26.3433 26.101 24.302 27.6131 21.8071C29.1251 19.3122 30.7128 17.4222 31.0908 17.649C31.4688 17.9514 30.5616 20.0683 28.9739 22.4119Z" fill="#8BA965"/>
<path d="M14.7608 37.0789C14.0804 38.8934 13.3244 40.7834 13.0976 41.2371C12.7951 41.9175 13.6268 42.2199 15.8192 42.2199C18.2385 42.2199 19.1457 42.5979 20.1286 44.1099C20.809 45.1684 21.6406 46 21.943 46C22.6234 46 26.4035 37.1545 25.9499 36.6253C25.7231 36.3985 24.5891 36.4741 23.3795 36.7009C21.8674 37.0033 20.6578 36.6253 19.2213 35.4913C18.0873 34.6597 16.9533 33.9036 16.6509 33.9036C16.3484 33.9036 15.4412 35.3401 14.7608 37.0789Z" fill="#8BA965"/>
<path d="M30.2591 35.7937C26.9326 38.213 25.4962 41.6151 26.6302 44.1099C27.6886 46.4536 28.369 46.4536 29.9567 44.1099C30.9395 42.5979 31.8467 42.2199 34.1148 42.2199C35.7781 42.2199 37.0633 41.9931 37.0633 41.7663C37.0633 40.7834 33.8124 33.9036 33.3588 33.9036C33.0564 33.9036 31.6955 34.7352 30.2591 35.7937Z" fill="#8BA965"/>
</svg>
