<svg width="38" height="38" viewBox="0 0 38 38" fill="none" xmlns="http://www.w3.org/2000/svg">
<path d="M8.90625 12.1721V21.1377H5.81875H2.67188L10.8656 29.2721L19 37.4658L27.1344 29.2721L35.3281 21.1377H32.1812H29.0938V12.8846V4.63144L25.1156 4.27519C22.8594 4.09707 18.3469 3.80019 15.0219 3.56269L8.90625 3.20644V12.1721ZM20.1875 9.50019C20.1875 9.97519 20.8406 10.5096 21.6125 10.6877C22.6812 10.9252 22.9781 11.3408 22.7406 12.1721C22.5031 13.1221 21.9688 13.3002 20.0688 13.2408C16.6844 13.0627 16.625 14.2502 19.8312 16.2096C21.3156 17.1002 22.8 18.5252 23.1562 19.3564C23.9875 21.3158 23.0969 23.8689 21.4344 24.4033C20.7219 24.5814 20.1875 25.1752 20.1875 25.6502C20.1875 26.1252 19.6531 26.4814 19 26.4814C18.3469 26.4814 17.8125 26.1252 17.8125 25.7096C17.8125 25.2939 16.9812 24.6408 15.9719 24.2846C14.4281 23.6908 14.25 23.4533 14.7844 22.3846C15.3187 21.3752 15.675 21.3158 17.1 21.8502C21.375 23.5127 22.0281 20.4252 17.9312 17.8721C15.7344 16.4471 15.0813 15.7346 14.9625 14.2502C14.8438 12.8252 15.1406 12.1127 16.2688 11.1627C17.1594 10.5096 17.8125 9.67832 17.8125 9.32207C17.8125 8.96582 18.3469 8.66894 19 8.66894C19.6531 8.66894 20.1875 9.02519 20.1875 9.50019Z" fill="#8BA965"/>
</svg>
