<?xml version="1.0" encoding="utf-8"?>
<!-- Generator: Adobe Illustrator 24.0.2, SVG Export Plug-In . SVG Version: 6.00 Build 0)  -->
<svg version="1.1" id="Слой_1" xmlns="http://www.w3.org/2000/svg" xmlns:xlink="http://www.w3.org/1999/xlink" x="0px" y="0px"
	 viewBox="0 0 52 52" style="enable-background:new 0 0 52 52;" xml:space="preserve">
<style type="text/css">
	.st0{fill:#434242;}
</style>
<g>
	<path class="st0" d="M12.5,10c-0.6,0.9-1.8,2.9-2.3,4.5c-1,2.6-1.4,3-3,3c-1.2,0-2.3,0.5-2.9,1.4c-1.5,2.1-1.3,3.8,0.3,3.8
		c1.1,0,1.2,0.3,0.8,1.1c-0.3,0.6-0.6,5.3-0.6,10.3v9.1h3.3c2.9,0,3.2-0.2,3.4-1.5l0.2-1.4H26h14.2l0.2,1.4c0.2,1.3,0.6,1.5,3.4,1.5
		h3.3v-9.1c0-5-0.3-9.6-0.6-10.3c-0.4-0.8-0.3-1.1,0.8-1.1c1.6,0,1.8-1.7,0.3-3.8c-0.6-0.9-1.7-1.4-2.8-1.4c-1.6,0-2-0.5-3.3-3.6
		c-2.2-5.5-2.3-5.5-16-5.5C13.8,8.5,13.7,8.5,12.5,10z M38.5,10.9c0.6,0.6,1.7,2.8,2.5,4.9c1.2,3.3,1.6,3.6,2.9,3.3
		c1.6-0.4,3.5,0.6,3.5,1.8c0,0.3-0.9,0.6-2,0.6h-2l1.4,2.2c1.2,1.9,1.4,3.2,1.4,10.4v8.2h-2.3c-2,0-2.3-0.2-2.3-1.6V39H26H10.4v1.6
		c0,1.4-0.3,1.6-2.3,1.6H5.9v-8.2c0-7.2,0.2-8.5,1.4-10.4l1.4-2.2h-2c-1.1,0-2-0.3-2-0.6c0-1.1,1.9-2.1,3.5-1.8
		c1.4,0.3,1.7,0,2.9-3.3c2.4-6.2,1.9-6,15-6C36.1,9.8,37.6,9.9,38.5,10.9z"/>
	<path class="st0" d="M9.8,22.1c0,0.3,0.3,0.6,0.6,0.6c0.4,0,0.7-0.3,0.7-0.6c0-0.4-0.3-0.6-0.7-0.6C10.1,21.5,9.8,21.7,9.8,22.1z"
		/>
	<path class="st0" d="M12.3,22.1c0,0.3,0.3,0.6,0.7,0.6c0.4,0,0.6-0.3,0.6-0.6c0-0.4-0.3-0.6-0.6-0.6C12.7,21.5,12.3,21.7,12.3,22.1
		z"/>
	<path class="st0" d="M15,22.1c0,0.3,0.3,0.6,0.6,0.6c0.4,0,0.7-0.3,0.7-0.6c0-0.4-0.3-0.6-0.7-0.6C15.3,21.5,15,21.7,15,22.1z"/>
	<path class="st0" d="M17.5,22.1c0,0.3,0.3,0.6,0.6,0.6c0.4,0,0.6-0.3,0.6-0.6c0-0.4-0.3-0.6-0.6-0.6C17.9,21.5,17.5,21.7,17.5,22.1
		z"/>
	<path class="st0" d="M20.2,22.1c0,0.3,0.3,0.6,0.6,0.6c0.4,0,0.6-0.3,0.6-0.6c0-0.4-0.3-0.6-0.6-0.6C20.5,21.5,20.2,21.7,20.2,22.1
		z"/>
	<path class="st0" d="M22.8,22.1c0,0.3,0.3,0.6,0.6,0.6c0.4,0,0.6-0.3,0.6-0.6c0-0.4-0.3-0.6-0.6-0.6C23.1,21.5,22.8,21.7,22.8,22.1
		z"/>
	<path class="st0" d="M25.3,22.1c0,0.3,0.3,0.6,0.6,0.6c0.4,0,0.6-0.3,0.6-0.6c0-0.4-0.3-0.6-0.6-0.6C25.7,21.5,25.3,21.7,25.3,22.1
		z"/>
	<path class="st0" d="M28,22.1c0,0.3,0.3,0.6,0.7,0.6c0.4,0,0.6-0.3,0.6-0.6c0-0.4-0.3-0.6-0.6-0.6C28.3,21.5,28,21.7,28,22.1z"/>
	<path class="st0" d="M30.5,22.1c0,0.3,0.3,0.6,0.6,0.6c0.4,0,0.6-0.3,0.6-0.6c0-0.4-0.3-0.6-0.6-0.6C30.9,21.5,30.5,21.7,30.5,22.1
		z"/>
	<path class="st0" d="M33.2,22.1c0,0.3,0.3,0.6,0.7,0.6c0.4,0,0.7-0.3,0.7-0.6c0-0.4-0.3-0.6-0.7-0.6C33.5,21.5,33.2,21.7,33.2,22.1
		z"/>
	<path class="st0" d="M35.8,22.1c0,0.3,0.3,0.6,0.7,0.6c0.4,0,0.6-0.3,0.6-0.6c0-0.4-0.3-0.6-0.6-0.6C36.1,21.5,35.8,21.7,35.8,22.1
		z"/>
	<path class="st0" d="M38.3,22.1c0,0.3,0.3,0.6,0.6,0.6c0.4,0,0.7-0.3,0.7-0.6c0-0.4-0.3-0.6-0.7-0.6C38.7,21.5,38.3,21.7,38.3,22.1
		z"/>
	<path class="st0" d="M41,22.1c0,0.3,0.3,0.6,0.7,0.6c0.4,0,0.6-0.3,0.6-0.6c0-0.4-0.3-0.6-0.6-0.6C41.3,21.5,41,21.7,41,22.1z"/>
	<path class="st0" d="M9.5,25.7c-2,2-0.6,5.5,2.2,5.5c1.6,0,3.3-1.7,3.3-3.3c0-1.6-1.7-3.3-3.3-3.3C11.1,24.7,10,25.2,9.5,25.7z
		 M13.3,28c0,1.2-0.4,1.7-1.5,1.8c-1.6,0.3-2.5-1.2-1.8-2.9c0.2-0.6,1-0.9,1.8-0.8C12.9,26.3,13.3,26.8,13.3,28z"/>
	<path class="st0" d="M38.1,25.7c-2,2-0.6,5.5,2.2,5.5c1.6,0,3.3-1.7,3.3-3.3c0-1.6-1.7-3.3-3.3-3.3C39.6,24.7,38.6,25.2,38.1,25.7z
		 M41.9,28c0,1.2-0.4,1.7-1.5,1.8c-0.8,0.1-1.6-0.2-1.8-0.8c-0.7-1.7,0.3-3.1,1.8-2.9C41.5,26.3,41.9,26.8,41.9,28z"/>
	<path class="st0" d="M17.5,26.7c0,0.4,3.3,0.7,8.4,0.7s8.4-0.3,8.4-0.7c0-0.4-3.2-0.6-8.4-0.6S17.5,26.3,17.5,26.7z"/>
	<path class="st0" d="M18.8,29.9c0,0.4,2.8,0.7,7.1,0.7s7.2-0.3,7.2-0.7c0-0.4-2.8-0.6-7.2-0.6S18.8,29.5,18.8,29.9z"/>
	<path class="st0" d="M7.2,35.7c0,0.3,0.3,0.6,0.6,0.6c0.4,0,0.7-0.3,0.7-0.6c0-0.4-0.3-0.7-0.7-0.7C7.5,35.1,7.2,35.4,7.2,35.7z"/>
	<path class="st0" d="M9.8,35.7c0,0.3,0.3,0.6,0.6,0.6c0.4,0,0.7-0.3,0.7-0.6c0-0.4-0.3-0.7-0.7-0.7C10.1,35.1,9.8,35.4,9.8,35.7z"
		/>
	<path class="st0" d="M12.3,35.7c0,0.3,0.3,0.6,0.7,0.6c0.4,0,0.6-0.3,0.6-0.6c0-0.4-0.3-0.7-0.6-0.7C12.7,35.1,12.3,35.4,12.3,35.7
		z"/>
	<path class="st0" d="M15,35.7c0,0.3,0.3,0.6,0.6,0.6c0.4,0,0.7-0.3,0.7-0.6c0-0.4-0.3-0.7-0.7-0.7C15.3,35.1,15,35.4,15,35.7z"/>
	<path class="st0" d="M17.5,35.7c0,0.3,0.3,0.6,0.6,0.6c0.4,0,0.6-0.3,0.6-0.6c0-0.4-0.3-0.7-0.6-0.7C17.9,35.1,17.5,35.4,17.5,35.7
		z"/>
	<path class="st0" d="M20.2,35.7c0,0.3,0.3,0.6,0.6,0.6c0.4,0,0.6-0.3,0.6-0.6c0-0.4-0.3-0.7-0.6-0.7C20.5,35.1,20.2,35.4,20.2,35.7
		z"/>
	<path class="st0" d="M22.8,35.7c0,0.3,0.3,0.6,0.6,0.6c0.4,0,0.6-0.3,0.6-0.6c0-0.4-0.3-0.7-0.6-0.7C23.1,35.1,22.8,35.4,22.8,35.7
		z"/>
	<path class="st0" d="M25.3,35.7c0,0.3,0.3,0.6,0.6,0.6c0.4,0,0.6-0.3,0.6-0.6c0-0.4-0.3-0.7-0.6-0.7C25.7,35.1,25.3,35.4,25.3,35.7
		z"/>
	<path class="st0" d="M28,35.7c0,0.3,0.3,0.6,0.7,0.6c0.4,0,0.6-0.3,0.6-0.6c0-0.4-0.3-0.7-0.6-0.7C28.3,35.1,28,35.4,28,35.7z"/>
	<path class="st0" d="M30.5,35.7c0,0.3,0.3,0.6,0.6,0.6c0.4,0,0.6-0.3,0.6-0.6c0-0.4-0.3-0.7-0.6-0.7C30.9,35.1,30.5,35.4,30.5,35.7
		z"/>
	<path class="st0" d="M33.2,35.7c0,0.3,0.3,0.6,0.7,0.6c0.4,0,0.7-0.3,0.7-0.6c0-0.4-0.3-0.7-0.7-0.7C33.5,35.1,33.2,35.4,33.2,35.7
		z"/>
	<path class="st0" d="M35.8,35.7c0,0.3,0.3,0.6,0.7,0.6c0.4,0,0.6-0.3,0.6-0.6c0-0.4-0.3-0.7-0.6-0.7C36.1,35.1,35.8,35.4,35.8,35.7
		z"/>
	<path class="st0" d="M38.3,35.7c0,0.3,0.3,0.6,0.6,0.6c0.4,0,0.7-0.3,0.7-0.6c0-0.4-0.3-0.7-0.7-0.7C38.7,35.1,38.3,35.4,38.3,35.7
		z"/>
	<path class="st0" d="M41,35.7c0,0.3,0.3,0.6,0.7,0.6c0.4,0,0.6-0.3,0.6-0.6c0-0.4-0.3-0.7-0.6-0.7C41.3,35.1,41,35.4,41,35.7z"/>
	<path class="st0" d="M43.5,35.7c0,0.3,0.3,0.6,0.6,0.6c0.4,0,0.7-0.3,0.7-0.6c0-0.4-0.3-0.7-0.7-0.7C43.9,35.1,43.5,35.4,43.5,35.7
		z"/>
</g>
</svg>
