<svg width="39" height="39" viewBox="0 0 39 39" fill="none" xmlns="http://www.w3.org/2000/svg">
<path d="M3.35135 2.13281C2.01072 3.4125 1.82791 4.20469 1.76697 8.34844C1.58416 15.1734 1.58416 19.4391 1.70603 27.9094C1.82791 34.9781 1.88885 35.4656 3.35135 36.8672L4.81385 38.3906H19.4998H34.1857L35.6482 36.8672L37.1717 35.4047V19.5V3.59531L35.6482 2.13281L34.1857 0.609375H19.4998H4.81385L3.35135 2.13281ZM33.6982 1.88906C36.3185 3.04688 36.5623 4.69219 36.5623 19.5C36.5623 34.3078 36.3185 35.9531 33.6982 37.1109C31.6873 38.025 7.31228 38.025 5.30135 37.1109C2.68103 35.9531 2.43728 34.3078 2.43728 19.5C2.43728 4.875 2.74197 3.10781 5.11853 1.95C6.94666 1.03594 31.8092 1.03594 33.6982 1.88906Z" fill="#272727"/>
<path d="M5.60625 4.99707C4.63125 5.97207 4.63125 12.3096 5.60625 13.2846C6.64219 14.3205 32.3578 14.3205 33.3938 13.2846C34.3688 12.3096 34.3688 5.97207 33.3938 4.99707C32.3578 3.96113 6.64219 3.96113 5.60625 4.99707ZM32.7844 5.60645C33.7594 6.58145 33.7594 11.7002 32.7844 12.6752C32.2359 13.2236 28.4578 13.4064 19.3781 13.4064C5.24063 13.4064 5.48438 13.4674 5.48438 8.89707C5.48438 4.99707 5.97188 4.8752 19.7438 4.8752C28.5188 4.8752 32.2359 5.05801 32.7844 5.60645Z" fill="#272727"/>
<path d="M10.7858 16.2701C10.5421 16.453 10.3593 17.1233 10.3593 17.7326C10.3593 18.403 9.81084 18.8905 9.01865 19.0123C6.88584 19.317 6.76396 21.7545 8.7749 22.303C9.7499 22.5467 10.3593 23.0951 10.3593 23.7655C10.3593 25.228 11.9436 25.7155 13.1015 24.6186C13.589 24.0701 14.0155 23.4608 14.0155 23.1561C14.0155 22.9123 14.564 22.5467 15.2343 22.3639C16.8186 21.9373 16.8796 19.4998 15.2952 19.0733C14.6858 18.9514 13.8327 18.0983 13.4671 17.3061C12.8577 15.9045 11.578 15.417 10.7858 16.2701ZM12.7968 18.2201C12.7968 18.9514 13.2843 19.4998 14.1374 19.6217C15.9655 19.8655 16.2093 21.2061 14.503 21.4498C13.589 21.5717 13.0405 22.1201 12.9186 23.0342C12.6749 24.7405 11.3343 24.4967 11.0905 22.6686C10.9686 21.8155 10.4202 21.328 9.68896 21.328C8.16552 21.328 8.16552 20.1092 9.7499 19.6826C10.4202 19.4998 10.9686 18.8295 10.9686 18.2201C10.9686 17.5498 11.3952 17.0623 11.8827 17.0623C12.3702 17.0623 12.7968 17.6108 12.7968 18.2201Z" fill="#272727"/>
<path d="M22.79 19.8047C21.9978 21.8156 23.0337 22.5469 26.69 22.5469C30.4681 22.5469 32.1743 21.5719 31.4431 19.8047C30.9556 18.525 23.2775 18.4641 22.79 19.8047ZM30.3462 20.5359C30.529 21.1453 29.554 21.3281 26.8728 21.3281C23.3993 21.3281 22.5462 20.9625 23.5821 19.8656C24.3134 19.1344 30.0415 19.7437 30.3462 20.5359Z" fill="#272727"/>
<path d="M25.4112 27.2392C24.619 27.9705 24.9846 30.408 25.9596 30.9564C26.8737 31.4439 26.8737 31.5658 25.9596 31.8705C24.6799 32.358 24.6799 35.283 25.9596 35.7705C28.2752 36.6236 30.0424 33.8205 28.3362 32.0533C27.7877 31.5049 27.6049 31.0783 27.9705 31.0783C28.9455 31.0783 29.4331 28.6408 28.6409 27.7267C27.8487 26.7517 26.0815 26.508 25.4112 27.2392ZM27.8487 29.4939C27.6049 30.0424 27.1784 30.4689 26.8127 30.4689C25.7768 30.4689 25.3502 28.5799 26.2643 27.9705C27.3612 27.3002 28.3362 28.2752 27.8487 29.4939ZM27.8487 33.272C28.3362 34.4908 27.3612 35.4658 26.2643 34.7955C25.3502 34.1861 25.7768 32.297 26.8127 32.297C27.1784 32.297 27.6049 32.7236 27.8487 33.272Z" fill="#272727"/>
<path d="M8.34846 28.7626C8.22659 29.1891 8.34846 30.0423 8.65315 30.5907C8.95784 31.261 8.95784 32.1141 8.65315 32.7235C8.34846 33.3329 8.22659 34.186 8.34846 34.5516C8.71409 35.5266 10.725 35.5876 11.3344 34.6735C11.5781 34.186 11.8828 34.186 12.3703 34.6735C14.1375 36.4407 16.8188 34.4907 15.2344 32.6016C14.625 31.8704 14.625 31.5048 15.2344 30.7735C15.661 30.286 15.8438 29.4329 15.6 28.9454C15.2344 27.9095 13.0406 27.7266 12.4313 28.7016C12.1875 29.1891 11.8828 29.1891 11.3953 28.7016C10.4813 27.7876 8.71409 27.8485 8.34846 28.7626ZM10.9688 29.5548C11.7 30.4079 11.8828 30.4079 12.8578 29.4938C14.3203 28.2141 15.1735 28.8845 14.1375 30.4688C13.5281 31.4438 13.5281 31.9313 14.1375 32.9063C15.1735 34.4907 14.3203 35.161 12.8578 33.8813C11.8828 32.9673 11.7 32.9673 10.9688 33.8204C10.4203 34.4907 9.99377 34.6126 9.56721 34.186C9.14065 33.7595 9.20159 33.272 9.75002 32.6016C10.3594 31.8704 10.3594 31.4438 9.8719 30.9563C9.01877 30.1032 8.8969 28.6407 9.68909 28.6407C9.99377 28.6407 10.5422 29.0673 10.9688 29.5548Z" fill="#272727"/>
</svg>
