<?xml version="1.0" encoding="utf-8"?>
<!-- Generator: Adobe Illustrator 24.0.2, SVG Export Plug-In . SVG Version: 6.00 Build 0)  -->
<svg version="1.1" id="Слой_1" xmlns="http://www.w3.org/2000/svg" xmlns:xlink="http://www.w3.org/1999/xlink" x="0px" y="0px"
	 viewBox="0 0 33 16" style="enable-background:new 0 0 33 16;" xml:space="preserve">
<style type="text/css">
	.st0{fill:#464545;}
</style>
<g>
	<path class="st0" d="M1.4,14.4c-0.2-0.1-0.3-0.3-0.3-0.6c0-0.2,0.1-0.4,0.2-0.6c0.2-0.3,0.6-0.7,1.1-1.2c1.1-1,3-2.5,6.1-4.9
		c2.1-1.7,4.1-3.2,5.6-4.2c0.7-0.5,1.3-1,1.8-1.3c0.2-0.2,0.4-0.3,0.5-0.4c0.1,0,0.1-0.1,0.2-0.1c0,0,0.1,0,0.1,0c0,0,0,0,0,0
		c0,0,0.1,0,0.2,0c0.1,0,0.2,0,0.2,0c0,0,0,0,0,0c0,0,0.1,0,0.1,0c0.1,0,0.1,0.1,0.2,0.1c0.1,0.1,0.3,0.2,0.5,0.4
		c0.4,0.3,1.1,0.7,1.8,1.3C21,3.9,23,5.4,25.2,7.1c3.1,2.4,5,3.9,6.1,4.9c0.5,0.5,0.9,0.9,1.1,1.2c0.1,0.2,0.2,0.4,0.2,0.6
		c0,0.3-0.1,0.5-0.3,0.6c-0.3,0.3-0.7,0.2-1.1,0.1c-0.4-0.1-0.9-0.4-1.5-0.7c-1.2-0.8-3.1-2.1-5.9-4.3l-6.9-5.3L9.9,9.5
		C7,11.7,5.2,13,4,13.8c-0.6,0.4-1.1,0.6-1.5,0.7C2.1,14.7,1.7,14.7,1.4,14.4z"/>
	<path class="st0" d="M2,15.1c-0.4,0-0.7-0.1-0.9-0.3l0,0c-0.3-0.2-0.5-0.6-0.5-0.9c0-0.3,0.1-0.6,0.2-0.9c0.2-0.4,0.6-0.8,1.2-1.4
		c1-1,2.8-2.4,6.1-4.9c2-1.5,3.9-3,5.6-4.2c0.7-0.5,1.4-1,1.8-1.3C15.7,1,15.9,0.9,16,0.8c0.1-0.1,0.2-0.1,0.2-0.1
		c0,0,0.1,0,0.1-0.1c0.1-0.1,0.4-0.1,0.7,0l0.1,0c0,0,0,0,0,0l0.1,0c0,0,0,0,0,0c0.1,0,0.1,0.1,0.2,0.1c0.1,0.1,0.3,0.2,0.6,0.4
		c0.4,0.3,1.1,0.7,1.8,1.3c1.6,1.2,3.6,2.7,5.6,4.2c3.3,2.5,5.1,4,6.1,4.9c0.6,0.6,1,1,1.2,1.4c0.2,0.3,0.2,0.6,0.2,0.9
		c0,0.4-0.2,0.7-0.5,0.9c-0.4,0.3-1,0.4-1.6,0.2c-0.4-0.1-0.9-0.4-1.6-0.8c-1.2-0.7-2.9-2-5.9-4.3l-6.6-5l-6.6,5
		c-3.1,2.4-4.8,3.6-5.9,4.3c-0.7,0.4-1.2,0.7-1.6,0.8C2.4,15.1,2.2,15.1,2,15.1z M16.7,1.5L16.7,1.5c-0.1,0-0.2,0.1-0.2,0.1
		C16.4,1.7,16.2,1.8,16,2c-0.4,0.3-1,0.7-1.8,1.3C12.6,4.5,10.6,6,8.7,7.5c-3.3,2.5-5,3.9-6,4.9c-0.5,0.5-0.8,0.8-1,1.1
		c-0.1,0.1-0.1,0.2-0.1,0.3c0,0,0,0.1,0.1,0.2l0,0c0.1,0.1,0.3,0.2,0.7,0c0.3-0.1,0.8-0.3,1.4-0.7c1.1-0.7,2.8-1.9,5.9-4.3l7.2-5.5
		L24,9.1c3,2.3,4.7,3.6,5.9,4.3c0.6,0.4,1,0.6,1.4,0.7c0.4,0.1,0.6,0,0.7,0c0.1-0.1,0.1-0.2,0.1-0.2c0-0.1,0-0.2-0.1-0.3
		c-0.1-0.3-0.5-0.6-1-1.1c-1-0.9-2.7-2.3-6-4.9c-2-1.5-4-3-5.6-4.2c-0.7-0.5-1.3-1-1.8-1.3c-0.2-0.1-0.4-0.3-0.5-0.3
		c0,0-0.1-0.1-0.1-0.1L16.7,1.5z"/>
</g>
</svg>
