<svg width="35" height="35" viewBox="0 0 35 35" fill="none" xmlns="http://www.w3.org/2000/svg">
<path d="M13.9274 4.53041L13.9274 4.53044L13.9225 4.52908C13.1053 4.30501 12.6103 4.30697 12.271 4.44506C11.9491 4.57604 11.6589 4.87538 11.3674 5.53428L11.3674 5.53429L11.3657 5.53811C11.2375 5.82151 11.1254 6.06401 11.0145 6.25745C10.9025 6.45284 10.7714 6.63571 10.5877 6.77565C10.2149 7.05969 9.75099 7.0625 9.26953 7.0625C8.62163 7.0625 8.15054 7.26067 7.84232 7.56889C7.53411 7.8771 7.33594 8.34819 7.33594 8.99609C7.33594 9.47755 7.33312 9.94145 7.04908 10.3143C6.90915 10.4979 6.72628 10.6291 6.53089 10.7411C6.33745 10.852 6.09495 10.9641 5.81156 11.0923L5.80772 11.094C5.14881 11.3854 4.84947 11.6756 4.7185 11.9975C4.58041 12.3369 4.57845 12.8319 4.80251 13.649L4.80254 13.649L4.80385 13.654C4.93402 14.1487 5.03522 14.5687 4.92232 14.9826C4.81573 15.3735 4.53043 15.701 4.1952 16.0858L4.17919 16.1042C4.179 16.1044 4.17881 16.1046 4.17862 16.1048C3.70188 16.657 3.52148 17.1052 3.52148 17.5C3.52148 17.895 3.70202 18.3433 4.17919 18.8958L4.1952 18.9142C4.53043 19.299 4.81573 19.6265 4.92232 20.0174C5.03522 20.4313 4.93402 20.8513 4.80385 21.346L4.80388 21.346L4.80251 21.351C4.57845 22.1681 4.58041 22.6631 4.7185 23.0025C4.84947 23.3244 5.14881 23.6146 5.80772 23.906L5.80854 23.9064L5.83008 23.9159C6.11929 24.0445 6.36911 24.1555 6.56375 24.266C6.76938 24.3828 6.96345 24.5257 7.10272 24.7423C7.24148 24.9582 7.29181 25.1944 7.31444 25.4307C7.33596 25.6556 7.33595 25.9322 7.33594 26.2542L7.33594 26.2773C7.33594 26.8145 7.37133 27.1218 7.44646 27.3447C7.51474 27.5472 7.62732 27.7135 7.86391 27.9383L7.87277 27.9467L7.88121 27.9555C8.3068 28.4014 9.20967 28.6629 10.1102 28.5196C10.2833 28.4872 10.4212 28.5486 10.4743 28.5751C10.5454 28.6105 10.604 28.6554 10.6461 28.691C10.7324 28.7642 10.8183 28.8586 10.8969 28.9544C11.0565 29.1491 11.2343 29.4096 11.3946 29.6857C11.6955 30.1777 12.0011 30.4316 12.349 30.5468C12.7123 30.6671 13.2033 30.6636 13.9253 30.4702L13.9253 30.47L13.9365 30.4673C14.418 30.3502 14.8288 30.2553 15.2424 30.3587C15.6447 30.4593 15.9921 30.7339 16.4221 31.0857L16.423 31.0864C17.0027 31.5631 17.4175 31.7314 17.7734 31.7314C18.1294 31.7314 18.5442 31.5631 19.1238 31.0864L19.1248 31.0857C19.5547 30.7339 19.9022 30.4593 20.3045 30.3587C20.7181 30.2553 21.1289 30.3502 21.6104 30.4673L21.6195 30.4695L21.6285 30.4721C22.4073 30.6927 22.9182 30.6895 23.2665 30.5574C23.592 30.4339 23.866 30.1624 24.0926 29.6138L24.0924 29.6138L24.0972 29.6029C24.3027 29.1372 24.5006 28.7515 24.8527 28.4727C25.1972 28.2 25.6353 28.0728 26.1913 27.9505C26.9323 27.7679 27.3537 27.5519 27.6179 27.2753C27.8764 27.0046 28.0442 26.6124 28.1332 25.9384L28.1334 25.9369C28.2003 25.4419 28.278 25.0105 28.5632 24.6619C28.8362 24.3282 29.2539 24.1295 29.766 23.9062C30.4081 23.6162 30.7018 23.3275 30.8307 23.0052C30.967 22.6644 30.9683 22.1677 30.7444 21.351L30.7424 21.344L30.7407 21.3369C30.6236 20.8555 30.5287 20.4447 30.6321 20.0311C30.7327 19.6288 31.0073 19.2813 31.3591 18.8513L31.3599 18.8504C31.8295 18.2792 32.0049 17.8355 32.0049 17.4521C32.0049 17.0721 31.8324 16.6446 31.3681 16.1046C31.3677 16.1042 31.3674 16.1038 31.3671 16.1035L31.3517 16.0858C31.0164 15.701 30.7311 15.3735 30.6245 14.9826C30.5117 14.5687 30.6128 14.1487 30.743 13.654L30.743 13.654L30.7444 13.649C30.9684 12.8319 30.9665 12.3369 30.8284 11.9975C30.6974 11.6756 30.3981 11.3854 29.7391 11.094L29.7391 11.094L29.7353 11.0923C29.4519 10.9641 29.2094 10.852 29.016 10.7411C28.8206 10.6291 28.6377 10.4979 28.4978 10.3143C28.2137 9.94145 28.2109 9.47755 28.2109 8.99609C28.2109 8.34819 28.0128 7.8771 27.7045 7.56889C27.3963 7.26067 26.9252 7.0625 26.2773 7.0625C25.7959 7.0625 25.332 7.05969 24.9592 6.77565C24.7755 6.63571 24.6443 6.45284 24.5323 6.25745C24.4215 6.06401 24.3094 5.82151 24.1811 5.53812L24.1794 5.53428C23.888 4.87538 23.5978 4.57604 23.2759 4.44506C22.9365 4.30697 22.4416 4.30501 21.6244 4.52908L21.6244 4.5291L21.6194 4.53041C21.1248 4.66059 20.7048 4.76178 20.2908 4.64889C19.9 4.54229 19.5725 4.257 19.1876 3.92176L19.1707 3.90697C19.1702 3.90657 19.1698 3.90617 19.1693 3.90576C18.6405 3.45298 18.0972 3.23438 17.7734 3.23438C17.4497 3.23438 16.9063 3.45298 16.3776 3.90576C16.3771 3.90616 16.3766 3.90657 16.3762 3.90697L16.3592 3.92175C15.9744 4.25699 15.6469 4.54229 15.2561 4.64889C14.8421 4.76178 14.4221 4.66059 13.9274 4.53041Z" fill="#8BC571" stroke="#646262"/>
<path d="M19.9338 16.0495L15.8143 20.1689L14.0285 18.383L12.2426 16.5971L11.0996 17.7401L9.98047 18.8831L12.8379 21.5976C14.4094 23.0977 15.7429 24.3121 15.8143 24.3359C15.8858 24.3359 18.2907 21.9786 21.172 19.0974L26.3867 13.8588L25.4581 12.9063C24.958 12.3825 24.4103 11.9539 24.2675 11.9539C24.1484 11.9539 22.1721 13.8112 19.9338 16.0495Z" fill="white"/>
</svg>
