<svg width="37" height="37" viewBox="0 0 37 37" fill="none" xmlns="http://www.w3.org/2000/svg">
<path d="M0 9.25015C0 10.7147 0.539583 10.7918 10.7917 10.7918H21.5833V17.8064V24.821L16.4187 24.3585C7.70833 23.5877 7.4 23.5877 6.0125 24.2043C3.93125 25.1293 4.23958 22.7397 6.32083 21.2752C8.01667 20.0418 7.93958 20.0418 4.77917 20.0418H1.54167V23.896C1.54167 27.2106 1.77292 27.7502 3.00625 27.7502C3.85417 27.7502 4.77917 28.4439 5.01042 29.2918C6.16667 32.9147 11.6396 33.146 13.2583 29.6772C14.0292 27.9814 14.5687 27.7502 18.5 27.7502C22.4312 27.7502 22.9708 27.9814 23.7417 29.6772C25.3604 33.146 30.8333 32.9147 31.9896 29.2918C32.2208 28.4439 33.1458 27.7502 33.9937 27.7502C36.4604 27.7502 35.9979 21.121 33.1458 15.4168C30.9104 10.946 30.7562 10.7918 27.75 10.7918C25.2062 10.7918 24.6667 10.5606 24.6667 9.25015C24.6667 7.78557 24.1271 7.70849 12.3333 7.70849C0.539583 7.70849 0 7.78557 0 9.25015ZM29.2917 14.1835C29.2917 14.3377 29.5229 15.0314 29.7542 15.7252C30.1396 16.7272 29.6771 16.9585 27.4417 16.9585C25.2062 16.9585 24.6667 16.6502 24.6667 15.4168C24.6667 14.1835 25.2062 13.8752 26.9792 13.8752C28.2896 13.8752 29.2917 14.0293 29.2917 14.1835ZM32.375 22.4314C32.375 24.4356 32.1437 24.7439 31.0646 24.2043C30.2937 23.896 28.5208 23.5877 27.2104 23.5877C25.0521 23.5877 24.6667 23.3564 24.6667 21.8147C24.6667 20.196 24.975 20.0418 28.5208 20.0418C32.2979 20.0418 32.375 20.0418 32.375 22.4314ZM10.7917 27.7502C10.7917 28.7522 10.2521 29.2918 9.25 29.2918C8.24792 29.2918 7.70833 28.7522 7.70833 27.7502C7.70833 26.7481 8.24792 26.2085 9.25 26.2085C10.2521 26.2085 10.7917 26.7481 10.7917 27.7502ZM29.2917 27.7502C29.2917 28.7522 28.7521 29.2918 27.75 29.2918C26.7479 29.2918 26.2083 28.7522 26.2083 27.7502C26.2083 26.7481 26.7479 26.2085 27.75 26.2085C28.7521 26.2085 29.2917 26.7481 29.2917 27.7502Z" fill="black"/>
<path d="M1.54175 15.4168C1.54175 16.8043 2.08133 16.9585 6.93758 16.9585C11.7938 16.9585 12.3334 16.8043 12.3334 15.4168C12.3334 14.0293 11.7938 13.8752 6.93758 13.8752C2.08133 13.8752 1.54175 14.0293 1.54175 15.4168Z" fill="black"/>
</svg>
