<svg width="23" height="26" viewBox="0 0 23 26" fill="none" xmlns="http://www.w3.org/2000/svg">
<g opacity="0.8" clip-path="url(#clip0_753_2977)">
<path d="M13.3938 13.8391C11.0775 20.2031 10.7709 21.1803 11.0528 21.283C11.3131 21.3777 11.5365 20.9664 12.3363 18.7688C12.8613 17.3266 13.3596 16.1599 13.468 16.1993C13.5548 16.2309 14.1006 17.3629 14.6882 18.7174L15.735 21.1724L16.4171 20.8503L17.1209 20.5361L16.0391 18.0425C15.4515 16.6879 15.004 15.4881 15.0373 15.3965C15.0707 15.305 16.2234 15.6467 17.5897 16.144L20.0837 17.0518L20.3337 16.365L20.5836 15.6783L18.0896 14.7705C16.7233 14.2732 15.6206 13.7941 15.6622 13.6796C15.6956 13.5881 16.8013 12.9794 18.1221 12.3195L20.5153 11.1425L20.2298 10.4423L19.9527 9.71927L17.5211 10.9342C16.2003 11.5941 15.0328 12.1025 14.9461 12.0709C14.8593 12.0393 15.2275 10.8252 15.7525 9.38305C16.5523 7.18542 16.6456 6.72679 16.3853 6.63207C16.1034 6.52945 15.7101 7.47513 13.3938 13.8391Z" fill="black"/>
</g>
<g clip-path="url(#clip1_753_2977)">
<path d="M11.475 14.0511C9.6198 19.1481 8.23396 23.407 8.39972 23.4673C8.71805 23.5597 15.5824 5.15144 15.3979 4.75578C15.332 4.61448 15.2077 4.56923 15.0664 4.63512C14.9533 4.68784 13.3452 8.91271 11.475 14.0511Z" fill="black"/>
</g>
<g clip-path="url(#clip2_753_2977)">
<path d="M13.2496 5.79922C12.8847 6.80164 12.7974 7.22395 13.0457 6.72401C13.2794 6.26418 13.5713 5.46223 13.7024 4.91964C13.819 4.41714 13.6144 4.79679 13.2496 5.79922Z" fill="#020202"/>
<path d="M8.65083 5.397C8.44651 5.95836 9.26934 8.16503 9.60591 7.96966C9.75219 7.84127 9.7514 7.20526 9.5748 6.50525C9.23641 5.24686 8.86974 4.79554 8.65083 5.397Z" fill="#020202"/>
<path d="M10.793 8.71986C9.03633 9.26113 7.72104 11.4161 7.73858 13.7384C7.75465 14.8794 8.51797 16.3379 9.22121 16.5939C9.39702 16.6579 10.1418 14.9763 10.9736 12.6908C12.5352 8.40041 12.5203 8.16792 10.793 8.71986Z" fill="#020202"/>
<path d="M4.82026 10.4511C4.74729 10.6516 5.20175 11.044 5.84639 11.2786C6.49103 11.5133 7.09143 11.5048 7.1644 11.3043C7.25196 11.0637 6.78291 10.7113 6.13827 10.4767C5.49363 10.2421 4.90782 10.2105 4.82026 10.4511Z" fill="#020202"/>
<path d="M5.48599 15.9153C4.90075 16.338 4.49132 16.8247 4.52085 17.0171C4.6531 17.3831 6.70184 16.2216 6.90616 15.6602C7.12507 15.0587 6.55409 15.1688 5.48599 15.9153Z" fill="#020202"/>
<path d="M8.28765 19.4325C7.9228 20.4349 7.83546 20.8572 8.08378 20.3573C8.31752 19.8975 8.6094 19.0955 8.74052 18.5529C8.85705 18.0504 8.65251 18.4301 8.28765 19.4325Z" fill="#020202"/>
</g>
<defs>
<clipPath id="clip0_753_2977">
<rect width="14.7706" height="15.5911" fill="white" transform="translate(9.12012 3.98779) rotate(20)"/>
</clipPath>
<clipPath id="clip1_753_2977">
<rect width="15.5911" height="15.5911" fill="white" transform="translate(1.46387 10.29) rotate(-25)"/>
</clipPath>
<clipPath id="clip2_753_2977">
<rect width="15.5911" height="21.3353" fill="white" transform="translate(7.29688) rotate(20)"/>
</clipPath>
</defs>
</svg>
