<svg width="30" height="30" viewBox="0 0 30 30" fill="none" xmlns="http://www.w3.org/2000/svg">
<path d="M9.72727 4.72723C5.40909 6.72723 2.18181 12.2272 2.95454 16.2727C4.13636 22.5 9.68181 26.8181 15.8636 26.2272C19.1818 25.9545 21.6818 24.6818 23.9545 22.0909C29.0909 16.2727 27.0455 7.81814 19.7727 4.49996C17.0909 3.27268 12.6364 3.36359 9.72727 4.72723ZM20.5455 7.59087C23.4091 9.68177 24.6818 12.2727 24.4091 15.5909C24.0909 19.1363 22.5909 21.3636 19.5 22.909C14.5 25.3636 8.68181 23.6363 6.31818 19C4.86363 16.1818 5.22727 12 7.09091 9.68177C9.45454 6.77268 11.5 5.86359 15.3182 5.99996C18.1364 6.13632 18.8182 6.36359 20.5455 7.59087Z" fill="black"/>
<path d="M18.4091 11.3636C18.2727 11.5909 18.2727 12.2273 18.4091 12.7273C18.6818 13.5909 18.5 13.6364 15 13.6364H11.3636L11.6364 12.5C12.0454 10.9091 10.9091 11 8.86363 12.7727C7.04545 14.4091 7.18181 15.2273 9.72726 16.7727C11.6818 18 11.9545 17.9545 11.7273 16.5909C11.5 15.4545 11.5 15.4545 15 15.4545C18.2727 15.4545 18.5454 15.5454 18.3182 16.3182C17.9091 17.8636 19.0454 17.7727 20.7727 16.1818C22.1818 14.9091 22.4091 14.4545 22 13.8182C21.2273 12.5 18.7727 10.8182 18.4091 11.3636Z" fill="black"/>
</svg>
