<svg width="20" height="19" viewBox="0 0 20 19" fill="none" xmlns="http://www.w3.org/2000/svg">
<g clip-path="url(#clip0_753_7497)" filter="url(#filter0_i_753_7497)">
<path d="M6.71451 1.24849C5.28594 1.89991 3.45737 2.57849 2.60022 2.76849L1.08594 3.0942L1.25737 5.04849C1.80022 10.6942 4.62879 15.6885 8.77165 18.2942L9.97165 19.0542L11.2002 18.2399C13.8859 16.4756 16.4288 13.2456 17.5717 10.1242C18.2574 8.2242 18.8574 5.40134 18.8574 3.90849C18.8574 3.12134 18.7717 3.06706 17.4288 2.76849C16.6288 2.60563 14.7431 1.89991 13.1717 1.22134C11.6288 0.54277 10.1145 -8.58307e-05 9.82879 0.0270576C9.54308 0.0270576 8.14308 0.569914 6.71451 1.24849ZM12.8288 1.87277C14.1145 2.46991 15.8002 3.0942 16.6002 3.2842L18.0574 3.63706L17.8574 5.5642C17.6002 7.95277 16.5431 11.0742 15.2574 13.0556C14.1145 14.8471 10.8002 17.9142 10.0288 17.9142C9.2288 17.9142 6.82879 16.0142 5.65737 14.4942C3.57165 11.7799 2.51451 9.01134 2.11451 5.42848L1.94308 3.6642L3.74308 3.17563C4.74308 2.9042 6.40022 2.25277 7.42879 1.7642C8.45737 1.24849 9.57165 0.841343 9.91451 0.814199C10.2574 0.814199 11.5717 1.30277 12.8288 1.87277Z" fill="#3AB36B"/>
<path d="M7.68633 2.30687C6.97204 2.65972 5.5149 3.22972 4.42919 3.55544L2.48633 4.15258L2.65776 6.07972C2.97204 10.1512 5.02919 13.9511 8.14347 16.3397C9.08633 17.0726 9.9149 17.6426 10.0292 17.6426C10.1435 17.6426 11.172 16.8011 12.3435 15.7697C15.4006 13.0554 17.0006 9.96115 17.3435 6.07972L17.5149 4.15258L15.572 3.55544C14.4863 3.22972 13.0006 2.65972 12.2578 2.27972C10.5435 1.46544 9.37204 1.46544 7.68633 2.30687ZM12.2863 4.85829C13.6863 5.56401 14.6578 7.38258 14.4863 8.92972C14.1435 11.9969 10.3149 13.8154 7.7149 12.1326C5.5149 10.7212 4.88633 8.60401 6.05776 6.54115C6.85776 5.10258 8.22919 4.34258 10.0006 4.34258C10.7149 4.34258 11.7435 4.55972 12.2863 4.85829ZM5.37204 5.48258C5.17204 5.99829 4.28633 6.07972 4.28633 5.59115C4.28633 5.31972 4.54347 5.15687 4.88633 5.15687C5.22919 5.15687 5.42919 5.29258 5.37204 5.48258ZM15.8578 5.69972C15.8578 6.29686 15.0292 6.18829 14.9149 5.61829C14.8292 5.23829 14.9435 5.12972 15.3435 5.21115C15.6292 5.26544 15.8578 5.48258 15.8578 5.69972ZM10.572 15.3354C10.572 15.5526 10.3149 15.7426 10.0006 15.7426C9.68633 15.7426 9.42919 15.5526 9.42919 15.3354C9.42919 15.1183 9.68633 14.9283 10.0006 14.9283C10.3149 14.9283 10.572 15.1183 10.572 15.3354Z" fill="#3AB36B"/>
<path d="M8.39986 5.56427C7.257 6.13427 6.57129 7.27427 6.57129 8.65856C6.57129 9.55427 6.77129 9.98856 7.54272 10.8028C8.42843 11.7257 8.657 11.8071 9.99986 11.8071C11.3427 11.8071 11.5713 11.7257 12.457 10.8028C13.257 9.96141 13.4284 9.58141 13.4284 8.54998C13.4284 6.10713 10.657 4.47855 8.39986 5.56427ZM11.457 6.43284C12.457 7.00284 12.9713 8.1157 12.7141 9.17427C12.4856 10.1786 11.3427 11.2643 10.7141 11.02C10.4284 10.9114 10.3141 10.9657 10.457 11.1828C10.5999 11.4 10.4284 11.4271 9.82843 11.2914C9.37129 11.1828 8.91415 10.9386 8.79986 10.7757C8.68558 10.5857 8.57129 10.5586 8.57129 10.6943C8.57129 11.21 7.457 9.93427 7.28557 9.20141C7.02843 8.16998 7.857 6.62284 8.79986 6.26998C9.94272 5.88998 10.5427 5.91713 11.457 6.43284Z" fill="#3AB36B"/>
<path d="M9.00028 6.7856C8.91456 6.92132 8.97171 7.05703 9.14314 7.05703C9.31456 7.05703 9.42885 7.32846 9.37171 7.65417C9.31456 8.1156 9.05742 8.3056 8.51456 8.35989C7.60028 8.46846 7.42885 8.95703 8.31456 8.95703C9.11456 8.95703 9.94314 7.95275 9.77171 7.13846C9.62885 6.48703 9.31456 6.32417 9.00028 6.7856Z" fill="#3AB36B"/>
<path d="M11.4576 7.21973C11.429 7.38258 11.0004 7.7083 10.4576 7.95258C9.82899 8.22401 9.48613 8.57687 9.48613 8.87544C9.5147 9.14687 9.42899 9.63544 9.3147 9.96115C9.20042 10.2869 9.25756 10.6126 9.40042 10.694C9.7147 10.884 10.1147 9.90687 9.88613 9.52687C9.80042 9.39115 9.9147 9.20115 10.1718 9.11973C10.429 9.0383 10.5718 8.76687 10.4861 8.54973C10.3718 8.30544 10.4576 8.22401 10.6861 8.30544C11.1433 8.4683 11.829 7.73544 11.629 7.27401C11.5433 7.08401 11.4576 7.05687 11.4576 7.21973Z" fill="#3AB36B"/>
<path d="M10.5713 9.17399C10.5713 9.52685 11.6856 10.0426 11.857 9.77113C11.9427 9.63542 11.7713 9.39113 11.457 9.25542C10.7999 8.90256 10.5713 8.87542 10.5713 9.17399Z" fill="#3AB36B"/>
</g>
<defs>
<filter id="filter0_i_753_7497" x="0" y="0" width="20" height="23" filterUnits="userSpaceOnUse" color-interpolation-filters="sRGB">
<feFlood flood-opacity="0" result="BackgroundImageFix"/>
<feBlend mode="normal" in="SourceGraphic" in2="BackgroundImageFix" result="shape"/>
<feColorMatrix in="SourceAlpha" type="matrix" values="0 0 0 0 0 0 0 0 0 0 0 0 0 0 0 0 0 0 127 0" result="hardAlpha"/>
<feOffset dy="4"/>
<feGaussianBlur stdDeviation="2"/>
<feComposite in2="hardAlpha" operator="arithmetic" k2="-1" k3="1"/>
<feColorMatrix type="matrix" values="0 0 0 0 0 0 0 0 0 0 0 0 0 0 0 0 0 0 0.25 0"/>
<feBlend mode="normal" in2="shape" result="effect1_innerShadow_753_7497"/>
</filter>
<clipPath id="clip0_753_7497">
<rect width="20" height="19" fill="white"/>
</clipPath>
</defs>
</svg>
