<svg width="35" height="35" viewBox="0 0 35 35" fill="none" xmlns="http://www.w3.org/2000/svg">
<path d="M16.35 1.85004C16.15 2.00004 16 3.30004 16 4.65004C16 6.60004 15.85 7.05004 15.25 6.85004C13.9 6.30004 13.9 7.55004 15.25 9.25004C16.35 10.75 16.7 10.9 17.5 10.5C18.55 9.90004 20.15 7.30004 19.7 6.85004C19.55 6.70004 19.1 6.70004 18.7 6.85004C18.15 7.05004 18 6.60004 18 5.10004C18 2.15004 17.35 0.850038 16.35 1.85004Z" fill="black"/>
<path d="M13.25 12.8C10.45 13.85 7.65 16.7 6.7 19.6C4.15 27.25 12.45 34.9 20.4 32.3C23.5 31.25 26.15 28.75 27.3 25.7C28.05 23.7 28.1 23 27.6 20.55C27.1 18.2 26.6 17.35 24.6 15.4C21.15 12.1 17.5 11.25 13.25 12.8ZM19.75 14.55C23.75 15.7 26.6 20.4 25.55 24.25C24.45 28.35 21.45 30.5 17 30.5C12.15 30.5 8.5 27.1 8.5 22.55C8.5 19.1 10.5 16.35 14 14.8C16.1 13.9 17.15 13.85 19.75 14.55Z" fill="black"/>
<path d="M15.05 16.7998C13.75 18.4998 13.7 19.1998 15 18.8498C15.85 18.6498 16 18.8498 16 20.4998C16 22.5498 16.8 23.5998 17.55 22.4498C17.8 22.0498 18 21.1498 18 20.3498C18 19.3498 18.25 18.9998 19 18.9998C20.35 18.9998 20.25 18.4498 18.6 16.8498C16.85 15.1498 16.35 15.1498 15.05 16.7998Z" fill="black"/>
</svg>
