<svg width="61" height="59" viewBox="0 0 61 59" fill="none" xmlns="http://www.w3.org/2000/svg">
<path d="M8.8272 57.33C9.30787 57.3281 9.92062 57.2888 10.6241 57.198L10.6435 57.1955L10.6631 57.1937C12.3664 57.0417 14.6326 56.3736 16.6804 55.4983C17.6966 55.0639 18.6344 54.5889 19.3993 54.1199C20.1821 53.64 20.7169 53.2065 20.9903 52.8737L20.9903 52.8737L20.9948 52.8683C21.5563 52.1944 22.3143 51.9008 23.3796 51.7962C24.4008 51.6959 25.8672 51.7537 28.0309 51.9175C40.9278 52.7496 52.7706 46.2654 57.7151 35.7425C58.4561 34.1638 58.8625 33.0638 59.096 31.8139C59.3331 30.544 59.4004 29.0749 59.4004 26.7392C59.4004 24.4036 59.3331 22.9344 59.096 21.6646C58.8625 20.4146 58.4561 19.3145 57.7149 17.7356L57.7147 17.7351C52.0074 5.55956 36.894 -1.13512 22.4636 2.39156C14.1633 4.43472 6.50815 10.5124 3.08518 17.737C2.34447 19.3152 1.93819 20.4149 1.70483 21.6646C1.46768 22.9344 1.40039 24.4036 1.40039 26.7392C1.40039 29.2459 1.46881 30.6808 1.74813 31.9567C2.02515 33.222 2.52072 34.3813 3.47366 36.3201L3.47372 36.3201L3.4787 36.3305C4.80573 39.1109 6.70296 41.6412 9.04403 43.7292L9.04966 43.7342L9.05521 43.7393L9.10323 43.7835C10.0844 44.6854 10.8889 45.4251 11.4557 46.0928C12.0474 46.7899 12.4719 47.5113 12.5627 48.3953C12.6506 49.2501 12.4088 50.1068 12.0168 51.0384C11.6279 51.9629 11.03 53.0951 10.275 54.5247L10.2534 54.5655C9.79207 55.4553 9.33263 56.3414 8.97196 57.0464C8.92158 57.1448 8.87324 57.2395 8.8272 57.33ZM19.9565 24.4467L19.9622 24.4535L19.9677 24.4603C21.1889 25.9632 20.8366 27.8277 19.9079 28.994C18.977 30.1631 17.2285 30.8983 15.5611 29.8281C13.6061 28.6297 13.0365 26.1677 14.4673 24.4507L14.4706 24.4467C15.9252 22.7195 18.502 22.7195 19.9565 24.4467ZM33.1433 24.4467L33.149 24.4535L33.1545 24.4603C34.3757 25.9632 34.0235 27.8277 33.0948 28.994C32.1638 30.1631 30.4153 30.8983 28.7479 29.8281C26.7929 28.6297 26.2233 26.1677 27.6541 24.4507L27.6575 24.4467C29.112 22.7195 31.6888 22.7195 33.1433 24.4467ZM46.3301 24.4467L46.3358 24.4535L46.3413 24.4603C47.5625 25.9632 47.2103 27.8277 46.2816 28.994C45.3504 30.1633 43.6015 30.8986 41.9339 29.8275C39.9796 28.629 39.4104 26.1674 40.841 24.4507L40.8443 24.4467C42.2988 22.7195 44.8756 22.7195 46.3301 24.4467Z" fill="white" stroke="#6F6E6E" stroke-width="2"/>
</svg>
