<svg width="32" height="32" viewBox="0 0 32 32" fill="none" xmlns="http://www.w3.org/2000/svg">
<path d="M26.6667 5.3335H5.33341C3.85341 5.3335 2.68008 6.52016 2.68008 8.00016L2.66675 24.0002C2.66675 25.4802 3.85341 26.6668 5.33341 26.6668H26.6667C28.1467 26.6668 29.3334 25.4802 29.3334 24.0002V8.00016C29.3334 6.52016 28.1467 5.3335 26.6667 5.3335ZM25.3334 24.0002H6.66675C5.93341 24.0002 5.33341 23.4002 5.33341 22.6668V16.0002H26.6667V22.6668C26.6667 23.4002 26.0667 24.0002 25.3334 24.0002ZM26.6667 10.6668H5.33341V9.3335C5.33341 8.60016 5.93341 8.00016 6.66675 8.00016H25.3334C26.0667 8.00016 26.6667 8.60016 26.6667 9.3335V10.6668Z" fill="#252525"/>
</svg>
