<svg width="47" height="47" viewBox="0 0 47 47" fill="none" xmlns="http://www.w3.org/2000/svg">
<path d="M16.7882 14.1175C15.8112 14.8534 15.0448 15.7901 14.9933 16.3788C14.6147 21.2279 24.8621 33.4402 29.7033 33.9094C30.79 34.0044 33.7486 31.48 33.8436 30.3932C33.8753 30.031 32.8344 28.8904 31.5592 27.8207C29.2113 25.9726 29.166 25.9687 27.6083 26.5625L26.0546 27.1109L23.5341 24.1071L21.0628 21.062L21.9141 19.6763C22.7201 18.2867 22.7241 18.2415 21.3118 15.6084C20.4797 14.1667 19.5373 12.9436 19.1751 12.9119C18.8128 12.8802 17.7611 13.427 16.7882 14.1175Z" fill="white"/>
<path d="M15.6933 6.01726C10.4498 8.46423 8.09024 10.9112 5.73066 16.1547C2.58456 23.0587 4.07022 32.1474 9.40112 37.9153C12.2851 41.0614 19.4512 44.1201 23.9956 44.1201C28.5399 44.1201 35.7061 41.0614 38.59 37.9153C41.5613 34.6818 44.0957 28.3022 44.0957 24.02C44.0957 19.4756 41.037 12.3095 37.8909 9.42554C34.6574 6.45422 28.2778 3.91985 23.9956 3.91985C21.636 3.91985 18.3151 4.79377 15.6933 6.01726ZM31.4239 7.32813C42.61 12.3969 45.7561 26.8165 37.7161 35.9927C28.8895 46.0427 12.9842 43.6832 7.30372 31.4483C0.399758 16.5043 16.3925 0.511566 31.4239 7.32813Z" fill="white"/>
</svg>
