<svg width="25" height="25" viewBox="0 0 25 25" fill="none" xmlns="http://www.w3.org/2000/svg">
<path d="M5.78817 3.11751C4.81123 3.85335 4.04485 4.79012 3.99335 5.37878C3.61473 10.2279 13.8621 22.4402 18.7032 22.9094C19.79 23.0044 22.7486 20.48 22.8436 19.3932C22.8753 19.031 21.8344 17.8904 20.5592 16.8207C18.2113 14.9726 18.166 14.9687 16.6083 15.5625L15.0546 16.1109L12.5341 13.1071L10.0628 10.062L10.9141 8.67633C11.7201 7.28674 11.7241 7.24146 10.3118 4.60836C9.47975 3.16672 8.53731 1.94356 8.17506 1.91187C7.8128 1.88017 6.76115 2.42696 5.78817 3.11751Z" fill="white"/>
</svg>
