<svg width="29" height="32" viewBox="0 0 29 32" fill="none" xmlns="http://www.w3.org/2000/svg">
<g opacity="0.8" clip-path="url(#clip0_753_7505)">
<path d="M17.2502 17.4836C14.4274 25.239 14.0538 26.4299 14.3974 26.5549C14.7146 26.6704 14.9868 26.1692 15.9615 23.4911C16.6012 21.7335 17.2085 20.3117 17.3406 20.3598C17.4463 20.3983 18.1115 21.7778 18.8276 23.4285L20.1032 26.4202L20.9345 26.0277L21.7921 25.6448L20.4739 22.606C19.7578 20.9553 19.2125 19.4931 19.2531 19.3815C19.2937 19.2699 20.6985 19.6864 22.3635 20.2924L25.4028 21.3987L25.7074 20.5617L26.012 19.7248L22.9727 18.6186C21.3077 18.0126 19.9638 17.4287 20.0146 17.2892C20.0552 17.1776 21.4027 16.4359 23.0123 15.6317L25.9287 14.1974L25.5808 13.3441L25.2431 12.463L22.2799 13.9435C20.6703 14.7477 19.2476 15.3672 19.1419 15.3287C19.0362 15.2903 19.4849 13.8108 20.1245 12.0532C21.0993 9.37511 21.2129 8.81621 20.8958 8.70077C20.5522 8.57572 20.0729 9.72816 17.2502 17.4836Z" fill="#73A2FC"/>
</g>
<g clip-path="url(#clip1_753_7505)">
<path d="M14.9125 17.7425C12.6517 23.9539 10.9629 29.1439 11.1649 29.2174C11.5528 29.33 19.9179 6.89698 19.6931 6.41482C19.6128 6.24262 19.4613 6.18748 19.2891 6.26778C19.1513 6.33202 17.1916 11.4806 14.9125 17.7425Z" fill="#686767"/>
</g>
<g clip-path="url(#clip2_753_7505)">
<path d="M17.0748 7.6862C16.6302 8.9078 16.5237 9.42244 16.8263 8.8132C17.1112 8.25282 17.4669 7.27554 17.6267 6.61432C17.7687 6.00195 17.5194 6.4646 17.0748 7.6862Z" fill="#FFC32B"/>
<path d="M11.4703 7.19593C11.2213 7.88003 12.2241 10.5692 12.6342 10.3311C12.8125 10.1746 12.8115 9.39954 12.5963 8.54649C12.1839 7.01297 11.7371 6.46297 11.4703 7.19593Z" fill="#FFC32B"/>
<path d="M14.0805 11.245C11.9398 11.9046 10.3369 14.5308 10.3583 17.3608C10.3779 18.7513 11.3081 20.5286 12.1651 20.8406C12.3794 20.9186 13.287 18.8694 14.3007 16.0841C16.2037 10.8557 16.1855 10.5724 14.0805 11.245Z" fill="#FFC32B"/>
<path d="M6.80187 13.3551C6.71295 13.5994 7.26677 14.0777 8.05236 14.3636C8.83794 14.6495 9.56961 14.6392 9.65854 14.3949C9.76525 14.1017 9.19364 13.6723 8.40806 13.3863C7.62247 13.1004 6.90858 13.0619 6.80187 13.3551Z" fill="#FFC32B"/>
<path d="M7.61407 20.0138C6.90087 20.529 6.40192 21.1221 6.43791 21.3565C6.59908 21.8026 9.09576 20.3871 9.34475 19.703C9.61153 18.9701 8.9157 19.1042 7.61407 20.0138Z" fill="#FFC32B"/>
<path d="M11.0279 24.3C10.5833 25.5216 10.4769 26.0362 10.7795 25.427C11.0643 24.8666 11.42 23.8893 11.5798 23.2281C11.7218 22.6157 11.4725 23.0784 11.0279 24.3Z" fill="#FFC32B"/>
</g>
<defs>
<clipPath id="clip0_753_7505">
<rect width="18" height="19" fill="white" transform="translate(12.042 5.47852) rotate(20)"/>
</clipPath>
<clipPath id="clip1_753_7505">
<rect width="19" height="19" fill="white" transform="translate(2.71191 13.1592) rotate(-25)"/>
</clipPath>
<clipPath id="clip2_753_7505">
<rect width="19" height="26" fill="white" transform="translate(9.82031 0.619141) rotate(20)"/>
</clipPath>
</defs>
</svg>
