<svg width="32" height="32" viewBox="0 0 32 32" fill="none" xmlns="http://www.w3.org/2000/svg">
<g clip-path="url(#clip0_619_2801)">
<path d="M7.26399 4.16017C6.91199 4.54416 6.55999 5.24817 6.46399 5.76016C6.23999 6.78416 6.65599 9.72816 7.29599 11.9042C7.67999 13.1522 7.67999 13.4722 7.26399 14.2402C6.84799 15.0402 6.87999 15.2642 7.32799 16.2242C7.67999 16.9602 8.12799 17.3442 8.76799 17.4722C9.79199 17.6962 10.784 19.2002 9.91999 19.2002C9.66399 19.2002 9.43999 19.0082 9.43999 18.7522C9.43999 18.4962 9.27999 18.1762 9.08799 18.0482C8.83199 17.9202 8.79999 18.0482 8.95999 18.5282C9.21599 19.3602 8.95999 19.3602 5.75999 18.7202C3.07199 18.1442 1.11999 17.4082 1.11999 16.9602C1.11999 16.7682 1.21599 16.6402 1.37599 16.6402C1.79199 16.6402 4.19199 14.4322 3.77599 14.4002C3.58399 14.4002 2.71999 14.9122 1.88799 15.5522C0.735992 16.4482 0.319992 16.6082 0.127992 16.2562C-0.0320077 16.0322 -0.160008 15.6802 -0.160008 15.4562C-0.160008 14.8482 1.69599 13.4722 3.03999 13.1202C4.67199 12.6722 5.18399 11.9682 3.64799 12.2882C1.95199 12.6082 -0.864008 14.1442 -1.56801 15.1042L-2.20801 16.0002L-1.44001 16.8002C-0.800008 17.4722 -0.736008 17.6962 -1.05601 18.4002C-1.63201 19.6802 -1.02401 20.5442 1.37599 21.6962C3.83999 22.8802 3.80799 22.8482 4.38399 22.2722C4.63999 22.0482 5.63199 21.7602 6.65599 21.6322L8.47999 21.4082V22.4642C8.47999 23.8082 9.24799 24.9602 10.176 24.9602C10.592 24.9602 11.392 24.6402 11.968 24.2242L13.056 23.4882L14.08 24.6082C14.656 25.2482 15.2 26.1442 15.328 26.6242C15.456 27.2642 15.776 27.5522 16.416 27.7122C16.896 27.8082 17.664 28.0962 18.144 28.3522C19.296 28.9602 19.584 28.9282 20.48 28.0002C21.152 27.3282 21.28 26.9442 21.28 25.1842C21.28 22.7842 20.992 21.1202 20.576 21.1202C20.416 21.1202 20.384 22.0162 20.512 23.2002C20.672 24.8322 20.608 25.4402 20.192 26.0802C19.584 27.0402 18.4 27.1682 18.4 26.3042C18.4 25.4402 17.28 24.5122 16.512 24.7362C15.744 24.9282 13.76 22.9122 14.144 22.3042C15.04 20.8002 15.712 20.1602 16.448 20.1602C19.488 20.1282 24.64 18.2402 25.6 16.7682C26.08 16.0322 26.08 15.9042 25.504 14.9442C25.088 14.2402 24.928 13.5682 25.024 12.8642C25.216 11.6162 24.544 10.6882 23.168 10.4322C20.032 9.82417 20.32 10.0802 20.32 8.00017C20.32 6.01616 19.84 5.12016 18.752 5.12016C18.112 5.12016 16.032 6.56017 15.072 7.64816C14.016 8.83216 14.816 8.76817 16.16 7.55216C17.6 6.27217 18.528 6.08017 19.04 7.00817C19.552 8.00017 19.424 9.53617 18.816 9.88816C18.368 10.1442 18.336 10.3042 18.624 10.4962C19.104 10.8162 18.272 13.5042 16.832 16.3202C15.872 18.2082 14.976 18.8482 12.96 19.1042C11.84 19.2642 11.68 19.2002 11.232 18.3042C10.688 17.2802 10.912 16.8002 11.68 17.3122C12.704 17.9202 14.176 17.6322 15.2 16.5762C16.096 15.6802 16.224 15.4242 16.064 14.2722C15.712 11.7762 12.896 10.5922 11.264 12.2562C10.72 12.7682 10.272 12.9282 9.59999 12.8002C8.79999 12.6722 8.63999 12.4162 8.25599 11.0402C7.77599 9.08817 7.71199 6.59216 8.15999 5.72816C8.57599 4.99216 9.53599 4.92817 10.08 5.60016C10.304 5.85616 10.72 6.08017 10.976 6.08017C11.264 6.08017 11.968 6.52817 12.544 7.10416C13.248 7.77617 13.6 7.96816 13.6 7.64816C13.6 7.36016 13.248 6.81617 12.832 6.43217C12.416 6.01616 11.968 5.37617 11.872 4.96017C11.744 4.44816 11.392 4.19217 10.656 4.06417C10.08 3.96816 9.21599 3.77617 8.76799 3.68016C8.12799 3.52016 7.74399 3.64816 7.26399 4.16017ZM22.816 11.3922C23.648 11.9362 23.808 13.3122 23.008 12.9922C22.72 12.8642 21.856 12.6402 21.056 12.4162C20.032 12.1602 19.68 11.9362 19.808 11.6162C19.904 11.3602 20 11.0082 20 10.8482C20 10.4642 21.888 10.8482 22.816 11.3922ZM12 12.9602C11.776 13.2162 11.424 13.4402 11.232 13.4402C11.04 13.4402 11.168 13.2162 11.488 12.9602C12.288 12.3522 12.512 12.3522 12 12.9602ZM22.528 13.6002C23.2 13.8562 22.336 14.6882 21.568 14.4962C20.896 14.3042 19.68 15.2002 19.68 15.8722C19.68 16.3522 18.464 17.2802 17.856 17.2802C17.6 17.2802 17.792 16.5762 18.4 15.2642C18.944 14.1762 19.36 13.1202 19.36 12.8962C19.36 12.5442 19.84 12.6402 22.528 13.6002ZM10.08 13.4402C10.464 13.6962 10.4 13.7602 9.75999 13.7602C9.27999 13.7602 8.76799 13.9202 8.54399 14.1442C8.31999 14.3682 8.15999 14.8802 8.15999 15.3282C8.15999 16.0002 8.09599 16.0642 7.83999 15.6802C7.39199 14.9762 7.42399 14.7842 8.31999 13.9202C9.18399 13.0242 9.37599 12.9922 10.08 13.4402ZM23.648 16.6722C23.04 17.3442 20.448 18.3682 18.56 18.6882L17.28 18.8802L18.72 18.1122C19.616 17.6322 20.448 17.4082 20.896 17.5042C21.632 17.6642 22.88 16.8642 22.88 16.2242C22.88 16.0322 23.136 15.6162 23.456 15.2642C24 14.6562 24 14.6562 24.096 15.3602C24.16 15.7442 23.968 16.3202 23.648 16.6722ZM20.896 15.6802C20.448 16.3842 20.128 16.2882 20.416 15.5202C20.544 15.2642 20.768 15.0402 20.96 15.0402C21.152 15.0402 21.152 15.2642 20.896 15.6802ZM2.75199 19.7442C2.46399 19.9682 1.98399 20.1602 1.69599 20.1602C1.05599 20.1602 0.159992 19.3282 0.159992 18.7202C0.159992 18.4002 0.479992 18.4002 1.72799 18.8162C3.03999 19.2642 3.19999 19.4242 2.75199 19.7442ZM6.71999 20.1282L7.99999 20.4162L6.46399 20.4482C5.43999 20.4802 4.73599 20.3202 4.41599 20.0002C3.96799 19.5522 3.99999 19.5202 4.67199 19.6802C5.08799 19.7762 6.01599 19.9682 6.71999 20.1282ZM2.97599 20.8002C2.75199 21.1202 2.52799 21.3442 2.43199 21.2802C2.30399 21.1522 3.00799 20.1602 3.23199 20.1602C3.29599 20.1602 3.19999 20.4482 2.97599 20.8002ZM14.56 20.4162C14.56 20.5762 14.24 20.9922 13.824 21.3762L13.088 22.0802L12.512 21.1202L11.968 20.1602H13.248C13.984 20.1602 14.56 20.2882 14.56 20.4162ZM12.128 21.4722C12.768 22.5602 12.608 22.8482 11.136 23.2322C9.98399 23.5522 9.43999 23.1682 9.43999 22.0802C9.43999 20.8962 9.91999 20.8642 11.168 21.9842C12.096 22.8162 12.096 22.8162 11.424 22.0482C11.04 21.6002 10.72 21.0562 10.72 20.8642C10.72 20.1282 11.552 20.4802 12.128 21.4722ZM16.48 25.7602C16.256 26.0482 16 26.1762 15.936 26.1122C15.712 25.8882 16.16 25.2802 16.544 25.2802C16.736 25.2802 16.736 25.4722 16.48 25.7602Z" fill="black"/>
<path d="M19.52 13.4403C19.424 13.6003 19.456 13.7603 19.648 13.7603C19.808 13.7603 20.064 13.6003 20.16 13.4403C20.256 13.2483 20.224 13.1203 20.032 13.1203C19.872 13.1203 19.616 13.2483 19.52 13.4403Z" fill="black"/>
<path d="M18.944 14.9442C18.816 15.2642 18.592 15.8402 18.4 16.2562C18.208 16.7362 18.208 16.9282 18.4 16.8002C18.592 16.7042 18.72 16.4482 18.72 16.2562C18.72 16.0642 18.976 15.7122 19.296 15.4882C19.68 15.2002 19.744 14.9762 19.488 14.7202C19.232 14.4642 19.072 14.4962 18.944 14.9442Z" fill="black"/>
<path d="M1.69598 9.2803C1.91998 9.8563 3.58398 11.0723 5.66398 12.1283C6.14398 12.3843 6.62398 12.8643 6.75198 13.1843C6.84798 13.5043 7.07198 13.6963 7.23198 13.5683C7.74398 13.2483 6.59198 12.2243 4.25598 10.8483C3.03998 10.1443 2.07998 9.4403 2.07998 9.2803C2.07998 8.8323 2.36798 8.8963 3.29598 9.5683C4.44798 10.3683 6.87998 11.5203 6.87998 11.2643C6.87998 10.9443 2.55998 8.6403 1.95198 8.6403C1.59998 8.6403 1.53598 8.8003 1.69598 9.2803Z" fill="black"/>
<path d="M16.48 11.744C15.872 12.032 15.52 12.288 15.712 12.384C16.064 12.512 18.4 11.616 18.4 11.36C18.4 11.072 17.632 11.232 16.48 11.744Z" fill="black"/>
</g>
<defs>
<clipPath id="clip0_619_2801">
<rect width="32" height="32" fill="white"/>
</clipPath>
</defs>
</svg>
