<svg width="22" height="22" viewBox="0 0 22 22" fill="none" xmlns="http://www.w3.org/2000/svg">
<path d="M10.3125 3.78125C10.3125 4.74375 10.6562 5.5 11 5.5C11.4125 5.5 11.6875 4.74375 11.6875 3.78125C11.6875 2.81875 11.4125 2.0625 11 2.0625C10.6562 2.0625 10.3125 2.81875 10.3125 3.78125Z" fill="black"/>
<path d="M4.53765 4.67499C4.3314 5.01874 4.7439 5.84374 5.4314 6.46249C6.18765 7.14999 6.9439 7.35624 7.15015 7.01249C7.3564 6.66874 6.9439 5.84374 6.2564 5.22499C5.50015 4.53749 4.7439 4.33124 4.53765 4.67499Z" fill="black"/>
<path d="M15.5375 5.4311C14.85 6.18735 14.6438 6.9436 14.9875 7.14985C15.3313 7.3561 16.1563 6.9436 16.775 6.2561C17.4625 5.49985 17.6688 4.7436 17.325 4.53735C16.9813 4.3311 16.1563 4.7436 15.5375 5.4311Z" fill="black"/>
<path d="M7.69992 7.76883C5.77492 9.83133 5.77492 12.4438 7.76867 14.3001C9.83117 16.2251 12.4437 16.2251 14.2999 14.2313C16.2249 12.1688 16.2249 9.55633 14.2312 7.70008C12.1687 5.77508 9.55617 5.77508 7.69992 7.76883ZM13.3374 8.66258C15.4687 10.7251 13.9562 14.4376 10.9999 14.4376C9.34992 14.4376 7.56242 12.6501 7.56242 11.0001C7.56242 9.35008 9.34992 7.56258 10.9999 7.56258C11.6874 7.56258 12.7874 8.04383 13.3374 8.66258Z" fill="black"/>
<path d="M2.0625 11C2.0625 11.3438 2.81875 11.6875 3.78125 11.6875C4.74375 11.6875 5.5 11.3438 5.5 11C5.5 10.5875 4.74375 10.3125 3.78125 10.3125C2.81875 10.3125 2.0625 10.5875 2.0625 11Z" fill="black"/>
<path d="M16.5 11C16.5 11.3438 17.2563 11.6875 18.2188 11.6875C19.1813 11.6875 19.9375 11.3438 19.9375 11C19.9375 10.5875 19.1813 10.3125 18.2188 10.3125C17.2563 10.3125 16.5 10.5875 16.5 11Z" fill="black"/>
<path d="M5.22501 15.7436C4.53751 16.4998 4.33126 17.2561 4.67501 17.4623C5.01876 17.6686 5.84376 17.2561 6.46251 16.5686C7.15001 15.8123 7.35626 15.0561 7.01251 14.8498C6.66876 14.6436 5.84376 15.0561 5.22501 15.7436Z" fill="black"/>
<path d="M14.8502 14.9875C14.6439 15.3312 15.0564 16.1562 15.7439 16.775C16.5002 17.4625 17.2564 17.6687 17.4627 17.325C17.6689 16.9812 17.2564 16.1562 16.5689 15.5375C15.8127 14.85 15.0564 14.6437 14.8502 14.9875Z" fill="black"/>
<path d="M10.3125 18.2188C10.3125 19.1812 10.6562 19.9375 11 19.9375C11.4125 19.9375 11.6875 19.1812 11.6875 18.2188C11.6875 17.2562 11.4125 16.5 11 16.5C10.6562 16.5 10.3125 17.2562 10.3125 18.2188Z" fill="black"/>
</svg>
