<svg width="35" height="35" viewBox="0 0 35 35" fill="none" xmlns="http://www.w3.org/2000/svg">
<path d="M15.0938 12.2502C11.5938 15.7502 8.75 19.1772 8.75 19.9064C8.75 21.6564 15.0938 28.3647 17.3542 28.9481C18.8125 29.3127 20.0521 28.3647 25.5938 22.896L32.0833 16.4064V11.1564V5.83349H26.7604H21.5104L15.0938 12.2502ZM29.1667 11.8127C29.1667 14.7293 28.8021 15.3127 23.5521 20.5627L17.9375 26.2502L14.8021 23.1877L11.6667 20.1252L17.2813 14.4377C22.6042 9.11474 23.1146 8.75016 26.0313 8.75016H29.1667V11.8127Z" fill="black"/>
<path d="M23.6251 12.469C22.8959 13.7086 24.573 15.094 25.5938 14.0732C26.4688 13.1982 25.8855 11.6669 24.7917 11.6669C24.4272 11.6669 23.9167 12.0315 23.6251 12.469Z" fill="black"/>
<path d="M7.43766 12.6146C4.15641 15.8959 1.4585 19.1042 1.4585 19.7604C1.4585 21.2917 9.91683 29.4584 10.8647 28.875C12.3231 27.9271 11.6668 26.6146 8.021 22.9688L4.37516 19.3959L9.91683 13.7813C14.7293 8.89586 16.0418 6.56252 14.0002 6.56252C13.7085 6.56252 10.7918 9.26044 7.43766 12.6146Z" fill="black"/>
</svg>
