<svg width="22" height="22" viewBox="0 0 22 22" fill="none" xmlns="http://www.w3.org/2000/svg">
<g clip-path="url(#clip0_753_7468)">
<path d="M6.42904 3.40313C4.84779 3.74688 4.71029 3.85 3.95404 5.87813C3.36967 7.49375 3.36967 7.49375 1.99467 7.2875C0.722792 7.11563 0.619667 7.18438 0.757167 7.94063C0.791542 8.3875 1.20404 8.90313 1.61654 9.10938C2.16654 9.38438 2.26967 9.625 2.02904 10.0719C1.85717 10.3813 1.75404 12.4438 1.78842 14.6781L1.89154 18.7344L3.16342 18.8375C4.29779 18.9406 4.43529 18.8719 4.64154 17.9094L4.88217 16.8438H11.0009H17.1197L17.3603 17.9094C17.5665 18.8719 17.704 18.9406 18.8384 18.8375L20.1103 18.7344L20.2134 14.6781C20.2478 12.4438 20.1447 10.3813 19.9728 10.0719C19.7322 9.625 19.8353 9.38438 20.3853 9.10938C20.7978 8.90313 21.2103 8.3875 21.2447 7.94063C21.3822 7.18438 21.279 7.11563 20.0072 7.32188L18.5978 7.49375L17.979 5.775C17.6353 4.84688 17.0509 3.88438 16.6728 3.7125C15.8478 3.23125 8.21654 3.025 6.42904 3.40313ZM14.8509 4.675C15.9509 4.88125 16.1915 5.0875 16.8103 6.63438C17.2228 7.5625 17.5322 8.525 17.5322 8.76563C17.5322 9.28125 14.954 9.625 11.0009 9.625C7.04779 9.625 4.46967 9.28125 4.46967 8.76563C4.46967 8.525 4.77904 7.5625 5.19154 6.6C5.77592 5.225 6.11967 4.8125 6.84154 4.70938C8.31967 4.46875 13.5103 4.46875 14.8509 4.675ZM5.56967 11.2063C6.70404 11.4125 6.80717 11.5156 6.49779 12.1C5.98217 13.0625 3.78217 12.8563 3.40404 11.7563C3.09467 10.8969 3.33529 10.8625 5.56967 11.2063ZM18.5978 11.7563C18.2197 12.8563 16.0197 13.0625 15.504 12.0656C15.1603 11.4469 15.2634 11.3781 16.2259 11.2406C18.8384 10.9313 18.9072 10.9313 18.5978 11.7563ZM14.4384 13.9563C14.4384 14.0594 14.2665 14.4375 14.0947 14.8156C13.7853 15.3656 13.3384 15.4688 11.0009 15.4688C8.66342 15.4688 8.21654 15.3656 7.90717 14.8156C7.73529 14.4375 7.56342 14.0594 7.56342 13.9563C7.56342 13.8531 9.11029 13.75 11.0009 13.75C12.8915 13.75 14.4384 13.8531 14.4384 13.9563Z" fill="black"/>
</g>
<defs>
<clipPath id="clip0_753_7468">
<rect width="22" height="22" fill="white" transform="translate(0.000976562)"/>
</clipPath>
</defs>
</svg>
