<svg width="35" height="35" viewBox="0 0 35 35" fill="none" xmlns="http://www.w3.org/2000/svg">
<path d="M12.8 7.1C12.15 8 12 9.95 12 17.85C12 27.2 12.05 27.45 13.1 28.2C13.8 28.7 15.3 29 17.05 29C21.5 29 21.5 28.95 21.5 17.4C21.5 5.9 21.55 6 16.6 6C14 6 13.45 6.15 12.8 7.1ZM19.7 8.6C20.1 10.1 20.1 24.9 19.7 26.4C19.4 27.45 19.1 27.55 16.85 27.4C14.6 27.25 14.25 27.1 13.95 26C13.5 24.4 13.4 13.55 13.8 10.1L14.15 7.5H16.75C19.05 7.5 19.4 7.65 19.7 8.6Z" fill="black"/>
<path d="M6.10002 15.5999C6.25002 16.6499 6.00002 16.7499 3.85002 16.8999C0.700019 17.0999 0.950019 18.1999 4.20002 18.3999C6.25002 18.5499 6.50002 18.6499 6.25002 19.5499C5.75002 21.0999 7.60002 20.7499 9.30002 18.9499L10.75 17.4499L9.10002 15.9499C7.15002 14.1999 5.85002 14.0499 6.10002 15.5999Z" fill="black"/>
<path d="M24.4 16L22.75 17.5L24.65 19.3C26.7 21.2 27.8 21.3 27.65 19.6C27.55 18.65 27.8 18.55 30.35 18.4C33.85 18.2 34.7 17.05 31.4 16.95C28.55 16.9 26.55 16.35 27.4 15.8C28.35 15.25 28.1 14.5 27 14.5C26.45 14.5 25.3 15.15 24.4 16Z" fill="black"/>
</svg>
