<svg width="16" height="17" viewBox="0 0 16 17" fill="none" xmlns="http://www.w3.org/2000/svg">
<g clip-path="url(#clip0_729_2871)">
<path d="M7.67978 1.40487V2.7765L6.87978 2.00705C5.69578 0.836141 5.50378 1.50523 6.65578 2.7765C7.55178 3.74669 7.67978 4.08123 7.67978 5.82087V7.72778L6.04778 6.8245C4.67178 6.0216 4.38378 5.68705 4.06378 4.44923C3.64778 2.84341 3.00778 2.47541 3.32778 4.01432C3.51978 5.18523 3.48778 5.18523 2.20778 4.48269C1.66378 4.21505 1.15178 4.04778 1.02378 4.14814C0.831778 4.38232 0.799778 4.34887 2.20778 5.25214L3.29578 5.95469L2.27178 6.18887C1.72778 6.28923 1.27978 6.55687 1.27978 6.72414C1.27978 7.09214 1.50378 7.09214 2.84778 6.69069C3.77578 6.42305 4.15978 6.48996 5.50378 7.25941C6.33578 7.72778 7.03978 8.2296 7.03978 8.36341C7.03978 8.49723 6.33578 8.99905 5.50378 9.46741C4.15978 10.2369 3.77578 10.3038 2.84778 10.0361C1.50378 9.63469 1.27978 9.63469 1.27978 10.0027C1.27978 10.17 1.72778 10.4376 2.27178 10.538L3.29578 10.7721L2.20778 11.4747C0.799778 12.378 0.831778 12.3445 1.02378 12.5787C1.15178 12.6791 1.66378 12.5118 2.20778 12.2441C3.48778 11.5416 3.51978 11.5416 3.32778 12.7125C3.00778 14.2514 3.64778 13.8834 4.06378 12.2776C4.38378 11.0398 4.67178 10.7052 6.04778 9.90232L7.67978 8.99905V10.906C7.67978 12.6456 7.55178 12.9801 6.65578 13.9503C5.50378 15.2216 5.69578 15.8907 6.87978 14.7198L7.67978 13.9503V15.322C7.67978 16.0914 7.83978 16.7271 7.99978 16.7271C8.19178 16.7271 8.31978 16.0914 8.31978 15.322V13.9503L9.11978 14.7198C10.3038 15.8907 10.4958 15.2216 9.34378 13.9503C8.44778 12.9801 8.31978 12.6456 8.31978 10.906V8.99905L9.95178 9.90232C11.3278 10.7052 11.6158 11.0398 11.9358 12.2776C12.3518 13.8834 12.9918 14.2514 12.7038 12.7125C12.4798 11.5416 12.5118 11.5416 13.7918 12.2441C14.3358 12.5118 14.8478 12.6791 14.9758 12.5787C15.1678 12.3445 15.1998 12.378 13.7918 11.4747L12.7038 10.7721L13.7278 10.538C14.2718 10.4376 14.7198 10.17 14.7198 10.0027C14.7198 9.63469 14.4958 9.63469 13.1518 10.0361C12.2238 10.3038 11.8398 10.2369 10.4958 9.46741C9.66378 8.99905 8.95978 8.49723 8.95978 8.36341C8.95978 8.2296 9.66378 7.72778 10.4958 7.25941C11.8398 6.48996 12.2238 6.42305 13.1518 6.69069C14.4958 7.09214 14.7198 7.09214 14.7198 6.72414C14.7198 6.55687 14.2718 6.28923 13.7278 6.18887L12.7038 5.95469L13.7918 5.25214C15.1998 4.34887 15.1678 4.38232 14.9758 4.14814C14.8478 4.04778 14.3358 4.21505 13.7918 4.48269C12.5118 5.18523 12.4798 5.18523 12.7038 4.01432C12.9918 2.47541 12.3518 2.84341 11.9358 4.44923C11.6158 5.68705 11.3278 6.0216 9.95178 6.8245L8.31978 7.72778V5.82087C8.31978 4.08123 8.44778 3.74669 9.34378 2.7765C10.4958 1.50523 10.3038 0.836141 9.11978 2.00705L8.31978 2.7765V1.40487C8.31978 0.635412 8.19178 -0.00022316 7.99978 -0.00022316C7.83978 -0.00022316 7.67978 0.635412 7.67978 1.40487Z" fill="black"/>
</g>
<defs>
<clipPath id="clip0_729_2871">
<rect width="16" height="16.7273" fill="white"/>
</clipPath>
</defs>
</svg>
