<?xml version="1.0" standalone="no"?>
<!DOCTYPE svg PUBLIC "-//W3C//DTD SVG 1.1//EN" "http://www.w3.org/Graphics/SVG/1.1/DTD/svg11.dtd" >
<svg xmlns="http://www.w3.org/2000/svg">
<metadata>Generated by IcoMoon</metadata>
<defs>
<font id="icomoon" horiz-adv-x="1024">
<font-face units-per-em="1024" ascent="960" descent="-64" />
<missing-glyph horiz-adv-x="1024" />
<glyph unicode="&#x20;" horiz-adv-x="512" d="" />
<glyph unicode="&#xe900;" glyph-name="winter" horiz-adv-x="964" d="M462.594 875.377v-82.621l-48.188 46.348c-71.319 70.53-82.884 30.227-13.493-46.348 53.971-58.44 61.681-78.591 61.681-183.379v-114.863l-98.304 54.409c-82.884 48.363-100.232 68.515-119.507 143.075-25.058 96.727-63.608 118.894-44.333 26.197 11.565-70.53 9.638-70.53-67.464-28.212-32.768 16.121-63.608 26.197-71.319 20.152-11.565-14.106-13.493-12.091 71.319-66.5l65.536-42.318-61.681-14.106c-32.768-6.045-59.753-22.167-59.753-32.242 0-22.167 13.493-22.167 94.449 2.015 55.898 16.121 79.029 12.091 159.985-34.257 50.116-28.212 92.521-58.44 92.521-66.5s-42.406-38.288-92.521-66.5c-80.956-46.35-104.087-50.38-159.985-34.255-80.956 24.179-94.449 24.179-94.449 2.012 0-10.077 26.985-26.196 59.753-32.244l61.681-14.101-65.536-42.321c-84.811-54.411-82.884-52.393-71.319-66.5 7.71-6.048 38.551 4.030 71.319 20.155 77.101 42.315 79.029 42.315 67.464-28.214-19.275-92.696 19.275-70.53 44.333 26.196 19.275 74.559 36.623 94.714 119.507 143.076l98.304 54.409v-114.866c0-104.785-7.71-124.934-61.681-183.374-69.391-76.577-57.826-116.881 13.493-46.351l48.188 46.351v-82.625c0-46.345 9.638-84.637 19.275-84.637 11.565 0 19.275 38.292 19.275 84.637v82.625l48.188-46.351c71.32-70.53 82.885-30.226 13.493 46.351-53.971 58.44-61.681 78.589-61.681 183.374v114.866l98.304-54.409c82.885-48.362 100.233-68.516 119.508-143.076 25.058-96.726 63.608-118.892 46.261-26.196-13.493 70.53-11.565 70.53 65.536 28.214 32.768-16.125 63.608-26.202 71.319-20.155 11.565 14.107 13.493 12.089-71.319 66.5l-65.536 42.321 61.681 14.101c32.768 6.048 59.753 22.167 59.753 32.244 0 22.167-13.493 22.167-94.449-2.012-55.898-16.125-79.029-12.095-159.985 34.255-50.117 28.212-92.523 58.439-92.523 66.5s42.406 38.287 92.523 66.5c80.956 46.348 104.087 50.378 159.985 34.257 80.956-24.181 94.449-24.181 94.449-2.015 0 10.076-26.985 26.197-59.753 32.242l-61.681 14.106 65.536 42.318c84.811 54.409 82.884 52.394 71.319 66.5-7.71 6.045-38.551-4.030-71.319-20.152-77.101-42.318-79.029-42.318-65.536 28.212 17.348 92.697-21.203 70.53-46.261-26.197-19.275-74.56-36.623-94.712-119.508-143.075l-98.304-54.409v114.863c0 104.788 7.71 124.939 61.681 183.379 69.392 76.575 57.827 116.878-13.493 46.348l-48.188-46.348v82.621c0 46.349-7.71 84.636-19.275 84.636-9.638 0-19.275-38.288-19.275-84.636z" />
<glyph unicode="&#xe901;" glyph-name="width" d="M374.491 752.274c-19.017-26.331-23.406-83.383-23.406-314.514 0-273.554 1.463-280.869 32.183-302.811 20.48-14.629 64.366-23.406 115.566-23.406 130.194 0 130.194 1.463 130.194 339.383 0 336.457 1.463 333.531-143.36 333.531-76.069 0-92.16-4.389-111.177-32.183zM576.366 708.389c11.703-43.886 11.703-476.891 0-520.777-8.777-30.72-17.554-33.646-83.383-29.257s-76.069 8.777-84.846 40.96c-13.166 46.811-16.091 364.251-4.389 465.189l10.24 76.069h76.069c67.291 0 77.531-4.389 86.309-32.183zM178.469 503.591c4.389-30.72-2.926-33.646-65.829-38.034-92.16-5.851-84.846-38.034 10.24-43.886 59.977-4.389 67.291-7.314 59.977-33.646-14.629-45.349 39.497-35.109 89.234 17.554l42.422 43.886-48.274 43.886c-57.051 51.2-95.086 55.589-87.771 10.24zM713.874 491.886l-48.274-43.886 55.589-52.663c59.977-55.589 92.16-58.514 87.771-8.777-2.926 27.794 4.389 30.72 78.994 35.109 102.4 5.851 127.269 39.497 30.72 42.423-83.383 1.463-141.897 17.554-117.029 33.646 27.794 16.091 20.48 38.034-11.703 38.034-16.091 0-49.737-19.017-76.069-43.886z" />
<glyph unicode="&#xe902;" glyph-name="tag" d="M441.601 601.594c-102.4-102.4-185.601-202.664-185.601-223.999 0-51.2 185.601-247.466 251.734-264.534 42.666-10.667 78.933 17.069 241.067 177.067l189.864 189.867v309.333h-309.333l-187.731-187.735zM853.334 614.394c0-85.331-10.667-102.4-164.267-256l-164.267-166.4-183.466 179.2 164.267 166.4c155.733 155.735 170.666 166.401 256 166.401h91.733v-89.601zM691.203 595.193c-21.334-36.267 27.733-76.8 57.599-46.934 25.6 25.6 8.534 70.401-23.467 70.401-10.664 0-25.6-10.667-34.131-23.467zM217.605 590.933c-96-96.001-174.933-189.867-174.933-209.066 0-44.801 247.467-283.736 275.199-266.667 42.669 27.733 23.467 66.133-83.199 172.799l-106.667 104.533 162.133 164.267c140.799 142.934 179.199 211.201 119.468 211.201-8.534 0-93.869-78.933-192.001-177.067z" />
<glyph unicode="&#xe903;" glyph-name="sun" d="M480 784c0-44.8 15.998-80 32-80 19.2 0 32 35.2 32 80s-12.8 80-32 80c-16.002 0-32-35.2-32-80zM211.207 742.4c-9.6-16 9.6-54.4 41.6-83.2 35.2-32 70.4-41.6 80-25.6s-9.6 54.4-41.6 83.2c-35.2 32-70.4 41.6-80 25.6zM723.2 707.207c-32-35.2-41.598-70.4-25.6-80 16.002-9.6 54.402 9.6 83.2 41.6 32 35.2 41.602 70.4 25.6 80-15.998 9.6-54.398-9.6-83.2-41.6zM358.396 598.396c-89.6-96-89.6-217.599 3.2-304.001 96-89.6 217.601-89.6 303.999 3.202 89.6 96 89.6 217.599-3.198 303.999-96 89.6-217.601 89.6-304.001-3.2zM620.795 556.796c99.202-96.001 28.802-268.801-108.8-268.801-76.799 0-159.999 83.2-159.999 160s83.2 160.001 159.999 160.001c32 0 83.2-22.4 108.8-51.2zM96 448c0-16.002 35.2-32 80-32s80 15.998 80 32c0 19.2-35.2 32-80 32s-80-12.8-80-32zM768 448c0-16.002 35.202-32 80.002-32s79.998 15.998 79.998 32c0 19.2-35.198 32-79.998 32s-80.002-12.8-80.002-32zM243.2 227.207c-32-35.198-41.6-70.4-25.6-79.998 16-9.602 54.4 9.598 83.2 41.598 32 35.202 41.6 70.4 25.6 80.002-16 9.598-54.4-9.602-83.2-41.602zM691.209 262.4c-9.602-15.998 9.598-54.398 41.598-83.2 35.202-32 70.4-41.598 80.002-25.6 9.598 16.002-9.602 54.402-41.602 83.2-35.198 32-70.4 41.602-79.998 25.6zM480 111.998c0-44.795 15.998-79.998 32-79.998 19.2 0 32 35.202 32 79.998 0 44.805-12.8 80.002-32 80.002-16.002 0-32-35.198-32-80.002z" />
<glyph unicode="&#xe904;" glyph-name="star-solid" d="M512.012 223.153l263.68-159.145-69.971 299.945 232.96 201.815-306.775 26.025-119.895 282.88-119.892-282.88-306.773-26.025 232.96-201.815-69.973-299.945 263.679 159.145z" />
<glyph unicode="&#xe905;" glyph-name="sort" d="M232.448 826.875c-11.264-12.288-22.528-34.816-25.6-51.2-7.168-32.768 6.144-126.976 26.624-196.609 12.288-39.936 12.288-50.176-1.024-74.752-13.312-25.6-12.288-32.768 2.048-63.488 11.264-23.552 25.6-35.84 46.080-39.936 32.768-7.168 64.512-55.296 36.864-55.296-8.192 0-15.36 6.144-15.36 14.336s-5.12 18.432-11.264 22.528c-8.192 4.096-9.216 0-4.096-15.36 8.192-26.624 0-26.624-102.4-6.144-86.016 18.432-148.48 41.984-148.48 56.32 0 6.144 3.072 10.24 8.192 10.24 13.312 0 90.112 70.656 76.8 71.68-6.144 0-33.792-16.384-60.416-36.864-36.864-28.672-50.176-33.792-56.32-22.528-5.12 7.168-9.216 18.432-9.216 25.6 0 19.456 59.392 63.488 102.4 74.752 52.224 14.336 68.608 36.864 19.456 26.624-54.272-10.24-144.384-59.392-166.912-90.112l-20.48-28.672 24.576-25.6c20.48-21.504 22.528-28.672 12.288-51.2-18.432-40.96 1.024-68.608 77.824-105.472 78.848-37.888 77.824-36.864 96.256-18.432 8.192 7.168 39.936 16.384 72.704 20.48l58.368 7.168v-33.792c0-43.008 24.576-79.872 54.272-79.872 13.312 0 38.912 10.24 57.344 23.552l34.816 23.552 32.768-35.84c18.432-20.48 35.84-49.152 39.936-64.512 4.096-20.48 14.336-29.696 34.816-34.816 15.36-3.072 39.936-12.288 55.296-20.48 36.864-19.456 46.080-18.432 74.752 11.264 21.504 21.504 25.6 33.792 25.6 90.112 0 76.8-9.216 130.048-22.528 130.048-5.12 0-6.144-28.672-2.048-66.56 5.12-52.224 3.072-71.68-10.24-92.16-19.456-30.72-57.344-34.816-57.344-7.168s-35.84 57.344-60.416 50.176c-24.576-6.144-88.064 58.368-75.776 77.824 28.672 48.128 50.176 68.608 73.728 68.608 97.28 1.024 262.144 61.44 292.864 108.544 15.36 23.552 15.36 27.648-3.072 58.368-13.312 22.528-18.432 44.032-15.36 66.56 6.144 39.936-15.36 69.632-59.392 77.824-100.352 19.457-91.136 11.264-91.136 77.825 0 63.488-15.36 92.16-50.176 92.16-20.48 0-87.040-46.080-117.76-80.896-33.792-37.888-8.192-35.84 34.816 3.072 46.080 40.96 75.776 47.104 92.16 17.408 16.384-31.744 12.288-80.896-7.168-92.16-14.336-8.193-15.36-13.313-6.144-19.457 15.36-10.24-11.264-96.256-57.344-186.368-30.72-60.416-59.392-80.896-123.904-89.088-35.84-5.12-40.96-3.072-55.296 25.6-17.408 32.768-10.24 48.128 14.336 31.744 32.768-19.456 79.872-10.24 112.64 23.552 28.672 28.672 32.768 36.864 27.648 73.728-11.264 79.872-101.376 117.76-153.6 64.512-17.408-16.384-31.744-21.504-53.248-17.408-25.6 4.096-30.72 12.288-43.008 56.32-15.36 62.465-17.408 142.337-3.072 169.985 13.312 23.552 44.032 25.6 61.44 4.096 7.168-8.192 20.48-15.36 28.672-15.36 9.216 0 31.744-14.336 50.176-32.768 22.528-21.504 33.792-27.648 33.792-17.408 0 9.216-11.264 26.624-24.576 38.912-13.312 13.312-27.648 33.792-30.72 47.104-4.096 16.384-15.36 24.576-38.912 28.672-18.432 3.072-46.080 9.216-60.416 12.288-20.48 5.12-32.768 1.024-48.128-15.36zM730.112 595.45c26.624-17.408 31.744-61.44 6.144-51.2-9.216 4.096-36.864 11.264-62.464 18.432-32.768 8.192-44.032 15.36-39.936 25.6 3.072 8.192 6.144 19.456 6.144 24.576 0 12.288 60.416 0 90.112-17.408zM384 545.274c-7.168-8.192-18.432-15.36-24.576-15.36s-2.048 7.168 8.192 15.36c25.6 19.456 32.768 19.456 16.384 0zM720.896 524.794c21.504-8.192-6.144-34.816-30.72-28.672-21.504 6.144-60.416-22.528-60.416-44.032 0-15.36-38.912-45.056-58.368-45.056-8.192 0-2.048 22.528 17.408 64.512 17.408 34.816 30.72 68.608 30.72 75.776 0 11.264 15.36 8.192 101.376-22.528zM322.56 529.914c12.288-8.192 10.24-10.24-10.24-10.24-15.36 0-31.744-5.12-38.912-12.288s-12.288-23.552-12.288-37.888c0-21.504-2.048-23.552-10.24-11.264-14.336 22.528-13.312 28.672 15.36 56.32 27.648 28.672 33.792 29.696 56.32 15.36zM756.736 426.49c-19.456-21.504-102.4-54.272-162.816-64.512l-40.96-6.144 46.080 24.576c28.672 15.36 55.296 22.528 69.632 19.456 23.552-5.12 63.488 20.48 63.488 40.96 0 6.144 8.192 19.456 18.432 30.72 17.408 19.456 17.408 19.456 20.48-3.072 2.048-12.288-4.096-30.72-14.336-41.984zM668.672 458.234c-14.336-22.528-24.576-19.456-15.36 5.12 4.096 8.192 11.264 15.36 17.408 15.36s6.144-7.168-2.048-20.48zM88.064 328.186c-9.216-7.168-24.576-13.312-33.792-13.312-20.48 0-49.152 26.624-49.152 46.080 0 10.24 10.24 10.24 50.176-3.072 41.984-14.336 47.104-19.456 32.768-29.696zM215.040 315.898l40.96-9.216-49.152-1.024c-32.768-1.024-55.296 4.096-65.536 14.336-14.336 14.336-13.312 15.36 8.192 10.24 13.312-3.072 43.008-9.216 65.536-14.336zM95.232 294.394c-7.168-10.24-14.336-17.408-17.408-15.36-4.096 4.096 18.432 35.84 25.6 35.84 2.048 0-1.024-9.216-8.192-20.48zM465.92 306.682c0-5.12-10.24-18.432-23.552-30.72l-23.552-22.528-18.432 30.72-17.408 30.72h40.96c23.552 0 41.984-4.096 41.984-8.192zM388.096 272.89c20.48-34.816 15.36-44.032-31.744-56.32-36.864-10.24-54.272 2.048-54.272 36.864 0 37.888 15.36 38.912 55.296 3.072 29.696-26.624 29.696-26.624 8.192-2.048-12.288 14.336-22.528 31.744-22.528 37.888 0 23.552 26.624 12.288 45.056-19.456zM527.36 135.674c-7.168-9.216-15.36-13.312-17.408-11.264-7.168 7.168 7.168 26.624 19.456 26.624 6.144 0 6.144-6.144-2.048-15.36zM624.64 529.91c-3.072-5.12-2.048-10.24 4.096-10.24 5.12 0 13.312 5.12 16.384 10.24 3.072 6.144 2.048 10.24-4.096 10.24-5.12 0-13.312-4.096-16.384-10.24zM606.208 481.786c-4.096-10.24-11.264-28.672-17.408-41.984-6.144-15.36-6.144-21.504 0-17.408 6.144 3.072 10.24 11.264 10.24 17.408s8.192 17.408 18.432 24.576c12.288 9.216 14.336 16.384 6.144 24.576s-13.312 7.168-17.408-7.168zM54.271 663.030c7.168-18.432 60.416-57.344 126.976-91.136 15.36-8.192 30.72-23.552 34.816-33.792 3.072-10.24 10.24-16.384 15.36-12.288 16.384 10.24-20.48 43.008-95.232 87.040-38.912 22.528-69.632 45.056-69.632 50.176 0 14.336 9.216 12.288 38.912-9.216 36.864-25.6 114.688-62.464 114.688-54.272 0 10.24-138.24 83.968-157.696 83.968-11.264 0-13.312-5.12-8.192-20.48zM527.36 584.192c-19.456-9.216-30.72-17.408-24.576-20.48 11.264-4.096 86.016 24.576 86.016 32.768 0 9.216-24.576 4.096-61.44-12.288z" />
<glyph unicode="&#xe906;" glyph-name="search" d="M661.335 362.665h-33.707l-11.945 11.522c41.81 48.64 66.983 111.785 66.983 180.479 0 153.173-124.158 277.333-277.332 277.333s-277.333-124.16-277.333-277.333c0-153.174 124.16-277.332 277.333-277.332 68.694 0 131.839 25.173 180.479 66.983l11.522-11.945v-33.707l213.33-212.903 63.573 63.573-212.903 213.33zM405.333 362.665c-106.24 0-192 85.762-192 192.001s85.76 192 192 192c106.239 0 192.001-85.76 192.001-192s-85.762-192.001-192.001-192.001z" />
<glyph unicode="&#xe907;" glyph-name="phone" d="M237.083 832.307c-40.015-30.14-71.406-68.51-73.516-92.622-15.508-198.62 404.224-698.836 602.515-718.054 44.515-3.891 165.7 99.508 169.591 144.024 1.298 14.836-41.337 61.555-93.569 105.37-96.17 75.698-98.025 75.858-161.829 51.536l-63.64-22.462-103.24 123.036-101.224 124.727 34.869 56.757c33.014 56.918 33.178 58.772-24.67 166.624-34.081 59.050-72.683 109.15-87.521 110.448s-57.914-21.098-97.767-49.383z" />
<glyph unicode="&#xe908;" glyph-name="person" d="M512 448c94.293 0 170.667 76.373 170.667 170.667s-76.373 170.667-170.667 170.667c-94.293 0-170.667-76.373-170.667-170.667s76.373-170.667 170.667-170.667zM512 362.667c-113.92 0-341.333-57.173-341.333-170.667v-85.333h682.667v85.333c0 113.493-227.413 170.667-341.333 170.667z" />
<glyph unicode="&#xe909;" glyph-name="payment" d="M853.334 789.328h-682.665c-47.36 0-84.907-37.973-84.907-85.333l-0.427-512.001c0-47.36 37.973-85.331 85.333-85.331h682.665c47.36 0 85.334 37.971 85.334 85.331v512.001c0 47.36-37.974 85.333-85.334 85.333zM810.669 191.994h-597.333c-23.467 0-42.667 19.2-42.667 42.669v213.331h682.665v-213.331c0-23.469-19.2-42.669-42.666-42.669zM853.334 618.662h-682.665v42.666c0 23.467 19.2 42.667 42.667 42.667h597.333c23.466 0 42.666-19.2 42.666-42.667v-42.666z" />
<glyph unicode="&#xe90a;" glyph-name="height" d="M478.354 905.873c-5.851-4.389-10.24-42.423-10.24-81.92 0-57.051-4.389-70.217-21.943-64.366-39.497 16.091-39.497-20.48 0-70.217 32.183-43.885 42.423-48.273 65.829-36.57 30.72 17.553 77.531 93.622 64.366 106.787-4.389 4.389-17.554 4.389-29.257 0-16.091-5.851-20.48 7.314-20.48 51.2 0 86.309-19.017 124.343-48.274 95.086zM387.657 585.509c-81.92-30.72-163.84-114.103-191.634-198.949-74.606-223.817 168.229-447.634 400.823-371.566 90.697 30.72 168.229 103.863 201.874 193.097 21.943 58.514 23.406 78.994 8.777 150.674-14.629 68.754-29.257 93.623-87.771 150.674-100.937 96.549-207.726 121.417-332.069 76.069zM577.829 534.309c117.029-33.646 200.411-171.154 169.691-283.794-32.183-119.954-119.954-182.857-250.149-182.857-141.897 0-248.686 99.474-248.686 232.594 0 100.937 58.514 181.394 160.914 226.743 61.44 26.331 92.16 27.794 168.229 7.314zM440.32 468.486c-38.034-49.737-39.497-70.217-1.463-59.977 24.869 5.851 29.257 0 29.257-48.274 0-59.977 23.406-90.697 45.349-57.051 7.314 11.703 13.166 38.034 13.166 61.44 0 29.257 7.314 39.497 29.257 39.497 39.497 0 36.571 16.091-11.703 62.903-51.2 49.737-65.829 49.737-103.863 1.463z" />
<glyph unicode="&#xe90b;" glyph-name="enter-arrow" d="M810.667 320l-256-256-60.587 60.587 153.173 152.747h-476.587v512h85.333v-426.667h391.253l-153.173 152.747 60.587 60.587 256-256z" />
<glyph unicode="&#xe90c;" glyph-name="diameter" d="M332.024 798.644c-147.394-68.267-257.552-255.999-231.176-394.085 40.339-212.559 229.624-359.95 440.629-339.78 113.261 9.308 198.595 52.75 276.169 141.186 175.322 198.595 105.506 487.177-142.739 600.437-91.539 41.891-243.586 38.788-342.884-7.757zM701.286 700.898c97.744-71.369 141.186-159.806 131.878-273.068-10.861-121.016-62.061-197.041-167.564-249.791-170.667-83.784-369.261-24.825-449.939 133.427-49.649 96.195-37.236 238.933 26.376 318.062 80.679 99.297 150.497 130.327 280.825 125.672 96.195-4.654 119.467-12.412 178.425-54.303zM628.364 572.122c-4.656-7.759-4.656-29.481 0-46.548 9.308-29.478 3.103-31.031-116.364-31.031h-124.122l9.312 38.789c13.961 54.303-24.825 51.2-94.644-9.308-62.061-55.856-57.406-83.784 29.479-136.533 66.715-41.892 76.023-40.339 68.268 6.205-7.759 38.789-7.759 38.789 111.708 38.789 111.708 0 121.016-3.103 113.261-29.481-13.964-52.75 24.822-49.647 83.78 4.656 48.097 43.441 55.856 58.959 41.892 80.678-26.375 44.995-110.159 102.4-122.569 83.784z" />
<glyph unicode="&#xe90d;" glyph-name="demiseason" horiz-adv-x="906" d="M527.51 414.952c-91.227-250.644-103.302-289.13-92.199-293.175 10.252-3.73 19.050 12.469 50.55 99.021 20.677 56.8 40.302 102.751 44.572 101.199 3.419-1.245 24.915-45.828 48.057-99.174l41.228-96.689 26.864 12.686 27.719 12.375-42.606 98.209c-23.142 53.35-40.767 100.604-39.456 104.212 1.315 3.604 46.714-9.854 100.525-29.44l98.225-35.753 19.688 54.095-98.225 35.753c-53.811 19.586-97.241 38.455-95.602 42.965 1.315 3.604 44.863 27.577 96.882 53.567l94.255 46.356-11.244 27.577-10.913 28.476-95.768-47.85c-52.019-25.99-98.001-46.013-101.415-44.768-3.419 1.245 11.083 49.061 31.76 105.86 31.5 86.553 35.174 104.616 24.923 108.346-11.103 4.042-26.592-33.204-117.819-283.846zM451.938 406.603c-73.066-200.743-127.647-368.479-121.119-370.853 12.537-3.639 282.887 721.363 275.621 736.946-2.595 5.565-7.491 7.347-13.056 4.752-4.454-2.076-67.789-168.471-141.446-370.845zM521.83 731.6c-14.371-39.48-17.81-56.112-8.031-36.422 9.204 18.11 20.701 49.695 25.864 71.064 4.592 19.791-3.466 4.838-17.833-34.642zM340.71 747.441c-8.047-22.109 24.36-109.018 37.615-101.323 5.761 5.057 5.73 30.106-1.225 57.675-13.327 49.561-27.769 67.336-36.39 43.648zM425.078 616.572c-69.186-21.318-120.988-106.19-120.297-197.653 0.633-44.938 30.696-102.38 58.393-112.463 6.924-2.521 36.257 63.709 69.017 153.722 61.503 168.975 60.916 178.132-7.113 156.394zM189.844 548.387c-2.874-7.897 15.025-23.351 40.414-32.591 25.389-9.244 49.035-8.909 51.909-1.012 3.449 9.476-15.025 23.355-40.414 32.595s-48.461 10.484-51.909 1.008zM216.064 333.182c-23.049-16.648-39.175-35.816-38.012-43.394 5.209-14.415 85.897 31.33 93.945 53.441 8.622 23.69-13.866 19.354-55.933-10.047zM326.406 194.658c-14.369-39.479-17.809-56.111-8.029-36.423 9.206 18.109 20.701 49.696 25.865 71.066 4.589 19.791-3.466 4.836-17.836-34.643z" />
<glyph unicode="&#xe90e;" glyph-name="delivery" d="M0 703.996c0-40.532 14.933-42.666 298.668-42.666h298.665v-388.268l-142.934 12.8c-241.065 21.332-249.599 21.332-287.999 4.268-57.6-25.6-49.067 40.534 8.533 81.065 46.934 34.135 44.8 34.135-42.666 34.135h-89.6v-106.668c0-91.734 6.4-106.668 40.533-106.668 23.467 0 49.067-19.199 55.467-42.665 32-100.266 183.467-106.668 228.266-10.666 21.335 46.932 36.266 53.331 145.068 53.331 108.799 0 123.732-6.399 145.068-53.331 44.799-96.001 196.265-89.6 228.266 10.666 6.399 23.466 31.999 42.665 55.465 42.665 68.268 0 55.468 183.468-23.466 341.335-61.866 123.732-66.134 128-149.332 128-70.401 0-85.332 6.399-85.332 42.666 0 40.533-14.934 42.666-341.335 42.666-326.399 0-341.332-2.133-341.332-42.666zM810.668 567.462c0-4.268 6.399-23.466 12.8-42.668 10.666-27.731-2.134-34.132-64-34.132-61.869 0-76.8 8.532-76.8 42.668 0 34.132 14.931 42.665 64 42.665 36.266 0 64-4.265 64-8.532zM896 339.196c0-55.468-6.401-64-36.266-49.066-21.335 8.532-70.401 17.065-106.668 17.065-59.732 0-70.399 6.401-70.399 49.069 0 44.799 8.532 49.066 106.665 49.066 104.534 0 106.668 0 106.668-66.134zM298.668 191.994c0-27.731-14.934-42.665-42.668-42.665s-42.667 14.934-42.667 42.665c0 27.734 14.934 42.668 42.667 42.668s42.668-14.934 42.668-42.668zM810.668 191.994c0-27.731-14.934-42.665-42.668-42.665s-42.668 14.934-42.668 42.665c0 27.734 14.934 42.668 42.668 42.668s42.668-14.934 42.668-42.668zM42.669 533.33c0-38.4 14.933-42.668 149.333-42.668s149.333 4.268 149.333 42.668c0 38.4-14.934 42.665-149.333 42.665s-149.333-4.265-149.333-42.665z" />
<glyph unicode="&#xe90f;" glyph-name="chevron-goUp" horiz-adv-x="2112" d="M89.6 38.4c-12.8 6.4-19.2 19.2-19.2 38.4 0 12.8 6.4 25.6 12.8 38.4 12.8 19.2 38.4 44.8 70.4 76.8 70.4 64 192 160 390.4 313.6 134.4 108.8 262.4 204.8 358.4 268.8 44.8 32 83.2 64 115.2 83.2 12.8 12.8 25.6 19.2 32 25.6 6.4 0 6.4 6.4 12.8 6.4 0 0 6.4 0 6.4 0s0 0 0 0 6.4 0 12.8 0c6.4 0 12.8 0 12.8 0s0 0 0 0 6.4 0 6.4 0 6.4-6.4 12.8-6.4 19.2-12.8 32-25.6 70.4-44.8 115.2-83.2c83.2-64 211.2-160 352-268.8 198.4-153.6 320-249.6 390.4-313.6 32-32 57.6-57.6 70.4-76.8 6.4-12.8 12.8-25.6 12.8-38.4 0-19.2-6.4-32-19.2-38.4-19.2-19.2-44.8-12.8-70.4-6.4s-57.6 25.6-96 44.8c-76.8 51.2-198.4 134.4-377.6 275.2l-441.6 339.2-448-339.2c-185.6-140.8-300.8-224-377.6-275.2-38.4-25.6-70.4-38.4-96-44.8-25.6-12.8-51.2-12.8-70.4 6.4zM128-6.4c-25.6 0-44.8 6.4-57.6 19.2v0c-19.2 12.8-32 38.4-32 57.6s6.4 38.4 12.8 57.6c12.8 25.6 38.4 51.2 76.8 89.6 64 64 179.2 153.6 390.4 313.6 128 96 249.6 192 358.4 268.8 44.8 32 89.6 64 115.2 83.2 12.8 12.8 25.6 19.2 32 25.6s12.8 6.4 12.8 6.4c0 0 6.4 0 6.4 6.4 6.4 6.4 25.6 6.4 44.8 0h6.4c0 0 0 0 0 0h6.4c0 0 0 0 0 0 6.4 0 6.4-6.4 12.8-6.4 6.4-6.4 19.2-12.8 38.4-25.6 25.6-19.2 70.4-44.8 115.2-83.2 102.4-76.8 230.4-172.8 358.4-268.8 211.2-160 326.4-256 390.4-313.6 38.4-38.4 64-64 76.8-89.6 12.8-19.2 12.8-38.4 12.8-57.6 0-25.6-12.8-44.8-32-57.6-25.6-19.2-64-25.6-102.4-12.8-25.6 6.4-57.6 25.6-102.4 51.2-76.8 44.8-185.6 128-377.6 275.2l-422.4 320-422.4-320c-198.4-153.6-307.2-230.4-377.6-275.2-44.8-25.6-76.8-44.8-102.4-51.2-12.8-12.8-25.6-12.8-38.4-12.8zM1068.8 864v0c-6.4 0-12.8-6.4-12.8-6.4-6.4-6.4-19.2-12.8-32-25.6-25.6-19.2-64-44.8-115.2-83.2-102.4-76.8-230.4-172.8-352-268.8-211.2-160-320-249.6-384-313.6-32-32-51.2-51.2-64-70.4-6.4-6.4-6.4-12.8-6.4-19.2 0 0 0-6.4 6.4-12.8v0c6.4-6.4 19.2-12.8 44.8 0 19.2 6.4 51.2 19.2 89.6 44.8 70.4 44.8 179.2 121.6 377.6 275.2l460.8 352 454.4-358.4c192-147.2 300.8-230.4 377.6-275.2 38.4-25.6 64-38.4 89.6-44.8s38.4 0 44.8 0c6.4 6.4 6.4 12.8 6.4 12.8 0 6.4 0 12.8-6.4 19.2-6.4 19.2-32 38.4-64 70.4-64 57.6-172.8 147.2-384 313.6-128 96-256 192-358.4 268.8-44.8 32-83.2 64-115.2 83.2-12.8 6.4-25.6 19.2-32 19.2 0 0-6.4 6.4-6.4 6.4l-19.2 12.8z" />
<glyph unicode="&#xe910;" glyph-name="chevron-drop" d="M707.84 593.5l-195.84-195.414-195.84 195.414-60.16-60.16 256-256 256 256-60.16 60.16z" />
<glyph unicode="&#xe911;" glyph-name="check" d="M384.026 270.066l-148.053 148.053c-16.64 16.64-43.52 16.64-60.16 0s-16.64-43.52 0-60.16l178.347-178.347c16.64-16.64 43.52-16.64 60.16 0l451.412 451.413c16.64 16.64 16.64 43.52 0 60.16-16.638 16.64-43.519 16.64-60.159 0l-421.547-421.12z" />
<glyph unicode="&#xe912;" glyph-name="cart" d="M47.049 929.557c0-8.303 8.303-22.141 16.605-24.908 38.746-24.908 63.654-110.703 94.097-329.341 44.281-293.362 44.281-296.13 74.724-326.573 22.141-22.141 69.189-24.908 296.13-24.908 168.822 0 271.222 5.535 271.222 16.605 0 8.303-94.097 16.605-251.849 16.605-177.124 0-260.151 5.535-279.524 22.141-19.373 13.838-35.978 80.259-58.119 229.708-16.605 116.238-33.211 218.638-33.211 226.941 0 13.838 119.005 16.605 376.389 16.605 207.568 0 376.389-5.535 376.389-8.303 0-24.908-52.584-210.335-66.422-240.778-24.908-49.816-71.957-63.654-312.735-99.632-119.005-16.605-218.638-35.978-224.173-38.746-24.908-24.908 27.676-27.676 207.568-2.768 345.946 47.049 357.016 55.351 404.065 251.849 13.838 63.654 30.443 130.076 35.978 146.681 5.535 24.908-19.373 27.676-392.995 27.676h-401.297l-38.746 71.957c-35.978 66.422-94.097 110.703-94.097 69.189zM528.605 209.989c-232.476 0-279.524 5.535-304.432 30.443-33.211 33.211-35.978 41.514-80.259 334.876-30.443 210.335-52.584 296.13-88.562 318.27-11.070 5.535-22.141 22.141-22.141 35.978 0 22.141 13.838 27.676 19.373 30.443 27.676 8.303 74.724-41.514 99.632-94.097l35.978-66.422h390.227c340.411 0 384.692 0 401.297-22.141 8.303-8.303 5.535-19.373 2.768-22.141-5.535-16.605-19.373-80.259-35.978-143.914-47.049-202.032-66.422-213.103-415.135-262.919-199.265-27.676-218.638-19.373-226.941-2.768-2.768 5.535-5.535 16.605 8.303 27.676 2.768 2.768 11.070 11.070 232.476 44.281 238.011 33.211 282.292 47.049 304.432 91.33 13.838 27.676 55.351 177.124 63.654 224.173-38.746 0-168.822 5.535-362.551 5.535-80.259 0-315.503 0-359.784-11.070 2.768-24.908 13.838-110.703 30.443-218.638 11.070-60.886 33.211-207.568 52.584-221.405 24.908-19.373 210.335-19.373 271.222-19.373 265.686 0 265.686-13.838 265.686-30.443 2.768-13.838 2.768-27.676-282.292-27.676zM60.886 929.557c0-2.768 5.535-11.070 8.303-13.838 44.281-27.676 66.422-107.935 99.632-337.643 41.514-290.595 44.281-290.595 71.957-318.27 16.605-16.605 74.724-22.141 285.059-22.141 66.422 0 116.238 0 154.984 2.768-35.978 0-80.259 2.768-135.611 2.768-213.103 0-268.454 8.303-287.827 24.908-22.141 13.838-35.978 69.189-63.654 238.011-16.605 102.4-33.211 218.638-33.211 229.708 0 22.141 0 30.443 390.227 30.443s390.227-8.303 390.227-24.908c0-27.676-52.584-215.87-69.189-249.081-27.676-58.119-85.795-71.957-323.805-105.168-91.33-13.838-163.286-24.908-196.497-33.211 27.676 0 77.492 5.535 177.124 19.373 348.714 47.049 348.714 55.351 392.995 240.778 13.838 60.886 30.443 127.308 35.978 146.681-22.141 11.070-157.751 11.070-379.157 11.070h-406.832l-44.281 83.027c-22.141 47.049-52.584 71.957-66.422 74.724 0 2.768 0 0 0 0zM282.292 115.892c-33.211-38.746-33.211-105.168 2.768-135.611 63.654-58.119 163.286-13.838 163.286 71.957 0 80.259-110.703 124.541-166.054 63.654zM390.227 85.449c13.838-11.070 24.908-30.443 24.908-38.746 0-16.605-47.049-63.654-63.654-63.654s-63.654 47.049-63.654 63.654c0 16.605 47.049 63.654 63.654 63.654 8.303 2.768 24.908-8.303 38.746-24.908zM351.481-61.232c-27.676 0-55.351 11.070-74.724 30.443-19.373 16.605-30.443 44.281-30.443 71.957-2.768 30.443 8.303 60.886 30.443 83.027 27.676 30.443 74.724 41.514 116.238 24.908 44.281-16.605 71.957-55.351 71.957-99.632s-24.908-85.795-66.422-102.4c-16.605-5.535-33.211-8.303-47.049-8.303zM348.714 129.73c-19.373 0-38.746-5.535-55.351-24.908v0c-13.838-16.605-22.141-38.746-22.141-63.654 0-22.141 8.303-41.514 22.141-52.584 24.908-22.141 60.886-27.676 91.33-16.605 30.443 13.838 49.816 41.514 49.816 77.492 0 30.443-22.141 60.886-52.584 71.957-11.070 5.535-22.141 8.303-33.211 8.303zM351.481-30.789c-24.908 0-77.492 52.584-77.492 77.492s52.584 77.492 77.492 77.492c13.838 0 35.978-13.838 47.049-30.443 13.838-13.838 30.443-33.211 30.443-47.049 0-24.908-52.584-77.492-77.492-77.492zM351.481 99.286c-11.070-2.768-47.049-38.746-49.816-49.816 2.768-11.070 38.746-47.049 49.816-49.816 11.070 2.768 47.049 38.746 49.816 49.816 0 2.768-8.303 16.605-22.141 27.676v0c-11.070 13.838-24.908 19.373-27.676 22.141zM617.168 107.589c-33.211-44.281-33.211-77.492 0-121.773 35.978-55.351 132.843-44.281 166.054 16.605 22.141 38.746 22.141 47.049 0 88.562-33.211 60.886-130.076 71.957-166.054 16.605zM733.405 93.751c47.049-47.049-5.535-124.541-66.422-91.33-47.049 27.676-24.908 110.703 27.676 110.703 11.070 0 27.676-8.303 38.746-19.373zM689.124-61.232c-35.978 0-66.422 13.838-83.027 41.514-35.978 49.816-35.978 88.562 0 138.378 19.373 27.676 52.584 41.514 88.562 41.514 41.514-2.768 80.259-24.908 99.632-58.119 22.141-44.281 22.141-58.119 0-102.4-19.373-35.978-58.119-58.119-99.632-60.886 0 0-2.768 0-5.535 0zM689.124 129.73c-27.676 0-49.816-11.070-60.886-30.443v0c-27.676-38.746-27.676-66.422 0-105.168 13.838-19.373 38.746-30.443 66.422-30.443 33.211 2.768 63.654 19.373 77.492 44.281 19.373 33.211 19.373 38.746 0 74.724-13.838 24.908-44.281 41.514-77.492 44.281-2.768 2.768-2.768 2.768-5.535 2.768zM694.659-19.719c-11.070 0-22.141 2.768-35.978 8.303-27.676 16.605-38.746 49.816-30.443 83.027s35.978 55.351 63.654 55.351c13.838 0 33.211-8.303 47.049-22.141 30.443-30.443 24.908-71.957 8.303-94.097-8.303-19.373-27.676-30.443-52.584-30.443zM694.659 99.286c-22.141 0-33.211-19.373-38.746-33.211-5.535-16.605-2.768-38.746 16.605-49.816 24.908-13.838 44.281-2.768 55.351 11.070s13.838 38.746-5.535 58.119c-8.303 8.303-22.141 13.838-27.676 13.838z" />
<glyph unicode="&#xe913;" glyph-name="call" d="M853.334 298.666c-53.334 0-104.534 8.534-152.32 24.32-14.934 4.694-31.574 1.28-43.52-10.24l-93.869-93.866c-120.746 61.44-219.731 160-281.172 281.174l93.867 94.291c11.946 11.094 15.36 27.734 10.666 42.669-15.786 47.786-24.32 98.986-24.32 152.319 0 23.467-19.2 42.667-42.666 42.667h-149.333c-23.467 0-42.667-19.2-42.667-42.667 0-400.639 324.694-725.333 725.334-725.333 23.466 0 42.666 19.2 42.666 42.666v149.334c0 23.466-19.2 42.666-42.666 42.666zM810.666 448h85.334c0 212.053-171.946 384-384 384v-85.333c165.12 0 298.666-133.547 298.666-298.667zM640 448h85.334c0 117.76-95.574 213.333-213.334 213.333v-85.333c70.826 0 128-57.174 128-128z" />
<glyph unicode="&#xe914;" glyph-name="calculate" d="M87.994 904c-35.2-33.6-40-54.4-41.6-163.2-4.8-179.199-4.8-291.201-1.6-513.601 3.2-185.599 4.8-198.399 43.2-235.2l38.4-39.999h771.199l38.4 39.999 40.002 38.4v835.2l-40.002 38.4-38.4 40h-771.199l-38.4-40zM884.794 910.4c68.8-30.4 75.201-73.6 75.201-462.4s-6.401-431.999-75.201-462.399c-52.799-24.001-692.8-24.001-745.599 0-68.8 30.4-75.2 73.599-75.2 462.399 0 384 8 430.4 70.4 460.8 48 24 700.801 24 750.4 1.6zM147.2 828.795c-25.6-25.6-25.6-192.001 0-217.601 27.2-27.199 702.4-27.199 729.601 0 25.6 25.6 25.6 192.001 0 217.601-27.202 27.2-702.401 27.2-729.601 0zM860.801 812.795c25.6-25.6 25.6-160 0-185.6-14.402-14.399-113.601-19.199-352.001-19.199-371.199 0-364.799-1.602-364.799 118.399 0 102.4 12.8 105.6 374.401 105.6 230.4 0 327.998-4.8 342.399-19.2zM283.196 532.806c-6.399-4.802-11.198-22.402-11.198-38.4 0-17.602-14.401-30.402-35.201-33.6-56-8-59.2-72-6.4-86.402 25.6-6.399 41.601-20.798 41.601-38.4 0-38.4 41.598-51.2 72-22.399 12.8 14.402 23.998 30.4 23.998 38.4 0 6.401 14.402 16.001 32.001 20.8 41.598 11.201 43.2 75.201 1.599 86.399-16.001 3.201-38.4 25.6-47.999 46.4-16.001 36.801-49.601 49.601-70.401 27.202zM335.998 481.606c0-19.201 12.8-33.6 35.199-36.801 47.999-6.401 54.401-41.601 9.599-47.999-23.998-3.201-38.4-17.6-41.601-41.601-6.399-44.801-41.598-38.4-47.999 9.599-3.201 22.399-17.6 35.199-36.799 35.199-40 0-40 32.001 1.6 43.202 17.6 4.8 31.999 22.399 31.999 38.4 0 17.6 11.201 30.4 24.001 30.4s24.001-14.402 24.001-30.4zM598.384 440c-20.8-52.799 6.399-72 102.4-72 99.199 0 143.998 25.6 124.799 72-12.8 33.6-214.399 35.199-227.199 0zM796.782 420.801c4.8-16.001-20.8-20.8-91.199-20.8-91.202 0-113.601 9.599-86.402 38.4 19.201 19.199 169.601 3.201 177.601-17.6zM667.207 244.796c-20.8-19.201-11.201-83.201 14.399-97.6 24.001-12.8 24.001-16.001 0-24.001-33.6-12.8-33.6-89.6 0-102.4 60.799-22.399 107.2 51.2 62.401 97.6-14.402 14.399-19.201 25.6-9.602 25.6 25.6 0 38.403 64 17.602 88.001-20.8 25.6-67.201 31.999-84.8 12.8zM731.207 185.596c-6.401-14.402-17.6-25.6-27.202-25.6-27.199 0-38.4 49.598-14.399 65.599 28.801 17.6 54.401-8 41.601-39.999zM731.207 86.397c12.8-32.001-12.8-57.601-41.601-40.002-24.001 16.001-12.8 65.602 14.399 65.602 9.602 0 20.8-11.201 27.202-25.6zM219.201 204.797c-3.2-11.198 0-33.6 8-47.999 8-17.6 8-39.999 0-56s-11.2-38.4-8-47.999c9.6-25.6 62.399-27.202 78.4-3.201 6.399 12.8 14.399 12.8 27.199 0 46.4-46.4 116.802 4.8 75.201 54.401-16.001 19.199-16.001 28.798 0 47.999 11.201 12.8 16.001 35.199 9.599 47.999-9.599 27.199-67.201 32.001-83.199 6.401-6.401-12.8-14.402-12.8-27.202 0-23.998 23.998-70.399 22.399-79.999-1.602zM288.001 183.997c19.199-22.399 23.998-22.399 49.598 1.602 38.4 33.6 60.802 15.998 33.6-25.6-16.001-25.6-16.001-38.4 0-64 27.202-41.601 4.8-59.2-33.6-25.6-25.6 23.998-30.4 23.998-49.598 1.599-14.402-17.6-25.601-20.8-36.801-9.599-11.2 11.198-9.6 23.998 4.8 41.601 16 19.199 16 30.4 3.2 43.2-22.4 22.399-25.6 60.799-4.8 60.799 8 0 22.4-11.201 33.601-24.001z" />
<glyph unicode="&#xe915;" glyph-name="avtopoisk" d="M246.154 763.077c-11.815-17.723-35.446-57.108-45.292-88.615-19.692-51.2-27.569-59.077-59.077-59.077-23.631 0-45.292-9.846-57.108-27.569-29.538-41.354-25.6-74.831 5.908-74.831 21.662 0 23.631-5.908 15.754-21.662-5.908-11.815-11.815-104.369-11.815-202.831v-179.2h64.985c57.108 0 63.015 3.938 66.954 29.538l3.938 27.569h561.231l3.938-27.569c3.938-25.6 11.815-29.538 66.954-29.538h64.985v179.2c0 98.462-5.908 189.046-11.815 202.831-7.877 15.754-5.908 21.662 15.754 21.662 31.508 0 35.446 33.477 5.908 74.831-11.815 17.723-33.477 27.569-55.138 27.569-31.508 0-39.385 9.846-64.985 70.892-43.323 108.308-45.292 108.308-315.077 108.308-230.4-1.969-232.369-1.969-256-31.508zM758.154 745.354c11.815-11.815 33.477-55.138 49.231-96.492 23.631-64.985 31.508-70.892 57.108-64.985 31.508 7.877 68.923-11.815 68.923-35.446 0-5.908-17.723-11.815-39.385-11.815h-39.385l27.569-43.323c23.631-37.415 27.569-63.015 27.569-204.8v-161.477h-45.292c-39.385 0-45.292 3.938-45.292 31.508v33.477h-614.4v-31.508c0-27.569-5.908-31.508-45.292-31.508h-43.323v161.477c0 141.785 3.938 167.385 27.569 204.8l27.569 43.323h-39.385c-21.662 0-39.385 5.908-39.385 11.815 0 21.662 37.415 41.354 68.923 35.446 27.569-5.908 33.477 0 57.108 64.985 47.262 122.092 37.415 118.154 295.385 118.154 196.923-1.969 226.462-3.938 244.185-23.631zM192.985 524.8c0-5.908 5.908-11.815 11.815-11.815 7.877 0 13.785 5.908 13.785 11.815 0 7.877-5.908 11.815-13.785 11.815-5.908 0-11.815-3.938-11.815-11.815zM242.215 524.8c0-5.908 5.908-11.815 13.785-11.815s11.815 5.908 11.815 11.815c0 7.877-5.908 11.815-11.815 11.815s-13.785-3.938-13.785-11.815zM295.385 524.8c0-5.908 5.908-11.815 11.815-11.815 7.877 0 13.785 5.908 13.785 11.815 0 7.877-5.908 11.815-13.785 11.815-5.908 0-11.815-3.938-11.815-11.815zM344.615 524.8c0-5.908 5.908-11.815 11.815-11.815 7.877 0 11.815 5.908 11.815 11.815 0 7.877-5.908 11.815-11.815 11.815-3.938 0-11.815-3.938-11.815-11.815zM397.785 524.8c0-5.908 5.908-11.815 11.815-11.815 7.877 0 11.815 5.908 11.815 11.815 0 7.877-5.908 11.815-11.815 11.815s-11.815-3.938-11.815-11.815zM448.985 524.8c0-5.908 5.908-11.815 11.815-11.815 7.877 0 11.815 5.908 11.815 11.815 0 7.877-5.908 11.815-11.815 11.815s-11.815-3.938-11.815-11.815zM498.215 524.8c0-5.908 5.908-11.815 11.815-11.815 7.877 0 11.815 5.908 11.815 11.815 0 7.877-5.908 11.815-11.815 11.815-3.938 0-11.815-3.938-11.815-11.815zM551.385 524.8c0-5.908 5.908-11.815 13.785-11.815s11.815 5.908 11.815 11.815c0 7.877-5.908 11.815-11.815 11.815-7.877 0-13.785-3.938-13.785-11.815zM600.615 524.8c0-5.908 5.908-11.815 11.815-11.815 7.877 0 11.815 5.908 11.815 11.815 0 7.877-5.908 11.815-11.815 11.815-3.938 0-11.815-3.938-11.815-11.815zM653.785 524.8c0-5.908 5.908-11.815 13.785-11.815s13.785 5.908 13.785 11.815c0 7.877-5.908 11.815-13.785 11.815s-13.785-3.938-13.785-11.815zM704.985 524.8c0-5.908 5.908-11.815 13.785-11.815s11.815 5.908 11.815 11.815c0 7.877-5.908 11.815-11.815 11.815-7.877 0-13.785-3.938-13.785-11.815zM754.215 524.8c0-5.908 5.908-11.815 11.815-11.815 7.877 0 13.785 5.908 13.785 11.815 0 7.877-5.908 11.815-13.785 11.815-3.938 0-11.815-3.938-11.815-11.815zM807.385 524.8c0-5.908 5.908-11.815 13.785-11.815s11.815 5.908 11.815 11.815c0 7.877-5.908 11.815-11.815 11.815-7.877 0-13.785-3.938-13.785-11.815zM187.077 453.908c-39.385-39.385-11.815-108.308 43.323-108.308 31.508 0 64.985 33.477 64.985 64.985s-33.477 64.985-64.985 64.985c-11.815-1.969-33.477-11.815-43.323-21.662zM261.908 408.615c0-23.631-7.877-33.477-29.538-35.446-31.508-5.908-49.231 23.631-35.446 57.108 3.938 11.815 19.692 17.723 35.446 15.754 21.662-3.938 29.538-13.785 29.538-37.415zM750.277 453.908c-39.385-39.385-11.815-108.308 43.323-108.308 31.508 0 64.985 33.477 64.985 64.985s-33.477 64.985-64.985 64.985c-13.785-1.969-33.477-11.815-43.323-21.662zM825.108 408.615c0-23.631-7.877-33.477-29.538-35.446-15.754-1.969-31.508 3.938-35.446 15.754-13.785 33.477 5.908 61.046 35.446 57.108 21.662-3.938 29.538-13.785 29.538-37.415zM344.615 434.215c0-7.877 64.985-13.785 165.415-13.785s165.415 5.908 165.415 13.785c0 7.877-63.015 11.815-165.415 11.815s-165.415-3.938-165.415-11.815zM370.215 371.2c0-7.877 55.138-13.785 139.815-13.785s141.785 5.908 141.785 13.785c0 7.877-55.138 11.815-141.785 11.815s-139.815-3.938-139.815-11.815zM141.785 256.985c0-5.908 5.908-11.815 11.815-11.815 7.877 0 13.785 5.908 13.785 11.815 0 7.877-5.908 13.785-13.785 13.785-5.908-1.969-11.815-7.877-11.815-13.785zM192.985 256.985c0-5.908 5.908-11.815 11.815-11.815 7.877 0 13.785 5.908 13.785 11.815 0 7.877-5.908 13.785-13.785 13.785-5.908-1.969-11.815-7.877-11.815-13.785zM242.215 256.985c0-5.908 5.908-11.815 13.785-11.815s11.815 5.908 11.815 11.815c0 7.877-5.908 13.785-11.815 13.785-5.908-1.969-13.785-7.877-13.785-13.785zM295.385 256.985c0-5.908 5.908-11.815 11.815-11.815 7.877 0 13.785 5.908 13.785 11.815 0 7.877-5.908 13.785-13.785 13.785-5.908-1.969-11.815-7.877-11.815-13.785zM344.615 256.985c0-5.908 5.908-11.815 11.815-11.815 7.877 0 11.815 5.908 11.815 11.815 0 7.877-5.908 13.785-11.815 13.785-3.938-1.969-11.815-7.877-11.815-13.785zM397.785 256.985c0-5.908 5.908-11.815 11.815-11.815 7.877 0 11.815 5.908 11.815 11.815 0 7.877-5.908 13.785-11.815 13.785-5.908-1.969-11.815-7.877-11.815-13.785zM448.985 256.985c0-5.908 5.908-11.815 11.815-11.815 7.877 0 11.815 5.908 11.815 11.815 0 7.877-5.908 13.785-11.815 13.785-5.908-1.969-11.815-7.877-11.815-13.785zM498.215 256.985c0-5.908 5.908-11.815 11.815-11.815 7.877 0 11.815 5.908 11.815 11.815 0 7.877-5.908 13.785-11.815 13.785-3.938-1.969-11.815-7.877-11.815-13.785zM551.385 256.985c0-5.908 5.908-11.815 13.785-11.815s11.815 5.908 11.815 11.815c0 7.877-5.908 13.785-11.815 13.785-7.877-1.969-13.785-7.877-13.785-13.785zM600.615 256.985c0-5.908 5.908-11.815 11.815-11.815 7.877 0 11.815 5.908 11.815 11.815 0 7.877-5.908 13.785-11.815 13.785-3.938-1.969-11.815-7.877-11.815-13.785zM653.785 256.985c0-5.908 5.908-11.815 13.785-11.815s13.785 5.908 13.785 11.815c0 7.877-5.908 13.785-13.785 13.785-7.877-1.969-13.785-7.877-13.785-13.785zM704.985 256.985c0-5.908 5.908-11.815 13.785-11.815s11.815 5.908 11.815 11.815c0 7.877-5.908 13.785-11.815 13.785-7.877-1.969-13.785-7.877-13.785-13.785zM754.215 256.985c0-5.908 5.908-11.815 11.815-11.815 7.877 0 13.785 5.908 13.785 11.815 0 7.877-5.908 13.785-13.785 13.785-3.938-1.969-11.815-7.877-11.815-13.785zM807.385 256.985c0-5.908 5.908-11.815 13.785-11.815s11.815 5.908 11.815 11.815c0 7.877-5.908 13.785-11.815 13.785-7.877-1.969-13.785-7.877-13.785-13.785zM856.615 256.985c0-5.908 5.908-11.815 11.815-11.815 7.877 0 13.785 5.908 13.785 11.815 0 7.877-5.908 13.785-13.785 13.785-3.938-1.969-11.815-7.877-11.815-13.785z" />
</font>
</defs>
</svg>
