<svg width="173" height="27" viewBox="0 0 173 27" fill="none" xmlns="http://www.w3.org/2000/svg">
<path fill-rule="evenodd" clip-rule="evenodd" d="M13.388 0.158171C9.17009 1.28808 4.89588 6.98163 2.13006 15.155C1.48309 17.0666 0 22.7816 0 23.3625C0 23.4802 0.370313 23.3739 0.823054 23.1261C2.58607 22.161 5.91195 21.0589 9.08766 20.3869C9.39493 20.3219 9.70383 19.7738 10.2674 18.2928C12.2128 13.181 14.7662 9.78802 17.8526 8.21354C18.8864 7.68602 19.3307 7.58971 20.709 7.59365C22.4585 7.59846 23.5442 7.97758 24.8348 9.03351C25.2027 9.3347 25.5024 9.50193 25.5008 9.40562C25.4992 9.30909 25.1297 8.50554 24.6796 7.61948C23.0171 4.34751 20.9293 1.98065 18.6381 0.770625C17.562 0.202168 17.0244 0.060546 15.748 0.00910685C14.8856 -0.0254778 13.8236 0.0415026 13.388 0.158171ZM129.697 3.81276C129.632 4.26433 129.473 5.66873 129.342 6.93413L129.106 9.23445L126.629 9.23532C124.651 9.23598 123.863 9.33295 122.719 9.71666C120.097 10.5968 118.056 12.5797 117.424 14.8615C116.263 19.0543 118.239 21.9172 122.984 22.9188C124.745 23.2905 130.821 23.0902 132.765 22.5961C134.165 22.2409 134.244 22.1877 134.349 21.5269C134.41 21.1445 134.872 17.1869 135.375 12.7325C135.878 8.27812 136.344 4.26433 136.41 3.81276L136.531 2.99192H133.173H129.815L129.697 3.81276ZM170.479 4.55283C170.175 4.80958 169.844 5.24912 169.745 5.52973C169.481 6.27571 169.875 7.28063 170.55 7.58051C172.27 8.34488 173.817 6.01895 172.516 4.62375C171.9 3.96292 171.206 3.93884 170.479 4.55283ZM172.236 4.88641C172.738 5.37388 172.706 6.24485 172.165 6.86321C171.334 7.81254 170.092 7.3277 170.092 6.05332C170.092 4.79645 171.406 4.08112 172.236 4.88641ZM170.775 6.00166C170.778 6.73888 170.835 6.94639 170.971 6.7148C171.124 6.45476 171.215 6.44382 171.417 6.66008C171.805 7.07619 172.037 6.98338 171.799 6.50751C171.658 6.22515 171.656 6.03756 171.792 5.94737C171.905 5.87273 171.997 5.62057 171.997 5.3868C171.997 5.06065 171.854 4.96193 171.385 4.96193C170.79 4.96193 170.772 4.99148 170.775 6.00166ZM171.589 5.3868C171.589 5.50018 171.497 5.65362 171.385 5.72805C171.272 5.80247 171.18 5.70966 171.18 5.52207C171.18 5.33448 171.272 5.18082 171.385 5.18082C171.497 5.18082 171.589 5.27341 171.589 5.3868ZM39.3578 6.43944C39.5682 7.01118 39.9875 8.11942 40.2896 8.90195C40.592 9.68448 40.8409 10.5217 40.843 10.7625C40.8452 11.0033 40.195 13.7486 39.398 16.863C38.6013 19.9776 37.9494 22.6123 37.9494 22.7183C37.9494 22.9518 43.3948 22.9794 43.5284 22.7467C43.5802 22.6563 44.0479 20.6126 44.5673 18.2048C45.9582 11.7582 45.7527 12.2328 46.3024 14.1943C46.5615 15.1186 47.2536 17.4334 47.8406 19.3382L48.9076 22.8015L50.5184 22.8632C52.0068 22.9201 52.1515 22.8868 52.4184 22.4254C53.0443 21.3432 56.6242 14.6332 57.1808 13.4986L57.7715 12.2947L57.6436 17.6028L57.5156 22.9109H60.905H64.2943L64.187 21.9806C64.128 21.4691 64.0272 17.9476 63.9627 14.1553C63.8985 10.363 63.7926 6.83935 63.7275 6.32474L63.6094 5.3892L60.3312 5.44918L57.0531 5.50916L54.3946 10.5117C52.3937 14.277 51.7014 15.4139 51.5959 15.1084C51.5188 14.8851 51.0671 13.225 50.5921 11.4192C50.1171 9.61335 49.5534 7.52032 49.3396 6.76777L48.9507 5.39971H43.963H38.9755L39.3578 6.43944ZM91.2359 5.93183C88.3563 6.4436 88.1512 6.56049 88.141 7.69806C88.1282 9.12807 87.9829 9.3139 86.8224 9.38417L85.7508 9.44918L86.3841 10.9267C86.7324 11.7392 87.1325 12.4042 87.2731 12.4042C87.5948 12.4042 87.5918 12.5977 87.2208 15.7887C86.6614 20.6007 86.8644 21.4144 88.8712 22.4C90.49 23.195 94.6298 23.3949 95.6377 22.7264C95.7756 22.6351 95.9659 21.952 96.0606 21.2082L96.233 19.8561L95.2492 19.8797C93.8008 19.9147 93.5733 19.619 93.712 17.8815C93.7747 17.0961 93.9359 15.5426 94.0703 14.4289L94.3149 12.4042H95.6897H97.0644L97.1909 11.5834C97.2605 11.132 97.3185 10.4471 97.3197 10.0616L97.3219 9.36053L96.0467 9.29552C94.602 9.22153 94.6942 9.43517 94.9552 6.76777L95.089 5.39971L94.5222 5.42423C94.2105 5.43758 92.7317 5.6661 91.2359 5.93183ZM73.3232 9.12588C71.4457 9.33798 69.059 9.79677 68.7438 10.0058C68.5591 10.1282 68.616 10.4775 68.971 11.3962C69.2318 12.071 69.5429 12.6231 69.6625 12.6231C69.7823 12.6231 70.5229 12.4771 71.3082 12.2985C73.0706 11.8981 76.2206 11.8705 76.919 12.2497C77.2907 12.4515 77.4291 12.703 77.4291 13.1769V13.827L75.0934 14.0883C68.485 14.8275 65.8863 16.5259 66.3791 19.7834C66.7414 22.1789 70.1301 23.3132 76.1937 23.0687C78.9873 22.956 82.3272 22.4421 82.6643 22.073C82.8497 21.8699 83.652 14.9267 83.652 13.5236C83.652 12.2825 83.3457 11.4678 82.5977 10.7185C81.1171 9.23532 77.6378 8.63775 73.3232 9.12588ZM103.341 9.32791C101.406 9.65647 99.9743 10.0279 99.9743 10.2017C99.9743 10.6474 100.871 12.6231 101.073 12.6231C101.198 12.6231 102.02 12.4753 102.9 12.2947C105.006 11.8622 107.565 11.8648 108.35 12.3004C108.804 12.5526 108.952 12.7883 108.952 13.2627V13.8909L107.268 14.0356C100.821 14.59 97.733 16.2711 97.7308 19.2277C97.7296 20.8919 98.8303 21.9664 101.3 22.7124C102.915 23.1999 110.414 23.1364 112.484 22.6176C113.361 22.3981 114.116 22.1032 114.162 21.9627C114.339 21.4216 115.072 14.6443 115.072 13.5389C115.073 11.6646 114.274 10.5139 112.434 9.73767C111.447 9.32157 110.843 9.25196 107.829 9.20665C105.922 9.17819 103.902 9.2327 103.341 9.32791ZM144.147 9.33448C141.899 9.86704 140.234 10.8183 138.965 12.2956C137.721 13.7436 137.246 15.0188 137.245 16.9111C137.243 19.5886 138.441 21.3763 140.984 22.4902C142.542 23.1723 146.793 23.3465 148.723 22.8074C151.444 22.0472 153.408 20.5022 154.395 18.3453C154.87 17.3082 154.96 16.8295 154.96 15.3592C154.96 13.2662 154.453 12.0774 153.079 10.9554C151.575 9.72585 150.172 9.29464 147.411 9.21321C146.064 9.1736 144.595 9.2281 144.147 9.33448ZM161.892 9.3428C160.292 9.52426 158.144 10.001 158.029 10.2004C157.988 10.2718 157.671 12.8407 157.324 15.9091C156.977 18.9777 156.643 21.8084 156.582 22.1995L156.472 22.9109H159.835H163.198L163.315 21.9806C163.514 20.393 164.448 12.3628 164.448 12.24C164.448 12.1759 165.214 12.1748 166.15 12.2376L167.853 12.3514L168.496 10.951C168.85 10.1805 169.14 9.45377 169.14 9.33557C169.14 9.08713 164.102 9.09217 161.892 9.3428ZM20.2272 10.0341C18.9421 10.2748 17.4149 11.4218 16.3891 12.9171C15.8982 13.6324 15.5297 14.2534 15.5703 14.2969C15.6109 14.3405 15.9573 14.2065 16.3403 13.9992C17.2782 13.4914 19.0569 13.514 20.0969 14.047C21.4661 14.7489 22.9596 16.5848 23.9232 18.7507C24.6716 20.4329 24.8728 20.7179 25.4016 20.8435C25.7383 20.9234 26.8713 21.2811 27.9196 21.6383C28.9677 21.9953 29.864 22.2459 29.9113 22.1951C30.1247 21.9662 28.872 17.9964 27.9612 16.0159C25.9107 11.5567 23.2179 9.47413 20.2272 10.0341ZM128.625 11.9393C128.79 12.2262 127.909 19.6941 127.673 20.0106C127.389 20.3908 126.257 20.3523 125.27 19.9288C123.907 19.3437 123.464 17.8324 123.942 15.4069C124.298 13.6052 124.861 12.7039 125.968 12.1645C126.837 11.7412 128.433 11.6057 128.625 11.9393ZM147.516 12.2963C148.36 12.7645 148.614 13.9158 148.341 16.0264C148.063 18.1684 147.687 19.0823 146.862 19.6219C145.889 20.2584 145.15 20.1903 144.41 19.3964C143.787 18.7279 143.786 18.7257 143.885 16.715C144.064 13.0475 145.569 11.2163 147.516 12.2963ZM77.0457 17.6565C76.8366 20.3468 76.7454 20.5031 75.3874 20.5031C73.0994 20.5031 72.0647 19.473 72.7827 17.9099C73.3409 16.6947 74.0422 16.3659 76.9994 15.9331C77.103 15.918 77.123 16.6609 77.0457 17.6565ZM108.464 17.6028C108.389 18.4156 108.273 19.4102 108.205 19.8136L108.082 20.5469L106.457 20.4677C104.962 20.395 104.791 20.3376 104.326 19.7582C103.081 18.2048 104.983 16.1641 107.705 16.135L108.6 16.1253L108.464 17.6028ZM9.38534 23.359C6.75765 23.7806 3.01698 24.736 1.93828 25.2614L1.32619 25.5593L1.93828 25.4196C3.45952 25.0727 7.87104 24.6666 10.0994 24.6686C14.5246 24.6723 19.5519 25.4025 23.5741 26.6253L24.8071 27L26.1245 26.0575C26.849 25.5391 27.6933 25.0015 28.0004 24.8632C28.3076 24.7246 28.5147 24.5344 28.4606 24.4407C28.346 24.2415 25.7562 23.7241 22.4873 23.2469C19.2195 22.77 12.7092 22.8258 9.38534 23.359Z" fill="#252525"/>
</svg>
