<svg width="99" height="48" viewBox="0 0 99 48" fill="none" xmlns="http://www.w3.org/2000/svg">
<path fill-rule="evenodd" clip-rule="evenodd" d="M0 2.83871V5.67742H49.5H99V2.83871V0H49.5H0V2.83871ZM0 24V37.1613H3.38684H6.77368V27.6434C6.77368 14.944 7.16864 14.7572 11.0093 25.6434C12.1932 28.9977 13.5969 32.5977 14.1289 33.6434C15.9202 37.1628 15.9129 37.1613 30.8005 37.1613H44.1743L46.7066 33.8302C48.0999 31.9979 49.3567 30.4955 49.5 30.4914C49.6433 30.4877 50.8876 32.1027 52.2652 34.081L54.7694 37.6774H64.1593H73.5487L75.0717 36.1688L76.5947 34.6601V26.3262C76.5947 18.1037 76.6093 17.9948 77.7098 18.1574C78.631 18.2937 79.2646 19.535 81.3509 25.2903C85.8794 37.7837 85.5277 37.4219 93.7066 37.9799L99 38.3412V24.848V11.3548H95.6132H92.2263V21.1613C92.2263 29.0591 92.0893 30.9677 91.5213 30.9677C91.0837 30.9677 89.7597 28.0201 88.0266 23.1861C84.854 14.3391 83.9171 12.5683 82.0314 11.8581C81.2946 11.5804 74.9253 11.3548 67.827 11.3548H54.958L52.3595 14.6906C50.9298 16.5254 49.623 18.0351 49.4547 18.0454C49.2864 18.0563 48.0077 16.4248 46.6129 14.4206L44.0764 10.7773L34.4973 10.9368L24.9183 11.0968L23.6615 12.545C22.4469 13.9448 22.4053 14.2674 22.4053 22.2581C22.4053 30.4294 22.3922 30.5213 21.2819 30.3587C20.3419 30.2204 19.6635 28.8459 17.1228 21.9355C13.1086 11.0168 12.9216 10.8387 5.46271 10.8387H0V24ZM42.6638 20.3649C43.8445 21.9138 44.8105 23.4297 44.8105 23.7326C44.8105 24.0356 43.8518 25.7874 42.6794 27.6258L40.5488 30.9677H34.6031H28.6579V28.9032V26.8387H32.5658H36.4737V24.2581V21.6774H32.5658H28.6579V19.6129V17.5484H34.5875H40.5171L42.6638 20.3649ZM70.3421 19.6129V21.6774H66.4342H62.5263V24.2581V26.8387H66.4342H70.3421V28.9032V30.9677H64.3667H58.3907L56.2904 28.1512C55.1347 26.6018 54.1895 25.1639 54.1895 24.9554C54.1895 24.7468 55.1378 22.9951 56.2971 21.0622L58.4043 17.5484H64.3735H70.3421V19.6129ZM0 45.4194V48H49.5H99V45.4194V42.8387H49.5H0V45.4194Z" fill="#252525"/>
</svg>
