<svg width="138" height="44" viewBox="0 0 138 44" fill="none" xmlns="http://www.w3.org/2000/svg">
<path fill-rule="evenodd" clip-rule="evenodd" d="M34.8985 0.19582C33.6219 0.457453 32.8156 0.75813 31.4541 1.48047C28.0323 3.29595 25.4019 6.96788 24.4262 11.2911C23.9971 13.1927 24.0024 16.2947 24.4372 17.7248C25.3607 20.7621 27.1061 22.5967 30.0147 23.5875C31.0991 23.9569 31.3012 23.9802 33.4062 23.9786C35.3052 23.9773 35.8195 23.9294 36.7977 23.6635C39.034 23.0557 41.2204 21.7746 42.6319 20.2455C45.3162 17.3373 46.7023 13.6781 46.7371 9.40698C46.7503 7.79608 46.7032 7.30388 46.4483 6.38852C45.5325 3.09907 43.2485 0.830585 40.2143 0.196645C38.9988 -0.0572877 36.136 -0.0577002 34.8985 0.19582ZM58.2998 0.209569C52.4361 1.26655 49.1733 6.325 51.5277 10.7088C52.2784 12.1069 53.9877 13.4124 56.7397 14.6901C57.4486 15.0192 58.3203 15.4809 58.677 15.7161C60.4019 16.8537 60.206 19.2075 58.2998 20.2472C57.8337 20.5015 57.5358 20.5432 56.1868 20.5432C54.8135 20.5432 54.5293 20.5018 53.9215 20.2136C53.1578 19.8515 53.1741 19.8882 52.8129 17.7248C52.5245 15.9967 52.7123 16.1642 51.1857 16.2739C49.6374 16.3851 49.4461 16.409 49.3535 16.5029C49.3159 16.5412 49.2506 17.2183 49.2085 18.0078C49.1664 18.7974 49.0733 20.2103 49.0017 21.1477C48.9101 22.3453 48.9149 22.9053 49.0176 23.0307C49.4471 23.5552 52.2052 24.049 54.7048 24.049C58.7088 24.049 61.2286 23.195 63.2678 21.1466C64.7956 19.612 65.5355 17.5935 65.3852 15.3706C65.2067 12.7313 63.6231 11.0769 59.7057 9.43681C56.9352 8.27686 56.4262 7.80556 56.4102 6.38453C56.3914 4.71547 57.5081 3.61326 59.3717 3.46162C60.3015 3.386 61.4709 3.66413 61.9156 4.06682C62.0776 4.21338 62.1882 4.72551 62.3139 5.91035L62.4879 7.55094L63.5819 7.54943C65.1734 7.54723 65.6857 7.43779 65.7518 7.08584C65.7819 6.9258 65.8758 5.86676 65.9607 4.73252C66.0455 3.59828 66.1482 2.26344 66.1887 1.76603L66.2627 0.861931L65.6384 0.620371C64.0479 0.00471758 60.5291 -0.19216 58.2998 0.209569ZM81.6937 0.09202L79.5834 0.13354L78.6491 1.88303C78.1351 2.84528 77.2473 4.4988 76.6762 5.55743C76.105 6.61605 75.3441 8.03901 74.9853 8.71956C72.842 12.7847 69.145 19.6582 68.8662 20.0964C68.5431 20.6044 68.5255 20.6119 67.6646 20.6119H66.7909L66.7196 21.0588C66.6805 21.3044 66.5653 21.9851 66.464 22.5711L66.2795 23.6366H70.5218C74.447 23.6366 74.7691 23.6186 74.8292 23.396C74.865 23.2636 74.9641 22.7223 75.0498 22.193C75.1354 21.6637 75.2336 21.0915 75.2679 20.9213C75.3279 20.6244 75.2929 20.6119 74.4008 20.6119C73.8895 20.6119 73.4358 20.576 73.3925 20.5323C73.3493 20.4885 73.545 19.9266 73.8276 19.2836L74.3412 18.1145L77.8408 18.0916L81.3406 18.0685L81.4435 18.4549C81.5001 18.6675 81.566 19.2243 81.5899 19.6923L81.6333 20.5432L80.6182 20.6119L79.6029 20.6807L79.3713 21.918C79.2441 22.5986 79.1362 23.2791 79.1316 23.4304C79.1236 23.7011 79.1992 23.7048 84.0618 23.6677L89.0002 23.63L89.265 22.2241C89.4107 21.4509 89.5047 20.7717 89.4738 20.715C89.443 20.6584 89.0294 20.6119 88.5547 20.6119C87.7219 20.6119 87.6892 20.5987 87.617 20.2339C87.5413 19.8515 87.0173 16.5981 86.3824 12.5691C85.4437 6.61399 84.418 0.355577 84.3486 0.161174C84.3148 0.0667229 84.1784 0.00306779 84.0455 0.0199783C83.9127 0.0367514 82.8543 0.0691976 81.6937 0.09202ZM124.797 0.121442L122.651 0.195546L121.468 2.39529C120.817 3.60515 119.591 5.89426 118.745 7.4822C117.898 9.07014 117.039 10.6787 116.837 11.0568C116.634 11.4349 115.806 12.9816 114.998 14.4939C114.189 16.0062 113.125 17.986 112.633 18.8934L111.739 20.5432L110.803 20.6119L109.868 20.6807L109.71 21.6431C109.624 22.1724 109.517 22.8375 109.473 23.121L109.393 23.6366H113.644H117.895L118.042 22.7773C118.123 22.3048 118.229 21.6242 118.278 21.265L118.366 20.6119H117.398C116.866 20.6119 116.434 20.5655 116.438 20.5088C116.442 20.4522 116.671 19.8892 116.947 19.2579L117.448 18.1099L120.968 18.0892L124.488 18.0685L124.666 19.2242C124.764 19.8599 124.808 20.4167 124.764 20.4615C124.72 20.5065 124.246 20.5741 123.711 20.6119L122.738 20.6807L122.585 21.3119C122.5 21.659 122.387 22.3248 122.334 22.7915L122.236 23.64L127.165 23.604L132.093 23.5678L132.325 22.3305C132.668 20.504 132.716 20.6309 131.667 20.5839L130.76 20.5432L130.391 18.2747C130.188 17.027 129.862 14.9854 129.667 13.7377C129.472 12.4901 129.224 10.9434 129.115 10.3006C129.007 9.65789 128.89 8.94641 128.855 8.71956C128.593 6.99812 127.657 1.29226 127.542 0.711111C127.433 0.162412 127.345 -0.00366894 127.172 0.0183285C127.046 0.0344142 125.978 0.0807463 124.797 0.121442ZM132.871 0.367401C132.905 0.540493 133.022 0.595624 133.288 0.563728L133.659 0.519596V1.69797C133.659 2.77667 133.681 2.87649 133.925 2.87649C134.164 2.87649 134.194 2.76347 134.23 1.74224C134.269 0.618309 134.273 0.607585 134.642 0.564553C134.856 0.539531 135.015 0.436693 135.015 0.323956C135.015 0.169011 134.781 0.126803 133.92 0.126803C132.95 0.126803 132.83 0.1543 132.871 0.367401ZM135.422 1.50164C135.422 2.78478 135.441 2.87649 135.694 2.87649C135.935 2.87649 135.967 2.7797 135.98 2.01721L135.995 1.15793L136.207 2.01721C136.389 2.75371 136.463 2.87649 136.725 2.87649C136.988 2.87649 137.055 2.76444 137.198 2.08595C137.46 0.844745 137.584 0.779165 137.589 1.87973C137.592 2.67218 137.635 2.87649 137.797 2.87649C137.964 2.87649 138 2.63204 138 1.50164V0.126803H137.602C137.181 0.126803 137.137 0.198158 136.974 1.12508C136.839 1.89966 136.709 1.85484 136.46 0.946759C136.249 0.17836 136.21 0.126803 135.829 0.126803H135.422V1.50164ZM4.02326 0.470514C3.9979 0.54613 3.86346 1.22668 3.72441 1.98284L3.47181 3.35768L4.39823 3.3981C4.90777 3.42023 5.32465 3.49998 5.32465 3.57518C5.32465 3.65038 5.11356 4.90053 4.85554 6.35318C4.59751 7.80598 4.35075 9.21107 4.3072 9.47572C4.26365 9.74038 4.01987 11.1324 3.76538 12.5691C3.51101 14.0058 3.27184 15.3669 3.23386 15.5938C2.92605 17.4315 2.72581 18.5935 2.60603 19.2371C2.32942 20.7219 2.4024 20.6118 1.69317 20.6139C0.543182 20.6172 0.510759 20.6458 0.317715 21.8244C0.222618 22.4051 0.112191 23.0505 0.0724424 23.2585L0 23.6366H4.68366H9.36718L9.57609 22.6398C9.9866 20.6805 9.98294 20.7938 9.63877 20.7005C9.46702 20.6539 9.03658 20.6148 8.68223 20.6139C8.21393 20.6125 8.03785 20.558 8.03785 20.4148C8.03785 20.3064 8.18545 19.4557 8.36574 18.5244C8.54603 17.5931 8.76675 16.4128 8.85615 15.9015C8.94568 15.39 9.07836 14.9344 9.15121 14.8887C9.22392 14.8432 9.5746 14.8058 9.9303 14.8058C11.198 14.8058 11.525 15.3026 12.3041 18.4122C12.5789 19.5086 13.0528 21.1687 13.3572 22.1014L13.9107 23.7973L17.2486 23.6997C19.0844 23.6459 20.6109 23.5798 20.6409 23.5527C20.6979 23.5009 21.1772 21.0824 21.1897 20.7838C21.1943 20.6735 21.0008 20.6119 20.6499 20.6119C19.9799 20.6119 19.3288 20.344 18.9288 19.9035C18.66 19.6077 18.2918 18.5389 17.7225 16.4024C17.4042 15.2083 16.8598 14.1069 16.2986 13.5217L15.7618 12.9622L16.8853 12.3945C18.2024 11.7289 19.2237 10.862 19.8438 9.88268C21.975 6.51679 20.8508 2.4683 17.4023 1.0907C15.5976 0.369875 15.2621 0.337842 9.47896 0.335367C5.99169 0.333854 4.05297 0.381836 4.02326 0.470514ZM91.9294 0.424869C91.8986 0.475463 91.7804 1.06321 91.6667 1.73097C91.5532 2.39887 91.4276 3.05343 91.3875 3.18582C91.3234 3.39796 91.4197 3.42642 92.2008 3.42642C93.2454 3.42642 93.2932 3.48032 93.4188 4.80126C93.5255 5.92492 93.8239 8.19231 94.1695 10.5069C94.3164 11.4899 94.4696 12.5726 94.5099 12.9128C94.6627 14.2012 95.2726 18.1737 95.6718 20.4813C95.9001 21.8009 96.1245 23.1433 96.1704 23.4647L96.2537 24.049L98.6432 24.047C99.9575 24.0457 101.096 23.9994 101.175 23.9439C101.524 23.6947 106.84 14.1236 109.515 8.92579C110.585 6.84634 111.656 4.77377 111.896 4.32007L112.33 3.49516L113.137 3.45488L113.943 3.41446L114.096 2.56123C114.179 2.09186 114.287 1.39853 114.334 1.02045L114.421 0.33303L110.242 0.368638C107.944 0.388161 106.023 0.450029 105.974 0.506122C105.893 0.597961 105.442 2.93093 105.442 3.25649C105.442 3.33046 105.93 3.43412 106.527 3.48691C107.124 3.53957 107.612 3.6079 107.612 3.6387C107.612 3.76614 105.901 7.71868 104.776 10.1883C102.217 15.808 101.12 18.0685 100.949 18.0685C100.767 18.0685 100.516 16.1339 100.165 12.0192C100.075 10.9606 99.9162 9.10451 99.8124 7.89465C99.7088 6.68479 99.5881 5.22348 99.5442 4.64742L99.4645 3.59993L99.8925 3.51317C100.128 3.46547 100.673 3.42642 101.104 3.42642H101.887L102.046 2.4984C102.134 1.98793 102.239 1.29198 102.279 0.951708L102.351 0.33303H97.1683C94.3177 0.33303 91.9602 0.374412 91.9294 0.424869ZM38.5613 3.53682C39.779 4.29078 40.3737 6.09141 40.364 8.99453C40.3493 13.3689 39.0835 17.8613 37.3789 19.5888C36.1928 20.7908 34.5283 21.224 33.0919 20.7046C32.4378 20.468 31.4369 19.6269 31.1571 19.0787C30.1071 17.0208 30.2317 12.6944 31.4542 8.76342C32.2999 6.04412 33.5093 4.29285 35.1278 3.44388C36.1352 2.91553 37.623 2.95568 38.5613 3.53682ZM12.9651 3.29884C13.2502 3.37913 13.7197 3.66111 14.0085 3.92549C14.7616 4.61497 15.0243 5.41238 15.0243 7.00829C15.0243 8.25349 14.9975 8.37667 14.505 9.38622C14.1056 10.2052 13.8395 10.5585 13.3519 10.9172C12.5763 11.4878 11.4881 11.813 10.3544 11.813C9.5373 11.813 9.50392 11.7996 9.57555 11.5036C9.61666 11.3335 9.80482 10.2972 9.99366 9.20075C10.1825 8.10432 10.4906 6.37202 10.6783 5.3512C10.8662 4.33038 11.0203 3.45323 11.021 3.40209C11.0245 3.15544 12.2281 3.09151 12.9651 3.29884ZM80.2252 8.53959C80.5083 10.6947 80.8378 13.3 80.9564 14.322L81.0322 14.9751H78.4726C77.0648 14.9751 75.8782 14.9398 75.8356 14.8967C75.793 14.8535 76.081 14.1544 76.4755 13.3431C76.87 12.5317 77.3244 11.5752 77.4853 11.2176C77.8199 10.4729 79.6058 6.79891 79.7399 6.57893C79.9035 6.3107 79.9651 6.55968 80.2252 8.53959ZM123.204 7.7228C123.295 8.42218 123.392 9.1492 123.419 9.33824C123.479 9.76141 123.719 11.6441 123.901 13.1191C123.975 13.724 124.07 14.389 124.11 14.597L124.184 14.9751H121.528C120.067 14.9751 118.872 14.9446 118.872 14.9073C118.872 14.7295 122.855 6.45107 122.941 6.45107C122.995 6.45107 123.113 7.02342 123.204 7.7228ZM108.358 27.1081C106.786 31.6285 104.926 34.6121 102.388 36.6812C98.8809 39.5402 95.475 39.2746 93.8452 36.0151C93.6548 35.6343 93.4783 35.3227 93.4531 35.3227C93.3439 35.3227 93.8236 37.94 94.0705 38.6911C95.2122 42.165 97.3358 43.9783 100.267 43.9827C100.816 43.9835 101.679 43.883 102.184 43.7594C103.034 43.5514 103.151 43.5514 103.754 43.7594C104.606 44.0537 106.329 44.0387 107.509 43.7269C108.011 43.594 108.469 43.5253 108.526 43.5741C109.044 44.0175 111.358 44.1293 112.615 43.7717C113.354 43.5615 113.475 43.5609 114.164 43.764C118.065 44.9133 123.251 41.7909 127.042 36.0101C128.26 34.1515 129.824 30.8993 130.528 28.7608C130.832 27.836 131.081 27.045 131.081 27.0027C131.081 26.9604 130.53 26.9436 129.857 26.9653L128.633 27.0049L128.152 28.4485C127.16 31.4222 125.16 35.1253 123.252 37.5225C120.688 40.7443 117.182 43.1291 114.631 43.3869L113.785 43.4725L114.862 42.9024C119.17 40.6225 123.266 35.1723 125.368 28.9208C125.675 28.0086 125.926 27.1888 125.926 27.0991C125.926 26.9857 125.557 26.9362 124.711 26.9362H123.495L123.342 27.5205C123.114 28.3912 122.181 30.7713 121.561 32.0586C119.358 36.6409 115.729 40.7654 112.428 42.4399C111.317 43.0037 109.883 43.4346 109.124 43.4329L108.494 43.4315L109.189 43.1036C111.728 41.9057 114.69 39.0377 116.872 35.6664C117.963 33.9799 119.403 30.9327 120.077 28.8812C120.384 27.9471 120.636 27.1274 120.636 27.0595C120.636 26.9917 120.095 26.9362 119.434 26.9362H118.232L117.857 28.0704C116.782 31.3229 115.314 34.2246 113.483 36.7175C112.42 38.1653 109.974 40.6131 108.775 41.4302C106.963 42.6648 105.049 43.4379 103.819 43.432C103.366 43.4299 103.405 43.3939 104.492 42.8028C108.986 40.3599 113.049 34.7859 115.076 28.2835C115.281 27.6257 115.415 27.0535 115.374 27.0118C115.333 26.9703 113.751 26.9362 111.859 26.9362C109.228 26.9362 108.404 26.9766 108.358 27.1081Z" fill="#252525"/>
</svg>
