<svg width="193" height="16" viewBox="0 0 193 16" fill="none" xmlns="http://www.w3.org/2000/svg">
<path fill-rule="evenodd" clip-rule="evenodd" d="M106.885 0.121816C106.492 0.225104 106.001 1.29966 106.001 2.05841C106.001 2.61973 106.769 2.78509 108.884 2.67928C110.272 2.60989 110.678 2.50408 110.953 2.13902C111.479 1.44257 111.654 0.403281 111.285 0.171284C110.968 -0.0275054 107.6 -0.0652928 106.885 0.121816ZM184.898 0.1138C184.561 0.253731 184.061 1.94092 184.262 2.26292C184.338 2.38591 185.419 2.48667 186.663 2.48667H188.925L189.334 1.73343C189.56 1.31913 189.705 0.777957 189.657 0.531074C189.579 0.126396 189.354 0.0776141 187.377 0.0386807C186.17 0.0150917 185.055 0.0487583 184.898 0.1138ZM11.6376 1.64045C11.3544 1.921 10.5006 4.35044 7.9601 12.1055L7.54743 13.3651L4.12304 13.4796C0.708597 13.5939 0.697963 13.5957 0.410362 14.1914C0.251535 14.5201 0.0943256 15.0354 0.0608031 15.3365L0 15.8843H5.88656H11.7729L12.0547 15.3118C12.2096 14.9969 12.5083 14.2498 12.7185 13.6514L13.1004 12.5635L17.9942 12.5608C23.03 12.5581 24.2264 12.4039 26.0667 11.5206C26.5434 11.2918 26.9336 11.0206 26.9336 10.918C26.9336 10.8154 27.6619 10.7314 28.552 10.7314C30.4794 10.7314 30.4493 10.6405 29.4749 13.5218C29.0922 14.6529 28.8384 15.673 28.9105 15.7886C28.9827 15.9043 30.0734 15.9988 31.3346 15.9988C34.0434 15.9988 33.9156 16.1113 34.9203 12.8498L35.5727 10.7314H38.0303H40.4878L40.3947 12.0483C40.317 13.1498 40.3914 13.4961 40.8506 14.1667C41.1523 14.6075 41.8116 15.1744 42.3158 15.4263C43.2069 15.8715 43.6921 15.8843 59.6038 15.8843H75.9748L76.2848 15.3118C76.4554 14.9969 77.1925 12.8842 77.9233 10.6169C78.6538 8.34958 79.4364 5.9277 79.6625 5.23491L80.0735 3.9753L82.5459 3.91003C84.8418 3.84934 85.0058 3.87385 84.8479 4.25356C84.7545 4.47846 84.5975 4.97154 84.4992 5.34942C84.401 5.72731 83.6327 8.09056 82.7919 10.6011C81.9513 13.1118 81.2633 15.3567 81.2633 15.59C81.2633 15.9808 81.4598 16.0092 83.7485 15.9494L86.2338 15.8843L88.2248 9.92982L90.2159 3.9753L92.2707 3.9169C93.4007 3.88484 94.4684 3.95034 94.6429 4.06233C94.9011 4.22814 94.7176 5.01024 93.6603 8.2495C92.162 12.8404 92.0628 13.8019 92.9961 14.6772C94.427 16.0188 94.4559 16.0208 111.55 15.9469C125.971 15.8843 127.237 15.8477 128.24 15.4639C130.175 14.723 131.544 13.2311 132.214 11.1322C132.315 10.8141 132.605 10.7314 133.621 10.7314C134.324 10.7314 134.899 10.8285 134.899 10.9474C134.899 11.0662 134.587 12.0863 134.206 13.2142C133.824 14.3421 133.512 15.43 133.512 15.632C133.512 15.9453 133.868 15.9988 135.948 15.9988H138.384L138.797 15.0255C139.025 14.4903 139.45 13.3051 139.743 12.3918L140.275 10.7314H142.673H145.072V12.212C145.072 13.519 145.15 13.7812 145.742 14.4486C146.969 15.833 147.917 16.0014 154.487 16L160.318 15.9988L160.639 15.369C160.815 15.0228 161.246 13.8376 161.597 12.7353L162.234 10.7314H164.634H167.035V12.2896C167.035 13.7517 167.081 13.8909 167.786 14.5459C169.345 15.9943 169.388 15.9988 181.383 15.9988H192.253L192.674 15.0255C192.905 14.4903 193.046 13.9235 192.986 13.7659C192.906 13.5534 191.935 13.4796 189.221 13.4796H185.562L185.986 12.0483C186.218 11.2611 186.889 9.19238 187.475 7.4516C188.062 5.71059 188.483 4.19035 188.41 4.07355C188.2 3.73827 183.783 3.80629 183.495 4.14913C183.277 4.40976 181.917 8.35256 180.772 12.0462L180.328 13.4757L176.787 13.4776C174.784 13.4787 173.052 13.3766 172.799 13.2426C172.449 13.0571 172.352 12.7582 172.352 11.8685C172.352 10.7689 172.374 10.7314 173.016 10.7314C174.149 10.7314 175.785 9.85905 176.509 8.86877C177.268 7.83154 178.367 4.781 178.355 3.7456C178.351 3.36794 178.169 2.85311 177.951 2.60118C177.022 1.52891 176.606 1.47555 168.5 1.38761C163.443 1.33264 160.678 1.38601 160.38 1.54403C160.049 1.71946 159.48 3.15312 158.259 6.88729C157.34 9.69439 156.47 12.3343 156.326 12.7536L156.062 13.5165L153.448 13.4407C150.504 13.3555 150.398 13.2953 150.393 11.7047C150.389 10.7655 150.414 10.7314 151.115 10.7314C152.142 10.7314 153.787 9.8547 154.542 8.90518C155.273 7.98567 156.404 4.85268 156.393 3.77743C156.384 2.89616 156.063 2.45782 155.013 1.89214C154.272 1.49296 153.548 1.4499 146.415 1.38051C138.742 1.30585 138.619 1.3118 138.21 1.78542C137.982 2.04993 137.365 3.57841 136.841 5.18201L135.887 8.09766L134.584 8.16637C133.867 8.20416 133.281 8.2037 133.281 8.16568C133.281 8.12743 133.489 7.37533 133.743 6.49452C134.332 4.45716 134.327 3.61666 133.722 2.8554C132.71 1.5809 132.079 1.46891 125.883 1.46318C119.611 1.45746 118.723 1.6006 116.771 2.93074C116.002 3.4552 115.567 4.0037 115.034 5.1204C114.643 5.93984 114.323 6.68736 114.322 6.78148C114.322 6.87561 113.905 8.23164 113.397 9.79493C112.89 11.3582 112.474 12.8269 112.474 13.0585C112.474 13.4416 112.246 13.4796 109.942 13.4796H107.41L107.762 12.3918C107.956 11.7936 108.199 10.9948 108.303 10.6169C108.407 10.239 108.868 8.85114 109.327 7.53267C109.786 6.21443 110.162 4.84878 110.162 4.49816V3.86079H107.878C106.209 3.86079 105.523 3.94668 105.328 4.17959C105.181 4.35502 104.751 5.46279 104.373 6.64155C103.994 7.82032 103.347 9.83913 102.935 11.1278L102.186 13.4709L100.452 13.4721C98.0983 13.4739 97.6777 13.3404 97.6777 12.5924C97.6777 12.2599 98.2499 10.2511 98.9493 8.12858C100.283 4.08134 100.382 3.54543 99.9642 2.63714C99.423 1.46089 99.3724 1.45609 87.363 1.45609C77.2958 1.45609 76.1558 1.49342 75.8125 1.83351C75.4326 2.21002 74.8933 3.70002 72.8197 10.1016L71.7255 13.4796L64.5304 13.4762C60.5729 13.4741 57.2105 13.394 57.0579 13.298C56.8496 13.1668 56.9065 12.7422 57.2879 11.584L57.7949 10.0443H62.2107C67.2037 10.0443 67.3482 9.99646 67.4524 8.30584L67.5075 7.4106L63.0843 7.34854L58.661 7.28647L59.2376 5.57363L59.8141 3.86079L65.5104 3.85347C69.771 3.84797 71.3045 3.77239 71.5956 3.55322C71.8136 3.38901 72.017 2.86341 72.058 2.3582L72.1312 1.45609L64.0012 1.39585C57.1548 1.34524 55.8185 1.38807 55.5364 1.66747C55.3524 1.84977 54.4996 4.14409 53.6414 6.76591C52.7834 9.38773 51.9227 11.9708 51.7292 12.5063L51.3769 13.4796H49.0324C46.1166 13.4796 45.66 13.2453 45.66 11.7489C45.66 10.7669 45.6847 10.7314 46.3663 10.7314C47.399 10.7314 48.9605 9.94997 49.7835 9.02153C50.2692 8.47348 50.733 7.47404 51.2155 5.93571C51.8991 3.75567 51.9132 3.6304 51.5535 2.94105C50.8248 1.54517 50.3365 1.468 41.7046 1.38463C35.038 1.32028 33.8855 1.35829 33.5882 1.65281C33.3975 1.84175 32.7904 3.39474 32.2392 5.10414L31.237 8.21217H29.8945C29.1561 8.21217 28.5524 8.18652 28.5529 8.15492C28.5536 8.12331 28.8113 7.37625 29.126 6.49452C29.8147 4.56503 29.8862 2.93418 29.3033 2.45186C28.1682 1.51288 27.7541 1.46662 19.7415 1.38692C13.2 1.32165 11.9188 1.36173 11.6376 1.64045ZM24.3455 4.46563C24.4319 5.06544 23.0633 9.0884 22.584 9.64354C22.2786 9.99738 21.7559 10.0443 18.1126 10.0443C15.6906 10.0443 13.987 9.95547 13.987 9.82905C13.987 9.71042 14.2394 8.91183 14.5481 8.05415C14.8567 7.19624 15.281 5.89953 15.4909 5.17262L15.8723 3.85049L20.0735 3.91301C24.1686 3.9737 24.2768 3.98767 24.3455 4.46563ZM46.2687 4.20112C46.4414 4.64679 45.5271 7.61718 45.1123 7.95819C44.889 8.14186 43.5233 8.2037 40.6409 8.16018L36.491 8.09766L37.1728 5.97923L37.8546 3.86079H41.9956C45.4462 3.86079 46.1589 3.91759 46.2687 4.20112ZM128.295 4.08409C128.711 4.24074 128.888 4.47663 128.888 4.87283C128.888 5.79876 126.591 12.411 126.097 12.9071C125.695 13.3099 125.274 13.3743 122.605 13.4414C119.092 13.5293 118.101 13.3992 117.918 12.8262C117.807 12.4804 118.272 10.8583 119.896 5.92197C120.203 4.9894 120.722 4.34196 121.375 4.07722C122.032 3.81087 127.584 3.81636 128.295 4.08409ZM150.832 4.07332C151.109 4.24692 151.08 4.52816 150.643 5.90136C150.359 6.79385 149.969 7.67901 149.778 7.86818C149.495 8.1485 148.668 8.21217 145.311 8.21217H141.19L141.374 7.46786C141.561 6.70774 141.918 5.61554 142.345 4.4906L142.585 3.86079L146.545 3.86423C148.723 3.86629 150.652 3.96019 150.832 4.07332ZM172.804 4.07836C173.092 4.25906 173.063 4.52175 172.6 5.92106C172.303 6.81859 171.91 7.70146 171.727 7.88261C171.462 8.14484 170.547 8.21217 167.249 8.21217C164.97 8.21217 163.107 8.13476 163.109 8.04041C163.112 7.94605 163.424 6.99768 163.803 5.93296C164.182 4.86825 164.492 3.9666 164.492 3.92904C164.492 3.75041 172.51 3.89446 172.804 4.07836Z" fill="#252525"/>
</svg>
