<svg width="172" height="21" viewBox="0 0 172 21" fill="none" xmlns="http://www.w3.org/2000/svg">
<path fill-rule="evenodd" clip-rule="evenodd" d="M89.2386 0.204199C84.5316 0.943996 80.2817 2.99815 78.42 5.4339C76.9663 7.33505 75.7613 10.2355 75.4986 12.4636C74.8917 17.6173 78.4969 20.4919 86.1512 20.9567C90.93 21.2468 100.758 20.0217 101.703 19.0184C101.853 18.859 102.407 17.1086 102.934 15.1287C103.461 13.1487 103.974 11.2453 104.076 10.8987C104.246 10.3194 103.842 10.2687 99.0582 10.2687H93.8558L93.2096 12.6987C92.3559 15.9098 92.1575 16.1266 90.3495 15.8281C87.6893 15.3886 86.5626 14.4353 86.5456 12.6087C86.5308 11.0401 87.7218 9.33807 89.4951 8.39308C90.9466 7.6198 91.4662 7.56761 97.8675 7.54853L104.692 7.528L105.556 4.35966C106.031 2.61727 106.346 1.11788 106.256 1.02824C105.511 0.285199 92.677 -0.336158 89.2386 0.204199ZM0.103595 0.644117C0.00726111 0.894676 -0.0284581 5.47097 0.0245796 10.8141L0.120913 20.5286L14.1019 20.6229C27.9733 20.7162 28.0829 20.7111 28.0829 19.9814C28.0829 18.8525 27.1409 16.8559 26.1346 15.8523C24.3869 14.1081 22.3083 14.9415 21.078 17.8798C20.4928 19.2773 19.9451 19.6286 18.3518 19.6286C16.7866 19.6286 15.7382 18.5688 15.6826 16.9304L15.6353 15.5322L17.7868 15.0952C20.3596 14.5725 21.4027 13.5709 21.0751 11.9365C20.7998 10.5639 20.3156 10.0098 18.6505 9.1624C16.0816 7.85489 14.1109 8.55256 13.858 10.8594C13.7675 11.6842 13.59 11.866 12.964 11.7738C12.487 11.704 11.9101 11.9841 11.4811 12.4938C10.8811 13.2077 10.7263 13.2502 10.4149 12.7887C10.2143 12.4917 10.1255 12.0445 10.2172 11.7954C10.3085 11.5463 10.0952 11.1625 9.74274 10.943C9.06552 10.521 9.03918 10.7986 10.241 5.74133C10.2915 5.52785 11.9194 4.23186 13.8587 2.86135L17.3845 0.368719L13.1335 0.266837C10.4063 0.201678 8.70977 0.308239 8.40056 0.564197C8.13573 0.783796 7.54582 2.04451 7.08977 3.36607C6.04922 6.38069 5.96191 12.3693 6.92128 14.904C7.69772 16.956 7.65406 17.2469 6.80871 15.6514C4.68035 11.6352 4.45593 5.48141 6.26751 0.818717C6.48904 0.248479 6.21627 0.188719 3.39554 0.188719C1.21522 0.188719 0.225906 0.325519 0.103595 0.644117ZM20.4289 1.21183C19.9545 1.77451 19.1243 2.34583 18.5838 2.48083C17.5977 2.72815 15.972 4.06482 16.2819 4.37406C16.5308 4.6221 20.5061 2.79691 20.5061 2.43475C20.5061 2.26231 21.1556 1.75723 21.9493 1.31191C22.7431 0.866955 23.3925 0.43208 23.3925 0.34568C23.3925 0.259281 22.9199 0.188719 22.3422 0.188719C21.6311 0.188719 21.0131 0.519196 20.4289 1.21183ZM25.7987 1.99195C24.6416 2.98015 23.4896 3.7887 23.2388 3.7887C22.5107 3.7887 21.4063 5.19089 21.814 5.59769C22.3282 6.11069 25.5772 4.39566 26.9569 2.88259C27.6348 2.13955 28.4275 1.63735 28.9034 1.64995C29.6871 1.67047 29.6892 1.68127 28.9882 2.09995C28.5931 2.33575 27.6301 3.21703 26.8486 4.0587C26.0668 4.90038 25.2131 5.58869 24.9512 5.58869C24.6893 5.58869 24.4749 5.75069 24.4749 5.94869C24.4749 6.88541 26.3093 6.19961 27.8452 4.6887C28.7508 3.7977 29.6622 3.06871 29.87 3.06871C30.0778 3.06871 30.2477 2.42071 30.2477 1.62871C30.2477 0.243439 30.203 0.18872 29.0751 0.19196C28.1923 0.19448 27.3823 0.639438 25.7987 1.99195ZM36.2103 0.998716C36.1288 1.24639 35.7171 2.74471 35.2953 4.3287C34.8736 5.91269 34.4475 7.49201 34.3482 7.83868C34.1855 8.40748 34.5041 8.46868 37.62 8.46868C39.5185 8.46868 41.0718 8.53924 41.0718 8.62528C41.0718 8.71132 40.3635 11.3843 39.4983 14.5653L37.9249 20.3486H43.7669H49.609L51.185 14.4087L52.761 8.46868H55.6867H58.6124L59.5837 4.72902C60.118 2.67199 60.555 0.889996 60.555 0.769037C60.555 0.647717 55.1109 0.548718 48.457 0.548718C39.0978 0.548718 36.3251 0.650597 36.2103 0.998716ZM64.1608 0.638717C64.1594 0.688037 62.9666 5.14302 61.51 10.5387L58.8614 20.3486H64.6988H70.5362L73.1224 10.7061C74.5447 5.40293 75.7086 0.947955 75.7086 0.806115C75.7086 0.578956 64.1666 0.411558 64.1608 0.638717ZM112.77 5.85257C110.892 8.77648 108.039 13.2343 106.429 15.7586L103.501 20.3486H109.367H115.232L115.913 19.0886L116.593 17.8286H120.504H124.417V19.0886V20.3486H130.373H136.329L136.113 18.4586C135.994 17.4193 135.545 13.0047 135.115 8.64868L134.333 0.728717L125.258 0.632598L116.184 0.536479L112.77 5.85257ZM141.247 9.63868C139.912 14.638 138.725 19.093 138.611 19.5386L138.404 20.3486H144.158H149.913L150.589 17.6396C151.287 14.8425 151.771 13.7707 152.049 14.4087C152.135 14.6067 152.899 15.9836 153.746 17.4686L155.287 20.1686L162.078 20.2665L168.868 20.3648L167.628 18.6466C166.946 17.7019 165.633 15.858 164.71 14.5494L163.031 12.1698L165.459 11.5722C167.917 10.9671 169.734 9.81903 171.077 8.0248C171.964 6.84005 172.307 3.69546 171.679 2.52367C170.703 0.704594 169.471 0.548718 156.048 0.548718H143.676L141.247 9.63868ZM23.5729 1.79755C22.9776 2.28427 22.6843 2.68855 22.9213 2.69575C23.1584 2.70295 23.8078 2.30875 24.3645 1.82023C25.6829 0.662836 24.9848 0.643035 23.5729 1.79755ZM28.8717 5.57502C28.3889 6.22661 27.5259 6.79073 26.6524 7.02545C25.2341 7.40633 23.9594 8.64724 24.3454 9.27076C24.4562 9.44932 24.8145 9.35464 25.1421 9.06016C25.4697 8.76568 26.1617 8.41936 26.6802 8.29012C28.0158 7.95748 30.2477 6.02609 30.2477 5.20242C30.2477 4.21674 29.7852 4.34202 28.8717 5.57502ZM124.526 8.78836L124.597 12.4294L122.342 12.429C121.102 12.4287 120.087 12.3196 120.087 12.186C120.087 11.8357 124.215 4.90866 124.346 5.03862C124.407 5.09874 124.488 6.78605 124.526 8.78836ZM159.703 6.38069C160.418 7.09421 160.194 8.37076 159.22 9.1354C158.64 9.5908 157.452 9.9454 155.979 10.1027C152.627 10.4609 152.524 10.3814 153.2 7.95568L153.76 5.94869H156.515C158.177 5.94869 159.442 6.12005 159.703 6.38069ZM29.1271 8.2102C28.6101 8.6494 27.8795 9.19228 27.5035 9.41656C26.2356 10.1733 27.2232 10.2698 28.7418 9.53788C29.756 9.049 30.2477 8.57956 30.2477 8.1004C30.2477 7.23281 30.2813 7.22957 29.1271 8.2102ZM28.3535 11.3731C27.6096 11.7652 27.0005 12.325 27.0005 12.6173C27.0005 13.2808 27.3437 13.275 28.2421 12.5971C28.6274 12.3066 29.2361 12.0687 29.5951 12.0687C30.0071 12.0687 30.2477 11.8033 30.2477 11.3487C30.2477 10.4681 30.0673 10.4706 28.3535 11.3731ZM29.3457 13.5184C28.6729 13.7729 28.6678 13.8093 29.2711 14.0544C29.9696 14.3385 30.4007 14.1167 30.1951 13.5796C30.1247 13.3956 29.7426 13.3683 29.3457 13.5184Z" fill="#252525"/>
</svg>
