<svg width="203" height="36" viewBox="0 0 203 36" fill="none" xmlns="http://www.w3.org/2000/svg">
<path fill-rule="evenodd" clip-rule="evenodd" d="M133.668 0.436559C132.608 0.662378 128.199 0.739731 123.536 0.614138C113.45 0.342572 111.467 0.635764 109.559 2.6802C108.26 4.07379 108.183 4.31291 108.402 6.32117C108.531 7.5035 108.782 9.91473 108.96 11.6793C109.173 13.7903 109.524 15.1277 109.987 15.5897C110.648 16.2485 110.749 16.1736 111.627 14.3696C112.384 12.815 112.674 12.5389 113.144 12.9273C113.815 13.4838 114.477 12.7493 114.487 11.4352C114.492 10.8072 114.609 10.7519 115.09 11.1499C115.566 11.5441 115.776 11.4759 116.132 10.8122C116.377 10.3551 116.578 9.50094 116.578 8.91414C116.578 7.9281 116.719 7.84701 118.437 7.84701C119.713 7.84701 120.531 7.60206 121.043 7.06683C121.453 6.63765 122.241 6.14775 122.794 5.97766C123.668 5.70901 123.709 5.61793 123.107 5.28149C121.715 4.50463 122.508 4.31209 127.103 4.31209C130.859 4.31209 132.107 4.15614 133.373 3.52817C134.687 2.87732 136.169 1.09905 136.169 0.174144C136.169 -0.0924313 136.129 -0.0882739 133.668 0.436559ZM103.031 6.25713C100.968 7.41326 99.2112 8.42134 99.1279 8.49702C98.8899 8.71328 100.766 11.5899 101.146 11.5899C101.332 11.5899 102.685 10.9045 104.154 10.0674L106.822 8.54443L106.875 6.3245C106.903 5.10308 106.894 4.11538 106.855 4.12952C106.815 4.14324 105.094 5.10058 103.031 6.25713ZM8.78496 8.85259C7.84418 9.14662 6.22439 9.97047 5.18566 10.6833C0.425924 13.9508 -1.48106 20.915 1.26875 24.986C2.77391 27.2147 3.49918 27.3802 11.7911 27.3868L19.3386 27.3931L20.4719 23.1857C21.0951 20.8718 21.7045 18.7196 21.8262 18.4031C22.0058 17.9361 21.226 17.828 17.6742 17.828H13.3004L12.323 21.3629L11.3455 24.8978H9.81869C8.9792 24.8978 8.20473 24.6641 8.09803 24.378C7.78499 23.5396 11.1321 12.2636 11.8632 11.6938C12.7832 10.9773 15.0757 11.0426 16.5992 11.8286C17.2965 12.1883 17.9068 12.4225 17.9551 12.3484C18.7754 11.0846 19.4574 9.91806 19.4574 9.77833C19.4574 9.6806 18.7033 9.29966 17.7817 8.93202C15.7764 8.13147 11.223 8.09113 8.78496 8.85259ZM31.6458 9.33043C29.0665 10.613 27.1941 12.6433 25.8111 15.6575C24.9582 17.5152 24.8132 18.3749 24.9478 20.7578C25.1387 24.1285 25.9107 25.4202 28.6646 26.9772C30.1802 27.8343 31.0526 28.0152 33.6295 28.0077C37.7106 27.9961 39.5934 27.2966 42.2223 24.8155C47.6473 19.6969 47.6648 11.7462 42.2569 9.13455C39.5163 7.81083 34.5165 7.90316 31.6458 9.33043ZM57.2789 9.00813C51.7368 10.9914 48.1813 16.849 49.4551 21.8965C50.4717 25.925 53.0736 27.8085 58.0717 28.1342C60.609 28.2997 61.3788 28.1766 63.3008 27.2987C68.0485 25.1303 70.8658 21.1475 70.8658 16.6049C70.8658 11.206 67.7133 8.25623 61.9736 8.28409C60.4835 8.29158 58.371 8.61721 57.2789 9.00813ZM75.9965 10.8621C75.6526 12.0627 74.5839 16.1333 73.6214 19.9074C72.6586 23.6814 71.7812 27.0034 71.6711 27.2891C71.516 27.6933 73.1283 27.8069 78.9147 27.7998C87.3429 27.7894 88.558 27.4837 91.2769 24.6907C93.497 22.4101 94.6432 19.7664 94.8333 16.488C94.975 14.046 94.8558 13.4542 93.8909 11.8115C92.184 8.90583 91.4308 8.67876 83.4906 8.67876H76.6217L75.9965 10.8621ZM118.485 9.60075C118.653 10.1227 119.418 12.5863 120.185 15.0749L121.58 19.6L120.538 23.3924C119.965 25.4784 119.496 27.4193 119.496 27.705C119.496 28.0876 120.639 28.2248 123.821 28.2248C126.791 28.2248 128.272 28.0618 128.547 27.705C128.767 27.4193 129.433 25.4539 130.027 23.3379C131.071 19.6179 131.234 19.343 134.975 15.0204C137.102 12.5618 139.114 10.2229 139.446 9.82241C140.008 9.14412 139.891 9.09463 137.729 9.09463H135.408L132.779 12.2137C131.333 13.9292 130.042 15.3327 129.91 15.3327C129.777 15.3327 129.198 13.8822 128.622 12.1097L127.574 8.8867L122.877 8.769L118.18 8.6509L118.485 9.60075ZM141.791 9.61448C141.38 10.759 137.002 27.3644 137.002 27.7794C137.002 28.0805 139.566 28.2248 144.902 28.2248H152.803L153.236 26.6653C153.475 25.8078 153.672 24.9656 153.673 24.7939C153.674 24.6221 152.101 24.482 150.177 24.482H146.678L147.112 22.7145C147.731 20.1893 148.076 19.9074 150.55 19.9074H152.74L153.164 18.2439L153.587 16.5804H151.339C148.845 16.5804 148.657 16.2809 149.548 13.7312L150.006 12.4216H153.483C155.396 12.4216 157.044 12.2811 157.145 12.1097C157.246 11.9384 157.459 11.1894 157.619 10.4462L157.91 9.09463H149.944C143.949 9.09463 141.932 9.22314 141.791 9.61448ZM160.4 18.4655C157.16 23.6194 154.509 27.9237 154.509 28.0306C154.509 28.1375 155.306 28.2178 156.281 28.209C157.867 28.1949 158.171 28.021 159.194 26.5455L160.337 24.8978H163.622H166.907L167.174 26.5613L167.441 28.2248H171.579C173.856 28.2248 175.785 28.0847 175.866 27.9129C175.948 27.7412 175.647 23.4373 175.198 18.3478L174.383 9.09463H170.337H166.291L160.4 18.4655ZM183.135 9.40654C182.886 9.82699 178.268 27.2949 178.268 27.8148C178.268 28.0581 180.023 28.2248 182.579 28.2248H186.889L187.651 25.6256C188.43 22.9698 188.91 22.0687 189.326 22.4841C189.455 22.6126 189.883 23.9101 190.277 25.3674L190.992 28.0169L195.52 28.1354L200.048 28.2539L199.788 27.3037C199.646 26.7809 199.317 25.2305 199.059 23.8582L198.589 21.3629L200.469 19.4902C203.567 16.4024 203.838 12.9173 201.187 10.2711L200.007 9.09463H191.663C187.074 9.09463 183.236 9.2352 183.135 9.40654ZM105.324 10.6878L103.448 11.782L105.228 12.1625C106.207 12.3721 107.071 12.469 107.148 12.3784C107.468 12.0016 107.78 9.51384 107.501 9.5521C107.335 9.57497 106.355 10.0861 105.324 10.6878ZM62.8115 11.3869C63.2383 11.9001 63.0374 13.1781 61.716 18.347C60.2026 24.2682 60.0237 24.704 58.9496 25.0771C56.5395 25.9138 56.6074 24.368 59.4214 14.343C60.3935 10.8804 61.5506 9.87107 62.8115 11.3869ZM38.6297 12.3177C38.6276 13.8797 35.9016 23.9629 35.2793 24.7111C34.6111 25.5142 32.8337 25.4801 32.5178 24.6583C32.2752 24.0287 34.9921 13.3973 35.7774 11.9018C36.0104 11.458 36.6423 11.174 37.3955 11.174C38.4663 11.174 38.631 11.3266 38.6297 12.3177ZM87.0903 12.1097C87.3688 12.9286 84.4602 23.7762 83.7453 24.5859C82.9217 25.5187 81.1477 25.557 81.1477 24.6421C81.1477 24.0337 82.2889 19.5185 83.8954 13.7732C84.4514 11.7837 84.6123 11.5899 85.7098 11.5899C86.3717 11.5899 86.9932 11.824 87.0903 12.1097ZM193.669 12.1871C194.057 12.6541 194.008 13.3586 193.446 15.4101C192.596 18.5146 192.329 18.9205 190.968 19.18C189.726 19.4166 189.703 19.1658 190.625 15.4184C191.557 11.631 192.433 10.7016 193.669 12.1871ZM101.674 14.7368L101.568 16.2186L103.654 15.0857C104.802 14.4627 105.74 13.7957 105.74 13.6031C105.74 13.4106 104.85 13.2538 103.76 13.2542C101.789 13.255 101.78 13.2613 101.674 14.7368ZM105.532 15.3943C104.615 15.8655 103.435 16.5213 102.909 16.8523L101.954 17.4541L103.7 20.6563C104.66 22.4171 105.586 24.0166 105.758 24.21C105.93 24.4034 107.098 23.7271 108.353 22.707C109.609 21.6869 111.41 20.418 112.356 19.8874C114.292 18.8015 114.395 18.4726 113.258 16.9962L112.457 15.9566L111.583 16.8923C110.338 18.2256 109.65 18.0605 108.566 16.1678C108.044 15.2546 107.522 14.5143 107.408 14.5226C107.293 14.5309 106.449 14.9231 105.532 15.3943ZM166.555 19.8034L166.597 21.9867H164.513C163.367 21.9867 162.429 21.8104 162.429 21.595C162.429 21.3795 163.221 19.9427 164.189 18.4023C165.806 15.8293 165.972 15.6837 166.231 16.6111C166.387 17.1659 166.532 18.6028 166.555 19.8034ZM100.19 19.3738C99.8681 20.0105 98.8924 22.3835 98.0208 24.6471C96.8941 27.574 95.9075 29.3577 94.6049 30.8207C92.7171 32.9412 92.4036 34.3615 93.8759 34.1219C95.5056 33.857 99.102 31.3326 102.008 28.414L104.976 25.4327L103.285 22.0778C102.355 20.2326 101.41 18.6086 101.184 18.4697C100.959 18.3304 100.511 18.7375 100.19 19.3738ZM111.33 21.8141C109.517 23.11 106.063 26.0648 103.655 28.3808C100.661 31.2607 98.3555 33.0756 96.3605 34.124C94.2556 35.2298 93.6358 35.7297 94.133 35.9206C95.6865 36.5157 99.741 33.7555 105.74 28.019C107.918 25.9363 110.919 23.4173 112.41 22.4213C113.9 21.4253 115.2 20.5428 115.299 20.46C115.399 20.3773 115.288 20.1178 115.054 19.8841C114.763 19.5938 113.578 20.2084 111.33 21.8141Z" fill="#252525"/>
</svg>
