<svg width="168" height="18" viewBox="0 0 168 18" fill="none" xmlns="http://www.w3.org/2000/svg">
<path fill-rule="evenodd" clip-rule="evenodd" d="M152.546 0.15539C151.574 0.45774 150.729 1.3105 150.297 2.42641C149.64 4.12244 149.741 5.41734 150.558 5.78514C150.774 5.88195 150.958 5.94166 150.968 5.91769C151.162 5.46273 151.414 5.25689 151.868 5.18391C152.641 5.0598 153.118 4.70452 153.873 3.69251C155.61 1.36268 154.884 -0.57191 152.546 0.15539ZM12.4486 0.238631C10.921 0.427128 8.82931 1.04374 7.38574 1.73138C5.93865 2.42068 5.16012 3.20453 4.59176 4.54422C4.38693 5.02692 3.76038 6.40597 3.19951 7.60859C0.42875 13.549 0 14.5228 0 14.8746C0 15.912 1.55966 17.0158 3.71364 17.5029C4.7384 17.7347 5.55695 17.784 8.24813 17.7757C11.9722 17.7644 14.02 17.5382 17.7182 16.7295C21.282 15.9503 20.9113 16.1481 21.5481 14.6863C21.8529 13.9867 22.415 12.7188 22.7975 11.8686L23.4926 10.323H18.4773H13.4619L12.6566 11.9973C12.0737 13.2091 11.7517 13.7088 11.4909 13.8068C11.0383 13.9766 10.0703 13.9786 9.80122 13.8102C9.58585 13.6753 9.51238 13.8518 12.2242 7.98558C12.8761 6.57562 13.5138 5.17305 13.6415 4.86859C13.9228 4.19859 14.3249 3.96501 15.2204 3.95158C16.1903 3.93711 16.2645 4.08941 15.7958 5.13143C15.5746 5.62303 15.3342 6.17796 15.2615 6.3645L15.1292 6.7038H20.1748H25.2203L25.8701 5.30892C26.9645 2.95993 26.9619 2.96853 26.6582 2.63722C26.2709 2.21469 24.2218 1.20464 22.9878 0.8281C22.3998 0.648499 21.1969 0.40556 20.3148 0.288088C18.5581 0.0542003 14.1683 0.0266084 12.4486 0.238631ZM153.075 2.10445C152.895 2.66331 152.689 3.02794 152.534 3.05795C152.284 3.10681 152.174 2.64114 152.386 2.43184C152.442 2.37679 152.514 2.11109 152.548 1.84116C152.581 1.57123 152.628 1.18519 152.653 0.983118C152.678 0.781049 152.829 0.570081 152.988 0.514286C153.404 0.368464 153.437 0.977992 153.075 2.10445ZM154.118 0.734753C154.118 0.852225 154.204 0.976936 154.309 1.01177C154.46 1.06214 154.459 1.12411 154.302 1.31125C154.141 1.50413 154.141 1.56188 154.302 1.62718C154.438 1.68192 154.356 1.83724 154.041 2.1227C153.789 2.35146 153.703 2.49382 153.85 2.43923C154.206 2.30758 154.188 2.50331 153.801 2.98888C153.49 3.379 153.049 3.52693 153.049 3.24102C153.049 3.16109 153.177 2.77098 153.333 2.37393C153.49 1.97688 153.665 1.39766 153.722 1.08657C153.821 0.547915 154.118 0.284319 154.118 0.734753ZM163.053 0.65634C161.539 1.04449 159.739 2.37076 158.119 4.29314C156.803 5.8551 156.101 6.33148 154.5 6.74813C153.08 7.11744 152.579 7.12377 152.228 6.77648C152.02 6.57185 151.942 6.57985 151.491 6.85128C151.214 7.01837 150.849 7.15317 150.681 7.15076C150.38 7.14669 150.38 7.14368 150.672 6.92517C150.912 6.74587 150.923 6.7038 150.727 6.7038C150.594 6.7038 150.445 6.60201 150.397 6.4776C150.348 6.35319 150.199 6.2514 150.066 6.2514C149.932 6.2514 149.862 6.31399 149.91 6.39029C149.958 6.46675 149.681 6.98473 149.295 7.54148C148.909 8.09808 148.556 8.79899 148.511 9.09892C148.456 9.46386 148.213 9.8689 147.779 10.323C147.216 10.9108 147.116 11.1174 147.033 11.8671C146.948 12.6332 146.967 12.73 147.205 12.7102C147.758 12.6642 148.008 12.7425 148.008 12.9619C148.008 13.2192 148.247 13.2649 148.391 13.0352C148.564 12.7597 149.606 12.3203 149.86 12.4159C149.996 12.4675 150.391 12.7638 150.738 13.0746C151.29 13.5699 151.368 13.72 151.368 14.2892C151.368 15.4527 152.55 16.8459 154.14 17.5584C156.154 18.4603 159.042 17.2674 158.643 15.6988C158.525 15.2354 157.326 14.5029 155.256 13.63C154.036 13.1153 153.744 13.0474 153.032 13.1142C152.3 13.1831 152.245 13.1688 152.516 12.9817C152.683 12.8663 152.957 12.732 153.125 12.6832C153.293 12.6344 153.155 12.6213 152.819 12.6541C152.301 12.7048 152.253 12.6869 152.499 12.5362C152.659 12.4387 153.003 12.1846 153.263 11.9716C154.077 11.3054 156.029 10.6436 157.513 10.5309C158.709 10.4401 158.917 10.4656 159.647 10.7913C160.386 11.1208 160.657 11.1522 162.748 11.1511C165.459 11.1496 166.649 10.8829 167.507 10.0839C167.976 9.64768 168.031 9.51678 167.988 8.93923C167.945 8.34749 167.885 8.26034 167.339 7.99734C166.909 7.78985 166.295 7.68791 165.18 7.63905C163.296 7.55626 161.773 7.84504 160.025 8.61637C159.367 8.9065 158.791 9.10616 158.745 9.06017C158.698 9.01402 158.516 9.07585 158.34 9.19724C157.911 9.49416 157.697 9.47727 157.956 9.16693C158.144 8.94104 158.125 8.92581 157.761 9.01509C157.24 9.14326 156.779 8.75993 156.658 8.09868C156.591 7.72742 156.624 7.60859 156.795 7.60859C156.918 7.60859 157.02 7.54073 157.02 7.45779C157.02 7.37485 156.951 7.30699 156.867 7.30699C156.783 7.30699 156.714 7.23611 156.714 7.14956C156.714 7.063 156.835 7.01218 156.982 7.03646C157.131 7.06119 157.232 6.99755 157.211 6.8923C157.188 6.78086 157.332 6.7038 157.563 6.7038C157.785 6.7038 157.914 6.6385 157.86 6.553C157.808 6.47006 157.821 6.4019 157.889 6.40159C158.534 6.39843 161.079 5.86582 161.774 5.5888C163.086 5.06568 164.951 3.86366 165.282 3.32908C165.446 3.06277 165.573 2.58128 165.573 2.21996C165.574 1.02368 164.418 0.306639 163.053 0.65634ZM146.099 1.05762C144.503 1.16317 142.962 1.25531 142.675 1.26225C141.428 1.29286 142.515 1.4135 145.625 1.58978L148.971 1.77948L149.253 1.43521C149.607 1.00363 149.612 0.816487 149.268 0.844083C149.121 0.855996 147.695 0.952057 146.099 1.05762ZM152.285 1.17282C152.285 1.65251 151.83 2.93384 151.66 2.93384C151.583 2.93384 151.521 2.87066 151.521 2.7936C151.521 2.71639 151.381 2.63149 151.21 2.60511C150.727 2.53046 150.842 2.26581 151.401 2.16206C151.886 2.07203 151.888 2.06811 151.47 2.04896C150.951 2.02513 150.991 1.70756 151.532 1.55811C151.736 1.50187 151.806 1.44924 151.688 1.44094C151.522 1.42918 151.536 1.358 151.75 1.12427C152.114 0.727516 152.285 0.743047 152.285 1.17282ZM69.3394 2.44375C68.2367 4.83858 67.9071 5.42473 67.6887 5.37949C66.868 5.20969 63.7165 5.09282 62.7765 5.19717C61.3657 5.35385 59.7311 5.94136 58.7624 6.63986C58.1377 7.09029 57.9183 7.40215 57.2553 8.7827C55.2455 12.967 54.2238 15.2388 54.2238 15.524C54.2238 15.9919 54.6281 16.4705 55.3413 16.8469C55.9287 17.157 56.1838 17.1843 58.5006 17.1843C59.8867 17.1843 61.3645 17.1736 61.7846 17.1606C62.2046 17.1476 64.1367 17.1669 66.078 17.2037L69.6079 17.2702L70.8396 14.6637C73.2371 9.59037 75.7383 4.34622 76.5059 2.78305C76.9336 1.91219 77.2846 1.14885 77.2859 1.08657C77.2871 1.02429 75.6518 0.973468 73.6521 0.973468H70.0163L69.3394 2.44375ZM78.9653 2.57781C78.5467 3.46028 78.2044 4.24066 78.2044 4.31199C78.2044 4.38346 79.8113 4.44183 81.7753 4.44183C84.5856 4.44183 85.3825 4.39855 85.517 4.2384C85.6111 4.12651 85.9931 3.34613 86.3661 2.50422L87.0441 0.973468H83.385H79.7259L78.9653 2.57781ZM124.454 2.21755C123.961 3.1531 123.712 3.4737 123.451 3.5102C123.202 3.54518 122.976 3.80908 122.649 4.44846C122.112 5.49847 122.094 5.64821 122.5 5.64821C122.87 5.64821 122.873 5.68515 122.552 6.29664C122.412 6.56205 122.008 7.42386 121.653 8.21178C121.298 8.9997 120.519 10.6793 119.921 11.9443C118.435 15.0892 118.46 15.8523 120.082 16.7391L120.896 17.1843H124.058C126.324 17.1843 127.272 17.1327 127.404 17.0023C127.506 16.9021 127.81 16.3253 128.08 15.7205L128.571 14.6207L127.865 14.4693C126.746 14.2295 126.656 14.543 129.6 8.43798C130.001 7.60859 130.454 6.64152 130.609 6.2891L130.89 5.64821H131.855H132.821L133.312 4.66516C133.582 4.12455 133.803 3.64953 133.803 3.60957C133.803 3.56961 133.391 3.53704 132.886 3.53704C132.382 3.53704 131.97 3.51261 131.97 3.4829C131.97 3.45304 132.211 2.91469 132.505 2.28632C132.799 1.65809 133.039 1.10572 133.039 1.05882C133.039 1.01177 131.255 0.973468 129.075 0.973468H125.11L124.454 2.21755ZM162.722 2.06057C162.064 2.47451 161.163 3.08751 160.72 3.42259C160.277 3.75781 159.886 4.0039 159.851 3.96952C159.816 3.93514 159.984 3.5957 160.224 3.21523C160.657 2.52805 161.138 2.16885 161.15 2.52382C161.153 2.62501 161.262 2.51568 161.39 2.28104C161.526 2.03373 161.711 1.88715 161.83 1.93224C161.943 1.97507 162.073 1.91249 162.119 1.79336C162.166 1.67423 162.329 1.57666 162.483 1.57666C162.637 1.57666 162.828 1.51543 162.908 1.44049C163.086 1.27325 163.619 1.15397 163.791 1.24264C163.861 1.27853 163.38 1.64663 162.722 2.06057ZM164.657 1.58556C164.657 1.66367 164.554 1.72746 164.428 1.72746C164.302 1.72746 164.199 1.79532 164.199 1.87826C164.199 1.9612 164.123 2.02906 164.03 2.02906C163.937 2.02906 163.6 2.23263 163.282 2.48145C162.964 2.73027 162.656 2.93384 162.597 2.93384C162.539 2.93384 162.3 3.11239 162.065 3.33044C161.831 3.54865 161.596 3.71784 161.543 3.70638C161.49 3.69507 161.25 3.90378 161.008 4.17039C160.635 4.58358 160.519 4.63244 160.224 4.5026C159.898 4.35889 159.944 4.30173 161.034 3.49119C161.67 3.01874 162.264 2.63225 162.354 2.63225C162.445 2.63225 162.519 2.56575 162.519 2.48432C162.519 2.40304 162.69 2.29386 162.9 2.24183C163.11 2.18981 163.282 2.09329 163.282 2.02755C163.282 1.86845 164.396 1.29452 164.542 1.37821C164.605 1.41425 164.657 1.50744 164.657 1.58556ZM164.886 2.02906C164.834 2.11199 164.865 2.17985 164.953 2.17985C165.042 2.17985 165.115 2.24907 165.115 2.33352C165.115 2.42189 164.937 2.44993 164.695 2.39941C164.342 2.32552 164.318 2.33849 164.546 2.48115C164.924 2.71865 164.721 2.95269 164.228 2.84683C163.938 2.78455 163.879 2.80175 164.027 2.90474C164.362 3.13697 164.079 3.39996 163.617 3.28641C163.245 3.19488 163.226 3.2095 163.419 3.44022C163.702 3.78027 163.542 3.90468 162.857 3.87482C162.362 3.85326 162.335 3.8685 162.643 3.99396C163.151 4.2004 162.909 4.44183 162.194 4.44183C161.858 4.44183 161.449 4.51209 161.287 4.5979C160.14 5.20365 162.743 3.05659 164.199 2.19554C164.778 1.85292 165.035 1.79064 164.886 2.02906ZM151.368 2.93384C151.368 3.01678 151.197 3.08464 150.987 3.08464C150.776 3.08464 150.605 3.01678 150.605 2.93384C150.605 2.8509 150.776 2.78305 150.987 2.78305C151.197 2.78305 151.368 2.8509 151.368 2.93384ZM31.6178 5.3347C29.8604 5.71622 28.2694 6.32484 27.5953 6.87345C27.0291 7.33413 25.8347 9.59415 23.9629 13.7464C23.2382 15.354 23.2124 15.4563 23.4264 15.8648C23.7219 16.4292 24.939 17.0695 26.229 17.3394C27.6851 17.6441 33.1093 17.6395 34.8945 17.332C36.3719 17.0778 38.2773 16.4051 39.1135 15.8425C39.7092 15.4418 39.8626 15.1598 42.1867 10.1913C43.3993 7.59879 43.5345 7.22526 43.3867 6.87375C43.1695 6.35742 42.4702 5.90261 41.2406 5.47781C40.3309 5.16354 39.9409 5.13127 36.582 5.09373C33.4604 5.05889 32.7234 5.09463 31.6178 5.3347ZM93.0205 5.12434C92.8945 5.14877 92.2759 5.25161 91.6458 5.35295C90.4314 5.54823 88.6428 6.03666 87.1573 6.57863C86.2707 6.90209 86.2514 6.92186 85.7445 8.01997C85.4619 8.63236 85.2306 9.16347 85.2306 9.20026C85.2306 9.23721 86.8789 9.26737 88.8934 9.26737H92.556L92.8652 8.66915C93.0352 8.34026 93.3069 8.00097 93.4693 7.91516C93.9069 7.68399 94.5447 7.72636 94.6486 7.99373C94.7383 8.22445 94.2828 9.41771 94.1047 9.41862C94.0544 9.41877 92.1624 9.82833 89.9001 10.3285C85.3521 11.3342 84.3867 11.6907 83.087 12.8445C82.2059 13.6266 81.8703 14.2454 81.8703 15.088C81.8703 15.8648 82.853 16.8269 84.0099 17.1828C85.1355 17.5291 87.6687 17.6468 88.9912 17.4142C89.6512 17.2981 91.3769 17.2372 93.6315 17.2502L97.221 17.271L98.3215 14.9657C102.206 6.82972 102.065 7.17715 101.724 6.54787C101.475 6.08854 100.32 5.50676 99.1858 5.26956C98.2648 5.07684 93.8084 4.97188 93.0205 5.12434ZM54.7529 5.55682C54.3299 5.65831 53.8926 5.7969 53.7811 5.86491C53.6623 5.93744 53.5331 5.91573 53.4683 5.81228C53.3897 5.68636 52.3591 5.63524 49.8578 5.63267L46.3575 5.62936L45.8371 6.6566C44.8941 8.51881 41.1007 16.5916 40.979 16.9958C40.9049 17.2419 41.1447 17.2597 44.5464 17.2597H48.1932L49.5665 14.3634C51.6863 9.89318 51.6178 10.0073 52.4153 9.60229C52.8761 9.3681 53.6188 9.18639 54.5722 9.0745L56.0263 8.90379L56.3684 8.21842C56.5565 7.84157 56.9397 7.04113 57.2198 6.4399L57.7292 5.34661L56.6257 5.35944C56.0187 5.36652 55.176 5.45534 54.7529 5.55682ZM104.222 6.6661C103.579 8.05947 101.759 11.8843 100.422 14.6513C99.8937 15.7464 99.4162 16.7812 99.3616 16.951C99.2636 17.2561 99.3044 17.2597 102.872 17.2597H106.483L107.445 15.2616C107.974 14.1626 108.907 12.2117 109.517 10.9261C110.127 9.64059 110.793 8.43602 110.997 8.24948C111.403 7.87731 112.229 7.79 112.352 8.10638C112.394 8.2142 111.954 9.28305 111.374 10.4814C110.795 11.6798 109.926 13.4746 109.444 14.4699C108.961 15.4652 108.47 16.4999 108.352 16.7696L108.138 17.2597H111.773H115.409L116.199 15.6386C117.365 13.2463 119.34 9.01403 119.743 8.04515C120.058 7.28739 120.072 7.15499 119.883 6.76578C119.767 6.52706 119.364 6.16183 118.986 5.95403C118.384 5.62258 118.075 5.56919 116.467 5.51867C115.332 5.48309 113.689 5.56392 112.154 5.731C109.838 5.98298 109.656 5.98419 109.392 5.7491C109.157 5.53888 108.753 5.49741 106.936 5.49741H104.762L104.222 6.6661ZM76.6866 7.34469C76.3637 8.02901 75.1983 10.4831 74.097 12.7985C72.9958 15.1138 72.0947 17.0647 72.0947 17.1339C72.0947 17.2031 73.728 17.2597 75.7242 17.2597H79.3537L80.4539 14.96C83.4616 8.67352 84.6197 6.22923 84.6197 6.16786C84.6197 6.13091 82.9668 6.10061 80.9468 6.10061H77.2739L76.6866 7.34469ZM66.4831 7.91637C66.5926 8.08903 66.2491 8.9418 65.1461 11.2339C64.3297 12.9309 63.5527 14.404 63.4195 14.5076C63.0494 14.7955 62.0137 14.7545 62.0137 14.4518C62.0137 14.2389 63.667 10.6111 64.6502 8.66644C65.1377 7.70223 66.098 7.30941 66.4831 7.91637ZM35.6608 7.90249C35.7099 7.98121 35.0955 9.4058 34.2951 11.0682C33.4946 12.7306 32.8398 14.1368 32.8398 14.193C32.8398 14.2493 32.726 14.4194 32.587 14.5711C32.3113 14.8719 31.0068 14.9715 31.0068 14.6917C31.0068 14.6065 31.2234 14.1145 31.4881 13.5984C31.7528 13.0826 32.4416 11.6424 33.0186 10.3984C33.5957 9.15427 34.1827 8.05163 34.323 7.94788C34.6227 7.72651 35.5312 7.69574 35.6608 7.90249ZM141.027 8.51744C138.238 8.74756 135.877 8.96185 135.78 8.99381C135.683 9.02578 137.793 9.17161 140.469 9.31789C143.145 9.46431 145.73 9.62325 146.213 9.67136C146.967 9.7463 147.092 9.72308 147.092 9.50698C147.092 9.36855 147.23 8.98658 147.4 8.65814L147.709 8.06098L146.904 8.07998C146.461 8.09038 143.817 8.28733 141.027 8.51744ZM165.155 8.15025C165.205 8.19941 165.655 8.25792 166.155 8.28009C166.691 8.30392 167.212 8.4223 167.422 8.56782C167.763 8.80351 167.706 8.81497 166.18 8.81603C165.301 8.81663 164.1 8.86006 163.511 8.91253L162.442 9.008L162.812 8.60989C163.168 8.22746 164.028 8.02615 163.808 8.3766C163.751 8.46723 163.902 8.43602 164.143 8.30723C164.602 8.06158 165.002 7.9996 165.155 8.15025ZM167.485 9.14387C167.53 9.18805 167.524 9.33342 167.472 9.46687C167.394 9.66743 167.215 9.69412 166.437 9.62098C165.92 9.57228 165.428 9.54046 165.344 9.55026C164.076 9.69804 162.076 9.78582 161.987 9.6976C161.953 9.66352 161.981 9.54439 162.051 9.43295C162.13 9.30658 162.569 9.2078 163.217 9.1704C163.788 9.13753 164.282 9.0849 164.314 9.05338C164.402 8.96652 167.392 9.05188 167.485 9.14387ZM166.468 10.0048C166.733 10.1705 166.426 10.3887 166.101 10.2656C165.979 10.2195 165.879 10.2474 165.879 10.3276C165.879 10.5413 165.46 10.5063 165.369 10.2853C165.323 10.1726 165.287 10.2031 165.28 10.3607C165.266 10.6636 164.809 10.7144 164.535 10.4436C164.392 10.3029 164.352 10.3196 164.352 10.519C164.352 10.8504 163.507 10.8767 163.38 10.5492C163.331 10.4247 163.223 10.323 163.139 10.323C163.055 10.323 163.026 10.4247 163.074 10.5492C163.138 10.7128 163.057 10.7753 162.783 10.7753C162.35 10.7753 161.938 10.3831 162.151 10.1741C162.389 9.94008 166.13 9.79335 166.468 10.0048ZM92.3419 13.2619C92.1965 13.638 91.9506 14.0127 91.7954 14.0946C91.4838 14.2592 90.2809 14.2959 89.9018 14.1522C89.5264 14.01 89.6166 13.5531 90.0802 13.2486C90.4772 12.988 92.4169 12.4215 92.5461 12.5284C92.5792 12.5558 92.4874 12.8859 92.3419 13.2619ZM147.053 13.2879C147.379 13.4176 147.263 13.6171 146.915 13.5273C146.689 13.4689 146.62 13.4971 146.695 13.6167C146.771 13.7388 146.602 13.7913 146.13 13.7913C144.82 13.7913 143.731 15.0365 143.731 16.5363C143.731 17.1273 143.809 17.3504 144.125 17.6618C144.463 17.9954 144.615 18.0396 145.2 17.9745C145.575 17.9327 146.011 17.7834 146.168 17.6427C146.611 17.2471 147.591 14.8742 147.502 14.4135C147.46 14.1974 147.489 13.9041 147.566 13.7616C147.671 13.568 147.631 13.4626 147.409 13.3452C147.246 13.2588 147.056 13.1935 146.987 13.2C146.919 13.2065 146.948 13.2462 147.053 13.2879ZM155.29 14.6359C155.342 14.7686 155.288 14.9383 155.171 15.0128C155.035 15.0993 155.136 15.1143 155.454 15.0541C155.943 14.9614 156.16 15.1791 155.76 15.3607C155.655 15.4083 155.723 15.4097 155.911 15.3635C156.352 15.2557 156.676 15.4337 156.387 15.6243C156.252 15.7132 156.326 15.7273 156.6 15.6645C156.846 15.608 157.02 15.6315 157.02 15.7212C157.02 15.8054 157.157 15.8387 157.325 15.7954C157.504 15.7493 157.631 15.7907 157.631 15.8951C157.631 16.005 157.748 16.0368 157.936 15.9779C158.282 15.8698 158.311 15.9461 158.084 16.3648C157.997 16.5253 157.821 16.6565 157.693 16.6565C157.565 16.6565 157.503 16.7248 157.555 16.8083C157.725 17.0792 157.195 17.1442 156.373 16.9534C155.277 16.6995 153.678 15.9737 153.563 15.6787C153.432 15.3409 153.625 15.2011 153.934 15.4097C154.561 15.8321 155.611 16.325 156.103 16.4283C156.397 16.49 156.709 16.5966 156.796 16.6652C156.883 16.7338 157.039 16.7378 157.144 16.6738C157.262 16.6017 156.999 16.4648 156.452 16.3133C155.411 16.0252 154.118 15.2538 154.118 14.9208C154.118 14.4866 155.136 14.2393 155.29 14.6359ZM145.779 15.3267C145.634 15.6019 145.475 16.2003 145.426 16.6565C145.318 17.6439 145.049 17.7526 144.982 16.8361C144.935 16.1938 145.408 14.9119 145.783 14.6632C146.057 14.4812 146.055 14.7992 145.779 15.3267ZM146.697 14.6368C147.07 14.7781 146.983 15.0438 146.595 14.9473C146.27 14.8664 146.266 14.873 146.538 15.0734C146.933 15.3646 146.753 15.8043 146.29 15.6795C145.993 15.5992 145.983 15.6092 146.213 15.752C146.36 15.8431 146.481 15.982 146.481 16.0608C146.481 16.1395 146.36 16.2051 146.213 16.2063C146.007 16.2082 145.993 16.238 146.151 16.3372C146.319 16.4422 146.305 16.5588 146.075 16.9757L145.793 17.4859L145.747 16.7782C145.716 16.3018 145.809 15.8214 146.033 15.3079C146.216 14.8885 146.386 14.5453 146.41 14.5453C146.435 14.5453 146.564 14.5865 146.697 14.6368ZM156.485 14.8469C156.537 14.9298 156.511 14.9977 156.427 14.9977C156.343 14.9977 156.232 14.9298 156.18 14.8469C156.128 14.764 156.154 14.6961 156.238 14.6961C156.322 14.6961 156.433 14.764 156.485 14.8469ZM145.038 15.3834C144.894 15.6007 144.737 16.1495 144.689 16.6028C144.633 17.139 144.551 17.3755 144.454 17.2796C144.243 17.0716 144.167 16.2356 144.348 16.1249C144.432 16.0741 144.457 15.9637 144.404 15.8799C144.306 15.723 145.104 14.7949 145.23 14.9191C145.269 14.9571 145.182 15.1661 145.038 15.3834ZM157.02 15.1485C157.02 15.2314 156.99 15.2993 156.952 15.2993C156.915 15.2993 156.843 15.2314 156.791 15.1485C156.739 15.0656 156.769 14.9977 156.858 14.9977C156.947 14.9977 157.02 15.0656 157.02 15.1485ZM157.589 15.3904C157.539 15.4404 157.407 15.4459 157.297 15.4023C157.175 15.3542 157.211 15.3184 157.389 15.3112C157.55 15.3047 157.64 15.3403 157.589 15.3904ZM136.934 16.274C131.258 16.8594 130.397 16.9629 130.483 17.0483C130.559 17.123 139.771 17.5578 141.326 17.5599L142.357 17.5613V17.0433C142.357 16.7584 142.424 16.3513 142.505 16.1385C142.692 15.6531 143.035 15.6448 136.934 16.274ZM154.614 16.7005C154.898 16.8037 154.991 17.4105 154.724 17.4105C154.637 17.4105 154.511 17.2631 154.443 17.0831C154.358 16.8558 154.286 16.8119 154.206 16.9397C154.062 17.1692 153.66 16.8849 153.66 16.5538C153.66 16.4345 153.591 16.379 153.507 16.4303C153.28 16.5684 153.049 16.3771 153.145 16.1305C153.213 15.9565 153.335 15.9809 153.788 16.2594C154.095 16.4485 154.467 16.647 154.614 16.7005ZM156.18 17.1814C156.67 17.2714 156.73 17.315 156.485 17.4011C156.317 17.4602 155.939 17.5035 155.645 17.4972C155.206 17.4878 155.102 17.4233 155.06 17.1348C155.018 16.8376 155.053 16.8056 155.289 16.9266C155.443 17.005 155.844 17.1197 156.18 17.1814Z" fill="#252525"/>
</svg>
