<svg width="180" height="22" viewBox="0 0 180 22" fill="none" xmlns="http://www.w3.org/2000/svg">
<path fill-rule="evenodd" clip-rule="evenodd" d="M16.037 1.31019C15.7519 3.05439 15.0284 4.50366 13.7771 5.8374C11.3451 8.42944 7.73885 9.82326 2.11369 10.3453C0.97424 10.4513 0.023252 10.5561 0.000484643 10.5784C-0.022102 10.6009 0.747651 11.052 1.71111 11.581C7.02529 14.4992 11.2192 17.2406 15.3885 20.5215C17.2804 22.0101 17.3169 22.0235 19.3637 21.9936C23.0761 21.9394 26.875 20.606 30.0696 18.2361C34.8342 14.7017 37.879 8.4116 37.8834 2.0951L37.8848 0H35.1744H32.464L32.4577 1.11442C32.4237 7.11746 28.181 13.1858 22.7199 15.0425C21.8201 15.3483 21.6987 15.0426 22.5279 14.5591C22.8271 14.3847 23.5659 13.7908 24.1695 13.2393C27.5697 10.133 29.5729 5.7823 29.5729 1.50401V0H26.9529H24.3328L24.3265 0.490343C24.3111 1.68856 23.7642 3.88298 23.1767 5.10366C21.8029 7.95835 19.5253 10.1175 16.4887 11.4441C15.2743 11.9745 14.9169 11.9383 15.7502 11.3692C16.82 10.6388 18.8965 8.37933 19.653 7.1228C20.5921 5.56298 21.244 3.439 21.3879 1.47103L21.4954 0H18.8733H16.2511L16.037 1.31019ZM125.586 2.92636C122.658 3.47679 120.554 4.53451 118.649 6.41386C116.455 8.57939 115.221 11.2854 115.221 13.9336C115.221 16.5326 116.386 18.3723 118.711 19.4459C120.318 20.1882 121.627 20.3836 124.256 20.2738C126.95 20.1611 128.576 19.8116 130.389 18.9549C134.752 16.8929 137.748 10.6014 136.205 6.73624C135.524 5.02735 134.038 3.77992 131.867 3.09255C130.692 2.72042 127.176 2.62752 125.586 2.92636ZM147.837 2.85183C142.413 3.6485 138.454 7.01137 137.094 11.976C136.739 13.2742 136.908 15.5965 137.435 16.6579C138.309 18.4192 140.242 19.7312 142.603 20.1673C144.014 20.4279 147.838 20.2727 149.463 19.8888C153.428 18.952 156.134 16.4604 157.712 12.293C158.188 11.0359 158.285 10.5228 158.297 9.18278C158.311 7.80305 158.246 7.4368 157.836 6.57095C156.946 4.68874 155.215 3.43026 152.829 2.93136C151.562 2.66622 149.341 2.63091 147.837 2.85183ZM68.8737 3.23733C66.7341 3.36322 65.7791 3.51674 63.3174 4.13047C62.2609 4.39383 61.7363 4.60833 61.7363 4.77736C61.7363 5.13219 62.6418 8.02379 62.7529 8.02379C62.8031 8.02379 62.9869 7.94837 63.1614 7.85636C63.3358 7.76418 64.1233 7.51954 64.9113 7.31252C67.4065 6.65689 70.8035 6.87122 71.3492 7.71871C71.5472 8.02629 71.5257 8.67942 71.2923 9.44828L71.0908 10.1119L69.8015 9.76852C67.8895 9.2591 65.2011 9.15532 63.5393 9.52691C60.9712 10.1011 58.8062 11.7372 57.7936 13.869C57.3948 14.7085 57.3093 15.1404 57.3093 16.315C57.3093 17.5368 57.3718 17.828 57.7446 18.3438C59.0133 20.0989 63.0942 20.4223 66.8597 19.0663C67.6576 18.7791 68.3334 18.5439 68.3616 18.5439C68.3898 18.5439 68.3641 18.7846 68.3045 19.0788L68.1961 19.6137H71.4309H74.6656L76.4496 13.8633C77.431 10.7005 78.2676 7.75187 78.3088 7.31056C78.3644 6.71484 78.2759 6.30206 77.9653 5.70848C76.9341 3.73677 73.9886 2.93635 68.8737 3.23733ZM90.9183 3.54687C89.7456 3.88423 88.0465 4.68108 87.5167 5.14182C87.2043 5.41356 87.1938 5.4009 87.3172 4.89861C87.389 4.60708 87.5171 4.18271 87.6018 3.95573C87.6867 3.72874 87.7561 3.508 87.7561 3.46538C87.7561 3.42277 86.2954 3.38782 84.5102 3.38782H81.2642L80.714 5.12631C80.4113 6.08257 79.2807 9.71324 78.2016 13.1947L76.2396 19.5246L79.4097 19.5734C81.1532 19.6002 82.6376 19.56 82.7086 19.4843C82.7795 19.4083 83.5053 17.1798 84.3215 14.532C85.1377 11.8841 86.0036 9.37714 86.2457 8.96097C86.7887 8.02771 87.5044 7.64596 88.9229 7.53363C90.3281 7.42236 91.303 7.78753 91.4824 8.49274C91.6479 9.14338 91.475 9.84341 89.925 14.7994C89.204 17.104 88.5743 19.1301 88.5255 19.3017C88.4433 19.5905 88.6789 19.6137 91.7026 19.6137H94.9685L95.3474 18.321C95.5557 17.6099 95.7697 16.9079 95.8226 16.7608C96.327 15.3611 98.6371 7.58765 98.7173 7.02081C98.9165 5.61255 98.0755 4.15775 96.7078 3.54473C95.7144 3.09932 92.4693 3.10057 90.9183 3.54687ZM161.387 3.4324C161.343 3.55507 161.011 4.61814 160.649 5.79496C160.287 6.97178 159.605 9.17832 159.134 10.6984C158.662 12.2184 157.859 14.8098 157.348 16.457C156.837 18.104 156.42 19.5483 156.42 19.6665C156.42 19.8271 157.227 19.8722 159.627 19.8459L162.834 19.8107L163.828 16.6041C164.375 14.8404 164.862 13.3589 164.912 13.3116C164.962 13.2646 166.1 14.6983 167.442 16.4978L169.881 19.7697L173.452 19.8254C176.014 19.8655 177.001 19.8254 176.946 19.6834C176.903 19.5745 175.52 17.7092 173.872 15.5383C172.223 13.3673 170.875 11.5243 170.875 11.4426C170.875 11.3608 172.481 9.88442 174.444 8.16162C176.406 6.439 178.46 4.62277 179.006 4.12583L180 3.22235L176.296 3.22324L172.592 3.22396L172.032 3.70717C171.293 4.34408 167.072 7.86509 166.666 8.18266C166.396 8.39466 166.362 8.39466 166.434 8.18266C166.481 8.04625 166.819 6.97178 167.185 5.79496C167.551 4.61814 167.889 3.55507 167.937 3.4324C168.003 3.25908 167.293 3.20952 164.745 3.20952C162.286 3.20952 161.448 3.26515 161.387 3.4324ZM40.9101 3.69986C40.8614 3.87139 39.7541 7.44411 38.4496 11.639C37.1452 15.8338 36.0779 19.3443 36.0779 19.4399C36.0779 19.5463 37.3254 19.6137 39.2942 19.6137H42.5105L43.0985 17.6969C43.4221 16.6426 43.8975 15.1182 44.155 14.3091L44.6236 12.8381H47.3978C48.9235 12.8381 50.1719 12.8985 50.1719 12.9723C50.1719 13.1346 49.6812 14.7928 48.9188 17.2066C48.6091 18.1873 48.3112 19.1319 48.2566 19.3058C48.1637 19.6016 48.3683 19.6187 51.439 19.5732L54.7207 19.5246L55.5259 16.9391C55.9686 15.5171 56.6444 13.3507 57.0274 12.1248C59.5508 4.05059 59.6975 3.53564 59.4941 3.45843C59.3783 3.41475 57.911 3.40102 56.2335 3.42794L53.1832 3.47698L52.9548 4.1902C52.8292 4.58247 52.4216 5.88625 52.0488 7.08768L51.371 9.27193H48.5374H45.7039L46.5776 6.46361C47.0581 4.91894 47.4534 3.59519 47.4563 3.52155C47.4592 3.44791 46.0073 3.38782 44.2302 3.38782C41.3068 3.38782 40.9902 3.4176 40.9101 3.69986ZM100.15 7.97921C99.3668 10.5046 98.2497 14.0949 97.6679 15.9579C97.086 17.821 96.6101 19.4459 96.6101 19.5686C96.6101 19.7391 97.3574 19.792 99.7616 19.792C101.495 19.792 102.956 19.7234 103.009 19.6392C103.061 19.5552 103.521 18.132 104.029 16.4766C104.538 14.821 104.994 13.4017 105.044 13.3225C105.094 13.2432 106.171 14.6463 107.438 16.4406L109.742 19.7029L113.205 19.7514C115.109 19.7779 116.667 19.7578 116.667 19.7066C116.667 19.6556 115.368 17.7882 113.781 15.5572C112.193 13.3261 110.892 11.4519 110.89 11.3922C110.887 11.3326 111.718 10.6124 112.737 9.79205C113.756 8.97166 115.918 7.21517 117.543 5.88875L120.496 3.47698L116.655 3.42883L112.813 3.38051L111.533 4.36637C107.723 7.29987 106.729 8.03092 106.729 7.9004C106.73 7.82124 107.014 6.84322 107.362 5.72738C107.709 4.61154 107.994 3.62854 107.994 3.54313C107.994 3.45772 106.549 3.38782 104.784 3.38782H101.575L100.15 7.97921ZM129.255 7.36905C129.651 7.57071 129.922 7.90967 130.142 8.47775C130.436 9.23805 130.438 9.38605 130.176 10.5786C129.397 14.1208 127.426 16.0417 124.567 16.0458C122.351 16.049 121.546 15.3672 121.546 13.4898C121.546 10.7638 123.355 7.90968 125.521 7.21713C126.533 6.89368 128.479 6.97285 129.255 7.36905ZM150.741 7.29184C151.526 7.64364 152.083 8.49148 152.083 9.3347C152.083 10.9348 151.042 13.476 149.935 14.5794C148.953 15.5583 148.064 15.9311 146.511 16.0158C144.945 16.1012 143.896 15.7325 143.488 14.954C142.629 13.3157 143.947 9.34237 145.809 7.958C147.132 6.97428 149.361 6.67312 150.741 7.29184ZM69.3706 12.8627C69.7434 12.9547 70.0482 13.1086 70.0482 13.2043C70.0482 13.3001 69.9138 13.8551 69.7497 14.438C69.4633 15.4542 69.417 15.5096 68.6204 15.789C68.1634 15.9492 67.0577 16.1185 66.1633 16.1651C64.7438 16.2391 64.4624 16.2034 63.9498 15.8839C63.3049 15.482 63.1799 14.8552 63.5743 14.001C64.1549 12.7437 66.793 12.2256 69.3706 12.8627Z" fill="#252525"/>
</svg>
