<svg width="144" height="45" viewBox="0 0 144 45" fill="none" xmlns="http://www.w3.org/2000/svg">
<path fill-rule="evenodd" clip-rule="evenodd" d="M10.439 10.9038L0 21.8077L5.25837 22.0112L10.5174 22.2155L22.1133 33.6074L33.7092 45H39.0307C41.9573 45 44.3516 44.7542 44.3516 44.4545C44.3516 44.154 39.2237 39.0136 32.9562 33.0314L21.5609 22.1538H16.1346H10.709L21.7969 11.0769L32.8848 0H26.8817H20.878L10.439 10.9038ZM132.666 4.13792C129.767 4.82261 128.334 6.04039 127.176 8.80477C125.939 11.7582 125.998 14.5932 127.37 18.0125C128.721 21.3819 131.204 22.8462 135.566 22.8462C141.541 22.8462 145.34 16.8612 143.558 10.2579C142.691 7.04354 140.12 4.15385 138.128 4.15385C137.379 4.15385 136.35 4.03061 135.842 3.87969C135.333 3.72946 133.904 3.84508 132.666 4.13792ZM45.0456 13.5V22.8462H47.8215C50.5787 22.8462 50.5975 22.8282 50.5975 20.1842C50.5975 18.4493 51.0562 17.1083 51.9147 16.3329C53.1833 15.1878 53.2971 15.2855 54.9995 18.9948L56.7664 22.8462H59.9282C61.6666 22.8462 63.0893 22.7243 63.0893 22.5748C63.0893 22.4252 61.6576 19.7633 59.9074 16.6583L56.7254 11.0139L59.5604 7.94561C61.1198 6.25777 62.3953 4.71462 62.3953 4.51523C62.3953 4.31654 60.8921 4.15385 59.0545 4.15385C55.8926 4.15385 55.5859 4.32415 53.329 7.33777L50.9445 10.5217L50.7328 7.33777L50.5211 4.15385H47.7833H45.0456V13.5ZM65.1713 11.4764C65.1713 18.6466 65.2136 18.8412 67.1998 20.8225C68.9639 22.5817 69.7405 22.8462 73.1522 22.8462C76.5638 22.8462 77.3404 22.5817 79.1045 20.8225C81.0907 18.8412 81.1331 18.6466 81.1331 11.4764V4.15385H78.7041H76.2751V10.3355C76.2751 16.6306 75.5048 18.6923 73.1522 18.6923C70.7996 18.6923 70.0292 16.6306 70.0292 10.3355V4.15385H67.6003H65.1713V11.4764ZM84.603 13.464V22.8462H86.66H88.717L88.9155 16.0962L89.114 9.34615L90.7608 16.0962C92.3487 22.6025 92.4771 22.8462 94.3189 22.8462C96.1608 22.8462 96.2891 22.6025 97.877 16.0962L99.5238 9.34615L99.7223 16.0962L99.9208 22.8462H101.978H104.035V13.464V4.08115L100.391 4.29092L96.7479 4.5L95.7763 9.17308C95.2419 11.7436 94.5861 13.8462 94.3189 13.8462C94.0517 13.8462 93.3959 11.7436 92.8615 9.17308L91.8899 4.5L88.2465 4.29092L84.603 4.08115V13.464ZM107.505 13.5V22.8462H109.934H112.363V19.0385V15.2308H115.103H117.842L118.052 18.8654L118.262 22.5L120.864 22.7146L123.467 22.9299V13.5415V4.15385H120.691H117.915V7.26923V10.3846H115.139H112.363V7.26923C112.363 4.17046 112.349 4.15385 109.934 4.15385H107.505V13.5ZM137.644 9.39531C139.938 11.6841 138.287 18.6923 135.453 18.6923C132.363 18.6923 130.589 13.2335 132.513 9.64661C133.382 8.02661 136.136 7.89161 137.644 9.39531ZM95.7069 30.1154C95.7069 30.6921 96.3238 31.1538 97.0949 31.1538C97.8583 31.1538 98.4829 31.2612 98.4829 31.3913C98.4829 31.5222 97.8583 33.4405 97.0949 35.6538C95.4237 40.4993 95.4341 40.3089 96.8534 40.0313C97.5328 39.8991 98.63 38.1171 99.5481 35.6538C100.824 32.2283 101.405 31.4626 102.854 31.2868C103.82 31.1691 104.784 30.6242 104.995 30.0752C105.307 29.2645 104.47 29.0769 100.543 29.0769C96.7069 29.0769 95.7069 29.2915 95.7069 30.1154ZM106.464 29.9423C106.297 30.4186 105.409 32.9102 104.49 35.4808C102.965 39.7468 102.924 40.1538 104.028 40.1538C104.897 40.1538 105.751 38.745 107.068 35.1346C108.075 32.3737 108.898 29.8814 108.896 29.5962C108.891 28.7211 106.787 29.0208 106.464 29.9423ZM110.898 30.9462C110.478 32.0123 109.56 34.5205 108.857 36.5192C107.612 40.0618 107.612 40.1538 108.876 40.1538C109.743 40.1538 110.439 39.3508 110.973 37.7342C111.647 35.6988 111.973 35.4212 113.03 35.9855C113.72 36.3545 114.483 37.4428 114.725 38.4051C115.01 39.5391 115.649 40.1538 116.54 40.1538C118.093 40.1538 118.265 39.3321 117.148 37.2496C116.5 36.0408 116.671 35.5915 118.257 34.3295C119.582 33.2758 120.061 32.3356 119.891 31.1303C119.67 29.5705 119.305 29.4051 115.655 29.2154C111.844 29.0174 111.626 29.0963 110.898 30.9462ZM123.12 29.9423C122.953 30.4186 122.065 32.9102 121.146 35.4808L119.475 40.1538H124.247C128.025 40.1538 129.018 39.9378 129.018 39.1154C129.018 38.3462 128.209 38.0769 125.895 38.0769C122.561 38.0769 122.552 38.0714 123.194 36.4029C123.487 35.64 124.517 35.3077 126.589 35.3077C128.593 35.3077 129.694 34.9685 129.964 34.2692C130.282 33.4426 129.735 33.2308 127.283 33.2308C124.832 33.2308 124.285 33.0189 124.603 32.1923C124.882 31.4695 126.012 31.1538 128.324 31.1538C130.637 31.1538 131.767 30.8382 132.046 30.1154C132.375 29.2576 131.658 29.0769 127.934 29.0769C124.95 29.0769 123.32 29.3698 123.12 29.9423ZM134.744 30.1306C132.279 31.8697 132.694 34.3475 135.611 35.3077C138.349 36.2091 138.797 37.7439 136.532 38.4612C135.514 38.7838 134.756 38.5733 134.2 37.8159C132.933 36.0865 130.959 36.3752 131.225 38.25C131.415 39.5765 131.932 39.8388 134.707 40.0175C137.281 40.1829 138.276 39.9185 139.435 38.763C141.53 36.6722 140.999 34.425 138.214 33.6067C135.554 32.8258 135.199 31.1538 137.693 31.1538C138.648 31.1538 139.428 31.4654 139.428 31.8462C139.428 32.2269 140.074 32.5385 140.865 32.5385C141.957 32.5385 142.248 32.1653 142.079 30.9808C141.897 29.7028 141.359 29.3878 139.081 29.2258C137.376 29.1046 135.703 29.4535 134.744 30.1306ZM117.446 31.6094C118.304 32.4658 116.36 33.9231 114.36 33.9231C112.198 33.9231 112.157 33.8795 112.784 32.2491C113.201 31.1649 116.541 30.7066 117.446 31.6094Z" fill="#252525"/>
</svg>
