<svg width="139" height="35" viewBox="0 0 139 35" fill="none" xmlns="http://www.w3.org/2000/svg">
<path fill-rule="evenodd" clip-rule="evenodd" d="M109.417 0.965778C108.356 1.48723 103.096 4.07311 97.7282 6.71277L87.9682 11.5119L91.1777 12.7506C92.9432 13.4322 94.7384 14.0598 95.1671 14.1456C95.7641 14.2648 98.6763 12.9592 107.592 8.57485C113.997 5.42532 119.134 2.74882 119.007 2.62671C118.63 2.26273 112.423 -0.0191912 111.862 0.000121878C111.577 0.009927 110.477 0.444621 109.417 0.965778ZM85.7012 3.83214C80.5181 6.37107 79.0859 7.19589 79.0859 7.64069C79.0859 8.08756 79.754 8.46521 82.2247 9.41452L85.3631 10.6206L92.8183 6.92521C96.9189 4.89288 100.214 3.17015 100.141 3.09735C99.8097 2.76606 93.5741 0.577436 92.9813 0.583972C92.6156 0.588132 89.3397 2.04999 85.7012 3.83214ZM114.697 7.21372C110.654 9.20119 107.343 10.9117 107.339 11.0145C107.328 11.2695 113.752 13.65 114.45 13.65C114.757 13.65 118.03 12.1879 121.724 10.401C127.037 7.83055 128.44 7.03218 128.44 6.57847C128.44 6.0585 126.399 5.08838 122.494 3.75251C122.249 3.66872 118.74 5.22625 114.697 7.21372ZM0 23.3066V34.4488H5.64899H11.298V30.4376C11.298 28.2314 11.3997 26.4264 11.5237 26.4264C11.6479 26.4264 11.9366 26.7274 12.1656 27.0949C12.3942 27.4625 13.711 29.2678 15.0914 31.1061L17.6017 34.4488H24.095C28.0916 34.4488 30.6589 34.335 30.7716 34.1525C30.8723 33.9894 29.8323 32.5522 28.4602 30.9585C25.2691 27.2515 21.4043 22.3701 21.4153 22.0605C21.4201 21.9288 23.1555 19.8154 25.2718 17.3641C27.3881 14.9128 29.1235 12.7402 29.1283 12.5358C29.1348 12.2512 27.7829 12.1644 23.3354 12.1644H17.5339L14.4903 16.2499L11.4466 20.3353L11.364 16.2499L11.2813 12.1644H5.64067H0V23.3066ZM30.0993 20.5582C30.231 29.8766 30.394 30.8158 32.1978 32.6672C33.7623 34.2729 34.5305 34.4488 39.9794 34.4488C45.3052 34.4488 45.7411 34.2946 44.0155 33.0196C42.7825 32.1086 41.7258 30.1506 41.3497 28.0802C41.1737 27.1107 41.0295 23.1328 41.0295 19.2407V12.1644H35.5051H29.9804L30.0993 20.5582ZM67.7879 23.3066V34.4488L75.4438 34.4452C80.9768 34.4428 83.5242 34.3287 84.6309 34.0343C89.7916 32.661 93.0065 28.6644 92.686 24.0197C92.2953 18.3541 87.2068 14.9306 80.9441 16.12L78.7886 16.5295V14.3471V12.1644H73.2883H67.7879V23.3066ZM52.8945 16.0297C50.7054 16.3738 48.5769 17.201 46.8825 18.366C44.2667 20.1645 43.1087 22.4473 43.1137 25.7953C43.1203 30.3354 46.1737 33.4424 51.8084 34.6431C54.5972 35.2374 60.8355 35.0255 63.6255 34.2417L65.5581 33.6991L65.8126 31.2333C65.9526 29.8769 66.0138 28.714 65.9487 28.6489C65.8833 28.5838 65.0883 28.7241 64.1818 28.9606C58.7647 30.3743 53.9886 29.849 53.2126 27.7543C53.0042 27.1918 53.1404 27.1692 56.7498 27.1692C61.8835 27.1692 64.0459 26.4148 65.6253 24.0726C66.4649 22.8276 66.4774 21.9259 65.6773 20.2747C64.1619 17.1463 58.2599 15.1862 52.8945 16.0297ZM103.883 16.0261C97.5778 16.9499 93.8673 20.5341 93.8568 25.7103C93.8473 30.4239 97.0693 33.5705 103.125 34.7611C105.572 35.2421 111.854 34.9598 114.615 34.2449L116.696 33.706L116.923 31.2086C117.047 29.835 117.114 28.6816 117.071 28.6453C117.029 28.6091 115.79 28.8296 114.318 29.1356C111.09 29.8065 107.584 29.9304 106.072 29.4271C105.104 29.105 103.763 27.8969 103.763 27.3472C103.763 27.2441 105.229 27.2099 107.022 27.2711C109.694 27.3626 110.647 27.2717 112.312 26.766C119.892 24.4651 117.64 17.2952 108.942 16.0389C106.648 15.7073 106.067 15.7061 103.883 16.0261ZM132.547 16.8964C131.781 17.1959 130.692 17.7263 130.128 18.0748C129.222 18.6343 129.08 18.653 128.92 18.235C128.819 17.9744 128.738 17.5046 128.738 17.1912C128.738 16.6525 128.47 16.6213 123.832 16.6213H118.926V25.535V34.4488H124.427H129.927V30.289C129.927 26.4983 129.981 26.0755 130.533 25.5231C131.911 24.1469 133.79 24.0057 136.146 25.1018C137.204 25.5939 137.857 25.7507 138.05 25.5582C138.364 25.2447 139.199 16.9514 138.956 16.5589C138.665 16.0882 133.985 16.3349 132.547 16.8964ZM58.583 20.7876C59.3632 21.2047 59.3409 22.4494 58.5456 22.8746C58.2046 23.057 57.2335 23.2775 56.388 23.3648C52.7027 23.7449 51.1097 21.3147 54.4848 20.4613C55.6191 20.1749 57.7553 20.3446 58.583 20.7876ZM109.318 20.9382C110.172 21.4974 110.19 22.0088 109.381 22.7406C108.886 23.1883 108.302 23.3066 106.588 23.3066C104.873 23.3066 104.289 23.1883 103.794 22.7406C103.45 22.4292 103.171 22.0949 103.173 21.9978C103.212 20.4694 107.479 19.7337 109.318 20.9382ZM82.8434 22.078C83.5451 22.6811 83.6786 23.0543 83.7838 24.7058C83.917 26.7999 83.4226 28.2332 82.3727 28.7945C79.4409 30.3627 77.1959 25.0953 79.5863 22.2563C80.5068 21.1631 81.7029 21.0975 82.8434 22.078Z" fill="#252525"/>
</svg>
