<svg width="194" height="17" viewBox="0 0 194 17" fill="none" xmlns="http://www.w3.org/2000/svg">
<path fill-rule="evenodd" clip-rule="evenodd" d="M1.86376 0.797628C1.79373 1.20709 1.63557 2.57243 1.51221 3.83196C1.25746 6.43622 0.75164 10.9176 0.304181 14.538L0 16.9998H3.59203H7.1843L7.29347 15.3395C7.59147 10.8031 8.03275 6.00752 8.15223 6.00752C8.22593 6.00752 9.17738 7.73354 10.2666 9.84337C11.3559 11.9532 12.6376 14.4262 13.115 15.3395L13.9827 16.9998H16.8551H19.7273L20.3437 15.7975C20.6827 15.1362 21.3478 13.914 21.8218 13.0813C25.136 7.26018 25.8668 6.02446 25.9476 6.1053C26.0348 6.19255 26.6688 15.0491 26.6825 16.37L26.6892 16.9998H30.481C33.984 16.9998 34.2642 16.9694 34.1575 16.5991C34.0939 16.3785 33.9804 15.3739 33.9048 14.3662C33.8295 13.3586 33.6217 11.3491 33.4429 9.90062C33.2642 8.45216 32.944 5.64409 32.7314 3.66021L32.345 0.0533584H29.205C24.524 0.0533584 22.4901 0.576866 21.5705 2.01823C21.3357 2.38601 20.2167 4.42325 19.0837 6.54568C17.3857 9.72635 16.9721 10.3499 16.7302 10.0953C16.5686 9.92513 15.3402 7.59636 14.0003 4.91974L11.5641 0.0533584H6.77758H1.99102L1.86376 0.797628ZM46.3552 0.408089C45.7791 0.585798 45.1488 0.913505 44.9547 1.13656C44.7603 1.35938 43.0783 4.16974 41.2168 7.38156C39.3551 10.5934 37.3847 13.992 36.8381 14.9339C36.2916 15.8761 35.8443 16.7262 35.8443 16.8232C35.8443 16.9203 37.728 16.9998 40.0305 16.9998H44.2165L45.0819 15.3968L45.9473 13.7937H50.3834H54.8194L55.6314 15.1801C56.078 15.9425 56.4435 16.6639 56.4435 16.7832C56.4435 16.9112 58.0823 16.9998 60.4489 16.9998C62.6518 16.9998 64.4543 16.9451 64.4543 16.8782C64.4543 16.8113 63.0558 14.4153 61.3468 11.5538C59.6375 8.69216 57.3975 4.9376 56.3686 3.20998L54.498 0.0689308L50.9504 0.0771751C48.5666 0.0826712 47.059 0.19122 46.3552 0.408089ZM65.1409 5.02829C65.1409 7.79399 65.2084 11.6191 65.2911 13.5283L65.4412 16.9998H69.1381H72.8347L72.7354 12.9922C72.6806 10.7752 72.7257 8.98551 72.8367 8.98643C72.9471 8.98758 74.5307 10.2347 76.356 11.7581C82.7731 17.1132 82.5165 16.9998 88.2213 16.9998H92.2233L90.2977 15.4824C89.2387 14.6479 87.1982 13.035 85.7632 11.8987L83.1542 9.83238L84.3899 9.37643C86.7105 8.51994 87.5711 7.54667 87.5711 5.77851C87.5711 3.35151 85.3773 1.69831 80.8191 0.690224C79.1108 0.312364 77.5972 0.214579 71.9501 0.117251L65.1409 0V5.02829ZM98.2295 0.307326C96.185 0.605492 94.9634 1.16037 94.0811 2.19182C93.4437 2.93677 93.2931 3.3041 93.2931 4.11364C93.2931 5.80782 94.4597 7.49239 96.2685 8.40979C97.2062 8.88544 101.163 10.0756 103.135 10.4752C104.32 10.7152 106.06 11.5007 106.197 11.857C106.263 12.0283 106.125 12.4053 105.89 12.6947C105.468 13.2173 105.419 13.2217 99.1499 13.2977L92.8353 13.374V15.187V16.9998H100.682C108.313 16.9998 108.575 16.9849 110.18 16.4587C112.962 15.547 114.35 14.2286 114.35 12.4971C114.35 10.9831 112.49 9.05674 110.23 8.22956C109.664 8.02231 107.559 7.4411 105.553 6.9382C101.528 5.92943 100.625 5.44371 101.376 4.69165C101.732 4.33554 102.401 4.2815 107.262 4.21463L112.748 4.13906V2.09632V0.0533584L106.168 0.0812972C102.549 0.0966406 98.9764 0.198319 98.2295 0.307326ZM116.181 8.52659V16.9998H120.042H123.904L123.876 13.7365L123.848 10.4731L128.941 10.4115L134.034 10.3499V12.6123C134.034 13.8567 134.099 15.353 134.179 15.9372L134.325 16.9998H138.07H141.815V8.52659V0.0533584H137.925H134.034V3.14494V6.23652L130.2 6.2379C125.322 6.2395 124.85 6.36179 124.238 7.78552L123.771 8.8701L123.753 4.46173L123.734 0.0533584H119.958H116.181V8.52659ZM154.66 0.317403C153.301 0.708545 152.812 1.21121 151.303 3.7699C150.491 5.1476 149.826 6.32744 149.826 6.39202C149.826 6.4566 149.636 6.78293 149.404 7.11728C149.171 7.45163 148.671 8.29185 148.293 8.9846C147.914 9.67734 147.28 10.7896 146.884 11.4565C146.488 12.1234 146.164 12.6993 146.164 12.7366C146.164 12.774 145.649 13.6618 145.02 14.7098C144.39 15.7577 143.875 16.7014 143.875 16.8074C143.875 16.9132 145.755 16.9991 148.052 16.9982L152.23 16.9968L153.101 15.3952L153.973 13.7937H158.409H162.846L163.717 15.3952L164.589 16.9968L168.545 16.9982L172.501 16.9998L172.235 16.4845C172.089 16.2013 171.443 15.0933 170.799 14.0227C170.156 12.9521 169.474 11.8007 169.283 11.464C169.093 11.1274 167.496 8.42445 165.733 5.45745L162.529 0.0627477L158.981 0.0787781C157.03 0.0874803 155.086 0.194884 154.66 0.317403ZM174.316 8.52659V16.9998H184.158H194V15.0533V13.1067H188.085H182.169L182.019 9.97894C181.937 8.25865 181.869 5.32164 181.869 3.45227V0.0533584H178.093H174.316V8.52659ZM78.7382 4.18303C80.206 4.92386 80.1087 5.72813 78.4383 6.66202C76.7964 7.58033 73.0821 8.83872 72.812 8.56849C72.6255 8.38163 72.6747 4.04242 72.8656 3.84845C73.167 3.5425 78.0161 3.81868 78.7382 4.18303ZM51.5208 7.14866C52.214 8.53208 52.7814 9.76872 52.7814 9.89673C52.7814 10.038 51.9334 10.1296 50.6247 10.1296C48.5146 10.1296 48.4524 10.1452 47.7534 10.8446C47.3604 11.2378 47.0029 11.5211 46.959 11.4744C46.915 11.4274 47.1702 10.7708 47.5261 10.0151C47.8818 9.25941 48.589 7.73949 49.0976 6.63728C49.6062 5.53531 50.0758 4.63348 50.1411 4.63348C50.2065 4.63348 50.8272 5.76546 51.5208 7.14866ZM159.855 7.77865C160.382 8.81582 160.812 9.76917 160.812 9.89696C160.812 10.038 159.965 10.1296 158.662 10.1296C156.589 10.1296 156.486 10.1541 155.777 10.8166C155.373 11.1945 155.004 11.5037 154.958 11.5037C154.821 11.5037 155.19 10.6518 156.686 7.51736L158.096 4.56157L158.497 5.22729C158.718 5.59347 159.329 6.74171 159.855 7.77865Z" fill="#252525"/>
</svg>
