<svg width="187" height="23" viewBox="0 0 187 23" fill="none" xmlns="http://www.w3.org/2000/svg">
<path fill-rule="evenodd" clip-rule="evenodd" d="M8.7318 0.321547C3.4052 1.82599 0.0118583 6.19269 2.86245e-05 11.5582C-0.013952 17.8929 5.09505 23 11.4458 23C15.9676 23 19.6872 20.6391 21.7348 16.4694C22.7167 14.4693 22.8963 13.7074 22.8916 11.5582C22.8816 7.0495 20.5278 3.25784 16.5233 1.30019C13.9132 0.0243239 11.0562 -0.334716 8.7318 0.321547ZM16.9287 5.74848C16.9868 7.31222 16.9219 8.84865 16.7843 9.16277C16.3727 10.1015 16.6663 17.2489 17.1284 17.5414C17.4288 17.7316 17.3912 18.0708 16.9886 18.7993C16.2989 20.0468 15.9175 20.0479 14.5269 18.8055C13.4407 17.8351 13.4174 17.7459 13.4174 14.5527C13.4174 12.1037 13.3056 11.3278 12.9693 11.4388C12.6876 11.5319 12.4546 12.5767 12.342 14.2544C12.2234 16.0223 11.9373 17.2546 11.4942 17.9098C11.1264 18.4536 10.7572 18.8982 10.6729 18.8982C10.5891 18.8982 10.0668 18.5618 9.51184 18.1506C7.50258 16.6613 5.14094 18.0967 6.82434 19.7841C7.43985 20.4012 8.56797 20.4012 10.9977 19.7837C12.3836 19.4315 12.3305 20.4968 10.926 21.2249C9.78572 21.8161 6.96487 21.9786 6.96487 21.4528C6.96487 21.2767 6.56373 21.0316 6.07334 20.9083C4.81437 20.5913 3.9784 19.1807 4.26733 17.8609C4.61255 16.285 5.82814 15.6636 8.56546 15.6636H10.9081V14.0165C10.9081 12.8592 10.7748 12.4132 10.46 12.517C10.2137 12.5983 9.95922 13.0249 9.8947 13.4648C9.7764 14.2741 8.6006 14.9448 7.30004 14.9448C6.6849 14.9448 6.60639 14.6788 6.60639 12.5975C6.60639 10.7506 6.48057 10.2018 6.0167 10.0232C5.66109 9.88624 5.24418 10.0476 4.96529 10.43C4.32971 11.3012 3.7375 10.8225 3.74396 9.44274C3.75148 7.90847 4.07519 7.48545 5.3528 7.33989C6.72791 7.18356 6.97885 5.92278 5.92063 4.4877C5.50909 3.92956 5.17249 3.39764 5.17249 3.30564C5.17249 3.21363 6.20884 3.15397 7.4757 3.17338L9.77855 3.20824L9.76313 7.00997C9.74951 10.3143 9.8273 10.8279 10.3593 10.9339C10.9013 11.0424 10.9633 10.7132 10.9038 8.05869C10.8131 4.02731 10.7579 4.24511 12.0732 3.43107C12.9159 2.90922 13.7336 2.73671 15.0306 2.80751L16.823 2.90491L16.9287 5.74848ZM55.9751 3.81671C51.7034 4.88664 48.7378 8.28548 48.2915 12.6227C47.924 16.1915 48.9607 18.5021 51.5482 19.8819C53.0502 20.6822 57.5541 20.6653 59.3788 19.8524C62.8628 18.2994 65.0431 14.9624 65.318 10.7607C65.4611 8.573 65.3671 7.98178 64.6821 6.75982C64.2397 5.97094 63.2783 4.98763 62.5452 4.57468C60.9794 3.69235 57.8933 3.33655 55.9751 3.81671ZM108.653 3.93639C106.406 4.57144 105.168 5.50337 104.335 7.18607C103.755 8.357 103.72 8.74299 104.085 9.96567C104.591 11.6574 105.778 12.4894 109.187 13.5403C110.5 13.9449 111.852 14.5839 112.192 14.9606C112.768 15.5985 112.77 15.7067 112.22 16.547C111.047 18.3429 106.891 18.2958 104.288 16.4571C103.415 15.84 102.625 15.4591 102.532 15.61C102.439 15.761 102.255 16.6987 102.123 17.6931L101.884 19.502L103.625 20.0087C106.099 20.7286 110.719 20.6635 112.744 19.8801C115.841 18.6818 117.331 16.0018 116.295 13.4942C115.794 12.2831 114.322 11.3885 111.399 10.5199C108.704 9.71876 108.055 9.28856 108.055 8.30381C108.055 5.82539 113.75 5.62304 116.379 8.00802C117.176 8.73113 117.19 8.71352 117.629 6.41157L117.988 4.52724L116.696 4.16101C114.441 3.522 110.507 3.41202 108.653 3.93639ZM142.009 3.81671C137.738 4.88664 134.772 8.28548 134.326 12.6227C133.958 16.1915 134.995 18.5021 137.583 19.8819C139.085 20.6822 143.589 20.6653 145.413 19.8524C148.897 18.2994 151.077 14.9624 151.352 10.7607C151.495 8.573 151.401 7.98178 150.716 6.75982C150.274 5.97094 149.313 4.98763 148.58 4.57468C147.014 3.69235 143.928 3.33655 142.009 3.81671ZM33.6821 4.21025C33.5839 4.48052 32.7676 7.9365 31.8682 11.8899C30.9688 15.8433 30.1461 19.3693 30.04 19.7255C29.8672 20.3059 30.0651 20.362 31.9363 20.2646L34.0255 20.1561L34.6952 17.191L35.3652 14.226H36.6786C37.9699 14.226 38.0186 14.2785 39.5038 17.2809L41.0148 20.3358H43.1685C44.3529 20.3358 45.3218 20.2445 45.3218 20.1327C45.3218 20.0209 44.5124 18.4245 43.5234 16.5847L41.7249 13.2402L42.7641 12.8085C46.4672 11.2706 47.3429 6.5334 44.2575 4.73102C43.2326 4.13226 42.2092 3.97951 38.4373 3.86163C34.7941 3.74806 33.8241 3.81886 33.6821 4.21025ZM74.4574 4.25266C73.8447 5.04441 65.0381 19.8984 65.0381 20.1395C65.0381 20.2671 65.9557 20.3232 67.0774 20.2639C69.0784 20.1582 69.1347 20.1255 70.0574 18.5388L70.9977 16.9215L74.0641 16.8183L77.1305 16.7152L77.37 18.5255L77.6095 20.3358H79.5685C81.1975 20.3358 81.5273 20.2297 81.5237 19.7068C81.5215 19.3607 81.0376 15.6819 80.4482 11.5309C79.8593 7.38015 79.3771 3.94321 79.3771 3.89362C79.3771 3.54608 74.7424 3.88427 74.4574 4.25266ZM87.4625 4.2045C87.3672 4.478 86.5531 7.9365 85.6537 11.8899C84.7543 15.8433 83.9244 19.3823 83.8093 19.7543C83.6104 20.399 83.8326 20.4231 88.6082 20.2704C93.1602 20.1244 93.7983 20.0206 95.6211 19.1264C99.1571 17.3919 101.038 14.3895 101.054 10.4523C101.063 8.38144 100.917 7.72841 100.228 6.76018C98.7589 4.69472 96.9887 4.07332 92.0206 3.87852C88.495 3.74051 87.6023 3.80448 87.4625 4.2045ZM120.445 4.79176C120.315 5.33553 120.125 6.06295 120.023 6.40905C119.858 6.96648 120.125 7.038 122.37 7.038C123.764 7.038 124.904 7.17457 124.904 7.34097C124.904 7.50774 124.258 10.4444 123.47 13.8666C122.681 17.2888 122.036 20.1525 122.036 20.2301C122.036 20.3081 122.951 20.3232 124.068 20.2639L126.101 20.1561L127.578 13.6869L129.054 7.2177L131.62 7.1124C134.348 7.00062 134.224 7.09227 134.735 4.79176L134.955 3.80341H127.817H120.68L120.445 4.79176ZM156.265 4.25266C156.175 4.49992 155.367 7.9365 154.467 11.8899C153.568 15.8433 152.748 19.3607 152.645 19.7068C152.483 20.2506 152.717 20.3358 154.368 20.3358H156.277L157.525 14.7651C158.211 11.7012 158.871 9.1944 158.992 9.1944C159.112 9.1944 160.246 11.6606 161.512 14.6752L163.813 20.1561H165.581H167.348L169.003 12.9681C169.912 9.0147 170.77 5.33553 170.909 4.79176C171.16 3.80556 171.157 3.80341 169.246 3.80341H167.332L166.308 8.4756C165.744 11.0453 165.184 13.1478 165.062 13.1478C164.941 13.1478 163.961 11.0467 162.886 8.47919L160.931 3.81059L158.679 3.807C157.2 3.80449 156.371 3.95759 156.265 4.25266ZM175.264 4.25266C175.175 4.49992 174.366 7.9365 173.466 11.8899C172.567 15.8433 171.747 19.3607 171.644 19.7068C171.472 20.288 171.907 20.3358 177.375 20.3358H183.293L183.595 18.8083L183.897 17.2809L180.211 17.1788C176.115 17.0656 176.176 17.1148 176.902 14.4955L177.275 13.1478H180.804H184.333L184.568 12.1594C184.698 11.6157 184.887 10.8882 184.99 10.5421C185.158 9.97214 184.835 9.91319 181.543 9.91319C178.081 9.91319 177.919 9.87941 178.113 9.1944C178.225 8.79906 178.408 8.15214 178.52 7.7568C178.707 7.0973 179.03 7.038 182.442 7.038C184.487 7.038 186.236 6.91544 186.329 6.76557C186.421 6.61606 186.61 5.88828 186.748 5.14828L187 3.80341H181.213C176.909 3.80341 175.385 3.91842 175.264 4.25266ZM12.5811 5.48072C12.4496 5.61226 12.342 6.66351 12.342 7.81682C12.342 9.44058 12.4632 9.91319 12.8797 9.91319C13.3024 9.91319 13.4174 9.41399 13.4174 7.5771C13.4174 5.4225 13.1948 4.86507 12.5811 5.48072ZM60.0104 7.02902C60.941 7.96202 61.2153 9.1696 61.0235 11.4895C60.7295 15.0411 58.469 17.82 55.8732 17.82C54.2081 17.82 53.6134 17.5156 53.0158 16.3565C51.6697 13.7473 53.0649 8.49141 55.4986 7.00386C56.9766 6.10033 59.0956 6.11183 60.0104 7.02902ZM146.045 7.02902C146.975 7.96202 147.25 9.1696 147.058 11.4895C146.764 15.0411 144.503 17.82 141.908 17.82C140.242 17.82 139.648 17.5156 139.05 16.3565C137.704 13.7473 139.099 8.49141 141.533 7.00386C143.011 6.10033 145.13 6.11183 146.045 7.02902ZM41.3069 7.10988C42.0988 7.90379 41.8206 9.79495 40.7925 10.6058C39.512 11.6157 35.847 11.707 36.1402 10.7218C36.2434 10.3757 36.5152 9.3245 36.7446 8.38575L37.1618 6.6786H39.0195C40.0408 6.6786 41.0703 6.87268 41.3069 7.10988ZM95.0981 7.19075C98.262 8.83104 97.126 14.9523 93.286 16.9556C92.7533 17.2334 91.4355 17.4606 90.3572 17.4606H88.3967L88.6982 16.2925C88.8638 15.6503 89.4313 13.2243 89.959 10.9015L90.9186 6.6786H92.5142C93.3921 6.6786 94.5546 6.90898 95.0981 7.19075ZM76.6301 11.6203L76.8567 13.8666H74.8908C73.8093 13.8666 72.9245 13.7803 72.9245 13.6754C72.9245 13.5701 73.6099 12.2852 74.4477 10.8203C76.1383 7.86354 76.2551 7.90631 76.6301 11.6203Z" fill="#252525"/>
</svg>
