<svg width="149" height="49" viewBox="0 0 149 49" fill="none" xmlns="http://www.w3.org/2000/svg">
<path fill-rule="evenodd" clip-rule="evenodd" d="M63.7369 0.184133C61.972 0.512323 60.5676 1.17974 59.4017 2.24422C58.6384 2.94117 57.7156 4.24922 57.3379 5.16963C57.1097 5.72588 55.6018 10.9546 55.6018 11.1897C55.6018 11.2474 57.3703 11.2799 59.5319 11.2619L63.4619 11.2292L63.9319 9.50881C64.1902 8.56258 64.4693 7.62541 64.5519 7.42626C64.7686 6.90339 65.2443 6.5762 65.7877 6.5762C66.7319 6.5762 66.7972 7.18083 66.1125 9.5845C65.8647 10.4543 65.662 11.1949 65.662 11.2303C65.662 11.2658 67.4335 11.2799 69.5988 11.2619L73.5354 11.2292L74.5078 7.76711C75.1808 5.37064 75.6225 4.03431 75.9426 3.42508C76.4686 2.42438 77.7029 1.05132 78.5959 0.473238C78.928 0.258209 79.1998 0.0637767 79.1998 0.0411943C79.1998 0.0184878 75.9163 0.00508725 71.903 0.0111671C66.4755 0.0194804 64.3836 0.0637767 63.7369 0.184133ZM83.9815 0.183637C81.5183 0.640621 79.5304 2.07163 78.4162 4.19003C78.0312 4.92197 76.8734 8.61755 76.2983 10.95L76.2143 11.2912H80.1192H84.0243L84.1521 10.8879C84.2223 10.6662 84.6761 9.03296 85.1605 7.25863C85.6449 5.4843 86.2266 3.64172 86.4534 3.16402C87.0196 1.97075 87.8674 0.867437 88.5808 0.39544L89.1784 0L87.0145 0.0111671C85.8211 0.0173711 84.461 0.0946724 83.9815 0.183637ZM94.1707 0.137976C91.0597 0.590865 89.1842 2.09073 88.134 4.96552C87.8296 5.79896 86.2792 11.046 86.2792 11.2431C86.2792 11.2715 88.0521 11.2799 90.219 11.2619L94.1588 11.2292L95.2491 7.38271C95.8671 5.20214 96.5087 3.20037 96.7304 2.76076C97.2104 1.80945 98.0643 0.899574 98.9577 0.387747L99.6306 0.0023575L97.2708 0.0162544C95.9729 0.0239473 94.5779 0.0787903 94.1707 0.137976ZM55.0621 13.1214C55.0304 13.1726 54.5489 14.8263 53.9918 16.7963C53.4349 18.7664 52.8697 20.6707 52.7358 21.0281C52.2244 22.3938 51.2652 23.4647 50.0439 24.0339C49.6853 24.201 49.3919 24.3696 49.3919 24.4086C49.3919 24.5617 54.9309 24.3294 55.7845 24.1405C58.3052 23.5824 60.0817 22.0166 61.0513 19.4983C61.362 18.6915 62.9296 13.362 62.9296 13.1127C62.9296 12.9967 55.1339 13.0054 55.0621 13.1214ZM65.0562 13.4316C64.9855 13.6533 64.504 15.3691 63.9859 17.2442C62.733 21.7791 62.0897 23.0719 60.6318 23.9829L59.9842 24.3875L62.4815 24.3486C64.1026 24.3231 65.295 24.243 65.8799 24.1199C67.2435 23.8328 68.436 23.1836 69.4128 22.1966C70.6021 20.9952 71.1477 19.7936 72.1729 16.1184C72.6223 14.5081 72.9898 13.154 72.9898 13.1095C72.9898 13.0648 71.2336 13.0283 69.0872 13.0283H65.1845L65.0562 13.4316ZM75.6814 13.2455C75.651 13.2966 75.1719 14.9491 74.6168 16.9176C74.0616 18.886 73.4167 20.9091 73.1835 21.4132C72.6388 22.591 71.6805 23.6255 70.7326 24.0592L70.0279 24.3816L74.4586 24.3502C76.8955 24.3328 80.3983 24.3026 82.2427 24.2829L85.5961 24.2472L86.7563 23.8476C87.3945 23.6279 88.17 23.2997 88.4795 23.1184C89.7954 22.3481 91.3766 20.4906 91.8993 19.101C92.0133 18.7979 92.4189 17.4331 92.8003 16.0683C93.1818 14.7034 93.5234 13.4881 93.5594 13.3678C93.6211 13.1613 93.3997 13.1508 89.683 13.1817L85.7413 13.2144L85.3868 14.5173C84.8091 16.6405 84.6602 17.0434 84.3219 17.4006C83.8599 17.8881 83.2451 17.9772 82.8567 17.6127C82.4659 17.2459 82.4733 16.956 82.914 15.3763C83.1124 14.665 83.3315 13.8737 83.4008 13.6177L83.5268 13.1524H79.6318C77.4896 13.1524 75.7119 13.1943 75.6814 13.2455ZM108.884 37.1386C107.941 37.4102 107.412 37.7247 106.856 38.3429C105.978 39.3181 105.778 40.5921 106.319 41.7535C106.797 42.7794 107.264 43.1046 109.97 44.299C110.965 44.7382 111.3 45.2473 111.094 46.011C110.877 46.8181 109.459 47.1219 107.851 46.7058C107.435 46.5979 106.94 46.4302 106.751 46.3329C106.413 46.1582 106.408 46.1614 106.287 46.6221C105.935 47.9596 105.877 48.2906 105.979 48.3868C106.313 48.7022 107.427 48.9338 108.85 48.9836C110.77 49.0506 111.757 48.7972 112.656 48.0062C113.549 47.2208 113.786 46.6773 113.787 45.413C113.787 44.2224 113.66 43.8937 112.904 43.1417C112.458 42.6971 111.842 42.3585 109.842 41.4586C109.176 41.1589 108.964 40.9958 108.832 40.6802C108.423 39.7091 109.351 38.9842 110.812 39.1337C111.235 39.177 111.844 39.3017 112.164 39.4108C112.485 39.52 112.773 39.5829 112.805 39.5509C112.873 39.4836 113.355 37.7801 113.355 37.6093C113.355 37.1575 110.031 36.8077 108.884 37.1386ZM3.55546 37.1272C3.55174 37.1462 2.75015 39.786 1.77432 42.9934L0 48.8252L1.30534 48.8606C2.08022 48.8816 2.64173 48.8456 2.68718 48.772C2.72941 48.7039 2.92689 48.0319 3.12623 47.2788L3.48864 45.9093H5.19378C6.71113 45.9093 6.90563 45.9332 6.96102 46.1264C6.9953 46.2458 7.19712 46.9159 7.4095 47.6154L7.79564 48.8872H9.1565C10.1641 48.8872 10.5165 48.847 10.514 48.7321C10.5121 48.6469 9.71378 46.0086 8.73981 42.8694L6.96884 37.1617L5.26557 37.1272C4.32873 37.1082 3.55919 37.1082 3.55546 37.1272ZM12.6961 37.2513C12.6676 37.3385 12.5005 39.8108 12.3247 42.7453C12.149 45.6797 11.9813 48.2621 11.9521 48.4839L11.8992 48.8872H13.1151H14.3309L14.4083 47.6154C14.4509 46.9159 14.5454 44.9198 14.6183 43.1796C14.6913 41.4393 14.7626 39.9039 14.7767 39.7674C14.7907 39.6309 14.9591 40.2451 15.1509 41.1322C15.4481 42.5072 16.2579 45.6244 16.9318 47.9876L17.1176 48.639H18.1645C18.7402 48.639 19.2113 48.6178 19.2113 48.5918C19.2113 48.5658 19.6777 47.0444 20.2477 45.2106C20.8177 43.377 21.4185 41.3742 21.5828 40.76L21.8816 39.6433L21.9734 41.7526C22.024 42.9128 22.1078 44.9787 22.1597 46.3436L22.2542 48.8252L23.537 48.8606L24.8197 48.8961L24.7429 47.806C24.6689 46.7533 24.1793 37.5951 24.1793 37.2631C24.1793 37.1358 23.7999 37.0997 22.4635 37.0997H20.7476L20.0452 39.3641C19.1907 42.1189 18.7856 43.543 18.5938 44.4659C18.5138 44.8503 18.4106 45.1647 18.3642 45.1644C18.3178 45.1642 18.1503 44.5689 17.9921 43.8414C17.8338 43.1139 17.3588 41.3134 16.9364 39.8402L16.1684 37.1617L14.4581 37.1272C13.155 37.1009 12.7356 37.1304 12.6961 37.2513ZM26.001 37.1824C25.9554 37.2278 25.9181 37.7304 25.9181 38.2991V39.3331H27.5327H29.1473V44.1101V48.8872H30.4514H31.7555V44.1101V39.3331H33.308H34.8605V38.2164V37.0997H30.4721C28.0584 37.0997 26.0464 37.1369 26.001 37.1824ZM36.3509 42.9934V48.8872H40.0769H43.8029V47.8325V46.7778H41.381H38.9591V45.3509V43.924H41.1326H43.3061V42.8694V41.8147H41.1326H38.9591V40.5739V39.3331H41.2568H43.5545V38.2164V37.0997H39.9527H36.3509V42.9934ZM45.6659 42.9891V48.8872H49.2677H52.8694V47.7705V46.6538H50.5732H48.277L48.2445 41.9077L48.212 37.1617L46.9389 37.1263L45.6659 37.091V42.9891ZM53.4937 37.1927C53.4954 37.244 54.3253 39.8821 55.3378 43.0555L57.1786 48.8252L58.7385 48.8598L60.2983 48.8944L62.235 43.0901C63.3001 39.8977 64.1716 37.2421 64.1716 37.1886C64.1716 37.1353 63.5489 37.1074 62.7878 37.1266L61.4039 37.1617L60.5014 40.2016C60.005 41.8736 59.4402 43.8977 59.2464 44.6995C59.0526 45.5013 58.8644 46.1575 58.8284 46.1575C58.7923 46.1575 58.6675 45.6969 58.551 45.1338C58.3666 44.2439 57.3451 40.5048 56.5846 37.9372L56.3365 37.0997H54.9135C54.1308 37.0997 53.4919 37.1415 53.4937 37.1927ZM66.3451 37.1776C66.1402 37.2063 65.8467 37.2574 65.6931 37.2911L65.4136 37.3525V43.1199V48.8872H66.7798H68.146V46.5917V44.2963L68.7981 44.2981C69.9555 44.3014 70.4428 44.7742 70.8039 46.2441C70.9178 46.7082 71.129 47.4928 71.2734 47.9876L71.5355 48.8872H72.8921C74.1259 48.8872 74.2427 48.8676 74.1839 48.6701C74.1482 48.5507 73.8916 47.6197 73.6134 46.6014C73.0759 44.6331 72.829 44.1077 72.2168 43.629L71.834 43.3297L72.2113 43.1346C72.7517 42.8556 73.5424 41.912 73.7131 41.3423C74.2046 39.7037 73.4002 38.0945 71.7694 37.454C71.1477 37.2099 70.8087 37.1741 68.8912 37.1513C67.6958 37.137 66.55 37.1488 66.3451 37.1776ZM75.805 37.1824C75.7594 37.2278 75.7222 39.88 75.7222 43.0762V48.8872H79.4482H83.1742V47.8325V46.7778H80.8144H78.4546V45.3509V43.924H80.566H82.6774V42.8694V41.8147H80.566H78.4546V40.5739V39.3331H80.6902H82.9258V38.2164V37.0997H79.4068C77.4713 37.0997 75.8505 37.1369 75.805 37.1824ZM85.6582 37.2113L85.0993 37.2858L85.067 43.0752L85.0347 48.8647L86.1227 48.9553C87.5636 49.0753 90.0081 48.9422 90.9367 48.6931C92.0068 48.4061 93.3004 47.6902 93.8149 47.1003C94.5305 46.2799 95.0812 44.9961 95.2463 43.7632C95.6927 40.4302 94.0583 37.9227 91.0204 37.2795C90.1788 37.1013 86.8065 37.0585 85.6582 37.2113ZM97.0845 42.9934V48.8872H100.811H104.537V47.8353V46.7832L102.146 46.7496L99.7548 46.7158L99.7197 45.3199L99.6845 43.924H101.862H104.04V42.8694V41.8147H101.866H99.6927V40.5739V39.3331H101.99H104.288V38.2164V37.0997H100.686H97.0845V42.9934ZM114.845 38.2164V39.3331H116.398H117.95V44.1101V48.8872H119.254H120.558V44.1101V39.3331H122.173H123.787V38.2164V37.0997H119.316H114.845V38.2164ZM125.237 37.1824C125.191 37.2278 125.154 39.88 125.154 43.0762V48.8872H128.88H132.606V47.8325V46.7778H130.246H127.886V45.3509V43.924H129.997H132.109V42.8694V41.8147H129.997H127.886V40.5739V39.3331H130.122H132.357V38.2164V37.0997H128.838C126.903 37.0997 125.282 37.1369 125.237 37.1824ZM134.469 42.9934V48.8872H135.773H137.077V42.9934V37.0997H135.773H134.469V42.9934ZM139.399 37.1787C139.351 37.2262 139.312 39.88 139.312 43.0762V48.8872H140.57H141.828L141.774 44.5262C141.739 41.6684 141.762 40.2677 141.84 40.4626C142.129 41.1831 143.981 44.7866 145.053 46.7158L146.226 48.8252L147.613 48.8603L149 48.8954V42.9975V37.0997H147.806H146.611L146.66 41.2045C146.692 43.8991 146.668 45.2099 146.59 45.0199C146.132 43.9089 144.732 41.162 143.693 39.3331L142.458 37.1617L140.972 37.1271C140.154 37.108 139.446 37.1313 139.399 37.1787ZM70.4822 39.3363C70.8973 39.5891 71.251 40.2194 71.251 40.7063C71.251 41.1876 70.8762 41.7703 70.3913 42.0425C70.0255 42.2478 69.7052 42.311 69.0296 42.311H68.146V40.698V39.0849L69.1086 39.0854C69.8548 39.0858 70.1635 39.1421 70.4822 39.3363ZM90.1538 39.2878C91.7134 39.7251 92.4891 40.9115 92.4891 42.8598C92.4891 44.2968 92.2215 45.061 91.4361 45.8666C90.6916 46.6302 89.9353 46.9019 88.5543 46.9019H87.6454V43.0645C87.6454 38.7199 87.5318 39.1254 88.755 39.0993C89.1262 39.0914 89.7558 39.1763 90.1538 39.2878ZM5.35611 39.7742C5.40194 40.0184 5.65978 40.997 5.92917 41.9489C6.19843 42.9009 6.41876 43.7347 6.41876 43.8018C6.41876 43.8739 5.90905 43.924 5.17677 43.924C4.35581 43.924 3.93477 43.8777 3.93477 43.7874C3.93477 43.7123 4.0971 43.0841 4.29557 42.3915C4.49404 41.6989 4.75523 40.7022 4.87583 40.1765C4.99655 39.6509 5.13516 39.2454 5.18397 39.2755C5.2329 39.3057 5.31028 39.5301 5.35611 39.7742Z" fill="#252525"/>
</svg>
