<svg width="161" height="18" viewBox="0 0 161 18" fill="none" xmlns="http://www.w3.org/2000/svg">
<path fill-rule="evenodd" clip-rule="evenodd" d="M6.95592 0.117547C5.21317 0.425763 3.73484 1.19679 2.46618 2.45922C1.13049 3.78839 0.304218 5.48512 0.0707339 7.37846C-0.023578 8.14331 -0.023578 9.84833 0.0707339 10.6132C0.528235 14.3229 3.31294 17.2456 6.98793 17.8732C7.95266 18.038 19.8444 18.0441 20.8109 17.8803C22.5496 17.5857 24.0969 16.7855 25.3621 15.5269C26.5505 14.3446 27.3287 12.8815 27.6676 11.1926C27.7633 10.7153 27.7912 10.2196 27.7912 8.99582C27.7912 7.23763 27.7127 6.65849 27.3265 5.56983C26.3071 2.69622 23.8444 0.63978 20.7876 0.109744C19.9168 -0.0412032 7.81518 -0.0343839 6.95592 0.117547ZM147.968 8.62706C145.761 13.3306 143.939 17.2346 143.92 17.3027C143.887 17.4195 144.029 17.4254 146.446 17.408L149.006 17.3896L149.661 15.7038L150.315 14.018H152.955H155.594L155.844 15.7038L156.093 17.3896L158.524 17.408C159.861 17.4182 160.975 17.4024 161 17.3729C161.03 17.337 158.36 0.997448 158.176 0.0928183C158.174 0.0831251 156.779 0.0752582 155.076 0.0752582H151.98L147.968 8.62706ZM92.6843 0.28893C89.4582 0.596724 87.2215 1.74432 86.3243 3.55217C86.0433 4.11838 85.8317 4.98031 85.8317 5.55902C85.8317 7.83601 88.1525 9.4337 92.7624 10.3303C94.0679 10.5841 94.4515 10.7473 94.8801 11.2316C95.5003 11.9321 95.2833 12.9348 94.3973 13.4635C93.8753 13.775 93.3512 13.8662 92.318 13.8252C90.6174 13.7579 89.742 13.2431 89.4875 12.1605L89.3993 11.7854L86.7635 11.8231C85.3137 11.8439 84.1081 11.8802 84.0844 11.9038C84.0607 11.9274 84.0804 12.1578 84.1282 12.4158C84.5912 14.9142 86.7477 16.7484 90.0704 17.4699C90.9139 17.6531 93.7593 17.654 94.945 17.4715C97.2478 17.117 98.6248 16.5222 99.753 15.3949C100.436 14.7119 100.842 14.0253 101.088 13.1342C101.512 11.5968 101.366 10.4165 100.63 9.42176C99.7668 8.25632 98.2003 7.53741 95.2807 6.96706C92.6722 6.45739 91.6953 5.90439 91.6953 4.93718C91.6953 4.2281 92.1178 3.77617 92.999 3.5429C93.5615 3.39392 94.8383 3.41864 95.3938 3.58919C96.1908 3.83397 96.8196 4.44121 97.0334 5.17234L97.145 5.55403H99.7892C101.244 5.55403 102.433 5.54343 102.433 5.5305C102.433 5.51758 102.367 5.30524 102.285 5.05869C101.489 2.64557 99.4003 1.01093 96.3623 0.422389C95.4933 0.254022 93.7233 0.18982 92.6843 0.28893ZM39.2152 8.83778C38.4253 13.3868 37.7627 17.1798 37.7428 17.2667L37.7067 17.4247L43.2071 17.4235C48.4286 17.4223 49.5788 17.388 50.403 17.2089C51.8941 16.8848 53.1961 16.1575 53.9773 15.2121C55.2671 13.6511 55.5642 11.238 54.6203 9.98895C54.4737 9.79502 54.2278 9.5352 54.0738 9.41165C53.7441 9.14698 53.05 8.81741 52.675 8.74745C52.5291 8.72027 52.4255 8.68241 52.4446 8.6633C52.4638 8.64427 52.6848 8.55731 52.9358 8.47014C53.905 8.1334 54.9363 7.30302 55.4415 6.45255C55.971 5.56112 56.2348 4.3447 56.0942 3.44351C55.85 1.87869 54.6355 0.961762 52.381 0.64027C52.0838 0.597845 49.6455 0.569192 46.269 0.568349L40.6515 0.566943L39.2152 8.83778ZM58.3166 0.724984C58.2271 1.11032 55.4541 17.1454 55.4541 17.2776V17.4254L62.0769 17.4075L68.6997 17.3896L69.0301 15.5282C69.2119 14.5044 69.363 13.5957 69.3659 13.5088L69.3713 13.3507H65.4473H61.5232L61.5644 13.1225C61.5871 12.9969 61.6935 12.3884 61.801 11.7703L61.9963 10.6465L65.1696 10.6114L68.3428 10.5762L68.6407 8.89046C68.8045 7.96328 68.9405 7.1494 68.943 7.08176C68.9471 6.9665 68.7523 6.95884 65.8037 6.95884C63.3345 6.95884 62.6605 6.94002 62.6624 6.87104C62.6638 6.82279 62.753 6.27751 62.8606 5.65939L63.0563 4.53554L67.004 4.50042L70.9516 4.4653L71.2519 2.7444C71.4171 1.79791 71.5716 0.920745 71.5953 0.795225L71.6384 0.566943H64.9958H58.3533L58.3166 0.724984ZM73.822 0.621518C73.822 0.651581 73.1703 4.41613 72.3737 8.98725C71.5772 13.5584 70.9255 17.327 70.9255 17.3619C70.9255 17.3995 73.4611 17.4181 77.1244 17.4075L83.3234 17.3896L83.6538 15.5282C83.8356 14.5044 83.9867 13.596 83.9896 13.5094L83.9949 13.3521L80.5121 13.3338L77.0293 13.3156L78.106 7.13444C78.6981 3.7348 79.1996 0.866379 79.2204 0.760104L79.2581 0.566943H76.5401C75.0451 0.566943 73.822 0.591525 73.822 0.621518ZM104.27 0.646315C104.27 0.689934 103.618 4.46803 102.822 9.04204C102.025 13.616 101.374 17.3737 101.374 17.3924C101.374 17.4111 102.59 17.4181 104.076 17.408L106.778 17.3896L107.358 14.0883C107.676 12.2725 107.939 10.7791 107.94 10.7694C107.942 10.7597 108.882 10.7518 110.029 10.7518H112.115L112.078 10.9099C112.002 11.2418 110.982 17.1905 110.982 17.3047C110.982 17.4158 111.181 17.4247 113.663 17.4247H116.344L116.39 17.1812C116.415 17.0472 117.078 13.2542 117.863 8.75229L119.289 0.566943H116.591H113.893L113.855 0.724984C113.834 0.811872 113.586 2.21851 113.304 3.85069L112.791 6.81836H110.72C109.101 6.81836 108.65 6.79905 108.65 6.72972C108.65 6.64669 109.594 1.17986 109.681 0.760104L109.721 0.566943H106.996C105.017 0.566943 104.27 0.588718 104.27 0.646315ZM121.686 0.724984C121.597 1.11538 118.823 17.161 118.823 17.2852C118.823 17.4219 118.877 17.4247 121.508 17.4247C122.984 17.4247 124.192 17.416 124.192 17.4053C124.192 17.3946 124.844 13.6466 125.64 9.07631C126.437 4.50604 127.089 0.721753 127.089 0.666825C127.089 0.582255 126.678 0.566943 124.406 0.566943H121.722L121.686 0.724984ZM129.951 0.724144C129.862 1.10885 127.089 17.1451 127.089 17.2773C127.089 17.4239 127.102 17.4247 129.273 17.4247H131.458L131.499 17.2315C131.605 16.7386 132.882 9.30944 132.957 8.74998C133.01 8.35586 133.024 7.807 132.995 7.29248C132.969 6.83852 132.963 6.46716 132.98 6.46716C132.997 6.46716 133.156 6.91754 133.332 7.46809C133.576 8.23343 134.14 9.51883 135.727 12.9293L137.802 17.3896L140.04 17.4081C141.27 17.4183 142.279 17.4183 142.281 17.4081C142.283 17.3979 142.944 13.6124 143.75 8.99582L145.216 0.602063L143.03 0.583517C141.827 0.573262 140.829 0.578814 140.812 0.595812C140.795 0.612811 140.51 2.15417 140.18 4.0211C139.626 7.14737 139.575 7.51522 139.533 8.67967L139.487 9.944L137.324 5.273L135.16 0.602063L132.574 0.583663L129.988 0.565185L129.951 0.724144ZM20.1332 0.920881C22.059 1.1557 23.8279 2.0257 25.085 3.35648C25.3422 3.62873 25.6549 3.99925 25.7798 4.1797C26.0251 4.5342 26.5601 5.56169 26.5601 5.67836C26.5601 5.81933 25.6195 6.1338 25.0898 6.16997L24.5732 6.20523L24.2067 5.82628C23.9257 5.53569 23.7609 5.26724 23.5002 4.67532C22.9859 3.50778 22.7554 3.19605 22.2229 2.94831C21.9795 2.83508 21.465 2.65829 21.0795 2.55546C20.0764 2.28784 18.7729 2.28678 17.5174 2.5525C15.8324 2.90918 15.3119 3.16683 14.7214 3.93667C14.3983 4.35797 13.1939 5.25874 12.5584 5.55424C12.3135 5.66817 11.5726 5.902 10.9121 6.07374C10.2515 6.24555 9.39962 6.49912 9.01891 6.63728C8.63821 6.77544 7.96728 6.98392 7.52794 7.10045C7.08859 7.21705 6.46932 7.40669 6.15169 7.52196C5.43217 7.78304 5.24828 7.78382 4.89187 7.52709C4.5012 7.2457 4.27492 6.7694 4.33271 6.35013C4.40957 5.79249 4.62843 5.43216 5.3238 4.71858C6.0393 3.98436 6.12958 3.79984 6.05258 3.229C5.99917 2.83291 5.83004 2.60392 5.59084 2.60392C5.357 2.60392 5.22511 2.71792 5.22511 2.92C5.22511 3.11008 5.35403 3.23609 5.54852 3.23609C5.77402 3.23609 5.88423 3.40642 5.83336 3.67615C5.8008 3.8488 5.6037 4.08881 5.05259 4.62699C4.18188 5.47719 3.91922 5.92104 3.92268 6.53649C3.92537 7.01708 4.07973 7.34594 4.53525 7.84149L4.88276 8.21959L4.83853 8.87114C4.80484 9.36676 4.74599 9.63185 4.59247 9.97919C4.48149 10.2303 4.36387 10.5622 4.33102 10.7167C4.28269 10.9444 4.22243 11.0215 4.01297 11.1233C3.87083 11.1924 3.62965 11.3836 3.47705 11.5483C3.21806 11.8276 3.19645 11.884 3.15321 12.392C3.12778 12.6913 3.07296 12.9995 3.03142 13.0767C2.93471 13.2562 2.69373 13.3469 2.44096 13.2989C2.08427 13.2311 1.33614 11.8925 1.00608 10.7317C0.903221 10.3698 0.881886 10.0014 0.881251 8.57438C0.880473 6.98862 0.893119 6.80993 1.04197 6.29893C1.40113 5.06607 2.02557 4.04301 2.9826 3.11963C4.20195 1.94324 5.66699 1.22468 7.38891 0.958394C8.17887 0.836245 19.1736 0.80386 20.1332 0.920881ZM49.9471 4.37006C50.2343 4.49761 50.5591 4.85162 50.6237 5.1075C50.6918 5.37723 50.5283 6.04536 50.3218 6.34177C50.1962 6.52194 49.9849 6.68251 49.6706 6.83641L49.2053 7.0642L47.0596 7.08801L44.9139 7.11176L44.9545 6.91241C44.9768 6.8027 45.0763 6.23887 45.1757 5.65939C45.2752 5.0799 45.3745 4.51608 45.3964 4.4065L45.4364 4.20724L47.5665 4.23301C49.3169 4.25422 49.7411 4.2786 49.9471 4.37006ZM154.816 7.54072C155.03 8.92313 155.206 10.0847 155.206 10.1221C155.206 10.1639 154.556 10.1899 153.516 10.1899H151.827L152.958 7.81929C153.581 6.51548 154.155 5.30643 154.235 5.13258C154.315 4.95874 154.391 4.86391 154.403 4.92186C154.416 4.97981 154.602 6.15831 154.816 7.54072ZM26.9142 7.00014C26.9697 7.38865 26.9883 8.08431 26.9664 8.94974C26.9363 10.1428 26.9112 10.3652 26.7457 10.9125C26.5365 11.6048 26.1821 12.3441 25.7705 12.9472L25.4947 13.3514L25.268 13.2353C25.1432 13.1716 24.7392 12.9462 24.3701 12.7347C22.7906 11.8293 22.3213 11.3773 22.3213 10.761C22.3213 10.1624 22.4481 10.1268 22.9627 10.5811C23.1626 10.7576 23.4371 10.9547 23.5728 11.019C23.8128 11.1328 23.8282 11.1311 24.1467 10.9543C24.417 10.8042 24.4901 10.7188 24.5666 10.4637C24.6639 10.1388 24.6542 9.91513 24.5064 9.08496C24.4268 8.63753 24.4316 8.49529 24.5469 7.89087C24.6188 7.51346 24.7007 7.15889 24.7288 7.10298C24.7797 7.00162 26.6955 6.31663 26.7823 6.36875C26.8074 6.38385 26.8667 6.66798 26.9142 7.00014ZM49.1639 10.8923C49.6155 11.1439 49.8028 11.4516 49.8009 11.9388C49.7982 12.6364 49.419 13.1796 48.7075 13.5052C48.3655 13.6616 48.2811 13.6675 46.0759 13.688C44.574 13.7019 43.7976 13.6849 43.7976 13.6382C43.7976 13.5991 43.9089 12.9325 44.0448 12.1566C44.1808 11.3808 44.2921 10.73 44.2921 10.7103C44.2921 10.6905 45.3174 10.6839 46.5704 10.6956L48.8487 10.7167L49.1639 10.8923ZM17.277 11.1382C17.535 11.2347 17.8261 11.3138 17.9237 11.3138C18.1157 11.3138 18.411 11.4748 18.9657 11.8819C19.8686 12.5446 20.8018 12.8359 22.4526 12.9702C23.3615 13.0441 23.7623 13.1066 24.0011 13.2117C24.3501 13.3651 24.9352 13.8092 24.9352 13.9206C24.9352 13.9584 24.7683 14.0666 24.5643 14.161L24.1934 14.3327L13.9852 14.3333C4.40703 14.3338 3.76161 14.3263 3.52982 14.2111C3.39397 14.1435 3.27197 14.0308 3.25883 13.9606C3.22824 13.798 4.22053 12.8175 4.55715 12.6776C4.71377 12.6126 5.06142 12.5781 5.56124 12.5781C6.63477 12.5781 7.01986 12.4641 7.85877 11.898L8.54976 11.4316L9.64095 11.4054C10.5139 11.3844 10.9196 11.4094 11.6698 11.53C12.7239 11.6995 13.4056 11.6862 13.7809 11.489C13.9127 11.4198 14.1365 11.3029 14.2783 11.2293C14.4629 11.1334 14.7738 11.0794 15.3733 11.0391C16.7146 10.949 16.7808 10.9524 17.277 11.1382Z" fill="#252525"/>
</svg>
