<svg width="212" height="46" viewBox="0 0 212 46" fill="none" xmlns="http://www.w3.org/2000/svg">
<path fill-rule="evenodd" clip-rule="evenodd" d="M1.88855 0.382542C2.15021 0.650466 4.66574 2.98376 7.47862 5.56757C10.2915 8.15114 12.6286 10.3625 12.6721 10.4813C12.7159 10.6002 12.337 10.6973 11.8301 10.6973C9.49104 10.6973 6.05065 12.1619 4.08057 13.9963C-0.471649 18.2352 -1.3104 24.7436 2.04578 29.7845C4.00968 32.7341 6.88488 34.5749 10.4666 35.1764C11.6362 35.3728 12.6757 35.5555 12.7768 35.5829C12.8779 35.6101 10.6095 37.8137 7.73623 40.4798C4.8627 43.1456 2.37167 45.505 2.20017 45.7225C1.91162 46.0885 1.93279 46.09 2.48324 45.7416C2.81031 45.5345 5.48641 43.9666 8.43012 42.2574C11.3738 40.548 14.157 38.9304 14.6149 38.663C18.1104 36.6208 34.476 27.0795 37.394 25.3825C40.5475 23.5483 40.9691 23.2339 40.6054 22.9867C40.1738 22.6935 2.07623 0.22651 1.65067 0.0141749C1.51984 -0.0509571 1.62689 0.114618 1.88855 0.382542ZM17.0657 11.7969C24.3868 13.4383 28.2784 21.4049 25.0359 28.1135C24.01 30.2364 21.5727 32.6716 19.5563 33.5887C13.6056 36.2949 7.03284 33.8945 4.23614 27.9942C2.67473 24.6999 2.7242 21.3343 4.38386 17.9419C5.96359 14.7137 8.72698 12.5503 12.2502 11.7842C14.2916 11.3402 15.0376 11.3421 17.0657 11.7969ZM165.945 14.5312C164.498 14.817 162.574 15.7532 161.782 16.5579C160.934 17.4187 159.949 19.1103 158.179 22.7455C156.972 25.225 156.783 25.8003 156.766 27.0399C156.719 30.4005 158.624 31.194 166.736 31.194C177.435 31.1943 178.855 30.5146 182.163 23.8091C184.296 19.4846 184.755 17.8167 184.157 16.5589C183.681 15.559 182.503 14.9001 180.541 14.5362C178.902 14.2323 167.48 14.2285 165.945 14.5312ZM53.8193 16.0672L53.1797 17.616H54.4735C55.185 17.616 55.7673 17.6473 55.7673 17.6855C55.7673 17.7239 54.768 20.0052 53.5465 22.7553L51.3254 27.7556L49.8442 27.827L48.3627 27.8986L47.6643 29.4598C47.2801 30.3185 46.9659 31.0645 46.9659 31.1179C46.9659 31.3515 67.9018 31.1983 69.2134 30.9552C72.4804 30.3495 74.2894 28.6558 76.4674 24.1636C78.7841 19.3853 79.0248 17.6316 77.6111 15.8289C76.5942 14.5324 76.4217 14.5143 64.9926 14.5164L54.459 14.5181L53.8193 16.0672ZM81.2458 15.5285C80.3265 17.6821 80.3091 17.616 81.7987 17.616C82.527 17.616 83.1229 17.6685 83.1229 17.7325C83.1229 17.8883 81.6624 21.4397 80.3355 24.5105C79.4856 26.4776 79.2888 27.179 79.3852 27.899C79.5353 29.0227 80.3091 30.1462 81.2796 30.6496C83.3218 31.7087 92.3549 31.6023 95.3832 30.4833C97.9939 29.5187 99.6189 27.1358 102.409 20.1808L103.438 17.616H104.811C106.314 17.616 106.313 17.6163 107.229 15.4092L107.6 14.5145H102.767H97.9333L97.3077 15.9617C96.9635 16.7576 96.6818 17.4555 96.6818 17.5125C96.6818 17.5695 97.2617 17.616 97.9704 17.616H99.2589L97.7349 21.2176C96.8966 23.1986 95.9767 25.237 95.6906 25.7475C94.6775 27.5555 92.4112 28.4561 90.3058 27.8876C88.3395 27.3565 88.3697 26.5208 90.5346 21.5481L92.2374 17.6368L93.6732 17.5669L95.109 17.4968L95.6575 16.0739C95.9591 15.2913 96.2061 14.6205 96.2061 14.5828C96.2061 14.5453 92.9374 14.5145 88.9423 14.5145H81.6788L81.2458 15.5285ZM108.832 15.8312C108.56 16.5603 108.338 17.2601 108.338 17.3865C108.338 17.5127 108.926 17.616 109.646 17.616C110.366 17.616 110.953 17.643 110.952 17.6757C110.951 17.7084 110.005 19.9899 108.851 22.7455L106.751 27.7556L105.146 27.8267L103.54 27.8976L102.833 29.4627C102.443 30.3237 102.177 31.08 102.24 31.1435C102.304 31.2072 104.598 31.1812 107.338 31.0862L112.32 30.9135L112.827 29.6877C113.546 27.9463 113.519 27.8749 112.124 27.8749C111.459 27.8749 110.95 27.7819 110.994 27.6683C111.038 27.5545 111.708 25.9957 112.484 24.2042L113.896 20.9468L115.009 23.0392C115.622 24.1898 116.839 26.5002 117.715 28.1732L119.307 31.215H122.71H126.114L129.054 24.4155L131.993 17.616H133.454H134.914L135.422 16.2826C135.702 15.5492 135.931 14.8514 135.931 14.7319C135.931 14.6083 133.84 14.5145 131.08 14.5145H126.229L125.633 16.0056L125.037 17.4968L126.337 17.5688C127.052 17.6084 127.603 17.727 127.562 17.8322C126.527 20.4666 124.859 24.0541 124.694 23.999C124.575 23.9589 123.441 21.8353 122.176 19.2799L119.875 14.6338L114.601 14.5696L109.327 14.5055L108.832 15.8312ZM137.503 15.7671C137.259 16.4558 137.008 17.1539 136.946 17.3178C136.863 17.5345 137.196 17.616 138.166 17.616C138.899 17.616 139.499 17.7029 139.499 17.8088C139.499 17.915 138.552 20.1963 137.394 22.8786L135.288 27.7556L133.823 27.8267L132.358 27.8978L131.647 29.3109C131.256 30.0882 130.936 30.8347 130.936 30.9695C130.936 31.1342 134.529 31.215 141.844 31.215H152.751L154.451 27.3765C155.386 25.2654 156.151 23.4402 156.151 23.3207C156.151 23.2012 155.533 23.1034 154.777 23.1034H153.404L151.309 25.4891L149.215 27.8749H146.829C144.658 27.8749 144.457 27.8375 144.596 27.4574C144.679 27.2279 145.627 24.9261 146.702 22.3423L148.658 17.6449L150.167 17.5707L151.676 17.4968L152.248 16.0844C152.563 15.3076 152.82 14.6367 152.82 14.5932C152.82 14.5501 149.474 14.5145 145.383 14.5145H137.946L137.503 15.7671ZM187.245 15.5285C186.437 17.7449 186.389 17.616 188.01 17.616C188.804 17.616 189.453 17.69 189.453 17.7804C189.453 17.8708 188.47 20.1743 187.269 22.8996L185.085 27.8544L183.641 27.9243L182.198 27.9942L181.692 29.0678C181.414 29.6583 181.112 30.3829 181.022 30.6782L180.858 31.215H188.098H195.338L195.964 29.7678C196.308 28.9719 196.589 28.2204 196.589 28.0978C196.589 27.9751 196.054 27.8749 195.4 27.8749C194.746 27.8749 194.211 27.7972 194.211 27.702C194.211 27.6068 194.495 26.8016 194.843 25.9126L195.475 24.2963H201.071C206.235 24.2963 206.746 24.2583 207.679 23.8053C209.03 23.1492 210.297 21.6962 211.136 19.841C212.479 16.8707 212.262 15.2715 210.448 14.7662C209.886 14.6099 205.472 14.5167 198.584 14.516L187.615 14.5145L187.245 15.5285ZM174.943 17.5848C176.064 18.4076 175.942 19.0497 173.8 23.5805C172.099 27.1783 171.112 27.9279 168.075 27.9279C166.427 27.9279 166.237 27.8764 165.736 27.2916C165.435 26.9419 165.19 26.4382 165.19 26.1727C165.19 25.3188 167.782 19.3429 168.561 18.4022C168.918 17.9708 170.092 17.3531 171.018 17.1105C172.096 16.8278 174.269 17.0902 174.943 17.5848ZM68.9903 18.2127C69.2617 18.6238 69.2089 18.9779 68.6085 20.7701C67.7122 23.4448 66.1855 26.4864 65.3482 27.2651C64.7371 27.8334 64.5332 27.8749 62.3452 27.8749C60.2086 27.8749 60.0122 27.8375 60.1556 27.4574C60.2422 27.2279 61.2436 24.9161 62.3814 22.3201L64.4497 17.6005L66.5623 17.6678C68.3678 17.7256 68.7208 17.8048 68.9903 18.2127ZM202.762 18.0708C203.064 18.6367 202.271 20.5878 201.591 20.953C201.167 21.1804 197.065 21.3095 197.065 21.0952C197.065 21.0406 197.289 20.4768 197.564 19.8427C197.838 19.2086 198.157 18.4482 198.271 18.1528C198.465 17.6547 198.626 17.616 200.5 17.616C202.243 17.616 202.553 17.6783 202.762 18.0708ZM8.82285 19.3457L8.27336 20.5983L8.94654 20.673C9.31668 20.7142 9.61949 20.8032 9.61949 20.871C9.61949 20.9385 9.21939 21.8981 8.73055 23.0029C7.8742 24.9383 7.81259 25.012 7.05448 25.012C6.33705 25.012 6.21621 25.1229 5.6886 26.2645L5.10985 27.5171L12.0627 27.5875C15.8868 27.6263 19.4616 27.5941 20.0068 27.5164C22.3085 27.1871 24.4867 24.276 24.4867 21.529C24.4867 19.951 24.045 19.1642 22.8266 18.5727C21.9143 18.1297 21.3629 18.0932 15.6056 18.0932H9.37234L8.82285 19.3457ZM18.5229 21.0924C19.0072 21.5784 19.0001 22.7345 18.5075 23.571C17.8545 24.6799 17.0174 25.012 14.8756 25.012C13.8163 25.012 12.9497 24.955 12.9497 24.8855C12.9497 24.8159 13.23 24.0913 13.5727 23.2751C13.9153 22.459 14.2873 21.5497 14.3994 21.2544C14.5854 20.7641 14.7564 20.7176 16.3761 20.7176C17.6706 20.7176 18.2498 20.8187 18.5229 21.0924ZM184.769 34.0515C183.794 34.5091 182.793 35.9045 182.793 36.8066C182.793 37.4367 183.911 37.9365 186.019 38.2488C188.191 38.5707 188.607 38.7742 188.367 39.3997C188.002 40.355 185.193 39.9897 185.363 39.0087C185.427 38.6356 185.24 38.5981 183.632 38.6604L181.829 38.7303L181.117 39.9828L180.404 41.2353H182.146C183.103 41.2353 184.004 41.118 184.147 40.9746C184.335 40.7861 184.562 40.7976 184.968 41.0159C185.276 41.1819 186.599 41.3599 187.907 41.4112C189.868 41.4885 190.43 41.4288 191.11 41.0719C192.554 40.314 193.397 37.9807 192.472 37.3026C192.26 37.1471 191.109 36.8992 189.914 36.7515C187.681 36.4757 187.01 36.1947 187.227 35.6259C187.553 34.7744 189.992 35.0416 190.124 35.943C190.193 36.4199 190.336 36.4638 191.819 36.4638H193.439L193.944 35.2864C194.221 34.6386 194.449 34.0398 194.449 33.9554C194.449 33.8711 193.566 33.8127 192.486 33.8256C191.407 33.8384 189.453 33.7893 188.145 33.7163C186.101 33.6023 185.626 33.6495 184.769 34.0515ZM138.18 35.3952L137.456 36.9409H138.299C138.978 36.9409 139.272 36.778 139.807 36.1059C140.422 35.3329 141.402 34.9636 141.402 35.5052C141.402 35.634 140.981 36.6539 140.466 37.7717C139.651 39.5422 139.452 39.8039 138.926 39.8039C138.498 39.8039 138.216 40.0088 137.959 40.5077C137.76 40.8949 137.596 41.2707 137.596 41.3427C137.596 41.415 139.131 41.4739 141.007 41.4739H144.418L144.694 40.8663C145.095 39.9842 145.041 39.8039 144.376 39.8039C144.049 39.8039 143.781 39.7008 143.781 39.5751C143.781 39.0965 145.43 35.6187 145.755 35.4119C146.333 35.0435 146.873 35.4329 146.873 36.2178C146.873 36.8651 146.95 36.9409 147.6 36.9409C148.253 36.9409 148.386 36.8064 148.908 35.6218C149.228 34.8965 149.49 34.1987 149.49 34.0711C149.49 33.9279 147.467 33.8413 144.197 33.8444L138.905 33.8494L138.18 35.3952ZM150.45 34.3008C150.112 34.935 150.137 35.0323 150.64 35.0323C150.88 35.0323 151.136 35.0929 151.21 35.1671C151.284 35.2411 150.902 36.3147 150.362 37.5529C149.482 39.5667 149.313 39.8039 148.759 39.8039C148.181 39.8039 147.587 40.5356 147.587 41.2466C147.587 41.3797 148.957 41.4739 150.894 41.4739H154.201L154.462 40.7226C154.606 40.3094 154.723 39.9403 154.723 39.9026C154.723 39.865 154.417 39.8005 154.044 39.7593L153.364 39.6846L154.387 37.4181C155.296 35.4064 155.486 35.1432 156.078 35.0771C156.699 35.0077 157.34 34.4774 157.34 34.0324C157.34 33.9262 155.845 33.8394 154.018 33.8394C150.977 33.8394 150.675 33.8785 150.45 34.3008ZM158.099 34.4318C157.84 35.0003 157.864 35.0323 158.534 35.0323C158.924 35.0323 159.243 35.1351 159.243 35.2606C159.243 35.3863 158.8 36.46 158.258 37.6464C157.355 39.6235 157.216 39.8039 156.599 39.8039C156.093 39.8039 155.834 39.9797 155.562 40.5077C155.363 40.8949 155.199 41.2707 155.199 41.3427C155.199 41.415 156.695 41.4739 158.523 41.4739H161.847L162.21 40.7701C162.676 39.8669 162.669 39.8039 162.097 39.8039C161.525 39.8039 161.518 39.7421 161.992 38.8228C162.592 37.659 163.301 37.9561 163.763 39.5653C164.307 41.4613 164.471 41.4959 172.531 41.4181L179.099 41.3546L179.605 40.281C180.49 38.4015 180.525 38.1338 179.882 38.1338C179.549 38.1338 178.986 38.4769 178.511 38.9688C177.788 39.7166 177.572 39.8039 176.442 39.8039C175.748 39.8039 175.181 39.7552 175.181 39.6958C175.181 39.6364 175.305 39.3143 175.457 38.9801C175.695 38.4549 175.884 38.3724 176.846 38.3724C177.808 38.3724 177.996 38.2899 178.235 37.7647C178.617 36.923 178.634 36.9409 177.44 36.9409C176.852 36.9409 176.37 36.8908 176.37 36.8298C176.37 36.7687 176.55 36.3392 176.771 35.8754C177.147 35.0834 177.241 35.0323 178.312 35.0323C179.364 35.0323 179.465 35.0838 179.597 35.6884C179.851 36.8527 179.914 36.9409 180.494 36.9409C180.966 36.9409 181.175 36.688 181.691 35.4937C182.035 34.6978 182.317 34 182.317 33.9429C182.317 33.8859 180.065 33.8394 177.314 33.8394C172.343 33.8394 172.309 33.843 172.11 34.3762C171.947 34.8126 172.004 34.9393 172.415 35.0535C172.693 35.1306 172.901 35.2916 172.878 35.4114C172.799 35.8065 170.905 39.8039 170.797 39.8039C170.738 39.8039 170.71 39.5085 170.735 39.1478C170.774 38.5707 170.687 38.4826 170.007 38.417C169.362 38.3545 169.195 38.444 169.002 38.9538C168.697 39.7576 167.869 39.7779 167.671 38.986C167.591 38.6675 167.348 38.3271 167.131 38.2295C166.837 38.0973 166.945 38.0169 167.555 37.9141C168.234 37.7996 168.508 37.5522 169.165 36.4638C169.626 35.7006 169.93 34.902 169.893 34.5551L169.828 33.9587L164.1 33.895L158.372 33.8311L158.099 34.4318ZM165.428 35.7003C165.428 36.3912 164.929 36.7024 163.82 36.7024H162.784L163.206 35.9866C163.556 35.3918 163.78 35.2709 164.528 35.2709C165.236 35.2709 165.428 35.3625 165.428 35.7003Z" fill="#252525"/>
</svg>
