<svg width="158" height="16" viewBox="0 0 158 16" fill="none" xmlns="http://www.w3.org/2000/svg">
<path fill-rule="evenodd" clip-rule="evenodd" d="M51.6969 0.0314611C51.4712 0.0789604 49.748 0.164813 47.8675 0.222218C43.9259 0.342364 43.5638 0.406374 42.0287 1.25527C39.2713 2.78058 37.9986 4.76311 37.9603 7.59249C37.9332 9.61388 38.0505 10.2677 38.6736 11.569C39.6061 13.5159 41.762 14.9958 44.4484 15.533C46.0646 15.8564 48.1369 16.0507 49.3054 15.9884C53.0678 15.7883 54.9275 15.6247 55.8682 15.4113C56.4325 15.2833 56.8939 15.2465 56.8939 15.3295C56.8939 15.4126 57.0326 15.3519 57.2024 15.1942C57.372 15.0367 57.531 14.0135 57.5553 12.9208C57.5988 10.9784 57.3551 9.90726 56.9256 10.1539C56.5897 10.3464 55.3115 10.5115 52.8246 10.6838C50.2398 10.8626 48.164 10.5164 47.4542 9.78788C46.8912 9.21026 46.7145 7.7614 47.1415 7.22342C47.5031 6.76798 48.5702 6.18859 49.3719 6.01231C50.2111 5.8279 55.5498 5.85584 56.552 6.04991L57.441 6.22212V3.30739C57.441 0.458448 57.427 0.392403 56.8255 0.378178C56.0875 0.360652 54.0648 0.188945 52.9277 0.0472086C52.4764 -0.00892696 51.9225 -0.0160383 51.6969 0.0314611ZM0 8.01973V15.9011L3.88 15.8304L7.76 15.7601L7.77778 12.6488C7.78763 10.9373 7.87844 9.53717 7.97937 9.53717C8.08058 9.53692 8.31308 9.96568 8.49579 10.4894C8.67851 11.0135 9.04695 11.8992 9.31474 12.458C9.58252 13.0168 10.0511 14.0168 10.3561 14.6806L10.9105 15.8871H12.9912H15.072L15.4962 14.9346C15.7295 14.4108 16.197 13.4105 16.5351 12.712C16.8731 12.0135 17.2246 11.1562 17.316 10.807C17.4073 10.4577 17.6412 9.96974 17.836 9.72285C18.1319 9.34666 18.1896 9.80184 18.1896 12.5169V15.7601L22.3609 15.8302L26.5323 15.9003V8.01948V0.138651H21.08C15.66 0.138651 15.627 0.141953 15.4541 0.710167C15.2008 1.5428 14.2177 4.00819 13.9483 4.48674C13.8211 4.71256 13.5725 5.39609 13.3958 6.0052L13.0747 7.11318L12.4182 5.61479C12.0571 4.79079 11.7609 3.99296 11.7601 3.84208C11.759 3.6912 11.6012 3.28199 11.4091 2.93273C11.2171 2.58347 10.8905 1.81205 10.6835 1.21818L10.3066 0.138651H5.15328H0V8.01973ZM28.366 7.94302L28.4221 15.7601L32.5176 15.8302L36.6134 15.9L36.5593 8.08298L36.5051 0.265655L32.4076 0.195805L28.3102 0.12595L28.366 7.94302ZM59.5373 0.502643C59.3256 1.01523 59.3045 14.9597 59.5149 15.4685C59.6647 15.8312 60.2293 15.8871 63.7431 15.8871C68.4699 15.8871 68.2079 16.0687 68.0643 12.8918L67.9759 10.934H70.2968H72.6177L72.5293 12.8918C72.3857 16.0687 72.1237 15.8871 76.8505 15.8871C80.3643 15.8871 80.9288 15.8312 81.0787 15.4685C81.2891 14.9597 81.268 1.01523 81.0563 0.502643C80.9351 0.209265 80.1184 0.138651 76.8505 0.138651C72.1592 0.138651 72.5066 -0.0955431 72.5214 3.05973C72.5269 4.17736 72.5206 5.2348 72.508 5.4093C72.4916 5.63511 71.8526 5.72681 70.2968 5.72681C68.741 5.72681 68.102 5.63511 68.0856 5.4093C68.073 5.2348 68.0667 4.17736 68.0722 3.05973C68.087 -0.0955431 68.4343 0.138651 63.7431 0.138651C60.4752 0.138651 59.6585 0.209265 59.5373 0.502643ZM82.7801 0.335761C82.7079 0.444222 82.6699 3.95917 82.6956 8.14648L82.7423 15.7601L92.364 15.8269L101.986 15.8934L102.167 14.5492C102.266 13.8098 102.306 12.8654 102.255 12.4504L102.163 11.696L97.2393 11.6454C94.5314 11.6177 92.1211 11.589 91.8828 11.5819C91.6063 11.5738 91.4663 11.3625 91.495 10.9975C91.5396 10.4305 91.5828 10.4249 96.8515 10.2989L102.163 10.1719L102.245 8.69006C102.372 6.42304 102.453 6.45581 96.8113 6.50661C94.143 6.53049 91.8358 6.47867 91.6837 6.39155C91.5316 6.30417 91.4386 6.03314 91.4769 5.78929C91.5398 5.38974 92.074 5.3331 96.8548 5.21879L102.163 5.09179L102.184 2.61522L102.205 0.138651H92.5582C87.2523 0.138651 82.8523 0.2273 82.7801 0.335761ZM103.941 8.01287V15.8871H111.472H119.003L118.926 13.1949L118.848 10.5027L115.839 10.4643L112.83 10.4259L112.782 5.5998C112.756 2.94543 112.725 0.630917 112.714 0.45616C112.699 0.216124 111.625 0.138651 108.317 0.138651H103.941V8.01287ZM120.079 8.01287V15.8871H124.152C128.149 15.8871 128.228 15.8764 128.38 15.3153C128.465 15.0006 128.532 11.4572 128.529 7.4411L128.523 0.138651H124.301H120.079V8.01287ZM129.926 8.01287V15.8871H134.302H138.679V12.8438V9.80032L141.715 12.8438L144.751 15.8871H148.416H152.082V8.01287V0.138651H147.851H143.62L143.543 3.03814L143.466 5.93789L140.93 3.03814L138.394 0.138651H134.16H129.926V8.01287ZM154.647 0.781037C153.87 1.50293 153.796 2.64672 154.475 3.42423C155.343 4.41715 157.29 4.13342 157.825 2.93603C158.681 1.01523 156.204 -0.664771 154.647 0.781037ZM156.92 0.846314C157.466 1.1684 157.776 2.24844 157.512 2.90606C157.193 3.69755 157 3.48926 156.927 2.27765C156.874 1.39675 156.782 1.28549 155.98 1.13334L155.091 0.964938V2.06072C155.091 2.66348 155.214 3.22738 155.364 3.31374C155.515 3.4001 155.638 3.23525 155.638 2.94772C155.638 2.28832 156.077 2.2713 156.449 2.91597C156.861 3.63074 156.817 3.69475 155.917 3.69475C154.53 3.69475 153.882 2.07393 154.84 1.00177C155.18 0.621264 156.386 0.531091 156.92 0.846314ZM156.205 1.73254C156.171 2.03634 155.796 1.97741 155.679 1.64999C155.619 1.48235 155.717 1.3909 155.898 1.44679C156.078 1.50267 156.216 1.6312 156.205 1.73254Z" fill="#252525"/>
</svg>
