<svg width="209" height="19" viewBox="0 0 209 19" fill="none" xmlns="http://www.w3.org/2000/svg">
<path fill-rule="evenodd" clip-rule="evenodd" d="M0.288023 0.288714C0.129545 0.447136 0 0.934091 0 1.37084C0 2.09153 0.430091 2.16425 4.69905 2.16425H9.39809L7.66952 8.11592C5.98759 13.9083 5.95952 14.1113 6.62539 15.7064C7.83793 18.6103 7.8552 18.6125 29.7665 18.6125C45.8967 18.6125 49.5209 18.5021 51.1035 17.9637C52.798 17.3871 53.1827 17.3871 54.5594 17.9637C55.8652 18.5104 59.4527 18.6121 77.3896 18.6103L98.6705 18.6082L99.725 15.0393C100.305 13.0764 100.985 11.3272 101.236 11.1524C101.488 10.9775 104.93 10.8316 108.885 10.8277L116.077 10.8212L115.856 13.3101C115.67 15.4125 115.78 15.9821 116.568 16.9789C117.096 17.6473 118.193 18.3208 119.097 18.5329C121.123 19.0073 150.771 19.1956 151.359 18.7376C151.783 18.4073 152.108 17.446 155.028 7.89949L156.385 3.46279H158.415C160.679 3.46279 162.364 4.38303 162.364 5.61968C162.364 6.06508 161.513 9.17337 160.473 12.5279L158.582 18.6264L170.022 18.5112L181.462 18.3961L183.68 11.0377L185.898 3.67922L187.584 3.5407C189.847 3.35501 191.181 3.73722 191.706 4.72195C192.1 5.45996 191.217 9.0236 188.452 17.855C188.23 18.5619 188.907 18.6125 198.607 18.6125C208.712 18.6125 209 18.5887 209 17.7468C209 16.9274 208.712 16.8811 203.602 16.8811C200.634 16.8811 198.205 16.7677 198.205 16.6296C198.205 16.4911 198.885 14.1291 199.716 11.3805C201.53 5.38032 201.622 3.53811 200.186 1.86385L199.145 0.649274L189.298 0.517258C183.882 0.444972 179.029 0.491715 178.512 0.622002C177.389 0.90422 177.503 0.634989 174.869 9.26427C173.714 13.05 172.591 16.3253 172.374 16.5422C172.158 16.759 171.205 16.8755 170.257 16.8006L168.533 16.6647L170.211 10.8286C172.083 4.31724 172.066 3.20871 170.072 1.52666L168.775 0.432849H158.67C146.774 0.432849 148.158 -0.33286 145.755 7.57486C144.887 10.4317 143.979 13.4023 143.736 14.1758L143.297 15.5826H134.092C127.123 15.5826 124.84 15.451 124.688 15.0415C124.578 14.7441 124.72 13.8187 125.003 12.9855L125.518 11.4705L133.038 11.2385C137.173 11.1108 140.895 10.8472 141.309 10.6524C142.076 10.2914 143.364 6.69877 143.364 4.91976C143.364 4.3787 143.131 3.42557 142.848 2.8014C141.893 0.702081 140.664 0.432849 132.031 0.432849H124.11L121.781 1.83961C120.102 2.85421 119.178 3.78916 118.464 5.19419C116.853 8.36394 117.271 8.22413 109.395 8.22413H102.233L102.502 6.81737C102.651 6.04387 103.268 4.97257 103.876 4.4367C104.883 3.5485 105.413 3.46279 109.9 3.46279H114.82L116.132 2.05603L117.444 0.649274L107.679 0.532838C94.582 0.37658 95.0574 0.0714197 91.8348 10.6953L90.0242 16.6647L87.9782 16.7967C86.4362 16.8958 85.9318 16.7768 85.9318 16.3136C85.9318 15.9756 86.8909 12.5124 88.0633 8.61803C89.6109 3.47664 90.0699 1.38598 89.7379 0.985165C89.427 0.609452 87.9912 0.432849 85.25 0.432849H81.219L79.4468 6.1681C78.4722 9.32227 77.428 12.6825 77.127 13.6347C76.5916 15.3293 76.5333 15.3687 74.3686 15.4964C72.6033 15.5999 71.9785 15.4471 71.272 14.7389C70.7849 14.2507 70.3903 13.5105 70.395 13.0937C70.3997 12.6768 71.2513 9.56077 72.2872 6.1681L74.1708 0H69.5335H64.8967L63.1184 5.95167C60.7974 13.7196 60.762 13.9001 61.2836 15.2748L61.7284 16.4483H59.6665C56.2016 16.4483 55.9196 15.48 57.6568 9.54475C59.0485 4.78991 59.0451 3.03384 57.6417 1.62708C57.0445 1.02845 55.9515 0.417264 55.2127 0.26923C53.2985 -0.114275 36.7922 -0.0653602 36.5737 0.324637C36.474 0.502971 36.2645 1.18514 36.1082 1.83961L35.8245 3.02994L42.202 3.03644C45.7097 3.04033 48.8602 3.22126 49.2031 3.43855C49.6932 3.74934 49.7394 4.18738 49.419 5.48809L49.0114 7.14201L42.9659 7.24719C35.723 7.37358 35.4113 7.43548 33.4724 9.14221C31.7624 10.6472 30.4302 14.3013 30.9031 16.1903C31.1673 17.2447 31.0883 17.314 29.6223 17.314C28.5941 17.314 27.8069 17.0179 27.3203 16.4483C26.6674 15.6839 26.0464 15.5826 22.0227 15.5826C17.049 15.5826 15.5455 15.0493 15.5455 13.2854C15.5455 12.7634 16.3193 9.90142 17.2645 6.92558C18.2098 3.94975 18.987 1.17432 18.9918 0.757486C18.9991 0.0593003 18.2767 0 9.78802 0C4.72107 0 0.446068 0.129858 0.288023 0.288714ZM133.445 4.35403C133.707 4.84402 133.795 5.81793 133.642 6.51828L133.363 7.79128H129.943C128.062 7.79128 126.523 7.68437 126.523 7.55321C126.523 6.87018 127.936 4.72758 128.776 4.13847C130.212 3.12993 132.857 3.252 133.445 4.35403ZM47.9318 11.0593C47.9318 13.3599 45.2226 15.5826 42.4184 15.5826C40.7498 15.5826 40.1673 14.8995 40.5862 13.4348C41.4027 10.581 41.6769 10.3884 44.9242 10.3884C47.3528 10.3884 47.9318 10.5174 47.9318 11.0593Z" fill="#252525"/>
</svg>
