<svg width="183" height="34" viewBox="0 0 183 34" fill="none" xmlns="http://www.w3.org/2000/svg">
<path fill-rule="evenodd" clip-rule="evenodd" d="M9.22724 0.227042C9.18902 0.35093 7.1141 7.84125 4.61634 16.8721C2.11858 25.9029 0.0432669 33.3931 0.00466247 33.5171C-0.0617942 33.7303 0.460013 33.7424 9.71835 33.7424H19.5022L19.765 32.8732C19.9095 32.3951 20.4573 30.613 20.9822 28.9131L21.9367 25.8224L31.7686 19.7391C37.1763 16.3934 46.5623 10.5982 52.6265 6.86097L63.6523 0.066065L53.8846 0.0330969L44.117 0L43.377 0.475848C41.6235 1.60359 26.052 10.672 26.0211 10.5837C26.0022 10.5301 26.6581 8.1596 27.4785 5.31597C28.2989 2.47222 28.97 0.113199 28.97 0.0736629C28.97 0.0339981 24.5435 0.00167422 19.1333 0.00167422C9.87795 0.00167422 9.29253 0.0149387 9.22724 0.227042ZM66.9991 4.0261L60.4081 8.05052L118.551 8.08284C150.53 8.10062 176.719 8.09083 176.749 8.06108C176.779 8.03133 176.376 6.20598 175.853 4.00459L174.903 0.00218956L124.246 0.00193164L73.5899 0.00167422L66.9991 4.0261ZM156.481 1.21274C157.013 1.473 157.389 2.04145 157.325 2.48948C157.287 2.75567 157.211 2.77241 155.892 2.80705C154.755 2.83693 154.499 2.80988 154.499 2.65985C154.499 2.41362 154.214 2.31974 153.468 2.31974C152.76 2.31974 152.369 2.59765 152.774 2.81298C152.904 2.88162 153.648 3.03203 154.428 3.14716C155.947 3.37137 156.543 3.62095 156.795 4.1384C157.132 4.83137 156.469 6.09652 155.514 6.58035C154.384 7.15343 152.067 7.38266 150.589 7.06753C149.676 6.87294 149.023 6.25402 149.082 5.64024L149.123 5.21733L150.512 5.18088C151.786 5.14727 151.923 5.16697 152.178 5.42119C152.406 5.6481 152.562 5.68635 153.038 5.63303C153.665 5.56272 154.031 5.31224 153.874 5.05996C153.82 4.97329 153.164 4.81707 152.415 4.71263C151.667 4.60819 150.912 4.46833 150.737 4.40188C149.921 4.09203 149.699 3.29539 150.175 2.38452C150.497 1.76766 150.9 1.45987 151.798 1.14345C152.762 0.803983 155.735 0.848026 156.481 1.21274ZM88.1722 1.20218C88.1722 1.2958 88.0793 1.64351 87.9657 1.97486L87.7592 2.57731H86.6876H85.616L85.2011 3.89732C84.9728 4.62339 84.662 5.60844 84.5105 6.0866L84.2348 6.95588H83.0944C82.2672 6.95588 81.9547 6.91171 81.9563 6.7949C81.9576 6.70643 82.2433 5.73567 82.5912 4.63781L83.2238 2.6417L82.2003 2.60435C81.0569 2.56249 81.0627 2.56945 81.3832 1.63437L81.5897 1.03193H84.881C87.523 1.03193 88.1722 1.06554 88.1722 1.20218ZM100.676 1.97976C100.725 2.50107 100.809 2.99803 100.863 3.08432C100.927 3.18734 101.257 2.86269 101.828 2.13649L102.695 1.03193H103.984C104.692 1.03193 105.272 1.08086 105.272 1.14062C105.272 1.2005 104.412 2.16482 103.361 3.28354C101.577 5.18346 101.433 5.37393 101.187 6.16902L100.924 7.02027L99.7301 7.05736C99.0733 7.0777 98.5362 7.04873 98.5368 6.99297C98.5373 6.93708 98.6475 6.53309 98.7814 6.0951L99.0251 5.29859L98.3917 3.21233C98.0435 2.06488 97.7585 1.10495 97.7585 1.07906C97.7585 1.05318 98.3948 1.03193 99.1725 1.03193H100.586L100.676 1.97976ZM121.777 1.21196C122.304 1.43076 122.398 1.56817 122.398 2.12065C122.398 2.74743 122.009 3.45894 121.443 3.86628C121.076 4.13054 120.997 4.24309 121.141 4.29796C121.389 4.39261 121.388 4.85197 121.136 5.81938C121.025 6.24178 120.972 6.70141 121.016 6.84062C121.093 7.08286 121.039 7.09226 119.759 7.0571C118.507 7.02259 118.423 7.00378 118.454 6.76271C118.472 6.62105 118.524 6.22723 118.57 5.88763L118.653 5.27026L117.652 5.30812L116.652 5.34611L116.371 6.18319L116.089 7.02027H114.923C114.223 7.02027 113.763 6.96888 113.772 6.89149C113.78 6.82066 114.184 5.47334 114.67 3.89732L115.554 1.03193H118.449C120.635 1.03193 121.45 1.07597 121.777 1.21196ZM139.99 1.20218C139.99 1.2958 139.897 1.64351 139.784 1.97486L139.577 2.57731H137.577C135.622 2.57731 135.575 2.58374 135.469 2.86706C135.361 3.15669 135.362 3.15682 136.976 3.19301L138.591 3.22907L138.505 3.57214C138.457 3.76081 138.338 4.10684 138.239 4.34097L138.06 4.76659H136.434C135.533 4.76659 134.808 4.81926 134.808 4.88481C134.808 4.94985 134.773 5.09473 134.73 5.20677C134.66 5.38732 134.889 5.4105 136.748 5.4105H138.845L138.755 5.82904C138.706 6.05917 138.587 6.43599 138.492 6.66612L138.319 7.08466H135.074C133.289 7.08466 131.829 7.03752 131.829 6.97983C131.829 6.88608 132.955 3.21361 133.465 1.64364L133.663 1.03193H136.827C139.363 1.03193 139.99 1.06567 139.99 1.20218ZM117.399 2.88728C117.356 3.05779 117.285 3.2896 117.242 3.40241C117.174 3.57729 117.288 3.60756 118.012 3.60756C118.913 3.60756 119.46 3.43872 119.582 3.12308C119.732 2.73558 119.394 2.57731 118.419 2.57731C117.532 2.57731 117.473 2.59533 117.399 2.88728ZM76.5569 12.2681C76.2348 12.6087 58.9971 33.0218 58.3934 33.7775C58.2254 33.9876 58.5602 34 64.4484 34H70.6814L77.0198 26.6506C80.5058 22.6084 83.4063 19.3016 83.4653 19.3023C83.5393 19.3031 85.2315 25.7831 85.4455 26.8848C85.4489 26.9025 83.5824 26.917 81.2976 26.917C77.4007 26.917 77.1478 26.9309 77.2136 27.1424C77.2523 27.2663 77.5789 28.7586 77.9395 30.4585C78.3001 32.1584 78.6261 33.6507 78.664 33.7746C78.7287 33.9867 79.3108 34 88.5047 34C93.8793 34 98.2767 33.9507 98.2767 33.8904C98.2767 33.8301 97.1108 28.8898 95.6858 22.9119C94.2608 16.934 93.0949 11.9995 93.0949 11.9463C93.0949 11.8931 89.4628 11.8496 85.0237 11.8496H76.9525L76.5569 12.2681ZM109.234 13.2984C108.094 16.9572 102.94 33.7518 102.94 33.8081C102.94 33.8428 104.891 33.8712 107.275 33.8712H111.61L111.744 33.3883C112.364 31.1622 116.145 19.4262 116.194 19.5765C116.229 19.6827 116.469 22.7542 116.727 26.4019C116.985 30.0496 117.227 33.2233 117.264 33.4546L117.332 33.8752L120.982 33.841L124.633 33.8068L129.402 26.9814C132.025 23.2274 134.25 20.0401 134.346 19.8984C134.442 19.7568 134.555 19.6731 134.596 19.7123C134.638 19.7517 133.712 22.9101 132.539 26.7309C131.366 30.5519 130.405 33.7214 130.405 33.7746C130.404 33.8278 132.345 33.8712 134.717 33.8712H139.03L141.992 24.2448C143.621 18.9502 145.143 13.9953 145.374 13.234L145.795 11.8496H138.96H132.125L127.864 18.514L123.603 25.1785L123.569 18.514L123.536 11.8496H116.611H109.686L109.234 13.2984ZM161.279 12.2681C160.954 12.6108 143.704 33.0383 143.116 33.7768C142.948 33.9879 143.276 34 149.171 34H155.404L161.742 26.6506C165.228 22.6084 168.125 19.2906 168.18 19.2778C168.248 19.2617 169.947 25.7613 170.168 26.8848C170.171 26.9025 168.305 26.917 166.02 26.917C162.123 26.917 161.87 26.9309 161.936 27.1424C161.975 27.2663 162.301 28.7586 162.661 30.4585C163.021 32.1584 163.347 33.6507 163.385 33.7746C163.451 33.9866 164.034 34 173.227 34C178.602 34 183 33.9566 183 33.9034C183 33.8502 181.823 28.8665 180.385 22.8282L177.769 11.8496H169.722H161.675L161.279 12.2681ZM35.9007 19.842C32.6945 21.8287 29.9902 23.5013 29.8912 23.5588C29.756 23.6375 30.6852 24.9136 33.6369 28.703L37.5625 33.7424H46.2208C50.9829 33.7424 54.8748 33.699 54.8696 33.6459C54.8538 33.4846 41.9981 16.3169 41.8594 16.2718C41.7883 16.2486 39.107 17.8553 35.9007 19.842Z" fill="#252525"/>
</svg>
