<svg width="165" height="32" viewBox="0 0 165 32" fill="none" xmlns="http://www.w3.org/2000/svg">
<g clip-path="url(#clip0_2_2957)">
<path d="M25.1693 8.58944C23.9617 7.89764 22.6693 7.52029 21.3769 7.49932C21.2922 7.47836 21.2286 7.47836 21.1439 7.47836C19.576 7.47836 18.0506 7.89734 16.7794 8.77811C15.5294 9.63763 14.5125 10.8745 13.7709 12.342C13.0506 13.8094 12.6904 15.5494 12.6904 17.3733C12.6904 19.4487 13.1142 21.2935 13.9616 22.761C14.7455 24.2491 15.8472 25.3392 17.1608 26.0939C18.4108 26.765 19.7879 27.184 21.1865 27.184L21.1439 27.1214H21.3769C22.6693 27.0792 23.9828 26.7228 25.2328 26.0313C26.504 25.3392 27.5845 24.2491 28.432 22.761C29.2159 21.2935 29.6185 19.4487 29.6185 17.3733C29.6185 15.2769 29.2159 13.4321 28.3684 11.9646C27.521 10.4969 26.4405 9.32317 25.1693 8.58944ZM23.0506 23.3264C22.7964 24.7941 22.2455 25.5279 21.3981 25.5279H21.3769C20.4871 25.5279 19.9362 24.7941 19.682 23.3264C19.4701 21.8592 19.343 19.8257 19.343 17.373C19.343 16.2622 19.3854 15.1508 19.3854 14.2284C19.3854 13.3689 19.5125 12.4674 19.6396 11.7128C19.7244 10.979 19.9574 10.3082 20.254 9.82601C20.4871 9.32288 20.9108 9.09228 21.3769 9.09228C22.2455 9.09228 22.7964 9.8889 23.0506 11.3564C23.3049 12.8238 23.4108 14.8573 23.4108 17.373C23.4108 19.8257 23.3049 21.8592 23.0506 23.3264ZM163.39 23.5573V1.31472H155.742L155.699 2.97086C157.458 2.97086 157.458 2.97086 157.458 4.5641V23.5573C157.458 24.8361 157.458 24.7732 155.848 24.7732L155.89 26.3874H165V24.7732C163.919 24.7732 163.39 24.7522 163.39 23.5573ZM58.3686 23.5573V9.76312H59.8304L59.8516 8.2118L58.3686 8.19084V1.31472L56.8219 1.33568C55.0635 4.12386 52.8177 6.24121 49.9575 8.19084V9.76312C51.3558 9.76312 51.8855 9.78408 51.8855 11.1467V23.5573C51.8855 24.7522 51.1863 24.7732 50.1906 24.7732V26.3874H59.9787V24.7732C58.729 24.7732 58.3686 24.7313 58.3686 23.5573ZM47.2244 23.6621V12.0485C47.2244 9.38606 45.6566 7.47836 42.4787 7.47836C40.6778 7.47836 38.8558 8.27498 37.1609 10.0779V8.19113H29.682V9.76341C31.2498 9.76341 31.2925 9.76341 31.2925 11.1261L31.3349 23.5785C31.3349 24.7522 31.2289 24.7735 29.6823 24.8154V26.3874H39.3222V24.7732C37.8815 24.7732 37.4578 24.7522 37.4578 23.5154V12.4677C37.3518 11.6502 38.1781 10.4762 39.1527 10.4762C40.1911 10.4762 41.1869 11.0422 41.1869 12.3L41.1657 26.3877H49.0259V24.7522C47.9236 24.7313 47.2244 24.7522 47.2244 23.6621ZM65.1482 7.35258C66.1228 7.35258 66.9703 6.99619 67.5423 6.32535C68.0932 5.69644 68.3686 4.94174 68.3686 4.22897C68.3686 3.47428 68.0084 2.69862 67.4573 2.02778C66.9067 1.39886 66.0593 1.04248 65.1482 1.04248C64.7252 1.04269 64.3068 1.13046 63.9201 1.30014C63.5333 1.46983 63.1867 1.71768 62.9025 2.02778C62.3304 2.57284 61.9914 3.32724 61.9914 4.18705V4.22897C61.9914 5.08849 62.3304 5.90608 62.9025 6.45113C63.4745 6.99619 64.3008 7.35258 65.1482 7.35258Z" fill="#252525"/>
<path d="M21.3769 28.6744C19.3642 29.1772 17.3938 29.0724 15.6777 28.2338C11.8218 26.3474 8.34719 20.1421 8.34719 16.0332C8.34719 9.51348 13.665 2.55351 20.4871 3.6017C20.7625 3.64363 21.0591 3.70652 21.3769 3.79037C23.6227 4.37736 26.4193 5.84482 28.3049 7.22843L28.6439 5.92868L22.6693 0.0797841L22.2879 1.4005C21.9809 1.30547 21.6771 1.20059 21.3769 1.08605C18.4743 0.0588203 18.7286 0.0166016 15.8687 0.0166016C13.5382 0.0166016 11.2924 0.520023 9.38563 1.29568C7.58477 2.00845 5.69917 3.30821 4.36442 4.71278C3.07205 6.05446 1.75848 7.92024 1.08051 9.80698C0.423436 11.7147 0 13.874 0 16.0332C0 18.9679 0.804793 21.8402 2.11836 24.2298C3.36836 26.5358 5.44464 28.6531 7.8599 29.9526C10.1904 31.2526 13.093 31.9861 16.1438 31.9861C17.8388 31.9861 19.6608 31.8393 21.3769 31.4413C23.1142 31.0217 24.7456 30.3512 26.017 29.282C27.3727 28.1497 27.754 28.1919 28.6227 27.3953L28.0295 25.0893C25.8896 26.8922 23.6018 28.15 21.3769 28.6744ZM69.1101 23.5589V8.19277H61.0593V9.72312C62.4576 9.76505 62.6694 9.78601 62.6694 11.1487V23.5592C62.6694 24.7542 62.4364 24.7751 60.9533 24.7751V26.3893H70.7415V24.7751C69.4703 24.7748 69.1101 24.7539 69.1101 23.5589ZM98.9196 17.6052L107.119 17.5633C107.119 16.2216 106.907 14.2929 106.525 13.1819C106.207 12.1337 105.593 11.1064 104.894 10.2886C104.216 9.53387 103.305 8.86302 102.33 8.46471C101.377 8.04544 100.275 7.81484 99.0888 7.81484H98.9193C97.3935 7.81484 95.932 8.02447 94.682 8.86302C93.432 9.72254 92.1184 11.2529 91.4195 12.7833C91.0167 13.7057 90.7836 14.7538 90.6777 15.8649C90.6139 16.599 90.593 17.3324 90.593 18.0871C90.593 18.5483 90.6139 19.0095 90.6777 19.4707C90.826 20.4979 91.1438 21.4832 91.5672 22.4053C92.1817 23.6844 93.1565 24.7955 94.4698 25.5712C95.6986 26.3049 97.2241 26.7239 98.919 26.7448H99.0885C101.143 26.7448 103.177 26.3046 104.47 25.2777C105.677 24.2921 106.991 22.2586 106.927 19.6384L105.211 19.5962C105.063 22.5102 103.241 24.1031 101.483 24.6275C100.741 24.8578 99.83 25.0048 98.919 24.732C98.6647 24.6485 98.4102 24.5224 98.1563 24.3756C97.1605 23.4326 97.478 19.9313 97.478 17.6043H98.9196V17.6052ZM97.4789 11.1277C97.4789 11.1277 97.4789 9.80669 98.9196 9.74409H99.0679C100.36 9.76505 100.36 11.1277 100.36 11.1277V16.138H98.9196L97.4789 16.1587V11.1277ZM124.852 23.6637V12.0501C124.852 9.3877 123.305 7.48 120.127 7.48C118.305 7.48 116.483 8.27662 114.788 10.0795V8.19277H107.31V9.76505C108.877 9.76505 108.92 9.76505 108.92 11.1277L108.962 23.5802C108.962 24.7539 108.856 24.7751 107.331 24.817V26.389H116.971V24.7748C115.509 24.7748 115.085 24.7539 115.085 23.517V12.4694C114.98 11.6518 115.806 10.4778 116.78 10.4778C117.818 10.4778 118.814 11.0438 118.814 12.3017V26.3893H126.654V24.7539C125.572 24.7329 124.852 24.7539 124.852 23.6637ZM88.9828 23.6637V12.0501C88.9828 9.3877 87.415 7.48 84.237 7.48C82.4573 7.48 80.6356 8.27662 78.9195 10.0795V8.19277H71.4618V9.76505C73.0293 9.76505 73.0929 9.76505 73.0929 11.1277L73.1141 23.5802C73.1141 24.7539 73.0084 24.7751 71.4615 24.817L71.4827 26.389H81.1226V24.7748C79.6607 24.7748 79.237 24.7539 79.237 23.517V12.4694C79.1311 11.6518 79.9573 10.4778 80.9319 10.4778C81.9698 10.4778 82.9658 11.0438 82.9658 12.3017L82.9446 26.3893H90.7833V24.7539H90.6777C89.661 24.7329 88.9828 24.7329 88.9828 23.6637ZM153.348 23.538L153.39 11.9869C153.39 8.94717 150.149 6.89272 146.272 6.89272C146.124 6.89272 145.975 6.89272 145.806 6.91368C143.687 7.10236 140.424 8.44404 138.878 9.53416C139.005 10.5614 138.899 10.6452 138.899 11.5886L143.369 9.4503C143.835 9.2197 144.937 9.03103 145.805 9.13585C146.356 9.2197 146.801 9.40837 146.971 9.78572C147.098 10.1002 147.352 10.5614 147.352 11.0226L147.373 13.1396C146.864 12.8461 146.335 12.6365 145.805 12.4688C144.407 12.0705 143.009 12.1124 142.056 12.364C139.11 13.1606 137.818 16.3052 137.818 20.1415C137.818 22.8246 139.449 27.0383 143.03 27.0383C144.28 27.0383 145.064 26.7239 145.806 26.2627C146.166 26.0533 146.505 25.8015 146.886 25.5502C147.797 26.3887 149.598 26.3678 150.424 26.3678L155.127 26.4097L155.085 24.7326C153.623 24.7539 153.348 24.7116 153.348 23.538ZM146.06 24.0414C145.975 24.0414 145.89 24.0204 145.805 24.0204C144.767 23.9572 144.492 23.3915 144.259 21.8821C144.259 20.1421 144.259 17.9409 144.238 17.0604C144.195 15.4882 144.767 14.7125 145.742 14.7125H145.805C146.78 14.7544 147.331 15.572 147.331 16.6202C147.331 17.9619 147.373 20.4985 147.373 21.9869C147.394 23.3703 146.907 24.0414 146.06 24.0414ZM135.763 23.5589V9.76476H137.204L137.247 8.21344L135.763 8.19248V1.31636L134.217 1.33732C132.458 4.1255 130.213 6.24284 127.352 8.19248V9.76476C128.75 9.76476 129.259 9.78572 129.259 11.1484V23.5589C129.259 24.7539 128.581 24.7748 127.585 24.7748V26.389H137.394V24.7748C136.102 24.7748 135.763 24.7329 135.763 23.5589Z" fill="#252525"/>
</g>
<defs>
<clipPath id="clip0_2_2957">
<rect width="165" height="32" fill="white"/>
</clipPath>
</defs>
</svg>
