<svg width="183" height="26" viewBox="0 0 183 26" fill="none" xmlns="http://www.w3.org/2000/svg">
<path fill-rule="evenodd" clip-rule="evenodd" d="M24.74 2.40447C19.8794 5.88131 19.3592 6.32092 19.3592 6.9542C19.3592 7.2678 21.2877 10.0453 23.7253 13.2428C28.1541 19.0519 28.7728 20.2023 27.5599 20.3734C27.1216 20.4352 26.132 19.2604 22.6444 14.5367C20.1761 11.1933 17.8782 8.35396 17.3583 8.00508C16.5967 7.49384 15.128 7.18582 8.81705 6.21426C-0.113813 4.83918 -0.0930819 4.84051 0.023225 5.60698C0.0953783 6.08161 0.692527 6.35992 3.71489 7.32722C7.98136 8.69249 10.6895 9.96224 12.3776 11.3888C13.0539 11.9603 15.7683 15.3326 18.4094 18.8824C21.0505 22.4322 23.3977 25.4861 23.6252 25.6684C23.924 25.9079 25.4688 26 29.1877 26H34.3364L36.2035 24.7382C37.5833 23.8057 38.0916 23.2992 38.1509 22.7978C38.2131 22.2724 37.0193 20.4739 32.8697 14.8402C29.9205 10.8367 27.5573 7.44184 27.6176 7.29592C27.6779 7.15 28.9451 6.15829 30.4337 5.09229C32.6223 3.52459 33.2988 3.16935 33.9692 3.23514C34.4253 3.27971 34.8337 3.43571 34.8768 3.58163C34.9199 3.72755 33.8731 4.62296 32.5506 5.57143C30.862 6.78255 30.1435 7.462 30.1373 7.85359C30.1295 8.3468 38.2672 19.769 39.5466 21.0603C39.8858 21.4028 40.2385 21.506 40.6711 21.3892C41.5423 21.1542 44.936 18.6378 44.936 18.2271C44.936 18.0429 43.3626 15.8064 41.4398 13.2573C39.5167 10.708 37.9417 8.55029 37.9398 8.4622C37.9376 8.37439 39.9991 6.79316 42.5207 4.94875C45.0423 3.10435 47.176 1.41382 47.2624 1.19202C47.3485 0.970489 47.2696 0.61153 47.0868 0.39451C46.8044 0.0591631 45.3544 0 37.4283 0H28.1016L24.74 2.40447ZM74.0345 5.99273C72.2344 6.46975 71.08 7.1569 69.953 8.42161C68.5977 9.94261 67.7507 12.0343 67.6091 14.2093C67.3969 17.4646 68.4563 19.4854 70.9693 20.6193C73.7246 21.8623 77.86 21.3142 80.2241 19.3926C82.1889 17.7954 83.6804 13.7726 83.3148 11.0561C82.7309 6.71861 78.9929 4.6792 74.0345 5.99273ZM113.821 6.10522C113.281 6.38592 112.481 6.97012 112.041 7.4031L111.242 8.19053L110.661 7.4161C109.777 6.23841 108.606 5.74733 107.101 5.92322C105.747 6.08108 103.427 7.10569 102.838 7.80584C102.243 8.51155 101.94 8.29267 102.129 7.29592L102.306 6.36735H100.28C98.397 6.36735 98.2441 6.40953 98.1219 6.96429C98.0494 7.29247 97.5554 10.4862 97.0239 14.0612C96.4925 17.6362 95.996 20.77 95.9209 21.0255C95.7981 21.4415 96.0189 21.4898 98.0435 21.4898H100.303L100.733 18.5051C101.737 11.5297 103.97 8.03135 106.087 10.1172C106.604 10.6266 106.645 10.873 106.492 12.5713C106.399 13.6097 106.038 15.9815 105.689 17.8418L105.056 21.2245H107.291H109.526L109.677 20.3622C109.759 19.8881 110.004 18.3061 110.22 16.8469C110.765 13.1621 111.523 11.0895 112.695 10.0753C113.904 9.02943 114.9 9.07957 115.455 10.2143C115.805 10.9317 115.77 11.4421 115.099 15.3878C114.689 17.7954 114.289 20.0338 114.211 20.3622C114.073 20.9459 114.121 20.9592 116.387 20.9592C117.662 20.9592 118.706 20.8695 118.708 20.7602C118.71 20.6509 119.073 18.4144 119.516 15.7908C119.958 13.1669 120.317 10.4807 120.314 9.82137C120.306 8.20777 119.488 6.50557 118.47 5.9869C117.346 5.41437 115.034 5.47327 113.821 6.10522ZM128.47 5.98C124.701 6.9802 122.333 9.99063 122.011 14.1915C121.665 18.6898 124.151 21.2866 128.784 21.2688C133.482 21.2505 136.706 18.5531 137.577 13.9124C138.687 7.99075 134.532 4.37118 128.47 5.98ZM158.124 6.07286C155.815 6.63239 154.718 7.27125 153.051 9.02704C151.102 11.081 150.356 12.9082 150.348 15.6531C150.343 17.4808 150.455 18.117 150.938 19.0089C151.784 20.5718 153.118 21.3131 155.051 21.2951C156.976 21.2773 158.285 20.6859 159.502 19.2851L160.435 18.2106V19.5849V20.9592H162.542H164.65L164.535 20.1917C164.348 18.9344 164.972 13.1987 165.688 9.59665C166.055 7.74747 166.357 6.2148 166.357 6.19039C166.358 6.16598 165.746 6.01661 164.999 5.85876C163.067 5.45045 160.342 5.53535 158.124 6.07286ZM176.684 5.94073C176.219 6.1482 175.34 6.76106 174.733 7.30229L173.627 8.28631V7.19404V6.10204H171.608C170.498 6.10204 169.589 6.16492 169.589 6.24186C169.589 6.3188 169.044 9.73116 168.377 13.8251C167.711 17.9188 167.166 21.3181 167.166 21.3792C167.166 21.4399 168.241 21.4898 169.554 21.4898H171.943L172.133 19.5846C172.358 17.3277 173.391 13.1658 174.039 11.9046C175.393 9.26608 177.549 8.52376 178.201 10.4708C178.448 11.2068 178.355 12.1821 177.68 15.9741C177.228 18.5088 176.858 20.727 176.858 20.9035C176.858 21.1295 177.536 21.2245 179.147 21.2245C180.405 21.2245 181.435 21.1348 181.435 21.0255C181.436 20.9162 181.799 18.7556 182.243 16.2243C183.433 9.44012 183.276 7.64692 181.371 6.27078C180.429 5.59027 177.874 5.41012 176.684 5.94073ZM54.0898 6.11053C54.0898 6.43367 51.7359 20.0208 51.5289 20.8929C51.3902 21.4776 51.4362 21.4898 53.7764 21.4898H56.1655L56.5104 19.1193C56.8187 16.9995 56.949 16.6588 57.7424 15.9011L58.6298 15.0537L59.4735 16.8788C59.9374 17.8827 60.5666 19.271 60.8711 19.9643L61.4252 21.2245H64.0843C65.5468 21.2245 66.7416 21.1945 66.7395 21.1582C66.737 21.1218 65.7293 19.1562 64.4998 16.7904L62.2644 12.489L63.7176 11.0863C64.5167 10.3148 65.9006 8.87794 66.7925 7.89286L68.4143 6.10204H65.6144H62.8144L60.2737 9.13502C58.8761 10.8033 57.7023 12.138 57.6648 12.1011C57.6274 12.0643 57.8374 10.7892 58.1317 9.26767C58.426 7.74588 58.6666 6.35169 58.6666 6.1689C58.6666 5.92906 58.0315 5.83673 56.3782 5.83673C54.9844 5.83673 54.0898 5.94392 54.0898 6.11053ZM93.2625 6.32596C92.8183 6.59392 91.9842 7.32802 91.4092 7.95706L90.3635 9.1008L90.5536 7.60129L90.7436 6.10204H88.7172H86.6909L86.5582 6.96429C86.4852 7.43839 86.3563 8.72194 86.2718 9.81633C86.1872 10.9107 85.7529 13.9416 85.3068 16.5514C84.861 19.1612 84.5298 21.3248 84.5716 21.359C84.6133 21.3935 85.6485 21.3619 86.8719 21.2887C89.3994 21.1377 89.1067 21.5052 89.6191 17.8413C89.9567 15.4257 90.644 13.1382 91.351 12.0746C91.9484 11.1763 93.2776 10.3814 94.519 10.1806C95.4918 10.0233 95.5109 9.9962 95.7979 8.37147C96.2418 5.86008 96.2351 5.83647 95.0798 5.8378C94.5247 5.83833 93.7068 6.058 93.2625 6.32596ZM147.63 6.33392C147.177 6.60639 146.349 7.35216 145.79 7.99129L144.773 9.15306L144.962 7.62755L145.151 6.10204H143.12H141.089L140.935 7.56122C140.851 8.36378 140.711 9.70702 140.626 10.5459C140.54 11.3848 140.117 14.152 139.686 16.6947C139.255 19.2373 138.935 21.3508 138.976 21.3908C139.017 21.4312 140.071 21.3802 141.318 21.2778L143.587 21.0918L143.914 18.5714C144.303 15.5849 145.13 12.8276 145.942 11.8093C146.575 11.0174 148.369 10.0968 149.3 10.0875C149.937 10.0811 150.057 9.77016 150.35 7.36224L150.536 5.83673L149.495 5.8378C148.923 5.83833 148.083 6.06171 147.63 6.33392ZM15.1671 8.37598C15.663 8.86494 15.6899 9.13661 15.3114 9.83384C14.7716 10.8279 13.167 10.3186 13.167 9.15306C13.167 8.03586 14.3537 7.57475 15.1671 8.37598ZM161.084 8.98141C161.295 9.31781 160.777 12.1805 160.135 14.2284C159.519 16.1948 158.22 17.7755 157.219 17.7755C156.902 17.7755 156.344 17.4823 155.981 17.1242C154.151 15.3214 156.409 9.82827 159.29 9.07427C160.622 8.72592 160.914 8.71053 161.084 8.98141ZM77.9838 9.95482C79.163 11.2922 78.5107 15.2532 76.8404 16.8992C76.1334 17.5959 75.7325 17.7755 74.8839 17.7755C72.8916 17.7755 71.8217 15.9287 72.3833 13.4592C72.9226 11.0882 73.7146 9.7951 74.955 9.26104C75.8569 8.8729 77.3266 9.20957 77.9838 9.95482ZM132.145 9.70728C132.876 10.313 132.974 10.5579 132.974 11.7814C132.974 15.1182 131.337 17.7755 129.282 17.7755C126.833 17.7755 125.971 15.0397 127.319 11.5408C128.21 9.22682 130.511 8.35237 132.145 9.70728Z" fill="#252525"/>
</svg>
