<svg width="185" height="28" viewBox="0 0 185 28" fill="none" xmlns="http://www.w3.org/2000/svg">
<path fill-rule="evenodd" clip-rule="evenodd" d="M55.2499 0.284593C51.3899 0.841241 49.1465 2.23779 47.7442 4.95768C47.0102 6.38098 45.1387 13.4136 45.1366 14.7559C45.1342 16.2503 45.7745 17.5183 46.8696 18.1879C49.5052 19.7997 59.6078 19.8888 63.2781 18.3325C64.4509 17.8351 65.7249 16.606 66.3699 15.3491C66.8684 14.3784 68.0254 10.9043 68.3487 9.40775L68.5311 8.56395H63.0307H57.5303L57.2248 9.79719C57.0569 10.4753 56.858 11.2348 56.7824 11.4848C56.6601 11.8909 56.8682 11.9391 58.7471 11.9391C59.9027 11.9391 60.9038 12.0279 60.9718 12.1365C61.2298 12.5493 60.3499 14.0268 59.5645 14.4991C57.9478 15.4719 53.8715 15.4904 52.673 14.5303C52.2437 14.1862 52.1031 13.8064 52.1233 13.0457C52.1598 11.6637 53.7508 6.3519 54.3564 5.5904C55.0287 4.74453 56.9661 4.15023 59.0502 4.15023C61.4363 4.15023 62.4376 4.52358 62.6321 5.48577L62.7851 6.24259L65.9652 6.17016L69.1454 6.09746L69.3852 4.86915C69.9014 2.22611 68.7964 0.830077 65.7514 0.278362C63.9481 -0.0485123 57.534 -0.0446183 55.2499 0.284593ZM182.023 0.471007C181.095 1.48564 181.921 3.37134 183.294 3.37134C184.105 3.37134 185 2.43356 185 1.58404C185 0.82099 184.304 -0.00645282 183.667 3.79428e-05C183.462 0.00211499 183.59 0.150883 183.95 0.330547C184.869 0.788016 184.993 2.12641 184.169 2.69734C183.38 3.24464 182.819 3.22049 182.266 2.6153C181.626 1.91585 181.818 0.739206 182.638 0.330547C183.047 0.126997 183.137 0.00237462 182.876 3.79428e-05C182.646 -0.0020391 182.262 0.209819 182.023 0.471007ZM4.89555 9.52147C3.49768 14.6351 2.35567 18.9141 2.35777 19.0302C2.35987 19.1462 6.22886 19.2046 10.9557 19.16C19.082 19.0834 19.6155 19.0489 20.7607 18.5249C22.8988 17.5466 24.3628 15.0892 24.3896 12.4337C24.4066 10.7451 23.9773 10.189 22.4687 9.94674C21.4576 9.78447 21.1538 9.34284 22.053 9.34284C22.8537 9.34284 24.5431 8.41181 25.1673 7.62668C26.3458 6.14445 26.8596 2.95152 26.0939 1.8699C25.0928 0.455689 24.6719 0.39208 15.724 0.304585L7.43753 0.22332L4.89555 9.52147ZM29.9495 1.09957C29.6858 1.92857 26.8875 12.0936 25.6255 16.8072L24.9826 19.2088H28.1798H31.3771L32.2981 15.7687L33.2192 12.3286L38.1103 12.258L43.0016 12.1874L43.3955 10.83C43.6122 10.0836 43.8686 9.15149 43.9657 8.75867L44.1421 8.04469H39.2539H34.3659L34.5425 7.33071C34.6396 6.93788 34.8535 6.14939 35.0177 5.5782L35.3166 4.53968L40.6585 4.40986L46.0002 4.28005L46.4767 2.59245C46.7389 1.66427 46.9575 0.758938 46.9624 0.580312C46.9695 0.327173 45.1264 0.255774 38.5949 0.255774H30.218L29.9495 1.09957ZM121.126 3.73041L120.135 7.20478L119.261 6.26181L118.387 5.31857H115.284C111.815 5.31857 110.867 5.63091 109.242 7.30786C108.223 8.36014 107.757 9.42437 106.919 12.6163C106.023 16.0255 106.06 16.97 107.129 18.0257C109.119 19.9905 115.504 19.7577 116.82 17.6726C117.328 16.868 117.557 17.018 117.28 17.9737C116.841 19.4876 116.808 19.4684 119.796 19.4684C122.409 19.4684 122.571 19.437 122.812 18.8843C123.035 18.3718 123.737 15.8271 127.041 3.56113C127.456 2.02334 127.794 0.650672 127.794 0.510471C127.794 0.359626 126.637 0.255774 124.956 0.255774H122.117L121.126 3.73041ZM142.664 1.80966C142.424 2.66437 142.227 3.42379 142.227 3.49726C142.227 3.57074 143.562 3.63097 145.194 3.63097H148.162L148.57 1.94337L148.978 0.255774H146.039H143.1L142.664 1.80966ZM168.626 0.710128C168.549 0.959892 167.48 4.84474 166.251 9.34284C165.022 13.8409 163.909 17.8943 163.778 18.3505C163.647 18.8066 163.606 19.2446 163.686 19.3241C163.955 19.5899 168.957 19.476 169.129 19.2002C169.221 19.0528 169.822 16.9848 170.464 14.6045C171.106 12.2242 171.835 10.0503 172.084 9.77383C173.026 8.7257 175.236 8.23889 176.358 8.83267C176.678 9.00221 176.865 9.37556 176.865 9.84315C176.865 10.5161 175.803 14.907 174.903 17.953C174.706 18.6189 174.615 19.2322 174.699 19.316C174.881 19.496 180.277 19.525 180.277 19.3461C180.277 19.2789 180.853 17.0881 181.558 14.4781C183.254 8.19346 183.254 8.19501 182.893 7.11132C182.457 5.80512 181.054 5.20148 178.44 5.19602C175.895 5.19031 174.849 5.49538 173.502 6.63593C172.898 7.14741 172.405 7.52751 172.407 7.48077C172.408 7.43404 172.82 5.93519 173.323 4.15023C173.825 2.36527 174.237 0.758938 174.239 0.580312C174.241 0.341193 173.52 0.255774 171.503 0.255774C169.124 0.255774 168.748 0.31523 168.626 0.710128ZM182.669 1.73151C182.686 2.27648 182.753 2.51793 182.819 2.26791C182.885 2.01815 183.043 1.81356 183.169 1.81356C183.296 1.81356 183.517 2.01815 183.66 2.26791C183.899 2.6828 183.919 2.67709 183.899 2.203C183.886 1.91741 183.922 1.50849 183.979 1.2943C184.049 1.03025 183.849 0.878368 183.36 0.822807C182.68 0.745177 182.64 0.797623 182.669 1.73151ZM183.819 1.2943C183.73 1.43709 183.487 1.55393 183.279 1.55393C183.071 1.55393 182.901 1.43709 182.901 1.2943C182.901 1.1515 183.144 1.03467 183.441 1.03467C183.738 1.03467 183.908 1.1515 183.819 1.2943ZM19.2657 4.56746C19.937 4.82216 19.7974 6.39526 19.0366 7.14767C18.4213 7.75676 18.246 7.78506 15.1005 7.78506C13.2898 7.78506 11.8085 7.72482 11.8085 7.65135C11.8085 7.57787 12.0051 6.81845 12.2452 5.96375L12.6818 4.40986H15.7662C17.4627 4.40986 19.0374 4.48074 19.2657 4.56746ZM74.8258 5.46786C71.7052 6.07487 70.1008 8.03041 69.0016 12.5672C67.8134 17.4703 68.6164 18.6716 73.4901 19.2802C75.2585 19.5011 76.521 19.498 78.6066 19.2672C81.813 18.9128 83.2495 18.3676 84.4038 17.0666C85.862 15.4234 87.2575 10.8199 87.0537 8.32535C86.913 6.60348 86.21 5.89183 84.2354 5.47279C82.6866 5.14436 76.506 5.14098 74.8258 5.46786ZM93.4331 5.58988C90.307 6.44952 88.7932 8.53747 87.7811 13.3861C86.8715 17.7419 88.0435 18.9866 93.4184 19.3747C95.8985 19.5539 99.8139 19.1327 101.272 18.5301C103.284 17.6985 104.606 15.7381 105.515 12.2388C106.487 8.49645 106.177 6.74576 104.372 5.7859C103.174 5.14929 95.5337 5.01246 93.4331 5.58988ZM128.426 5.54652C127.865 6.995 124.749 19.1216 124.897 19.2833C125 19.3957 126.314 19.4542 127.817 19.4131L130.55 19.3386L131.758 14.9249C132.423 12.4974 133.058 10.3024 133.168 10.0472C133.54 9.18654 134.729 8.82358 137.173 8.82358H139.493L139.942 7.15831C140.188 6.24233 140.39 5.40762 140.39 5.30351C140.39 5.19914 139.489 5.18122 138.387 5.26379C136.764 5.38504 136.136 5.566 135.076 6.21793L133.768 7.02252L133.942 6.10577L134.116 5.18875H131.341C129.224 5.18875 128.532 5.27365 128.426 5.54652ZM141.506 6.16237C141.363 6.69799 140.522 9.84211 139.637 13.1493C138.752 16.4567 138.028 19.2353 138.028 19.3241C138.028 19.4129 139.343 19.4523 140.949 19.4121L143.869 19.3386L145.021 15.0547C145.654 12.6986 146.51 9.51472 146.924 7.97978L147.676 5.18875H144.721H141.766L141.506 6.16237ZM152.495 5.74177C149.984 6.52845 148.524 8.07948 147.61 10.931C146.261 15.1432 146.468 17.6417 148.242 18.5491C149.487 19.1865 152.638 19.5468 155.479 19.3773C160.006 19.1068 161.525 18.3738 162.828 15.83C163.985 13.5712 163.918 13.4969 160.732 13.4969C158.013 13.4969 157.98 13.5042 157.816 14.1502C157.533 15.2658 156.518 15.8336 154.806 15.8336C152.249 15.8336 152.04 15.2219 153.26 11.3137C153.896 9.27508 154.76 8.56655 156.611 8.56499C158.161 8.56369 158.759 8.92717 158.759 9.87119V10.641H161.629H164.5L164.676 9.47603C165.011 7.27177 164.18 6.00893 162.048 5.47772C160.052 4.98053 154.429 5.13579 152.495 5.74177ZM80.8227 9.08321C81.4593 9.71307 81.4604 9.78759 80.86 12.0736C80.0205 15.2707 79.4534 15.8336 77.0734 15.8336C75.0155 15.8336 74.5246 15.5439 74.5264 14.3316C74.5298 12.0843 75.6285 9.40931 76.7459 8.92769C78.0141 8.38117 80.1971 8.46425 80.8227 9.08321ZM99.6578 8.96819C100.381 9.46928 100.385 9.94856 99.6872 12.5067C98.9553 15.1905 98.2437 15.8336 96.0053 15.8336C93.246 15.8336 92.9529 15.2762 93.9123 11.8529C94.4306 10.0039 95.2039 8.92484 96.1407 8.74284C97.4806 8.48295 99.108 8.58706 99.6578 8.96819ZM118.755 9.09437C119.594 9.78395 118.663 13.9079 117.403 15.0791C116.88 15.5651 116.388 15.7085 114.969 15.7876C112.15 15.9452 111.87 15.338 112.994 11.5032C113.459 9.91844 114.193 8.90718 115.007 8.73323C116.057 8.50865 118.305 8.72544 118.755 9.09437ZM17.6912 11.5775C18.5968 11.9212 18.0046 14.2615 16.8843 14.7665C15.9502 15.1876 9.69321 15.1554 9.83072 14.7302C9.88845 14.5518 10.1241 13.7337 10.3545 12.9128L10.7736 11.4199H14.0248C15.8132 11.4199 17.463 11.4908 17.6912 11.5775ZM163.22 21.9349C163.22 22.1964 163.484 22.3244 164.025 22.3244C164.667 22.3244 164.803 22.4163 164.698 22.7787C164.625 23.0287 164.316 24.1093 164.01 25.1803C163.704 26.2513 163.405 27.2737 163.345 27.4521C163.285 27.6307 163.408 27.7766 163.617 27.7766C163.826 27.7766 164.071 27.4552 164.162 27.0626C164.253 26.6701 164.588 25.4724 164.908 24.4014C165.463 22.5386 165.527 22.4485 166.367 22.3244C166.85 22.253 167.294 22.0486 167.354 21.87C167.434 21.6283 166.921 21.5455 165.341 21.5455C163.631 21.5455 163.22 21.6208 163.22 21.9349ZM167.84 21.9567C167.742 22.2094 167.801 22.3283 167.992 22.2649C168.385 22.1356 168.601 21.5455 168.256 21.5455C168.115 21.5455 167.928 21.7306 167.84 21.9567ZM169.589 23.5454C169.123 23.6345 168.897 24.0151 168.474 25.4202C167.88 27.3934 167.834 27.7766 168.188 27.7766C168.443 27.7766 168.502 27.6247 169.003 25.6996C169.365 24.3059 169.676 23.8821 170.337 23.8821C170.655 23.8821 170.83 24.0665 170.83 24.4014C170.83 25.0411 171.25 25.0879 171.413 24.4663C171.68 23.4473 171.247 23.2284 169.589 23.5454ZM172.609 23.6391C172.142 23.9081 171.355 26.1215 171.355 27.1628C171.355 27.632 171.543 27.788 172.274 27.9238C173.293 28.1128 174.504 27.5362 174.504 26.8619C174.504 26.3219 174.163 26.3855 173.777 26.9977C173.151 27.9898 171.739 27.5107 172.021 26.4016C172.174 25.7974 172.336 25.7167 173.534 25.6474C174.716 25.5791 174.896 25.4924 175.042 24.9207C175.296 23.9304 174.878 23.3616 173.904 23.3707C173.44 23.3751 172.857 23.4958 172.609 23.6391ZM176.512 23.8378C175.961 24.4406 175.949 25.5952 176.493 25.8016C176.721 25.8883 177.194 25.9592 177.543 25.9592C178.275 25.9592 178.379 26.501 177.765 27.1091C177.184 27.6834 176.319 27.6237 176.154 26.9977C175.992 26.3832 175.599 26.3185 175.384 26.8713C175.009 27.84 176.416 28.346 177.778 27.7322C179.067 27.1506 178.992 25.4399 177.676 25.4399C176.778 25.4399 176.499 25.1325 176.735 24.3991C176.949 23.7313 178.303 23.6874 178.671 24.3365C178.914 24.7649 178.94 24.7633 179.116 24.3103C179.49 23.3502 177.319 22.956 176.512 23.8378ZM0.921327 23.9471C0.753908 24.4328 0 27.4383 0 27.6198C0 27.7065 36.271 27.748 80.602 27.7122L161.204 27.6468L161.686 25.9592C161.951 25.031 162.169 24.1257 162.169 23.9471C162.17 23.6882 145.882 23.6225 81.6018 23.6225C17.3813 23.6225 1.01055 23.6885 0.921327 23.9471ZM167.314 23.8398C167.239 23.9595 167.065 24.5144 166.926 25.0731C166.788 25.6318 166.555 26.4688 166.409 26.9328C166.202 27.5889 166.219 27.7766 166.486 27.7766C166.689 27.7766 167.001 27.1023 167.248 26.1285C167.478 25.2221 167.741 24.2874 167.833 24.0514C168.002 23.6173 167.564 23.439 167.314 23.8398ZM174.504 24.5312C174.504 25.1154 174.399 25.1803 173.454 25.1803C172.877 25.1803 172.404 25.0718 172.404 24.9391C172.404 24.4803 173.232 23.8821 173.866 23.8821C174.371 23.8821 174.504 24.0172 174.504 24.5312Z" fill="#252525"/>
</svg>
