<svg width="161" height="23" viewBox="0 0 161 23" fill="none" xmlns="http://www.w3.org/2000/svg">
<path fill-rule="evenodd" clip-rule="evenodd" d="M1.51035 1.54973C2.33953 2.39586 4.915 4.99529 7.23364 7.32635L11.4493 11.5645L5.72467 17.2783L0 22.9918H1.00673H2.01347L7.73827 17.2781L13.4631 11.5644L7.67534 5.78792L1.88763 0.0114274H0.945324H0.00289436L1.51035 1.54973ZM3.59593 0.0675599C3.62487 0.0984516 5.20645 1.69477 7.11069 3.61508C9.01506 5.53539 11.5621 8.11045 12.7709 9.33758L14.9689 11.5686L9.34011 17.1866C6.24427 20.2764 3.71133 22.8467 3.71133 22.8982C3.71133 22.9496 4.12208 22.9918 4.62418 22.9918H5.53704L11.2618 17.2781L16.9866 11.5644L11.1989 5.78792L5.4112 0.0114274H4.47733C3.96377 0.0114274 3.56711 0.0366682 3.59593 0.0675599ZM12.8039 5.75703L18.5607 11.5026L12.8978 17.1526C9.78319 20.2599 7.2349 22.845 7.2349 22.8972C7.2349 22.9493 7.64565 22.9918 8.14775 22.9918H9.06061L14.7761 17.2874L20.4916 11.583L14.7878 5.79722L9.08389 0.0114274H8.06558H7.04714L12.8039 5.75703ZM16.3383 5.76783L22.1059 11.5242L16.4178 17.258L10.7299 22.9918H11.6571H12.5842L18.278 17.309C21.4096 14.1834 23.9719 11.5726 23.9719 11.507C23.9719 11.4415 21.4109 8.82812 18.2807 5.69964L12.5895 0.0114274H11.5801H10.5707L16.3383 5.76783ZM19.882 5.78792L25.6697 11.5644L19.9444 17.2821L14.2191 23L15.2003 22.9645L16.1814 22.929L27.6254 11.5016L39.0695 0.0742154L38.1023 0.0370449L37.1349 0L31.8785 5.24418L26.6221 10.4884L26.237 10.1203L25.8521 9.75223L30.7315 4.88177L35.611 0.0114274H34.6055H33.6001L29.2302 4.3708L24.8602 8.7303L24.4752 8.36223L24.0904 7.99429L28.0888 4.00286L32.0872 0.0114274H31.0821H30.0768L26.5875 3.49177L23.0981 6.97198L22.7134 6.60417L22.3287 6.23636L25.446 3.12395L28.5632 0.0114274H27.5585H26.5538L23.9422 2.61537L21.3304 5.21932L20.9227 4.81245L20.515 4.40546L22.7139 2.20851L24.913 0.0114274H23.9721H23.0313L21.2994 1.73646L19.5674 3.46138L17.8354 1.73646L16.1035 0.0114274H15.0989H14.0943L19.882 5.78792ZM56.8795 3.02073C55.0574 3.50219 53.8495 4.22689 52.5142 5.63937C51.9109 6.27754 51.5146 6.85519 51.1034 7.69567C49.8291 10.3004 49.8325 12.9272 51.1134 15.5767C51.5959 16.5745 51.8613 16.9372 52.7794 17.8534C53.6968 18.7688 54.0619 19.0349 55.061 19.5165C56.6062 20.2614 57.964 20.542 59.5287 20.4394C63.4254 20.184 66.5908 17.5378 67.5915 13.6992C67.8467 12.7206 67.8769 10.7966 67.6532 9.77446C66.9233 6.43904 64.1482 3.63693 60.9064 2.96184C59.6947 2.70955 57.961 2.73492 56.8795 3.02073ZM68.6457 11.5057V20.2371L70.1244 20.2018L71.603 20.1664L71.6659 16.6403L71.7288 13.1143L74.2444 16.6717L76.76 20.2292H78.6174C79.639 20.2292 80.4748 20.198 80.4748 20.16C80.4748 20.1219 79.0782 18.2431 77.3712 15.9846C75.6643 13.7262 74.224 11.8206 74.1708 11.7501C74.1154 11.6769 75.3996 9.87078 77.1619 7.54335C78.8603 5.30006 80.361 3.30943 80.4967 3.11943L80.7436 2.7741H78.8584H76.9732L74.351 6.4143L71.7288 10.0546L71.6955 6.4143L71.6621 2.7741H70.1539H68.6457V11.5057ZM84.6496 3.02889C82.9378 3.47632 81.5721 4.30424 80.3206 5.65318C79.4 6.64536 78.7497 7.78948 78.3168 9.17848C78.0718 9.96483 78.025 10.3795 78.0334 11.69C78.0421 13.0305 78.0919 13.4064 78.375 14.2643C78.8429 15.6821 79.5085 16.7515 80.6016 17.8423C81.6921 18.9305 82.7616 19.5943 84.1872 20.0675C85.0705 20.3608 85.3945 20.4017 86.8299 20.4017C88.2652 20.4017 88.5892 20.3608 89.4725 20.0675C95.7155 17.995 97.7308 10.3486 93.2858 5.59893C92.025 4.25175 90.5299 3.38176 88.7593 2.96523C87.6464 2.70353 85.7842 2.73228 84.6496 3.02889ZM38.6954 2.97251C38.6954 3.01269 39.9129 5.46105 41.401 8.41347L44.1066 13.7815V17.0682V20.3547H45.5537H47.0009V17.0891V13.8237L49.7065 8.42502C51.1946 5.45578 52.4121 2.99788 52.4121 2.96309C52.4121 2.92818 51.7 2.89968 50.8295 2.89968H49.2469L47.425 6.6225C46.4229 8.67014 45.5591 10.2947 45.5054 10.2328C45.4517 10.1709 44.6195 8.49572 43.656 6.51011L41.9043 2.89993L40.2998 2.8998C39.4174 2.8998 38.6954 2.93245 38.6954 2.97251ZM96.4568 11.6311V20.3625L97.9983 20.3272L99.5399 20.292L99.5733 16.8072L99.6068 13.3225H102.688H105.769V16.8386V20.3547H107.342H108.915V11.6272V2.89968H107.342H105.769V6.60417V10.3087H102.686H99.6028V6.60417V2.89968H98.0298H96.4568V11.6311ZM112.901 11.3411C111.188 15.9878 109.754 19.9185 109.713 20.0761L109.639 20.3625L111.243 20.3272L112.848 20.292L113.634 18.0944L114.421 15.8968L117.559 15.8633L120.697 15.8297L121.492 18.0922L122.286 20.3547H123.915C125.409 20.3547 125.537 20.3367 125.47 20.135C125.431 20.0141 123.99 16.1009 122.269 11.4388L119.141 2.96246L117.578 2.92755L116.014 2.89252L112.901 11.3411ZM126.186 11.5958L126.218 20.292L127.76 20.3272L129.301 20.3625L129.305 14.6763C129.308 11.3218 129.355 9.06772 129.42 9.17948C129.509 9.33068 132.358 16.7169 133.478 19.6994L133.727 20.3625L135.176 20.3272L136.625 20.292L138.783 14.641L140.942 8.99011L140.975 14.6724L141.007 20.3547H142.579H144.151V11.6272V2.89968H142.226H140.3L137.864 9.27266C136.524 12.7777 135.365 15.7712 135.289 15.9245C135.168 16.1669 134.813 15.3296 132.586 9.55156L130.023 2.89968H128.088H126.154L126.186 11.5958ZM151.269 3.43337C151.157 3.72684 149.713 7.64017 148.058 12.1295L145.05 20.292L146.631 20.3272C147.5 20.3466 148.235 20.3392 148.264 20.3105C148.293 20.2819 148.668 19.2772 149.099 18.0777L149.882 15.8968H153.022H156.162L156.967 18.1258L157.771 20.3547H159.386H161L160.769 19.6955C160.543 19.0509 154.828 3.55368 154.656 3.11943C154.579 2.9268 154.378 2.89968 153.02 2.89968H151.47L151.269 3.43337ZM60.527 5.85548C62.7204 6.4256 64.4822 8.38885 64.8726 10.6978C65.3763 13.6785 63.4155 16.6155 60.3978 17.3998C57.3319 18.1967 54.0454 16.2376 53.2342 13.1297C52.4134 9.9848 54.3206 6.70325 57.459 5.86113C58.3585 5.61965 59.611 5.61739 60.527 5.85548ZM88.556 5.91162C91.3724 6.77972 93.1597 9.58095 92.7172 12.4335C92.1789 15.9046 88.7401 18.2547 85.4509 17.3998C82.876 16.7306 81.0832 14.6089 80.8913 12.0039C80.8195 11.0307 81.0635 9.7452 81.4714 8.94729C82.7796 6.3883 85.8433 5.07553 88.556 5.91162ZM118.672 10.497C119.207 11.9474 119.672 13.2048 119.705 13.2911C119.751 13.4129 119.282 13.4481 117.612 13.4481C116.428 13.4481 115.457 13.4056 115.455 13.3539C115.443 13.0667 117.541 7.575 117.614 7.70459C117.661 7.78998 118.138 9.04662 118.672 10.497ZM154.138 10.5041L155.197 13.3853L154.072 13.4214C153.453 13.4414 152.474 13.4414 151.895 13.4214L150.843 13.3853L151.922 10.4648C152.515 8.85838 153.018 7.56194 153.039 7.58353C153.061 7.60513 153.555 8.91941 154.138 10.5041Z" fill="#252525"/>
</svg>
