<svg width="174" height="26" viewBox="0 0 174 26" fill="none" xmlns="http://www.w3.org/2000/svg">
<path fill-rule="evenodd" clip-rule="evenodd" d="M103.537 0.176531C99.4739 0.649089 98.0139 1.8265 96.6832 5.70296C95.7956 8.2884 96.263 9.95501 98.09 10.7202C98.9415 11.0767 105.339 11.5102 109.906 11.5208C111.271 11.5239 112.598 11.639 112.854 11.7763C113.488 12.1164 113.446 13.1105 112.769 13.7895C112.303 14.2565 111.867 14.3667 109.949 14.5033C107.317 14.6905 101.846 14.4582 101.214 14.1325C100.976 14.0097 100.687 13.6617 100.572 13.3587C100.379 12.8499 100.177 12.7966 97.9054 12.6579C96.4541 12.5694 95.2671 12.6044 95.0076 12.7438C94.5378 12.9956 94.069 14.3489 94.0668 15.4585C94.0644 16.5891 94.6817 17.4624 95.8011 17.912C97.8816 18.7481 110.263 18.9705 114.042 18.2398C114.77 18.099 115.76 17.783 116.242 17.5376C118.264 16.5088 119.859 13.6129 119.91 10.8791C119.935 9.5541 119.863 9.30853 119.265 8.68232C118.188 7.55628 117.122 7.37826 110.292 7.18311C106.326 7.06974 103.822 6.90064 103.492 6.72382C102.789 6.34631 102.821 5.40795 103.557 4.82732C104.035 4.45077 104.671 4.34271 106.987 4.2438C108.55 4.17723 110.963 4.1876 112.347 4.26672C114.784 4.40591 114.869 4.42979 115.005 5.01355C115.144 5.60889 115.182 5.61757 117.928 5.68415C121.183 5.76351 121.304 5.69356 121.351 3.70636C121.392 1.98981 120.814 1.18002 119.146 0.616042C118.141 0.276641 116.73 0.178221 111.584 0.0877621C108.104 0.0264913 104.483 0.0665335 103.537 0.176531ZM129.88 0.208613C126.407 0.577203 124.488 1.92227 123.393 4.75327C123.107 5.49334 122.824 6.76338 122.764 7.57534C122.549 10.4654 123.515 10.985 129.68 11.2981C132 11.4159 134.996 11.5155 136.338 11.5193C138.307 11.5251 138.88 11.6091 139.305 11.9538C139.976 12.4985 139.771 13.5439 138.878 14.1301C138.347 14.4789 137.57 14.5313 133.289 14.5069C128.001 14.4767 127.43 14.3687 127.033 13.321C126.831 12.7894 126.673 12.7327 125.393 12.7327C124.614 12.7327 123.5 12.6673 122.918 12.5872C121.35 12.3718 120.784 12.9172 120.613 14.8079C120.447 16.6463 120.737 17.2168 122.158 17.8471C123.711 18.5356 131.073 18.902 136.605 18.5662C142.525 18.2068 144.026 17.4952 145.45 14.3716C146.629 11.7859 146.636 9.47256 145.469 8.46594C144.425 7.56617 143.281 7.39925 136.766 7.19783C132.83 7.07625 130.294 6.89943 129.967 6.72382C129.125 6.27201 129.3 5.10738 130.288 4.59454C130.796 4.3304 135.362 4.13863 138.879 4.23343C140.901 4.28795 140.982 4.31231 141.288 4.95324C141.604 5.61444 141.614 5.61685 144.418 5.68439C147.654 5.76255 147.757 5.6979 147.774 3.5896C147.793 1.11586 146.633 0.446943 141.847 0.169777C137.693 -0.0709639 132.35 -0.0535969 129.88 0.208613ZM48.9735 0.973052C48.2202 2.18785 42.2766 17.8522 42.4884 18.0645C42.6181 18.1945 46.6943 18.2603 52.3223 18.2234L61.9346 18.1602L62.3644 16.8335C62.601 16.1038 62.8176 15.1268 62.8458 14.6625L62.8973 13.8182L56.6194 13.6976L50.3415 13.577L52.6776 7.30517C53.9623 3.85567 54.9616 0.89779 54.8983 0.731829C54.8155 0.514969 54.0138 0.430299 52.0465 0.430299C49.4688 0.430299 49.2905 0.461899 48.9735 0.973052ZM78.8298 0.697815C78.2789 1.01912 63.2583 17.7212 63.2583 18.0124C63.2583 18.1318 63.4297 18.2951 63.6391 18.3756C64.23 18.6029 68.4537 18.5481 69.0922 18.3047C69.4058 18.1853 70.3541 17.3695 71.1998 16.4917L72.737 14.8958L78.8876 14.9602L85.0382 15.0243L85.541 16.4459C86.2567 18.4695 86.4563 18.5679 89.6535 18.4774C91.1322 18.4357 92.4242 18.3187 92.5245 18.2176C92.7322 18.0087 92.68 17.8295 89.5863 8.16634C88.3362 4.2619 87.1949 0.924086 87.0498 0.748716C86.7196 0.349973 79.5033 0.305103 78.8298 0.697815ZM160.322 0.586854C160.062 0.692751 146.115 16.0888 144.993 17.5082C144.612 17.9904 144.592 18.1228 144.873 18.3009C145.345 18.6002 149.679 18.5754 150.557 18.2683C150.957 18.1289 151.901 17.3147 152.655 16.4591L154.026 14.9037H160.259H166.492L166.951 16.4114C167.538 18.3421 167.867 18.5139 170.977 18.5184C174.261 18.5233 174.373 18.4265 173.614 16.2304C173.293 15.3017 172.084 11.5567 170.928 7.90823C169.771 4.25972 168.666 1.08474 168.472 0.85244C168.163 0.481921 167.661 0.43271 164.367 0.449355C162.302 0.459727 160.482 0.521723 160.322 0.586854ZM41.3134 1.00803C40.6939 1.1752 39.34 1.86799 38.3049 2.54776C37.2695 3.22753 35.7727 4.08749 34.9784 4.45898C33.6817 5.06517 33.2889 5.13151 31.1276 5.10859C29.0349 5.0864 28.0767 4.91344 23.7868 3.78307C19.0363 2.53112 18.7364 2.48287 15.7241 2.48166C12.9818 2.48094 12.4494 2.548 11.4154 3.02611C10.0765 3.64509 8.04421 5.27552 4.89347 8.25873L2.72735 10.3096L3.81041 9.90363C4.64244 9.59197 5.70216 9.49789 8.38333 9.49789C11.5093 9.49813 12.187 9.57798 14.8817 10.2628C17.4868 10.925 21.2007 11.7678 21.5139 11.7678C21.8149 11.7678 20.7331 10.8015 20.4241 10.7945C20.2216 10.7896 19.7956 10.6411 19.477 10.4642C18.9001 10.1436 18.903 10.1391 20.2804 9.25595C21.0407 8.76843 22.6552 7.87832 23.8679 7.27791C25.0805 6.67751 26.1609 6.02862 26.2685 5.83612C26.3758 5.64338 26.5927 5.55823 26.7498 5.647C26.9467 5.75772 26.9607 5.72516 26.7944 5.54255C26.5178 5.23885 21.1574 3.80743 20.2963 3.80743C19.9752 3.80743 18.3357 4.75496 16.54 5.97844L13.3536 8.14945H10.4255C8.54868 8.14945 7.07692 8.2761 6.32696 8.50236C5.68314 8.69655 5.11971 8.81837 5.07446 8.77326C5.02945 8.72791 5.99915 7.75095 7.22951 6.60176C8.76505 5.16769 10.0284 4.23198 11.259 3.61735C13.0188 2.73833 13.1023 2.72192 15.8319 2.72675C18.4909 2.73109 18.8503 2.79694 24.0627 4.2344C27.0606 5.06083 29.6869 5.73722 29.8991 5.73722C30.1114 5.73722 30.2813 5.92706 30.2768 6.15936C30.2501 7.47403 27.6772 10.0423 25.1106 11.3162L23.1851 12.272L24.8699 12.1767C26.7337 12.0713 27.3174 11.8247 30.5986 9.75649C31.7637 9.02196 33.28 8.22906 33.9681 7.99435C35.7272 7.39442 39.1733 7.44653 41.917 8.11448C43.0857 8.39912 44.08 8.6319 44.1264 8.6319C44.3296 8.6319 47.1316 1.10597 47.0047 0.900445C46.8014 0.570693 42.6424 0.649331 41.3134 1.00803ZM46.7499 1.11851C46.8197 1.23164 46.7097 1.53004 46.5056 1.78187C46.3015 2.03347 46.2059 2.09908 46.2933 1.92733C46.3807 1.75582 46.3212 1.45719 46.1614 1.26397C45.9277 0.981976 45.9445 0.912746 46.2468 0.912746C46.4536 0.912746 46.6801 1.00538 46.7499 1.11851ZM82.9339 8.02884L83.8742 11.1647L81.8699 11.2345C80.7673 11.2728 78.941 11.2728 77.8113 11.2345L75.7576 11.1647L78.6936 7.83948C80.3083 6.01052 81.7115 4.59937 81.8116 4.70357C81.9117 4.80778 82.4167 6.30409 82.9339 8.02884ZM164.298 7.83659C164.843 9.65445 165.254 11.1768 165.212 11.2197C165.169 11.2624 163.345 11.2675 161.158 11.2311L157.183 11.1647L160.101 7.85275C161.707 6.03103 163.084 4.53834 163.163 4.53593C163.242 4.53327 163.752 6.01849 164.298 7.83659ZM33.8302 9.01931C33.1986 9.21397 31.606 10.0797 30.291 10.9433C27.0558 13.0678 26.2581 13.3157 23.2147 13.1433C21.4236 13.0415 19.4717 12.6753 15.8444 11.7596C11.3793 10.6326 10.6359 10.5108 8.02231 10.4777C4.23016 10.4297 3.57816 10.7573 1.61782 13.6976C0.865934 14.8253 0.174943 16.0015 0.0822811 16.3115C-0.0693472 16.8193 -0.0378181 16.8489 0.402385 16.613C1.09386 16.242 3.42075 16.2946 5.23018 16.7221C6.07737 16.9223 7.85696 17.631 9.18479 18.2972C15.3496 21.3905 18.3395 21.3352 24.7382 18.0097C26.2545 17.2219 28.0892 16.4041 28.8156 16.1923C30.6558 15.6563 33.7714 15.8744 37.2649 16.7843C38.7872 17.1806 40.1839 17.5439 40.3685 17.5914C40.7059 17.6783 40.8984 17.2704 42.6614 12.7327C43.0995 11.605 43.5341 10.5033 43.627 10.2843C43.835 9.79508 43.0528 9.50489 40.141 8.99133C37.6185 8.54627 35.3322 8.5564 33.8302 9.01931ZM43.2783 10.0189C43.2761 10.1183 43.1912 10.3313 43.0894 10.4917C42.9558 10.7023 42.8222 10.6519 42.6097 10.3108C42.3538 9.90026 42.3786 9.83802 42.7986 9.83802C43.0643 9.83802 43.2802 9.91955 43.2783 10.0189ZM16.0211 12.1364C18.5672 12.787 20.5709 13.3937 20.4736 13.4844C19.8245 14.091 14.1596 15.4679 14.1596 15.0193C14.1596 14.71 15.4533 12.9739 15.6839 12.9739C15.86 12.9739 15.8572 12.8902 15.6742 12.7069C15.274 12.3057 11.8958 11.5613 9.63414 11.3761L7.63602 11.2123L6.74598 12.0812C6.25668 12.559 5.31466 13.186 4.65279 13.4742C3.99092 13.7625 3.28669 14.1402 3.08789 14.3137C2.88909 14.4871 2.43444 14.7402 2.07752 14.8762L1.42888 15.1235L2.16127 13.8677C3.81354 11.0359 4.37384 10.7662 8.38333 10.8734C11.044 10.9443 11.9269 11.0902 16.0211 12.1364ZM21.8614 11.7905C21.8614 11.9106 22.078 12.009 22.3428 12.009C22.6075 12.009 22.8241 11.9673 22.8241 11.9166C22.8241 11.8657 22.6075 11.7673 22.3428 11.6979C22.078 11.6286 21.8614 11.6701 21.8614 11.7905ZM150.757 20.0049C150.695 20.1843 150.207 21.4993 149.672 22.9266C149.137 24.3541 148.7 25.5754 148.7 25.6403C148.7 25.7055 149.172 25.7588 149.75 25.7588C150.773 25.7588 150.811 25.7306 151.214 24.6733C151.53 23.8454 151.751 23.5887 152.149 23.5914C152.843 23.5965 153.077 23.7832 153.726 24.8542C154.241 25.7038 154.347 25.7588 155.467 25.7588C156.77 25.7588 156.782 25.6864 155.705 24.3179L155.235 23.7214L155.921 23.4327C157.114 22.9299 157.874 21.1545 157.258 20.31C156.964 19.9072 156.539 19.8379 153.896 19.7636C151.511 19.6966 150.846 19.7477 150.757 20.0049ZM159.077 20.2709C158.966 20.5696 158.482 21.8746 158 23.1712C157.518 24.468 157.123 25.5805 157.123 25.6437C157.123 25.7072 158.69 25.7588 160.605 25.7588C163.883 25.7588 164.102 25.7296 164.354 25.2575C164.883 24.2661 164.522 24.0702 162.165 24.0702C160.518 24.0702 159.996 23.9952 160.071 23.7687C160.136 23.5711 160.807 23.4428 162.016 23.3967C163.032 23.3579 163.862 23.2312 163.862 23.115C163.862 22.9987 163.928 22.7319 164.009 22.522C164.133 22.1961 163.905 22.1404 162.444 22.1404C161.084 22.1404 160.734 22.0664 160.734 21.7786C160.734 21.4824 161.147 21.4168 163.012 21.4168C165.018 21.4168 165.319 21.361 165.539 20.9502C166.16 19.7873 166.014 19.7282 162.533 19.7282C159.377 19.7282 159.272 19.7448 159.077 20.2709ZM166.996 20.0379C166.264 20.4089 165.796 21.2867 165.792 22.2955C165.787 23.2353 165.941 23.2966 168.805 23.4985C170.48 23.6165 171.083 23.7453 171.083 23.9853C171.083 24.2321 170.615 24.3114 169.157 24.3114C168.034 24.3114 167.232 24.2108 167.232 24.0702C167.232 23.9375 166.745 23.829 166.149 23.829C165.109 23.829 165.066 23.8575 165.066 24.5442C165.066 25.5795 165.616 25.7588 168.793 25.7588C172.177 25.7588 172.849 25.5026 173.285 24.0463C173.754 22.4752 173.507 22.297 170.509 22.0439C168.83 21.9021 167.968 21.7347 168.025 21.5615C168.145 21.197 171.068 21.0863 171.695 21.4223C171.974 21.5721 172.574 21.6594 173.027 21.616C174.062 21.5171 174.291 20.7037 173.45 20.1134C172.753 19.6245 167.923 19.568 166.996 20.0379ZM132.961 20.351C132.606 21.2783 132.774 21.4168 134.259 21.4168C135.053 21.4168 135.703 21.5222 135.703 21.651C135.703 21.7798 135.388 22.749 135.004 23.8049C134.619 24.8607 134.367 25.7865 134.442 25.8623C134.518 25.938 134.978 26 135.464 26C136.341 26 136.355 25.9831 137.019 24.2511C138.075 21.4937 138.147 21.4168 139.686 21.4168C140.886 21.4168 141.032 21.3586 141.245 20.798C141.374 20.4576 141.479 20.132 141.479 20.0743C141.479 20.0167 139.595 19.9694 137.293 19.9694C133.698 19.9694 133.086 20.0232 132.961 20.351ZM141.961 20.1981C141.961 20.324 142.233 21.2904 142.565 22.3455C143.04 23.8526 143.118 24.4019 142.926 24.9065C142.546 25.9098 142.613 26 143.74 26C144.717 26 144.822 25.9378 145.124 25.1837C145.322 24.6875 146.39 23.5289 147.846 22.2287L150.242 20.09L149.102 20.0162C148.018 19.946 147.885 20.0097 146.4 21.3171C145.54 22.0731 144.8 22.6492 144.755 22.5971C144.71 22.545 144.487 21.9322 144.26 21.2358C143.855 19.9938 143.829 19.9694 142.904 19.9694C142.385 19.9694 141.961 20.0724 141.961 20.1981ZM155.162 21.5487C155.208 21.5912 155.175 21.7417 155.088 21.883C154.846 22.275 152.31 22.2164 152.31 21.8189C152.31 21.2489 152.636 21.1422 153.869 21.3084C154.534 21.3979 155.116 21.506 155.162 21.5487Z" fill="#252525"/>
</svg>
