<svg width="188" height="23" viewBox="0 0 188 23" fill="none" xmlns="http://www.w3.org/2000/svg">
<path fill-rule="evenodd" clip-rule="evenodd" d="M6.94846 0.481251C6.49426 0.666091 5.4918 2.99481 4.72181 5.6561C3.95182 8.31739 3.14756 11.0954 2.93524 11.8293C2.67791 12.7171 3.80198 12.0135 6.29202 9.72865C8.35071 7.83977 11.8996 4.88638 14.1794 3.16616L18.323 0.0387157L13.0493 0.0920081C10.1487 0.121016 7.40333 0.296411 6.94846 0.481251ZM19.2085 0.881964C19.0526 1.34609 17.9796 5.06447 16.8246 9.14579C14.4582 17.5047 13.3792 19.6021 11.4428 19.6021C9.97736 19.6021 10.0472 18.6536 11.9091 13.277C13.6452 8.26409 12.8551 8.45906 6.72203 14.5568C-2.44663 23.6713 -2.5286 23.2395 8.2862 22.8253C15.3471 22.5548 17.7989 22.2101 19.3913 21.2656C23.1713 19.0239 24.1348 13.9348 21.2148 11.6283L19.5364 10.3034L21.2027 9.88313C22.9704 9.43789 24.9089 6.42311 24.9089 4.12004C24.9089 1.31978 19.998 -1.46969 19.2085 0.881964ZM28.2703 5.5205C27.8484 7.14359 26.7687 11.2033 25.871 14.5426C23.6417 22.8307 23.6699 23.1046 26.7115 22.8469L29.1861 22.6378L31.306 14.5426C33.1765 7.39858 33.6052 6.42109 34.9557 6.22141C38.5436 5.69253 38.5093 10.1732 34.916 11.4307C33.6556 11.8718 32.9534 12.51 33.1537 13.0335C33.3364 13.5111 33.8585 15.7164 34.3147 17.9331C34.7709 20.1498 35.4865 22.1865 35.9057 22.459C36.7859 23.0317 41.0343 23.1552 41.0343 22.6081C41.0343 22.4057 40.5559 20.3286 39.9714 17.9925L38.9091 13.7445L40.9792 11.6661C42.3882 10.2515 43.05 8.92857 43.05 7.52676C43.05 4.49579 40.7044 3.24778 34.3073 2.8754L29.037 2.56913L28.2703 5.5205ZM47.416 3.58036C47.254 4.04448 46.0715 8.46243 44.7889 13.3985C42.276 23.0675 42.3102 23.307 46.1434 22.857C47.9373 22.6459 48.0993 22.2903 50.5282 13.2345C51.9156 8.06306 52.8993 3.58508 52.7138 3.28421C52.1736 2.40656 47.7398 2.65413 47.416 3.58036ZM56.545 4.16051C55.738 6.09796 51.7846 21.2184 51.7846 22.3679C51.7846 23.5775 63.6415 22.6115 65.7412 21.2306C68.0539 19.7087 70.0749 14.6269 70.4478 9.39472C70.7428 5.25539 70.6487 4.83579 69.2539 4.08631C68.4207 3.63837 65.3717 3.10949 62.4778 2.91048C57.409 2.56171 57.192 2.60759 56.545 4.16051ZM77.1526 3.79555C74.932 5.00511 73.0601 8.51167 71.9562 13.5307C70.3168 20.9816 71.7647 23.0047 78.6604 22.8982C84.958 22.8003 85.431 22.4907 86.803 17.5634C87.4723 15.1598 88.0306 13.1003 88.0434 12.9863C88.0561 12.8716 86.795 12.8716 85.2402 12.9863C82.4949 13.1873 82.3921 13.2811 81.6805 16.2291C81.0174 18.9754 80.7587 19.2648 78.9641 19.2648C77.244 19.2648 76.9591 18.9963 76.8207 17.241C76.7327 16.1279 77.3374 13.244 78.1645 10.8323C79.5654 6.74625 79.8174 6.43324 81.8519 6.23625C83.6781 6.05951 84.0355 6.25244 84.0355 7.4168C84.0355 8.59465 84.4555 8.8085 86.7654 8.8085C89.4375 8.8085 89.4913 8.76195 89.285 6.63157C89.1379 5.109 88.5695 4.19896 87.395 3.60599C85.1213 2.45715 79.4156 2.56239 77.1526 3.79555ZM94.7919 3.60734C93.4494 4.28869 92.7459 5.72491 91.2422 10.8492C89.3287 17.3712 88.7986 21.2359 89.6935 22.1345C89.969 22.4118 92.5995 22.6378 95.5383 22.6378C99.5569 22.6378 101.04 22.3868 101.519 21.6259C102.624 19.8706 102.263 19.6021 98.7963 19.6021C95.0042 19.6021 94.2711 18.7979 95.2783 15.7454C95.8326 14.0663 96.2828 13.8322 99.5354 13.5307C102.302 13.2743 103.226 12.9107 103.396 12.0128C103.584 11.0144 103.094 10.8323 100.21 10.8323C96.6161 10.8323 96.4091 10.6076 97.4566 7.84045C98.0512 6.27133 98.4577 6.1101 101.824 6.1101C105.336 6.1101 105.536 6.01903 105.536 4.42361C105.536 2.7904 105.393 2.73711 101.001 2.74723C98.5061 2.75262 95.7124 3.13985 94.7919 3.60734ZM109.021 4.42158C104.935 7.87283 105.815 11.7234 111.24 14.1324C113.263 15.031 114.271 15.8952 114.271 16.731C114.271 18.4283 112.98 19.6021 111.113 19.6021C109.912 19.6021 109.567 19.2256 109.567 17.9156C109.567 16.3937 109.301 16.2291 106.84 16.2291H104.111L104.32 18.7433C104.593 22.0421 106.558 23.114 111.742 22.7922C116.11 22.5211 118.61 20.7792 119.325 17.5088C120.008 14.3861 119.133 13.0295 115.244 11.1824C112.756 10.0005 111.583 9.04393 111.583 8.19663C111.583 5.27158 115.766 4.48702 116.17 7.33652C116.354 8.63512 116.735 8.85234 118.522 8.67897C120.265 8.50897 120.691 8.14469 120.86 6.68149C121.152 4.15107 118.875 2.73711 114.509 2.73711C111.763 2.73711 110.587 3.09802 109.021 4.42158ZM122.741 3.80432C122 5.74582 122.31 6.1101 124.709 6.1101C126.76 6.1101 126.999 6.27133 126.462 7.29065C125.403 9.3023 122.311 21.7176 122.708 22.3639C122.915 22.6998 124.117 22.9751 125.378 22.9751C127.916 22.9751 127.5 23.8635 130.912 11.1696C132.086 6.80426 132.33 6.42986 134.145 6.21939C136.415 5.95494 137.787 4.99364 137.787 3.66671C137.787 2.19541 123.306 2.3283 122.741 3.80432ZM141.818 3.21338C138.628 4.38448 135.745 9.76036 134.755 16.3842C134.334 19.2074 134.467 19.7033 136.082 21.3243C137.729 22.9784 138.23 23.1039 142.177 22.8516C145.539 22.6364 146.848 22.2276 148.173 20.9783C150.103 19.1575 152.223 13.9476 152.913 9.32794C153.331 6.53038 153.195 6.00284 151.662 4.46341C150.23 3.02651 149.346 2.74588 146.384 2.7904C144.427 2.81941 142.373 3.01032 141.818 3.21338ZM156.587 5.60415C156.181 7.18069 155.111 11.2445 154.209 14.6337C151.994 22.9542 152.01 23.1032 155.07 22.8469L157.572 22.6378L159.665 14.5426C161.641 6.89736 161.857 6.43526 163.549 6.23355C166.178 5.91986 166.308 7.20565 164.371 14.3011C162.042 22.8361 162.065 23.1059 165.12 22.8469L167.592 22.6378L169.574 15.1059C170.768 10.5678 171.386 6.89331 171.128 5.8605C170.6 3.74968 167.502 2.74655 161.497 2.74116L157.324 2.73711L156.587 5.60415ZM177.595 3.21338C176.763 3.37461 175.802 4.03166 175.459 4.67388C174.446 6.5749 171.382 18.0323 171.382 19.9198C171.382 22.0961 173.424 22.9751 178.48 22.9751C181.371 22.9751 182.447 22.6587 183.644 21.4572L185.156 19.9394L181.46 19.7323C179.428 19.6183 177.544 19.3052 177.274 19.0374C177.004 18.7689 177.094 17.4204 177.474 16.0402C178.16 13.5442 178.183 13.5307 181.749 13.5307C184.77 13.5307 185.39 13.3182 185.686 12.1815C186.005 10.9551 185.707 10.8323 182.405 10.8323C180.407 10.8323 178.773 10.7257 178.773 10.5955C178.773 10.4653 179.104 9.40282 179.51 8.23441C180.214 6.20522 180.411 6.1101 183.878 6.1101C185.874 6.1101 187.507 5.83149 187.507 5.49082C187.507 5.15015 187.691 4.39123 187.915 3.80432C188.264 2.89024 187.662 2.7506 183.716 2.82886C181.182 2.87945 178.428 3.05282 177.595 3.21338ZM65.027 9.83861C64.5237 14.7342 62.6962 18.4114 60.3647 19.2182C59.3555 19.5677 58.3551 19.6776 58.1407 19.4631C57.9271 19.2479 58.2072 17.4461 58.7636 15.458C59.3199 13.4706 60.1054 10.5537 60.5085 8.97715C61.1743 6.37859 61.4384 6.1101 63.3264 6.1101H65.4106L65.027 9.83861ZM147.595 7.05117C148.021 8.16358 146.916 12.8305 145.38 16.4119C144.303 18.9241 142.052 20.2429 140.492 19.2756C139.353 18.5693 141.501 9.20246 143.317 6.95335C144.237 5.81463 147.149 5.88141 147.595 7.05117Z" fill="#252525"/>
</svg>
