<svg width="159" height="35" viewBox="0 0 159 35" fill="none" xmlns="http://www.w3.org/2000/svg">
<path fill-rule="evenodd" clip-rule="evenodd" d="M13.0764 0.643382C12.12 1.91419 0 29.1565 0 30.0352C0 31.5715 1.41056 33.7421 2.82733 34.3849C3.59358 34.7329 6.46172 35 9.42907 35H14.6755L24.518 29.2585C29.9308 26.1007 34.7536 23.1479 35.2352 22.696C35.7167 22.2446 38.2387 17.1268 40.8397 11.3235C43.4402 5.52022 45.6759 0.598088 45.8071 0.386029C45.9389 0.173971 42.8295 0 38.8975 0H31.748L30.3411 3.21691C29.5676 4.98647 28.9346 6.60779 28.9346 6.81985C28.9346 7.03191 30.2718 7.23625 31.9056 7.27383C34.2896 7.32787 34.5376 7.40405 33.1606 7.65985C31.6064 7.94809 31.2882 8.34029 29.7763 11.8326L28.1069 15.6877L20.4392 20.2094C16.2215 22.697 12.7209 24.6678 12.6594 24.5901C12.5979 24.5124 14.6208 19.932 17.1541 14.4118C19.688 8.89154 22.1991 3.39088 22.7349 2.1875L23.7099 0H18.6349C15.1783 0 13.406 0.204853 13.0764 0.643382ZM60.0414 3.60552L58.4423 7.21154L104.698 7.07978L150.955 6.94853L152.442 3.47426L153.93 0H107.785H61.6401L60.0414 3.60552ZM72.5495 1.89618C71.948 2.01456 71.0945 2.89471 70.6201 3.885C69.4638 6.30103 68.0331 6.31596 68.4867 3.90713C68.757 2.4711 68.6443 2.10875 67.8641 1.90802C67.3402 1.77368 68.4227 1.66816 70.2698 1.67382C72.117 1.67948 73.1426 1.77986 72.5495 1.89618ZM87.4715 2.1875C87.6606 2.70221 87.845 2.70221 88.3927 2.1875C88.7694 1.8339 89.67 1.55647 90.3949 1.57088L91.7125 1.59816L90.4398 2.47162C89.7397 2.95235 88.71 3.86647 88.1509 4.50368C87.5919 5.14088 86.852 5.66177 86.5068 5.66177C86.1622 5.66177 85.893 5.14088 85.9085 4.50368C85.9245 3.86647 85.7586 2.94051 85.5401 2.44485C85.2357 1.7536 85.3861 1.54412 86.189 1.54412C86.7641 1.54412 87.3413 1.8339 87.4715 2.1875ZM110.355 2.12677C110.554 2.44691 110.357 2.90963 109.917 3.15463C109.435 3.42331 109.225 4.01007 109.388 4.63132C109.736 5.95566 108.145 6.04779 107.141 4.76103C106.472 3.90301 106.405 3.90301 105.735 4.76103C105.112 5.55934 103.338 6.04831 103.338 5.42191C103.338 5.29015 103.73 4.36367 104.209 3.36309C105.025 1.65735 105.233 1.54412 107.537 1.54412C108.888 1.54412 110.157 1.8061 110.355 2.12677ZM128.372 2.10051C128.181 2.40676 127.484 2.52154 126.823 2.35581C126.161 2.19059 125.475 2.28735 125.298 2.57147C125.115 2.86691 125.557 3.08824 126.331 3.08824C127.075 3.08824 127.553 3.29824 127.394 3.55456C127.235 3.81089 126.666 3.90662 126.13 3.76713C125.594 3.62765 124.999 3.76507 124.809 4.07287C124.593 4.42029 124.963 4.63235 125.784 4.63235C126.511 4.63235 127.106 4.86397 127.106 5.14706C127.106 5.43015 125.943 5.66177 124.522 5.66177C123.101 5.66177 121.939 5.57426 121.939 5.4672C121.939 5.36014 122.291 4.43367 122.721 3.40838C123.473 1.61514 123.602 1.54412 126.11 1.54412C127.847 1.54412 128.602 1.72992 128.372 2.10051ZM146.469 2.07993C146.286 2.37434 145.71 2.48088 145.19 2.31618C144.67 2.15147 144.094 2.25801 143.911 2.55243C143.723 2.85559 144.028 3.08824 144.612 3.08824C145.976 3.08824 146.398 3.84743 145.463 4.62052C144.405 5.495 140.755 5.91037 140.318 5.20573C140.081 4.82382 140.619 4.62567 141.93 4.61177L143.898 4.59118L142.443 3.80522C141.263 3.16802 141.103 2.87978 141.602 2.28169C142.32 1.41956 146.999 1.225 146.469 2.07993ZM106.696 2.57353C106.521 2.85662 106.74 3.08824 107.183 3.08824C107.625 3.08824 107.988 2.85662 107.988 2.57353C107.988 2.29044 107.77 2.05882 107.502 2.05882C107.234 2.05882 106.872 2.29044 106.696 2.57353ZM44.8849 14.7978C39.1119 27.5419 37.2017 31.8531 37.2017 32.1388C37.2017 32.3174 39.4617 32.3977 42.2234 32.3163L47.2451 32.1691L51.7821 22.1468C54.2778 16.6343 56.3192 11.9438 56.3192 11.724C56.3192 11.5037 54.1005 11.3235 51.3889 11.3235H46.4587L44.8849 14.7978ZM64.8229 12.2912C63.6743 12.811 62.3614 13.8029 61.9057 14.4962C60.5612 16.5401 56.3192 27.2207 56.3192 28.5621C56.3192 29.2404 56.8808 30.4454 57.567 31.2396C58.7724 32.6349 58.9776 32.6828 63.6381 32.655C66.8302 32.636 69.0845 32.3539 70.3034 31.8201C71.8757 31.1325 72.2875 31.1181 73.1147 31.7203C73.8319 32.2427 76.0593 32.4265 81.6804 32.4265H89.2768L90.0518 30.4963L90.8263 28.5662L87.4978 28.4133C85.2513 28.3104 84.0804 28.0288 83.8949 27.5476C83.7436 27.1554 84.8286 24.0975 86.3053 20.7519C87.782 17.4063 89.3155 13.9166 89.7124 12.9963L90.4347 11.3235H85.0999H79.7651L76.4867 18.83C72.8946 27.0545 72.4978 27.4688 68.4914 27.1754C66.5202 27.0313 66.3993 26.9294 66.4722 25.4779C66.5145 24.6287 67.2922 22.3701 68.2 20.4596L69.8508 16.9853H73.0899H76.3296L77.3041 14.543C77.8399 13.1996 78.356 11.9257 78.4506 11.7121C78.5457 11.4985 75.988 11.3287 72.767 11.3349C68.2067 11.3436 66.4494 11.5552 64.8229 12.2912ZM100.309 12.2243C98.1974 16.1654 93.0042 28.734 93.0042 29.9013C93.0042 30.8175 93.3762 31.5592 94.0035 31.8937C94.5594 32.1902 98.2997 32.4265 102.433 32.4265H109.864L110.734 30.6075C111.213 29.6069 111.605 28.6804 111.605 28.5487C111.605 28.4169 110.086 28.3088 108.231 28.3088C105.933 28.3088 104.773 28.0947 104.597 27.6377C104.455 27.2686 104.924 25.6473 105.64 24.0347L106.942 21.1029H111.013H115.084L116.187 18.461C116.793 17.0074 117.289 15.6177 117.289 15.3727C117.289 15.1272 114.905 14.8894 111.993 14.8441C109.08 14.7988 107.464 14.6676 108.402 14.5523C109.64 14.3999 110.241 13.9907 110.597 13.0571C110.868 12.3499 111.088 11.6704 111.088 11.5474C111.088 11.4244 108.772 11.3235 105.94 11.3235C101.564 11.3235 100.718 11.4589 100.309 12.2243ZM120.199 20.5296C116.876 28.0962 116.254 29.9188 116.708 30.7635C117.533 32.2978 118.274 32.4265 126.277 32.4265H133.632L134.502 30.6075C134.981 29.6069 135.373 28.6804 135.373 28.5487C135.373 28.4169 133.854 28.3088 131.998 28.3088C127.853 28.3088 127.569 27.8404 129.355 23.9544L130.665 21.1029H134.558H138.452L139.429 19.1728C141.67 14.7489 141.84 14.9373 135.537 14.84C132.463 14.7921 130.788 14.6645 131.814 14.5559C133.197 14.4092 133.834 14.0247 134.269 13.074C134.592 12.3679 134.856 11.6849 134.856 11.5567C134.856 11.4285 132.468 11.3235 129.549 11.3235H124.242L120.199 20.5296ZM145.559 18.9154C143.681 23.0913 141.553 27.8389 140.832 29.4669L139.519 32.4265H144.605H149.692L154.241 22.261C156.743 16.6698 158.883 11.9216 158.996 11.7096C159.109 11.4975 156.9 11.3235 154.088 11.3235H148.974L145.559 18.9154Z" fill="#252525"/>
</svg>
