<svg width="141" height="30" viewBox="0 0 141 30" fill="none" xmlns="http://www.w3.org/2000/svg">
<path fill-rule="evenodd" clip-rule="evenodd" d="M0 15V30H7.83034H15.6607V20.5869V11.1738H75.855C130.582 11.1738 136.097 11.1641 136.574 11.0663C138.474 10.677 139.969 9.48135 140.606 7.84253C141.213 6.28009 141.115 4.45964 140.337 2.8781C139.62 1.42036 138.527 0.498691 137.079 0.130361C136.575 0.00209953 135.46 0 68.2833 0H0V15ZM117.495 4.18849L119.066 4.23251L119.317 4.42266C120.086 5.00661 120.047 6.13815 119.237 6.7519L118.943 6.97517H67.3016H15.6607V5.58711V4.19905L26.3338 4.18172C50.3604 4.14264 116.033 4.14752 117.495 4.18849ZM21.0398 21.8736V30H25.4997H29.9596V21.8736V13.7472H25.4997H21.0398V21.8736ZM35.3387 21.8736V30H39.8326H44.3265V27.4944V24.9887H45.4332H46.5399L47.928 27.4944L49.316 30H54.6915H60.0669L59.8064 29.6445C59.6631 29.4489 58.7696 28.2376 57.8208 26.9526C56.3355 24.9408 56.1118 24.6068 56.2107 24.5485C56.725 24.2451 57.3149 23.7703 57.5984 23.4315C58.5915 22.2447 59.0478 20.9196 59.0445 19.2325C59.0389 16.4695 57.4585 14.3829 54.987 13.8756C54.4013 13.7554 53.8834 13.7489 44.8542 13.7481L35.3387 13.7472V21.8736ZM64.0045 21.8736V30H73.8095H83.6144V27.9684V25.9368H78.4056H73.1967V24.8194V23.702H77.8608H82.525V21.7043V19.7065H77.8949H73.2648V18.7923V17.8781H78.0651H82.8654V15.8126V13.7472H73.435H64.0045V21.8736ZM88.3807 21.8736V30H97.2324H106.084V27.9345V25.8691H101.863H97.641V19.8081V13.7472H93.0108H88.3807V21.8736ZM108.399 21.8736V30H117.217H126.034V27.9345V25.8691H121.813H117.591V19.8081V13.7472H112.995H108.399V21.8736ZM128.758 21.8736V30H133.218H137.678V21.8736V13.7472H133.218H128.758V21.8736ZM48.1736 17.8738C48.9763 17.952 49.5119 18.1559 49.8823 18.5243C50.4437 19.0827 50.4289 19.6937 49.84 20.2611C49.5928 20.4993 49.3944 20.6163 49.0463 20.729C48.6174 20.8679 48.4203 20.8816 46.4544 20.9095L44.3265 20.9397V19.3751V17.8104L45.9437 17.8122C46.8331 17.8132 47.8366 17.8409 48.1736 17.8738Z" fill="#252525"/>
</svg>
